<svg xmlns="http://www.w3.org/2000/svg"  xmlns:xlink="http://www.w3.org/1999/xlink" width="1601.423" height="217.145" viewBox="0 0 1601.423 217.145">
  <defs>
    <clipPath id="clip-path">
      <path id="Path_2479" data-name="Path 2479" d="M12.9,216.107H1587.524a12.9,12.9,0,0,0,12.9-12.9V12.9a12.9,12.9,0,0,0-12.9-12.9H12.9A12.9,12.9,0,0,0,0,12.9v190.3A12.9,12.9,0,0,0,12.9,216.107Z" fill="none"/>
    </clipPath>
  </defs>
  <g id="Group_603" data-name="Group 603" transform="translate(-249.5 -161.462)">
    <g id="Group_602" data-name="Group 602">
      <g id="Group_402" data-name="Group 402" transform="translate(250 162)">
        <g id="Group_408" data-name="Group 408" transform="translate(0)">
          <path id="Path_2470" data-name="Path 2470" d="M51.941,206.225V23.907A16.894,16.894,0,0,1,68.835,7.013H1635.47a16.894,16.894,0,0,1,16.894,16.894V206.225a16.9,16.9,0,0,1-16.894,16.9H68.835a16.9,16.9,0,0,1-16.894-16.9" transform="translate(-51.941 -7.013)" fill="#fff" stroke="#d8d8d8" stroke-width="1"/>
        </g>
      </g>
    </g>
    <path id="Path_2480" data-name="Path 2480" d="M333.179,138.743a3.492,3.492,0,1,0-3.492-3.492,3.492,3.492,0,0,0,3.492,3.492" transform="translate(1264.023 76.008)" fill="#ffa400"/>
    <path id="Path_2481" data-name="Path 2481" d="M318.69,160.315a6.111,6.111,0,1,0-6.111-6.111,6.111,6.111,0,0,0,6.111,6.111" transform="translate(1258.729 33.047)" fill="#ffa400"/>
    <path id="Path_2482" data-name="Path 2482" d="M294.417,150.1a2.837,2.837,0,1,0-2.838-2.838,2.838,2.838,0,0,0,2.838,2.838" transform="translate(1252.229 48.063)" fill="#ffa400"/>
    <g id="Group_415" data-name="Group 415">
      <g id="Group_412" data-name="Group 412" transform="translate(-2908 -1123)" opacity="0.06">
        <path id="Path_2484" data-name="Path 2484" d="M0,173.671c3.8,2.376,6.168,6.289,9.7,8.984,3.865,2.953,8.456,3.907,12.36,1.671,8.947-5.123,16.461-12.3,24.486-19.369q-6.818-.887-13.637-1.776Q16.452,161.02,0,158.85v-.741c15.39,1.952,30.782,3.882,46.167,5.879,2.159.28,4.006.015,4.987-2.088.471-1.008.855-1.761,2.087-1.565a1.267,1.267,0,0,1,1.174,1.219c-.029,1.2-.86,1.538-1.983,1.693-2.612.36-3.152,2.409-3.419,4.577q-1.966,15.95-3.917,31.9a31.884,31.884,0,0,0-.462,3.661c-.014,2.644-1.309,2.808-3.572,2.46-6.084-.938-12.21-1.6-18.323-2.341-.77-.093-2.357-.35-1.873.761,1.226,2.814-.859,3.949-2.107,5.631-.586.791-1.607,1.966.443,2.419.465.1,1.084.3.47.862-2.279,2.085-1.273,5.007-1.986,7.485-.134.466.078,1.149-.189,1.442-2.844,3.129-6.05.274-9.086.478-1.965.131-2.531-.846-2.321-2.723.306-2.741,1.552-5.479.221-8.269,3.922-2.407-.27-4.655-.088-6.969.06-.769.763-1.488,1.344-2.543A15.184,15.184,0,0,0,0,201.089v-1.482c6.371,2.386,10.857.4,13.636-5.773.494-1.1,1.414-2,1.624-3.79,1.379,3.653,2.647,6.709,3.671,9.843a3.587,3.587,0,0,0,3.447,2.737c5.879.664,11.754,1.385,17.613,2.206,2.543.357,3.666-.147,3.981-3.094,1.178-11.027,2.717-22.016,4.1-33.021a15.166,15.166,0,0,0,.01-1.848c-1.676-.116-2.5,1.125-3.517,1.91-5.965,4.59-11.961,9.143-17.8,13.893-2.968,2.415-6.543,3.321-9.911,4.771-.975.419-1.512-.344-2.273-.7-4.684-2.208-8.3-5.692-11.771-9.4-.8-.856-1.406-2.073-2.817-2.186ZM13.56,195.61c-1.13,1.587-2.145,3.274-3.415,4.74-2.241,2.586-3.431,5.067-1.275,8.437,1.279,2,4.509,3.676,7.06,2.86,1.2-.384,4.414-5.347,4.018-6.433-1.16-3.186-2.434-6.33-3.664-9.491-1.073,3.054-2.343,5.9-1.063,8.958A1.459,1.459,0,0,1,14.6,206.6a1.364,1.364,0,0,1-1.71-.053,1.507,1.507,0,0,1-.217-2.253c1.714-2.6,1.435-5.567.883-8.681m3.706,20.828c.718-5.771-3.851-3.559-5.977-4.117-4.955-1.3-3.487,3.169-3.862,5.41-.688,4.113-.393,4.447,6.669,4.67,4.749.15,1.939-4.267,3.17-5.963" transform="translate(3173 1139.178)"/>
        <path id="Path_2489" data-name="Path 2489" d="M610.19,157.909c-6.464-.743-12.937-1.421-19.389-2.264-2.456-.321-3.83-.013-4.056,2.949-.392,5.12-1.209,10.206-1.848,15.306,1.7.468,2.545-.654,3.446-1.324,3.723-2.769,7.981-4.159,12.369-5.444,2.392-.7,3.2,1.382,4.824,1.956,1.682.6,3.113,1.9,4.654,2.9v1.482c-4.957-5.321-13.44-5.5-19.285-1.575-4.222,2.836-7.44,5.577-7.281,11.177.093,3.284-.614,6.6-1.074,9.888-.235,1.683.261,2.539,2.013,2.737,8.546.963,17.085,1.974,25.627,2.968v.741c-9.126-.371-18.1-2.11-27.157-3.061-2.219-.233-1.657-1.791-1.516-3.026.516-4.53,1.146-9.046,1.7-13.571a25.277,25.277,0,0,0,.012-2.6c-5.046,3.1-10.459,3.418-15.8,4.1-.869.111-1.7.529-2.259-.465a1.341,1.341,0,0,1,.158-1.7c.751-.7,1.516-.307,2.377-.02,5.529,1.844,10.38-.2,15.028-2.9,1.587-.924,1.3-2.837,1.507-4.368.633-4.763,1.212-9.537,1.661-14.321.233-2.476,1.034-3.316,3.75-2.887,6.81,1.077,13.684,1.75,20.533,2.585Z" transform="translate(3026.702 1140.118)"/>
        <path id="Path_2500" data-name="Path 2500" d="M0,330.031c2.875-1.044,5.252,1.935,8.388,1.236a7.327,7.327,0,0,0-2.821,7.227c.594,3.284-.873,4.55-4.1,4A5.691,5.691,0,0,0,0,342.628v-1.482c4.918.637,5.153.353,4.028-5.232L0,338.923v-1.482a9.122,9.122,0,0,0,3.895-3.254c1.122-1.472,1.293-3.058-1.316-3.259-.858-.066-1.719-.105-2.579-.156Z" transform="translate(3173 1094.715)"/>
        <path id="Path_2501" data-name="Path 2501" d="M0,285.109c2.032.632,4.695-.922,6.151,1.95.3.588,1.135-1.146,2.335-.611-1.248,1.723-3.09,2.874-3,5.488.182,5.608-.039,5.616-5.481,5.77v-.741c5.124-.439,5.378-.8,3.879-5.678L0,294v-1.482c2.105-1.163,4.83-2.308,4.337-5.067-.377-2.108-2.759-1.007-4.337-.861Z" transform="translate(3173 1106.29)"/>
        <path id="Path_2502" data-name="Path 2502" d="M0,307.989c2.934-1.341,5.387,1.743,8.7.753-1.75,1.944-3.372,3.379-3.227,6.12.283,5.35.052,5.361-5.468,4.984V319.1c5.036.169,5.3-.184,3.963-5.376-1.715.574-2.608,2.162-3.963,3.153V315.4a19.326,19.326,0,0,0,1.967-1.585c1.124-1.163,3.183-2.038,2.457-4.031-.791-2.171-2.9-.809-4.424-1.054Z" transform="translate(3173 1100.454)"/>
        <path id="Path_2506" data-name="Path 2506" d="M623.634,286.591c-1.22-.091-2.441-.164-3.659-.278-1.789-.167-2.466.712-2.35,2.4.033.491,0,.986,0,1.478-.036,6.342-.037,6.342,6.008,6.77v.741c-6.762-.191-6.762-.191-6.771-6.809-.007-5.312-.007-5.312,6.771-5.788Z" transform="translate(3013.259 1106.29)"/>
        <path id="Path_2507" data-name="Path 2507" d="M623.638,330.85c-5.977.313-5.977.313-6,5.811-.021,5.344-.021,5.344,6,4.563v1.482c-6.767-.468-6.767-.468-6.76-5.786.01-6.6.01-6.6,6.76-6.812Z" transform="translate(3013.255 1094.637)"/>
        <path id="Path_2508" data-name="Path 2508" d="M623.633,308.792c-5.989-.236-6.071-.234-5.98,4.826.1,5.738-1.438,5.831,5.98,5.549v.741c-6.777.491-6.777.491-6.773-6.286,0-6.01,0-6.01,6.773-5.571Z" transform="translate(3013.26 1100.392)"/>
        <path id="Path_2511" data-name="Path 2511" d="M556.867,310.087a7,7,0,0,0,1.478,4.951c1.557,2.388.927,3.41-1.4,4.776-2.727,1.6-3.361-.035-4.365-1.839a23.349,23.349,0,0,0-4.41-5.7c-1.4,2.14-1.489,4.528-1.788,6.723-.385,2.835-1.878,2.139-3.658,1.816-1.9-.345-3.369-.573-2.637-3.195a20.126,20.126,0,0,0,.341-5.132c.014-1.435.3-3.085-2.1-3.007-1.074.035-1.2-1.1-1.315-1.929-.164-1.186.841-1.232,1.617-1.606,1.17-.563,2.7-.445,3.787-1.947-2.989-.554-5.735-.971-4.315-5.144.508-1.495-6.416-2.674-8.349-1.255-4.8,3.526-8.627,7.558-8.825,14.075a30.608,30.608,0,0,1-1.568,7.961c-.8,2.579.259,3.123,2.514,3.566,11.846,2.322,23.662,4.8,35.485,7.233,1.339.276,3.186-.056,2.732,2.419-.432,2.357-1.984,2.115-3.618,1.783-8.813-1.791-17.651-3.478-26.418-5.475-2.8-.639-4.025-.142-4.512,2.778-.811,4.857-1.968,9.655-2.876,14.5-.183.977-.891,2.524.519,2.915,1.573.435,1.627-1.289,1.671-2.234.133-2.822,1.784-2.754,3.817-2.325,5.665,1.193,11.323,2.431,17.014,3.483,2.167.4,3.06,1.122,2.229,3.417-.751,2.076.051,3.258,2.391,3.4a27.2,27.2,0,0,1,3.985.772,6.57,6.57,0,0,1,5.083,7.606c-.333,2.411-2.4,5.058.872,7.167.35.225.078,1.983-.373,2.758-.794,1.366-2.254.682-3.379.459-9.546-1.9-19.078-3.86-28.612-5.815q-17.557-3.6-35.111-7.21c-1.288-.264-2.963-.1-2.571-2.215.252-1.356.054-3.036,2.525-2.584,1.778.325,1.658-1.574,1.771-2.637.333-3.149,1.438-5.646,4.626-6.812,2.087-.762,2.357-2.678,2.722-4.48,2.543-12.555,5.115-25.1,7.548-37.681a6.371,6.371,0,0,1,3.681-5.02c5.722-2.883,11.312-6.025,16.965-9.043,2.13-1.137,4.445-6.746,3.605-9.043-1.692-4.626-3.382-9.255-5.2-13.832-1.263-3.18-1.956-6.223.444-9.205.458-.569.273-1.371-.556-1.261-2.541.335-2.664-1.682-3.261-3.192-1.358-3.436-2.514-6.958-4.008-10.332-.849-1.919-.2-2.674,1.491-3.265,3.361-1.175,7.189-4.022,9.914-3.192,2.906.886,3.252,5.924,4.292,9.262.72,2.311,4.019,4.712.533,7.45-.267.21.094,1.057.657,1.069,4.525.089,5.762,3.378,6.981,6.872,1.623,4.652,3.448,9.231,5.175,13.846a16.611,16.611,0,0,0,3.91,6.553c3.007,2.886,3.257,7.012,3.76,10.841.337,2.571-1.152,5.6,2.426,7.025.146.058.247.457.222.681-.505,4.537,3.177,6.081,5.962,8.161,1.772,1.323.848,2.345-.136,3.224-1.049.936-1.32,3.7-3.816,1.843-1.713-1.273-3.533-2.4-5.567-3.774M504.792,332.08c3.529-4.355,4.987-5.108,9.917-3.93,1.9.454,2.021-.4,2.283-1.751.914-4.709,2.211-9.367,2.789-14.114.774-6.354,3.362-11.316,8.729-14.977,1.78-1.215,3.232-1.834,5.367-1.354,6.36,1.431,12.754,2.723,19.152,3.983,1.449.285,3.266,1.1,3.755-1.464.449-2.353-1.324-2.248-2.693-2.533-7.347-1.526-14.712-2.973-22.046-4.556a4.759,4.759,0,0,0-3.495.7Q520.769,296.326,513,300.6c-1.082.594-2.082,1.158-2.367,2.6-1.907,9.635-3.888,19.255-5.843,28.881M550.354,278.8c-2.589-6.878-4.886-12.983-7.187-19.087-.45-1.193-.8-2.321-2.59-1.574-3.639,1.515-7.343,2.878-11.037,4.257-1.4.522-1.472,1.452-1.025,2.634,1.919,5.07,3.867,10.129,5.741,15.216.479,1.3.977,2.044,2.3.876,3.857-3.393,8.331-3.867,13.794-2.322m-52.97,69.984c20.3,4.149,39.338,8.045,58.383,11.913.557.113,1.417.156,1.709-.162.548-.593,0-1.336-.273-2.006-.574-1.407-1.835-1.413-3.049-1.661-12.906-2.631-25.791-5.368-38.719-7.883-2.541-.494-3.456-1.211-2.589-3.845.358-1.089,1.324-3.292-.19-3.553-4.175-.717-6.9-2.741-7.813-7.579-2.551,5.376-.458,11.62-7.457,14.775m60.544,24.365c.063.017.934.26,1.26-.966.362-1.358-.442-1.722-1.563-1.9-.849-.132-1.676-.4-2.52-.567q-30.2-6.1-60.41-12.169c-1.145-.23-2.846-1.506-3.281.634-.419,2.059,1.575,1.753,2.786,2q15.72,3.254,31.451,6.453c10.486,2.131,20.979,4.231,32.278,6.508M537.7,251.055c-.732-1.907-1.4-3.63-2.055-5.355-3.393-8.877-3.393-8.877-12-4.871a3.047,3.047,0,0,1-.342.143c-1.544.5-1.691,1.417-1.1,2.855,1.411,3.415,2.671,6.89,4,10.339.3.788.56,1.966,1.639,1.6,3.136-1.072,6.211-2.329,9.276-3.593.316-.13.416-.787.575-1.117m18.376,37.734c-.063-4.274-4.214-8.753-8.905-9.7-4.882-.985-10.564,1.62-12.215,5.546-.453,1.076-.609,1.859.854,2.152,6.137,1.225,12.266,2.484,18.4,3.713,1.445.289,2.091-.326,1.864-1.713M547.76,309.8c1.624,2.112,3.025,3.825,4.3,5.625,1,1.416,1.993.934,3.173.306,1.312-.7,1.7-1.418,1.046-2.93-.666-1.539-1.974-3.009-1.469-5.23,1.614,1.043,3.03,1.813,4.277,2.8,1.555,1.229,2.527.763,3.649-.642,1.137-1.427.3-2.072-.617-3.038-2.255-2.379-4.61-3.162-7.842-1.787a81.146,81.146,0,0,1-8.841,2.632c-4.44,1.314-4.753,1.953-4.239,6.515.219,1.949,1.3,2.329,2.912,2.608,1.945.337,1.98-1.071,2.221-2.2a12.825,12.825,0,0,1,1.43-4.661m-29.706,24.737a6.015,6.015,0,0,0-5.815-6.009,5.868,5.868,0,0,0-6.019,5.729,5.8,5.8,0,0,0,5.746,5.98,5.956,5.956,0,0,0,6.088-5.7m9.342,10.992c-1.355-.457-1.442,1.163-1.775,2.433-.395,1.506.239,2.242,1.776,2.536,5.665,1.086,11.335,2.17,16.959,3.45,2.058.468,2.231-.76,2.631-2.076.445-1.46.047-2.317-1.536-2.634-5.776-1.158-11.542-2.366-18.054-3.709m29.491-11.807c.874.124,1.922.358,2.043-.862.163-1.64-1.383-1.5-2.336-1.693-8.777-1.816-17.57-3.555-26.356-5.333-3.13-.634-6.248-1.331-9.379-1.956-.931-.186-2.142-.574-2.4.831-.276,1.487,1.107,1.336,1.982,1.557,1.428.362,2.874.66,4.319.953q16.065,3.258,32.132,6.5m-2.68-38.735c1.186.18,2.239.17,2.514-1.364.29-1.615-.814-1.756-1.953-1.99-6.606-1.357-13.206-2.748-19.81-4.119-1.035-.215-1.87-.222-2.208,1.166-.376,1.543.436,2.033,1.626,2.278q9.911,2.039,19.831,4.029m-1.348,5.9c-4.3-.9-7.885-1.647-11.465-2.4-1.558-.327-2.252.407-2.491,1.882-.233,1.444.505,1.775,1.744,2.176,4.095,1.327,7.9.868,12.212-1.658m-14.672,6.174.358,1.567q10.081-3.028,20.16-6.061c.651-.2,1.152-.64.786-1.322a1.367,1.367,0,0,0-1.216-.491c-6.707,2.068-13.4,4.194-20.088,6.307m-16.93,35.191c-.3-1.847-1.356-3.033-3.213-2.9a2.824,2.824,0,0,0-2.8,3.255,2.774,2.774,0,0,0,2.974,2.7c1.9-.048,2.856-1.209,3.035-3.061M537.835,256c-2.369.917-5.327,2.071-8.292,3.207-.731.28-.928.8-.579,1.424.358.636,1,.577,1.609.342,2.737-1.049,5.476-2.09,8.209-3.151.617-.24,1.051-.662.824-1.395-.17-.55-.605-.706-1.77-.427" transform="translate(3046.074 1118.778)"/>
        <path id="Path_2515" data-name="Path 2515" d="M223.18,300.414c-8.882.2-12.822-2.382-15.32-7.967a523.123,523.123,0,0,1-25.576-72.054c-.45-1.6-2.207-3.856-.2-5.044,2.836-1.681,5.819-4.383,9.435-2.963,2.542,1,3.462.388,4.909-1.675,3.709-5.293,9.143-7.4,15.478-6.643,2.333.276,3.659.239,4.237-2.43.462-2.139,6.836-5.751,9-5.541,1.173.114,1.661.991,2.179,1.806,14.426,22.73,27.731,46.072,38.574,70.756a10.188,10.188,0,0,1-.709,9.576,12.385,12.385,0,0,1-2.194,2.966c-12.065,11.239-26.743,16.721-39.805,19.212m.4-1.02a81.7,81.7,0,0,0,37.786-17.846,15.741,15.741,0,0,0,2.75-3.455,9.478,9.478,0,0,0,.706-9.518,438.672,438.672,0,0,0-24.226-46.949c-4.451-7.37-10.953-11.09-19.654-10.87a36.78,36.78,0,0,0-20.64,7.153c-10.189,7.2-13.088,16.17-9.286,28.072a449.681,449.681,0,0,0,17.676,45.831c2.666,5.992,5.878,7.958,14.888,7.582m-29.036-78.266c2.06-1.243,3.28-2.4,3.545-4.686a10.6,10.6,0,0,1,16.548-7.648c2,1.355,3.665,1.642,5.705.477-4.048-4.589-10.524-5.758-16.831-3.085-6.12,2.594-9.458,7.993-8.967,14.942m30.471-17.266c0-1.6.024-3.193-.011-4.789-.016-.7-.039-1.923-.94-1.587-2.554.95-5.469,1.323-6.99,4.19-1.635,3.081.395,4.212,2.556,5.281,1.76.871,2.933,3.969,5.175,2.483,1.656-1.1.249-3.674.21-5.578m-31.206,12.9c.172-2.959-2.35-4.432-5.374-3.5-6.177,1.906-6.4,2.474-1.942,6.415,1.828,1.616,3.5,5.164,5.744,4.188,2.482-1.081.645-4.962,1.572-7.1m5.127.985c4.965-3.8,10.15-5.743,15.916-7.489-3.844-3.153-7.32-2.838-10.831-1.144-3.2,1.544-5.058,4.025-5.085,8.633m36.156-3.881.647-.585q-4.411-7.173-8.821-14.347a49.847,49.847,0,0,0-.642,9.857c0,.351.086.915.3,1.019,2.2,1.041,4.441,1.993,6.656,3,.644.294,1.238.7,1.856,1.052m-51.5,4.483a55.558,55.558,0,0,0,4.444,16.536,40.972,40.972,0,0,1,2.558-7.415c.456-.914.8-1.78-.149-2.655-2.3-2.133-4.571-4.308-6.853-6.466" transform="translate(3126.092 1129.342)"/>
        <path id="Path_2518" data-name="Path 2518" d="M123.87,326.193c-1.9,2.881-1.143,5.859-1.014,8.718.078,1.727,1.721,1.413,2.91,1.473,7.745.39,7.754.385,7.721,8.2-.01,2.229.757,5.021-3.178,4.606-.706-.074-1.049.551-1.115,1.217-.06.613-.013,1.236-.081,1.847-.316,2.883,1.366,6.617-.787,8.452-2.059,1.755-5.706.507-8.648.514-21.238.05-42.476-.056-63.713.107-3.592.027-4.939-.988-4.471-4.561a36.687,36.687,0,0,0,.039-5.55c-.036-1.584-.023-3.022,2.195-2.936,1.308.05,1.621-.857,1.618-1.967,0-.987.013-1.975.014-2.963.007-5.722.007-5.722-5.6-6.2-3.178-.271-5.433-2.507-5.467-5.424a5.352,5.352,0,0,1,5.344-5.495c24.685-.064,49.37-.036,74.229-.036M70.917,352.007c-.243-2.734-1.844-3.064-3.884-2.967-2.587.122-5.184,0-7.776.037-7.927.117-6.74-1.24-7.033,7.145-.114,3.243.828,4.2,4.131,4.173,21.479-.147,42.959-.075,64.439-.076,7.362,0,7.2,0,7.356-7.45.067-3.2-1.09-3.89-4.048-3.859-13.084.139-26.17.091-39.255.027-2.264-.011-4.307,0-4.772,2.906-4.622-3.753-4.622-3.753-9.156.062M85.236,336.4c10.848,0,21.7-.191,32.541.1,4.029.108,4.244-1.7,4.26-4.845.016-3.193-.308-4.855-4.282-4.818-21.816.2-43.636.086-65.455.114a13.573,13.573,0,0,0-3.993.5,4.493,4.493,0,0,0,.019,8.435,15.305,15.305,0,0,0,4.368.5c10.847.038,21.694.021,32.541.021m7.774.774H74.153c-8.434,0-8.553.146-7.7,8.63.131,1.312.25,2.441,2,2.494s2.219-1.014,2.022-2.355c-.508-3.456,1.372-3.921,4.118-3.607a15.87,15.87,0,0,0,3.324-.007c2.247-.221,3.28.687,2.909,2.954-.417,2.551.8,3.109,3.129,3.085,9.489-.1,18.98.027,28.469-.059,8.463-.076,7.046,1.331,7.366-7.516.11-3.074-1.071-3.727-3.853-3.671-7.639.15-15.282.052-22.923.051m39.433,6.039c0-5.508,0-5.508-1.207-5.948-3.914-1.427-6.286.21-6.3,4.349q-.006,1.107,0,2.216c.029,4.585.239,4.667,4.826,4.534,4.566-.133,1.875-3.6,2.683-5.151M61.2,342.834h.018c0-.984-.05-1.971.011-2.952.107-1.739-.322-2.742-2.4-2.748-2.063-.005-2.5.966-2.444,2.717.074,2.212.043,4.428.047,6.642,0,1.49.91,1.848,2.185,1.808,1.253-.039,2.583.066,2.585-1.777q0-1.844,0-3.69m10.567,6.829c2.7-3.561,5.13-2.691,7.846.786.007-2.993,1.249-5.665-.619-6.907a7.107,7.107,0,0,0-6.71-.034c-1.975,1.117-.618,3.768-.517,6.155m52.357-6.911h.015c0-.98.016-1.961,0-2.941-.024-1.233.084-2.556-1.754-2.591s-1.807,1.286-1.819,2.525c-.019,2.205,0,4.411.03,6.618.013,1.134.506,1.875,1.746,1.886a1.591,1.591,0,0,0,1.785-1.819c0-1.226,0-2.451,0-3.677m-58.48.035c0-.981.022-1.962-.006-2.943-.033-1.195.232-2.59-1.667-2.631-1.816-.038-1.856,1.257-1.875,2.51-.032,2.084-.012,4.169.012,6.254.013,1.169.187,2.251,1.731,2.279,1.5.027,1.835-.9,1.81-2.159-.021-1.1,0-2.208-.005-3.311" transform="translate(3161.529 1095.653)"/>
        <path id="Path_2519" data-name="Path 2519" d="M443.365,348.785c0,4.68-.091,9.365.042,14.041.059,2.1-.686,2.765-2.743,2.836q-23.112.8-46.215,1.805c-2.073.09-2.84-.57-2.923-2.657-.371-9.365-1.527-18.762-1.016-28.071.235-4.28,1.116-8.546.522-12.9-.14-1.026.243-1.671,1.359-1.73a3.923,3.923,0,0,1,.735-.067c8.687,1.259,14.266-3.713,19.269-9.705,1.811-2.17,3.412-2.437,5.389-.282.909.991,2.176,1.652,3.09,2.639,4.126,4.451,8.985,6.574,15.144,5.339,1.444-.29,3.384-.615,3.507,1.945.431,9.007,4.774,17.552,2.734,26.852l1.106-.05m-22.471-27.811q0,.308,0,.614c-7.255.351-14.508.753-21.767,1.04-7.612.3-7.392.235-6.729,7.868.335,3.856,1.825,6.188,5.277,7.89a99.707,99.707,0,0,1,11.425,6.769c5.309,3.57,10.183,3.2,15.071-.768,2.672-2.17,5.33-4.539,8.382-6.022,6.692-3.253,7.736-8.423,6.04-14.887a1.3,1.3,0,0,1-.042-.366c.056-1.776-.806-2.224-2.525-2.182-5.041.122-10.088.043-15.132.043m19.135,43.683q.073-.514.146-1.027c-6.994-4.776-14.054-9.46-20.943-14.383-2.05-1.465-3.336-1.118-5.068.343-5.741,4.845-11.6,9.546-17.38,14.349-.756.628-2.088.992-1.678,2.656l44.923-1.938m2.44-.634c-.42-10.129-.772-19.33-1.2-28.527-.113-2.416-1.435-1.341-2.425-.627-5.7,4.109-11.361,8.269-17.07,12.363-1.4,1-1.433,1.724.025,2.708,6.629,4.471,13.219,9,20.675,14.083M413.6,348.89c-7.122-4.245-13.834-8.329-20.637-12.252-2.225-1.283-1.693.785-1.657,1.791.287,8.263.644,16.525.951,24.788.065,1.742.382,2.839,2.271,1.292,6.2-5.075,12.392-10.149,19.071-15.619m-8.153-28.6.6,1.106,19.1-.974a66.1,66.1,0,0,0-8.589-8.094,1.806,1.806,0,0,0-2.852.116c-2.717,2.654-5.5,5.236-8.26,7.847" transform="translate(3071.908 1099.696)"/>
        <path id="Path_2521" data-name="Path 2521" d="M41.54,286.05c5.788-2.141,11.27-4.339,17.53-4.311,20.091.091,40.184-.243,60.276-.411,2.767-.023,5.321.319,5.544,3.886.219,3.49-2.018,4.494-4.926,4.541-6.286.1-12.573.116-18.859.139-14.67.053-29.34.012-44.008.176-5.58.062-10.425-2.312-15.557-4.019m75.277,2.165c-3.333-1.433-59.3-.984-62.188.256,2.445,1.078,56.421.954,62.188-.256m-.482-2.016c-4.8-2.311-59.907-1.552-61.667,0Zm-.006-2.528q-.007-.642-.014-1.284c-20.57.074-41.141.069-61.71.262q.008.511.016,1.023Zm-63.069,2.3c-.421-.935.646-2.91-1.452-2.574-1.463.235-3.715.09-3.713,2.564s2.233,2.339,3.71,2.574c2.1.333,1.106-1.589,1.455-2.564m68.9-3.316c-1.27-.077-1.358.883-1.215,1.678.251,1.389-1.066,3.471,1.029,4.008,1.143.294,2-1.209,2.115-2.509a2.937,2.937,0,0,0-1.929-3.178m-2.2,2.87c-.559-.973.9-3.076-1.364-3.017-1.8.047-1.14,1.877-1.116,2.943.026,1.162-.734,3.169,1.355,3.1,1.8-.062.732-1.937,1.125-3.022" transform="translate(3162.243 1107.269)"/>
        <path id="Path_2522" data-name="Path 2522" d="M491.047,184.415,440.031,261.66c-1.333-.049-1.449-1.057-1.827-1.744q-9.253-16.847-18.485-33.7c-.845-1.534-1.454-2.617.682-3.777q34.575-18.792,69.072-37.727a9.141,9.141,0,0,1,1.575-.292m-45.772,28.741c-1.177-.359-1.345-2.445-3.268-1.464-1.98,1.009-.325,2.44-.51,3.726-1.285-.581-1.371-2.525-3.167-1.667-1.814.868.2,2.331-.574,3.381-1-.711-1.17-2.4-3.006-1.455-2,1.027.037,2.42-.585,3.5-1.095-.351-1.169-2.428-2.932-1.529-1.739.887-.015,2.212-.506,3.264-1.1-.21-1.165-2.285-2.926-1.388-1.874.954.1,2.352-.548,3.412-1.1-.391-1.221-2.425-3-1.456-1.8.983.142,2.191-.359,3.278-1.123-.355-1.569-2.653-3.22-1.257-1.415,1.2-.084,2.271.439,3.237,5.53,10.191,11.188,20.313,16.633,30.548,1.463,2.75,2.166,2.942,3.959.208q22.229-33.9,44.641-67.674c.474-.719,1.36-1.4.75-3.041-3.178,3.491-9.452,2.6-10.437,8.471-1.956-1.807-2.02-1.828-3.012,1.2-.289.882-.443.393-.891.25-2.96-.948-3.135-.751-2.5,2.763-1.178-.219-1.134-2.372-2.871-1.627-2.087.894-.059,2.366-.633,3.507-1.08-.573-1.368-2.359-3.27-1.458-2.136,1.011-.436,2.528-.767,3.935-1.092-.713-1.293-2.588-2.989-1.739-1.724.863-.128,2.162-.469,3.336-1.081-.363-1.213-2.317-2.977-1.5-2,.925-.486,2.294-.661,3.5-1.212-.179-1.212-2.284-3-1.5-1.988.877.119,2.324-.637,3.364-.988-.7-1.365-2.372-3.035-1.343-1.651,1.017.188,2.188-.257,3.249-1.245.014-1.068-2.346-2.84-1.55-2.037.917-.165,2.351-.583,3.518" transform="translate(3064.512 1132.365)"/>
        <path id="Path_2523" data-name="Path 2523" d="M346.857,347.167a6.522,6.522,0,0,1-1.631,5.091c-1.845,1.99-2.113,4.647-1.991,7.293.067,1.469.244,2.936.266,4.405.023,1.54-1.2,2.2-2.375,2.375-1.358.2-.85-1.19-1.057-1.9-1.308-4.45-1.942-9.166-6.716-11.777-1.609-.88-1.712-3.223-1.956-5-1.809-13.174-3.45-26.372-5.288-39.542-.41-2.937.61-4.428,3.407-4.923.121-.022.234-.075.353-.106,8.4-2.195,9.434-1.464,10.816,6.945,1.795,10.929,3.747,21.831,5.611,32.749.248,1.451.378,2.923.562,4.385m-12.063-5.048c5.607,1.49,7.561-.4,6.555-6.132-1.681-9.582-3.318-19.173-4.817-28.785-.416-2.672-.989-4.284-4.3-3.788-3.558.534-2.672,2.816-2.474,4.932.126,1.345.385,2.677.6,4.012,1.613,9.953,2.095,20.078,4.572,29.9-1.782-1.174-1.826-3.111-2.068-4.909-1.332-9.885-2.6-19.778-3.939-29.662-.131-.966-.043-2.186-1.053-2.648-.914.293-1.08.8-1.019,1.271q2.565,19.971,5.17,39.936c.237,1.84,1.385,2.073,2.917,1.821,2.915-.481,5.831-.966,8.758-1.369,1.433-.2,2.253-.582,1.943-2.333-2.294-12.97-4.509-25.953-6.776-38.927-.133-.76-.015-2.076-1.3-1.729-1.083.292-.594,1.481-.477,2.241.54,3.53,1.192,7.041,1.773,10.564,1.184,7.166,2.4,14.327,3.49,21.508.308,2.033-.11,4.085-2.276,4.99-1.843.771-3.825,1.192-5.281-.888m-.452,9.858a13.5,13.5,0,0,1,5.46,8.071c.225.758.482,1.392,1.444,1.318,1.008-.079,1.2-.823,1.126-1.568-.326-3.247.8-6.153,2.478-9.376l-10.508,1.555m.651-1c3.245-.487,6.273-.937,9.3-1.4.76-.116,1.512-.34,1.314-1.338-.147-.744-.778-.846-1.432-.75-3.15.465-6.3.909-9.445,1.429-.7.115-1.534.417-1.321,1.4.227,1.039,1.129.641,1.586.663" transform="translate(3088.574 1101.908)"/>
        <path id="Path_2524" data-name="Path 2524" d="M280.8,386.538c-.53,3.408-1.122,6.809-1.57,10.228-.326,2.489-2.018,2.068-3.6,1.825q-19.182-2.947-38.355-5.945c-10.467-1.636-20.917-3.391-31.4-4.885-2.513-.358-3.129-1.4-2.751-3.637.533-3.158,1.072-6.319,1.449-9.5.24-2.025,1.3-2.374,3.062-2.1q35.237,5.5,70.483,10.939c1.861.287,3.092.89,2.683,3.072m-71.079-9.131c-.091-2.086.376-3.871-2.2-3.891-2.331-.019-2.058,1.7-2.311,3.038-.365,1.936-.33,3.979-.914,5.834-1.112,3.539.445,4.354,3.647,4.8,12.078,1.7,24.119,3.674,36.172,5.552,9.984,1.555,19.979,3.046,29.943,4.724,3.039.513,4.621-.044,4.7-3.485a48.365,48.365,0,0,1,1.075-7.307c.212-1.187-.01-1.924-1.332-2.065-1.016-.107-2.026-.275-2.251,1.152-.093.591-.06,1.255-.762,1.567-1.178-.841,1.041-3.066-1.516-3.47-2.235-.352-1.76,1.783-2.707,2.789-.531-1.292.751-3.056-1.466-3.463-2.349-.431-1.872,1.792-2.761,2.759-.808-1.077.708-3.149-1.749-3.479-2.405-.324-1.193,2.443-2.669,2.842-.563-1.181.623-2.9-1.629-3.59-2.873-.883-2.139,2.168-3.417,3.025-.711-1.39.9-3.429-1.654-3.726-2.4-.28-1.308,2.224-2.425,3.023-.848-1.132.844-3-1.449-3.713-2.935-.917-1.948,2.3-3.307,3.124-.62-1.42,1.047-3.359-1.446-3.806-2.262-.405-1.574,1.944-2.609,2.754-.528-1.18.554-2.909-1.507-3.394-2.447-.575-1.712,1.91-2.784,2.723-.7-1.085.559-3.048-1.733-3.4-2.509-.391-1.152,2.551-2.627,3.048-.706-1.272.871-3.076-1.553-3.716-2.614-.69-2.132,1.676-3.085,2.656-.66-1.083.648-2.8-1.542-3.317-2.491-.594-1.411,2.254-2.806,2.56-.638-1.016.725-2.7-1.518-3.228-2.326-.548-1.933,1.7-2.969,2.4-.657-.977.611-2.529-1.371-3.04-2.372-.61-1.638,2.059-2.912,2.517-.712-1.031.68-2.839-1.558-3.222-2.389-.409-1.555,2.038-2.677,2.751-.944-1.006.874-3.235-1.7-3.446-2.155-.177-1.6,1.776-2.629,3.121" transform="translate(3120.425 1083.674)"/>
        <path id="Path_2529" data-name="Path 2529" d="M334.142,182.109c-1.42,3.866-2.925,6.573-6.9,5.59-2.573-.637-3.61-2.525-3.357-5.015.448-4.4,3.966-4.294,7.765-4.48-2.1-3.237-3.879-6.14-5.826-8.929-1-1.434-.9-2.243.63-3.211q10.152-6.443,20.178-13.085c1.613-1.069,2.561-.884,3.574.748,1.43,2.3,3.028,4.5,4.6,6.713,1.26,1.767.906,2.707-1.307,2.8a15.091,15.091,0,0,0-2.577.073,3.741,3.741,0,0,0-3.129,3.644,3.838,3.838,0,0,0,7.064,2.148,18.385,18.385,0,0,0,.923-2.008c.943-1.92,1.986-2.478,3.388-.335,1.621,2.477,3.211,4.989,5.035,7.311,1.355,1.724.622,2.491-.863,3.382-2.113,1.268-4.177,2.625-6.213,4.016-2.222,1.519-3.417,1.236-3.306-1.7a7.977,7.977,0,0,0-.025-1.844,3.437,3.437,0,0,0-3.274-2.993,3.663,3.663,0,0,0-3.893,2.212,3.327,3.327,0,0,0,.946,4.32c.8.691,2.005.9,2.934,1.472,1.221.756,1.9,1.621.177,2.7q-4.23,2.656-8.356,5.471c-1.472,1.012-2.119.283-2.869-.92-1.549-2.485-3.214-4.9-5.325-8.088m20.77-19.732c-1.91-2.81-3.473-4.848-4.741-7.053-1.14-1.982-2.232-2.151-4.1-.877-4.48,3.055-9.086,5.925-13.636,8.878-6.514,4.228-6.513,4.231-2.2,10.9,2.854,4.408,2.855,4.418-2.122,5.2a3.8,3.8,0,0,0-.843,7.384c1.876.737,3.365-.062,4.481-1.6a5.414,5.414,0,0,0,.571-1.347c.341-.938.671-2.034,1.736-2.219,1.423-.246,1.684,1.211,2.279,2.051,1.279,1.811,2.469,3.687,3.654,5.562.617.976,1.271,1.446,2.391.685,2.671-1.816,5.368-3.594,8.569-5.729-3.9-1.336-6.314-3.1-5.335-6.966a4.259,4.259,0,0,1,4.36-3.358c4.632.051,4.86,3.827,5.3,7.493,1.1-.665,1.832-1.089,2.544-1.536,6.415-4.028,6.379-4,2.143-10.23-1.561-2.293-2.677-4.437-4.406.006-.79,2.03-3,2.882-5.341,2.031a4.481,4.481,0,0,1-3.229-5.16c.309-2.6,1.929-3.877,4.448-4.1.843-.073,1.7-.012,3.472-.012" transform="translate(3089.137 1140.679)"/>
        <path id="Path_2530" data-name="Path 2530" d="M361.234,236.18c3.974,1.475,6.557,3.312,5.35,7.3a4.167,4.167,0,0,1-4.872,3.07c-3.891-.571-4.694-3.45-4.3-7.216-3.438,1.061-5.791,3.216-8.436,4.822-1.142.694-2.056,1.321-3.011-.292-1.442-2.438-3.038-4.785-4.552-7.181-1.148-1.816-.262-2.448,1.512-2.5.614-.019,1.241.1,1.847.03,2.079-.247,3.433-1.348,3.621-3.511a3.479,3.479,0,0,0-2.643-3.94c-2.029-.592-3.57.209-4.62,2.078-2.225,3.964-2.312,3.991-4.812-.01-1.681-2.691-5.144-5.333-4.581-8.071.567-2.763,4.825-3.765,7.45-5.553,4.378-2.982,8.926-5.714,13.3-8.7,1.742-1.19,2.787-1.405,4.124.617,4.486,6.783,9.111,13.477,13.8,20.122,1.181,1.675.8,2.531-.769,3.491-2.617,1.6-5.152,3.327-8.4,5.447m-22.285-5.032A25.632,25.632,0,0,1,340.8,227.6a4.435,4.435,0,0,1,5.208-1.76,4.553,4.553,0,0,1,3.426,4.717,4.473,4.473,0,0,1-3.4,4.353c-3.919,1.2-3.913,1.212-1.549,4.89.467.726.989,1.424,1.384,2.187.863,1.667,1.862,1.985,3.476.8,1.987-1.454,4.145-2.672,6.21-4.021,2.085-1.363,3.009-.6,2.86,1.659-.175,2.65.389,4.743,3.405,5.15A3.429,3.429,0,0,0,365.811,243c.826-2.88-.9-4.345-3.4-5.184a2.284,2.284,0,0,1-.349-.122c-1.783-.942-2.117-1.931-.182-3.13,2.2-1.363,4.331-2.842,6.543-4.184,1.448-.878,1.789-1.721.721-3.244q-6.693-9.542-13.2-19.214c-.894-1.322-1.7-1.444-3.014-.577q-9.417,6.218-18.92,12.305c-1.266.812-1.709,1.544-.733,2.934,1.83,2.61,3.527,5.313,5.669,8.569" transform="translate(3087.111 1126.879)"/>
        <path id="Path_2533" data-name="Path 2533" d="M125.358,217.623c-1.023,6.517-2.033,12.584-2.89,18.674-.233,1.661-.969,2.053-2.447,1.806-3.881-.648-7.751-1.429-11.659-1.824-2.443-.247-3.358-1.211-2.642-3.494.6-1.92-.07-2.892-1.828-3.722-3.53-1.664-6.774-4.093-11.092-2.643-1.467.493-2.612-.386-3.063-1.928a5.943,5.943,0,0,1,1.249-5.852,2.459,2.459,0,0,1,3.644-.227c3.973,3,8.048.8,12.075.256,1.4-.187,1.626-1.541,1.6-2.591-.066-2.964,1.6-3.075,3.838-2.682,3.633.642,7.273,1.258,10.929,1.749,1.859.25,2.668,1.038,2.284,2.478m-6.329,19.324c1.1.095,2.454.311,2.73-1.7.769-5.607,1.6-11.206,2.44-16.8.184-1.228.155-2.2-1.415-2.413q-5.669-.77-11.324-1.641a1.737,1.737,0,0,0-2.282,1.7c-.813,5.6-1.61,11.205-2.453,16.8-.223,1.484.17,2.325,1.8,2.534,3.415.437,6.818.985,10.506,1.528M90.453,222.9c.084,1.764.536,3.306,3.31,2.446a8.916,8.916,0,0,1,6.763.926c5.795,2.866,5.67,2.792,6.8-3.616.514-2.9-.383-3.112-2.835-2.6-3.208.667-6.455,1.551-9.685-.328-2.64-1.537-4.274-.391-4.357,3.175" transform="translate(3149.836 1124.903)"/>
        <path id="Path_2536" data-name="Path 2536" d="M421.684,171.122a2.8,2.8,0,0,1,1.01-2.717c2.6-2.668,3.4-5.461,1.263-8.845-.96-1.518-.488-3.043,1.5-2.076,3.942,1.916,6.755.482,9.488-2.213.931-.918,2.356-1.192,2.142.642-.585,5.009,1.764,8.069,5.909,9.774.16,1.092-.485,1.241-.858,1.3-4.46.745-6.892,3.23-7.123,7.848-.053,1.069-1.045,2.256-1.806.737-2.524-5.037-6.654-5.789-11.526-4.452m19.711-5.235c-5.341-1.512-5.106-5.816-5.795-10.015-2.951,4.11-6.689,4.034-11.172,2.772,4.04,4.378.992,7.625-1.61,11.477,4.6-.773,8-.588,9.978,3.344.568,1.127,1.653.665,1.7-.461.159-4.145,2.813-5.865,6.9-7.117" transform="translate(3063.813 1140.098)"/>
        <path id="Path_2539" data-name="Path 2539" d="M161.647,402.393c-3.626,2.3-3.6,5.645-3.3,9.014.215,2.4-.709,3.131-3.115,3.184-10.2.227-10.109.3-10.152-9.788-.012-2.615.476-3.878,3.4-3.573,2.431.253,4.909.035,7.366.073.707.01,1.984.071,2.03.3.622,3.135,2.185,1.309,3.765.79m-12.9,5.158c3.818,2.637,4.02,2.591,7.562-1.135.813-.856,1.467-1.738,1.183-2.929-.364-1.53-1.715-1.095-2.746-1.146a38.363,38.363,0,0,1-4.06-.049c-3.717-.591-4.841.765-4.646,4.564.356,6.9.11,6.909,6.789,6.9,5.167-.01,5.709-.808,4.1-6.128-1.831.615-2.709,2.806-4.383,3.184-2.091.471-2.611-2-3.8-3.257" transform="translate(3135.429 1076.231)"/>
        <path id="Path_2540" data-name="Path 2540" d="M556.736,149.589c-1.812-1.8-3.193-.891-3.965-1.947,5.937-.9,5.937-.9,5.49,5.178-1.149-.7-.014-2.151-1.81-3.38-3.122,3.319-6.363,6.813-9.657,10.255A104.789,104.789,0,0,1,536.63,169.3l20.106-19.714" transform="translate(3034.036 1142)"/>
        <path id="Path_2543" data-name="Path 2543" d="M290.18,346.82c2.3.113,3.692,1.457,3.681,3.671a3.447,3.447,0,0,1-3.767,3.618,3.409,3.409,0,0,1-3.531-3.493c-.057-2.216,1.25-3.608,3.618-3.8m.014.87c-1.493.257-2.567,1.012-2.629,2.588a2.46,2.46,0,0,0,2.675,2.8,2.411,2.411,0,0,0,2.627-2.479c.078-1.765-1.034-2.622-2.673-2.909" transform="translate(3098.793 1090.309)"/>
        <path id="Path_2548" data-name="Path 2548" d="M592.482,253.919A3.33,3.33,0,0,1,588.639,257a3.4,3.4,0,0,1-3.381-3.627,3.443,3.443,0,0,1,3.73-3.65c2.2.041,3.557,1.418,3.494,4.191m-3.469,2.156c1.624-.273,2.727-1.2,2.6-2.92a2.492,2.492,0,0,0-2.684-2.463,2.442,2.442,0,0,0-2.58,2.87,2.538,2.538,0,0,0,2.669,2.514" transform="translate(3021.443 1115.452)"/>
        <path id="Path_2550" data-name="Path 2550" d="M200.4,167.2c2.354.153,3.762,1.455,3.726,3.736a3.321,3.321,0,0,1-3.525,3.506c-2.416.041-3.656-1.313-3.648-3.677.009-2.211,1.289-3.343,3.447-3.565m2.713,3.59a2.432,2.432,0,0,0-2.554-2.574,2.486,2.486,0,0,0-2.785,2.719,2.525,2.525,0,0,0,2.945,2.567,2.454,2.454,0,0,0,2.394-2.712" transform="translate(3121.999 1136.823)"/>
        <path id="Path_2551" data-name="Path 2551" d="M8.7,378.255c-2.041-.356-3.57-1.19-3.681-3.473-.118-2.4,1.091-3.758,3.47-3.846a3.293,3.293,0,0,1,3.718,3.278c.176,2.38-1.413,3.495-3.507,4.042m2.5-3.913a2.531,2.531,0,0,0-2.5-2.558,2.545,2.545,0,0,0-2.829,2.7,2.5,2.5,0,0,0,2.88,2.616c1.6-.1,2.339-1.129,2.451-2.76" transform="translate(3171.703 1084.065)"/>
        <path id="Path_2553" data-name="Path 2553" d="M410.617,202.732c-.149,2.3-1.39,3.587-3.521,3.581a3.408,3.408,0,0,1-3.684-3.747c.084-2.268,1.537-3.59,3.939-3.431,2.255.149,3.215,1.539,3.266,3.6m-.78-.029a2.723,2.723,0,0,0-2.754-2.731,2.474,2.474,0,0,0-2.631,2.5,2.354,2.354,0,0,0,2.267,2.771c1.755.185,2.73-.742,3.118-2.543" transform="translate(3068.534 1128.557)"/>
        <path id="Path_2556" data-name="Path 2556" d="M375.372,290.909c2.337.1,3.73,1.4,3.709,3.636a3.463,3.463,0,0,1-3.768,3.618,3.3,3.3,0,0,1-3.454-3.49c-.033-2.314,1.163-3.613,3.513-3.765m2.68,3.911c.02-1.725-.776-2.874-2.507-3.016a2.655,2.655,0,1,0-.3,5.3c1.6.149,2.479-.765,2.81-2.285" transform="translate(3076.704 1104.788)"/>
        <path id="Path_2561" data-name="Path 2561" d="M7.038,418.323c-.993-3.229-.729-6.537-.45-9.847,1.081,3.224.788,6.534.45,9.847" transform="translate(3171.36 1074.343)"/>
        <path id="Path_2564" data-name="Path 2564" d="M616.742,408.854q1.945,4.78,3.893,9.559a17.558,17.558,0,0,1-3.893-9.559" transform="translate(3013.29 1074.245)"/>
        <path id="Path_2579" data-name="Path 2579" d="M248.967,252.052c1.442-.277,1.618.866,2,1.724,4.245,9.435,8.448,18.889,12.747,28.3.8,1.754.483,2.575-1.3,3.365q-19.09,8.442-38.09,17.091c-1.964.9-2.835.447-3.651-1.4Q214.412,286.932,208,272.8c-.582-1.288-.8-2.138.854-2.872,13.055-5.8,26.072-11.683,39.1-17.535.336-.15.7-.236,1.012-.341m14.069,31.171a8.936,8.936,0,0,0-.335-1.1c-3.08-6.845-6.2-13.671-9.233-20.54-.717-1.625-1.6-1.437-2.91-.846-9.195,4.165-18.4,8.319-27.635,12.383-1.674.736-1.97,1.584-1.1,3.083.368.635.538,1.384.9,2.019.6,1.035.592,1.811-.624,2.367-1.32.6-1.758-.267-2.185-1.212-.305-.673-.626-1.338-.917-2.017-1.4-3.27-3.2-.682-4.792-.275-1.744.448-2.769,1.246-1.75,3.419,3.029,6.465,5.908,13,8.777,19.541.738,1.683,1.561,2.168,3.382,1.338,12.213-5.562,24.472-11.023,36.71-16.529.749-.336,1.665-.565,1.711-1.627m-11.225-25.076c.119-2.592-2.586-5.256-4.546-4.382-12.24,5.464-24.437,11.025-36.707,16.419-2.2.969-1.971,2.139-1.017,3.679.839,1.351.683,3.987,3.646,2.64,12.312-5.594,24.659-11.11,36.989-16.665.754-.34,1.716-.525,1.635-1.692" transform="translate(3119.248 1114.861)"/>
        <path id="Path_2580" data-name="Path 2580" d="M232.079,243.72a6.739,6.739,0,0,1-6.6,6.64,6.456,6.456,0,0,1-6.575-6.541,6.351,6.351,0,0,1,6.463-6.6,6.668,6.668,0,0,1,6.71,6.5m-1.078.065a5.666,5.666,0,0,0-5.58-5.717,5.935,5.935,0,0,0-5.735,5.665,5.816,5.816,0,0,0,5.681,5.663A5.567,5.567,0,0,0,231,243.785" transform="translate(3116.313 1118.692)"/>
        <path id="Path_2581" data-name="Path 2581" d="M433.165,332.7l-34.793,1.6q-.021-.455-.042-.91l34.813-1.537c.007.282.014.562.021.843" transform="translate(3069.849 1094.185)"/>
        <path id="Path_2582" data-name="Path 2582" d="M422.384,339.418a150.4,150.4,0,0,1-23.1,1.023,152.543,152.543,0,0,1,23.1-1.023" transform="translate(3069.602 1092.248)"/>
        <path id="Path_2589" data-name="Path 2589" d="M469.857,214.2c.322,1.343-.576,1.991-1.077,2.754-7.647,11.628-15.388,23.2-22.946,34.88-1.822,2.817-2.614,2.4-3.975-.273-2.568-5.044-5.356-9.977-8.15-14.9-.877-1.546-1.057-2.519.787-3.515,11.369-6.151,22.686-12.4,34.03-18.594a5.829,5.829,0,0,1,1.332-.351m-26.046,38.847L467.5,217.156c-11.074,5.094-21.421,10.8-31.807,16.427-1.607.871-1.666,1.742-.827,3.225,2.9,5.137,5.7,10.334,8.942,16.241" transform="translate(3060.854 1124.652)"/>
      </g>
      <g id="Group_413" data-name="Group 413" transform="translate(-2915 -951)" opacity="0.06">
        <path id="Path_2483" data-name="Path 2483" d="M65,626.109c1.33-23.322-7.091-42.225-25.7-56.447-1.642-1.256-3.264-3.487-5.867-.891-1.2,1.2-2.775-.122-4.009-.994-2.266-1.6-6.8-.431-7.764,1.989-.445,1.111-.445,1.111,3.01,2.794,1.169-1.207-.472-4.522,2.28-4.067,1.66.275,2.78,3.113,2.307,4.812-.614,2.21-1.635,5.064-4.967,4.589-2.41-.344-4.646-1.465-7.154.11-1.894,1.19-4.96.657-4.4,4.57.255,1.787-1.843,1.46-3.073.966-1.445-.581-2.516-.592-3.286.986-.363.743-1.119,1.6-.482,2.23,1.027,1.01,2.516.551,3.823.518,3-.077,5.278-3.3,9.17-.472,4.025,2.923,4.618,2.1,7.444,7.865,1.157-.545.683-1.632.818-2.45.322-1.943,1.77-4.487,2.993-4.007,2.912,1.144,7.043-1.609,8.885,2.711.47,1.1,1.075,2.214.309,3.29-.824,1.157-2.04.769-3.184.4a14.331,14.331,0,0,0-2.4-.607c-1.306-.185-2.781-.543-3.13,1.4A2.058,2.058,0,0,0,32.323,598c3.172.68,4.417,2.7,2.909,5.427-1.533,2.771-3.982,1.166-6.17.4-5.173-1.809-9.548-4.057-12.511-9.382C14.175,590.178,6.218,591,0,595.109v-2c1.311-.673,2.61-1.371,3.935-2.014,4.4-2.138,12.718-.448,14.593,3.889,2.563,5.93,8.258,5.942,12.746,8.251.938.483,2.4.618,2.869-.954a2.15,2.15,0,0,0-1.369-2.819,13.689,13.689,0,0,1-2.311-.875,3.6,3.6,0,0,1-1.4-3.975c.3-1.39,1.368-2.036,2.88-2.3,2.018-.346,5.47,2.711,5.7-.322.292-3.82-3.8-.1-5.326-1.419-1.923-1.662-2.824-.905-3.663.941-.806,1.772.62,5.21-2.522,5.081-2.57-.1-1.572-3.635-2.851-5.3a7.387,7.387,0,0,1-.711-1.745c-.928,1.146.274,3.2-1.813,3.325-1.5.088-1.924-1.334-2.185-2.357-1.056-4.144-3.43-4.223-6.717-2.588a11.537,11.537,0,0,1-3.846.851,3.6,3.6,0,0,1-3.565-1.363c-1.029-1.57.391-2.745,1-4.06,1.391-3.019,4.4-.169,5.5-1.319,1.222-1.278-.169-4.761,3.365-4.57,2.57.139,4.268-2.484,7.071-1.871,1.42.311,1.46-1.427.7-2.007-4.366-3.35-1.232-5.082,1.337-7.034a7.74,7.74,0,0,0,2.811-4.172C17.755,559.063,9.168,556.876,0,558.109v-2c17.081.234,32.466,5.1,45.272,16.79,2.039,1.861,3.211,1.345,4.9-.411,1.995-2.08,1.276-3.41-.6-4.846-2.645-2.018-5.282-4.052-7.855-6.16-1.1-.9-3.76-1.436-1.682-3.576,1.609-1.658,2.786-5.231,6.276-2.481,2.354,1.855,4.782,3.619,7.1,5.522,2.36,1.942,4.475,5.387,8-.036-3.652,3.814-2.015,6.052.391,8.579,2.14,2.248,4.468,4.512,5.318,7.713-1.759-.565-2.332-2.274-3.317-3.544a78.193,78.193,0,0,0-16.807-16.146c-1.01-.712-2-2.078-3.484-1.233a4.379,4.379,0,0,0-2.018,2.1c-.625,2.005,1.447,2.3,2.51,3.107C65.417,577.731,75.829,599.072,74,626.109H73c.03-2.83.219-5.669.063-8.489a72.111,72.111,0,0,0-17.281-43.729c-2.075-2.455-3.314-2.242-5.405.02-2.443,2.645-.118,3.8,1.108,5.322C62.515,592.948,67.67,608.468,66,626.109Z" transform="translate(4130 693)"/>
        <path id="Path_2488" data-name="Path 2488" d="M591,626.109c-.321-4.385-1.456-8.147-6.5-9.3-2.349-.537-2.9-2.137-1.621-4.137,1.8-2.81,1.395-5.238-.755-7.676-2-2.269.415-6.558-3.551-8.035-.258-.1-.4-.757-.586-.751-7.036.235-3.666-4.07-3.159-7.325-7.45,11.455-10.079,23.877-8.832,37.225h-1c-3.783-21.333,9.056-47.267,29.543-60.048,9.669-6.032,20.289-8.794,31.457-9.952v2a4.322,4.322,0,0,0-4.77,1.892c-2.075,3.492-6.086,3.511-8.591,5.308-7.807,5.6-19.756,2.711-25.106,12.757-1.658,3.111-2.618-.737-4.4-.889.376,2.207,1.494,4.156.807,6.256-.469,1.437-.9,3.34-2.466,3.407-2.371.1-.331-2.6-2-3.653a4.31,4.31,0,0,0-2.714,4.843c.39,2.223-1.426,3.636-1.648,5.576,3.839,1.128,7.162,2.64,7.192,7.423a7.387,7.387,0,0,0,1.67,4.6c.688.879,1.684,2.463,1.349,3.048-2.88,5.031-.044,7.1,3.91,9.485,2.566,1.545,2.5,5.275,3.77,7.952Zm-4.626-49.232c3.844-2.831,6.863-8.216,11.519-7.96,7.127.393,11.661-5.545,18.279-5.73a3.217,3.217,0,0,0,2.889-3.512c-.471-2.38-2.574-.834-3.671-.606a61.444,61.444,0,0,0-27.469,13.4c-1.255,1.059-2.75,2.083-1.547,4.406" transform="translate(4130 693)"/>
        <path id="Path_2491" data-name="Path 2491" d="M626,433.109a22.378,22.378,0,0,0-12.574,26.261c1.966,7.535,4.495,14.918,3.677,22.884-.116,1.129-.213,2.507,1.267,2.866,1.894.458,2.167-1.236,2.5-2.4,1.772-6.187,3.432-12.4,5.13-18.613v7c-2.069,3.413-2.187,7.468-3.644,11.077-1.494,3.7-.283,5.29,3.644,4.923v2a25.446,25.446,0,0,1-3.756-1.261c-4.292-2.2-6.375-.915-7.723,3.714-1,3.444-.908,5.313,2.9,6.149,2.895.634,5.72,1.587,8.576,2.4v2c-2.507-1.761-5.574-2.008-8.359-3.011-1.212-.436-3.124-1.414-3.663.906-.427,1.837,1.236,2.019,2.5,2.38q4.762,1.356,9.521,2.725v4c-5.175,2.862-12.238-.2-13.145-6.028-.557-3.579-1.316-7.441.272-10.912,4.3-9.4,3.51-18.73.185-28.133-3.007-8.505-2.315-16.622,2.509-24.348,2.485-3.979,6.366-6.219,10.179-8.579Z" transform="translate(4130 693)"/>
        <path id="Path_2492" data-name="Path 2492" d="M187,626.109c2.464-13.391,4.841-26.8,7.464-40.159.55-2.8,0-3.786-2.844-4.294q-28.931-5.166-57.8-10.643c-3.27-.617-3.878.987-4.357,3.655-3.08,17.16-6.291,34.3-9.459,51.441h-1c3.187-17.841,6.417-35.674,9.522-53.53.543-3.126,1.968-3.436,4.823-2.9,19.281,3.645,38.573,7.251,57.924,10.5,4.583.77,5.2,2.718,4.417,6.675-2.3,11.578-4.4,23.2-6.514,34.813a30.573,30.573,0,0,0-.172,4.438Z" transform="translate(4130 693)"/>
        <path id="Path_2496" data-name="Path 2496" d="M444,626.109c-1.608-2.627-4.624-2.9-7.069-4.013-2.079-.946-2.191-2.552-1.862-4.065.451-2.072,2.168-.8,3.241-.566,6.012,1.3,11.937,3.039,17.7-1.118,1.827-1.319,4.389-.4,6.292.216,9.3,2.991,18.48,6.33,27.7,9.546h-5c-6.633-3.83-14.2-5.13-21.24-7.876-1.527-.6-2.255.509-2.516,1.64-.476,2.061-1.922,3.947-1.244,6.236h-2c.651-2.033,1.333-4.058,1.94-6.1.295-.993.329-2.058-.959-2.365-1.081-.257-1.365.8-1.617,1.474-.861,2.3-1.587,4.66-2.364,6.995h-1c.658-2.452,1.315-4.9,2.13-7.945-2.808.842-4.847,1.757-7.13,1.991-2.657.273-6.721-2.05-7.64.544-1.235,3.485,4.419,2.745,5.64,5.41Z" transform="translate(4130 693)"/>
        <path id="Path_2498" data-name="Path 2498" d="M79,626.109c1.726-15.137-1.752-29.188-8.772-42.534-1.14-2.166-3.006-3.983-3.305-6.573,7.729,9.38,10.962,20.556,12.991,32.246.97,5.594.682,11.244,1.086,16.861Z" transform="translate(4130 693)"/>
        <path id="Path_2499" data-name="Path 2499" d="M626,596.109c-6.585,2.771-11.6,6.681-11.481,14.756.113,7.956,3.171,11.894,11.481,14.244-.4,2.146-2.051.512-3,1-13.1-7.35-13.644-20.667-1.192-29.357,1.353-.945,2.793-1.765,4.192-2.643Z" transform="translate(4130 693)"/>
        <path id="Path_2503" data-name="Path 2503" d="M55,626.109c.731-4.2.445-7.724-4.489-9.456-1.866-.655-3.281-2.594-5.978-4.847,2.379,5.269,4.944,9.528,2.467,14.3H45c2.89-3.34,1.885-6.652.02-10.03-.934-1.693-2.394-3.942-.3-5.262,1.746-1.1,2.416,1.6,3.59,2.581.629.525,1.132,1.42,1.835,1.606C56,616.549,56.7,621.19,57,626.109Z" transform="translate(4130 693)"/>
        <path id="Path_2504" data-name="Path 2504" d="M34,626.109c-.618-4.256-1.342-8.5-1.792-12.774-.137-1.3-.87-3.527,1.081-3.78,1.77-.229,1.8,2.087,2.311,3.381,1.744,4.415,1.9,9.474,5.4,13.173H38a29.855,29.855,0,0,0-3.738-10.921A19.236,19.236,0,0,0,36,626.109Z" transform="translate(4130 693)"/>
        <path id="Path_2510" data-name="Path 2510" d="M626,455.109c-.772-.24-1.563-.434-2.314-.729-2.321-.915-3.951-2.4-3.462-5.137.6-3.349,3.478-2.768,5.776-3.134v2c-1.962-.461-4.407-1.165-4.476,1.844-.058,2.5,1.867,3.67,4.476,3.156Z" transform="translate(4130 693)"/>
        <path id="Path_2513" data-name="Path 2513" d="M180.842,506.474c2.553-1.1,5.068-2.3,7.673-3.263,2.423-.894,2.745-2.072,1.787-4.514-3.325-8.471-2.176-12.648,5.277-18.257,3.088-2.324,2.523-3.524-.277-5.282a15.108,15.108,0,0,0-12.461-1.743c-4.33,1.157-8.6,2.524-12.884,3.862-1.13.354-2.1,1-2.884-.6-.7-1.433-.576-2.382.763-3.373,8.823-6.535,17.492-13.293,27.37-18.248a8.03,8.03,0,0,1,7.648-.022c5.05,2.538,10.209,4.874,15.161,7.59a6.041,6.041,0,0,0,6.429.022,144.525,144.525,0,0,1,85.1-15.308c2.6.313,6.358-.121,7.39,1.849,1.192,2.274-1.995,4.5-3.513,6.529-17.73,23.731-40.561,40.62-68.566,50.3-4,1.382-5.881,3.546-6.82,7.455-1.085,4.511-2.829,8.859-4.08,13.336a8.808,8.808,0,0,1-6.213,6.464c-9.98,3.361-20.342,4.879-30.655,6.646-1.5.257-3.134.391-3.744-1.5-.674-2.088,1.184-2.415,2.411-3.129,4.023-2.338,8.1-4.594,12.062-7.021a11.108,11.108,0,0,0,4.867-5.535c.856-2.307,2.549-5,1.074-7.088-1.348-1.912-4.006-.185-6.068.086-5.182.679-11.69-2.408-13.121-7.08-1.531-5-3.857-5.935-8.18-3.26a31.823,31.823,0,0,1-4.987,2.055l-.561-.969m49.34-21.007.429,1.119q-6.82,2.913-13.642,5.824c-12.837,5.444-12.767,5.407-6.755,18.158,1.159,2.458,2.565,3.1,5.048,2.575,25.008-5.324,48.609-13.908,69.136-29.666,11.083-8.51,11.864-11.58,6.121-24.407-.746-1.665-1.69-3.243-2.577-4.842-2.831-5.105-6.82-6.757-12.849-6.008-24.121,2.994-45.92,11.943-66.358,24.676-11.5,7.164-11.334,7.128-6.2,19.506,1.367,3.3,2.649,3.852,5.795,2.418,7.209-3.285,14.562-6.255,21.856-9.353m8.088,23.292c-7.472,1.881-13.873,3.528-20.3,5.08-1.272.307-2.177.71-2.243,2.161-.47,10.342-8.191,14.481-15.9,18.693-1.7.93-4.042,1.205-5.148,4.139a248.484,248.484,0,0,0,29.837-5.7c4.818-1.164,7.819-3.7,8.982-8.741,1.146-4.975,2.956-9.8,4.768-15.634m-70.36-33.873q.409.657.817,1.315c2.485-.771,4.984-1.5,7.454-2.321,7.792-2.588,15.476-4.242,22.428,2.116a2.164,2.164,0,0,0,2.768.166c5.815-3.663,11.614-7.353,18.222-11.544-6.68-3.223-12.475-6.025-18.275-8.815-1.213-.583-2.458-1.064-3.809-.426-10.83,5.109-20.144,12.416-29.6,19.509m127.441-.923a126.155,126.155,0,0,0,19.388-22.316c.894-1.31.142-2.269-1.277-2.473a124.07,124.07,0,0,0-28.759-1.231c6.688,7.615,9.852,15.78,10.648,26.02M209.339,511.5c-1.438-3.319-3.21-7.6-5.155-11.8-.808-1.746-2.274-.807-3.438-.334-1.066.433-2.3,1.005-1.669,2.523,1.579,3.823,3.151,7.655,4.914,11.395.959,2.033,2.9.979,4.447.893.983-.054,1.445-.655.9-2.672m-14.1-29.339c-.7,1.385-3.923,1.468-2.6,4.6,1.408,3.338,2.875,6.653,4.2,10.025.718,1.826,1.822,2.069,3.483,1.388,1.742-.715,2.776-1.588,1.809-3.7-1.648-3.591-3.148-7.248-4.714-10.876-.324-.749-.594-1.57-2.174-1.438m-4.313,6.98c-.945,1.009-2.616,1.787-1.725,3.883s1.794,4.215,2.706,6.316c.524,1.206,1.25,1.751,2.684,1.179,1.658-.663,1.768-1.671,1.147-3.1-.978-2.251-1.874-4.539-2.89-6.771-.307-.673-.6-1.55-1.922-1.508m5.134,12.3c-.891.442-2.328.547-2.1,1.764a19.937,19.937,0,0,0,3.88,8.846c.408.512,1.918.487,2.769.222,1.373-.427.716-1.634.393-2.462-.892-2.287-1.9-4.531-2.883-6.781-.4-.9-.825-1.826-2.061-1.589" transform="translate(4130 693)"/>
        <path id="Path_2516" data-name="Path 2516" d="M539.341,528.45c2.512,2.214,5.236,2.337,7.535,2.373,3.766.059,5.187.221,7.678,3.331,2.94,3.669,2.153,9.181-2.155,10.958-7.88,3.251-16,5.922-24.022,8.836-.142-.391-.285-.78-.427-1.17l19.97-7.149c-4.419-2.254-8.578-2.329-12.531-3.266-.892,2.253,2.235,2.362,1.826,4.188-.333-.025-.759.073-.921-.09-3.321-3.354-8.388-5.9-7.763-11.481.684-6.115,6.61-6.238,10.946-7.926,4.108-1.6,8.3-2.974,12.394-5.582l-11.629-2.5c-1.032,2.1,1.91,2.28,1.365,3.967-1.564.022-2.23-1.322-3.127-2.161-8.216-7.684-7.192-12.557,3.4-16.329,4.978-1.771,9.984-3.461,16.1-5.576a54.49,54.49,0,0,0-12.705-2.979c-1.132,1.914,1.462,2.105,1.2,3.466-.469.5-.889.158-1.278-.136s-.738-.669-1.127-.98c-8.489-6.805-8.769-14.323,3.424-17.438,4.77-1.218,9.34-3.217,14.7-5.106-4.551-2.233-8.725-2.349-12.644-3.235-1.289,1.513,1.416,1.948.81,3.318-7.328-4.582-9.825-8.25-8.123-12.719,2.326-6.109,9.367-4.937,13.62-8.3-1.366-2.96-4.849-3.9-6.71-7.182,4.349,1.316,6.03,6.527,10.025,6.324,3.577-.182,7.064-2.136,10.925-2.424l-9.831,3.869c1.842,3.248,4.918,4.981,7.281,7.364,5.117,5.157,4.2,10.5-2.538,13.265-5.111,2.1-10.366,3.842-15.443,6.236,3.215,1.01,5.945,1.89,9.572,1.248,2.33-.413,6.1,3.666,6.653,7.726.485,3.548-.961,6.263-4.319,7.606-4.319,1.728-8.723,3.241-13.1,4.833-1.382.5-2.961.612-4.183,2.451,2.964-.59,5.667,3.794,8.3-.519.083-.135.736-.131.917.034,2.884,2.63,6.87,4.373,7.51,8.859.626,4.386-1.714,6.9-5.573,8.3-5.145,1.862-10.308,3.672-16.005,5.7M564.4,474.188c2.16.13,4.1-.872,4.342-3.04.22-1.945-2.123-1.7-3.4-1.985-6-1.332-12.026-2.532-18.065-3.665-1.417-.266-3.586-1.742-4.081.818a3.558,3.558,0,0,0,3.046,3.987c6,1.339,12.02,2.579,18.16,3.885M543.3,463.3c8.345,1.727,16.057,3.341,23.782,4.885a2.024,2.024,0,0,0,1.722-.509c.511-.766-.105-1.52-.559-2.233-3.086-4.835-18.016-7.911-22.741-4.624a18.031,18.031,0,0,0-2.2,2.481m11.122,57.308c2.281.44,4.33-.294,4.54-2.569s-2.267-1.824-3.743-2.142q-8.215-1.769-16.462-3.4c-1.326-.263-3.279-1.531-3.848.371-.628,2.1.786,3.834,3.047,4.326,5.477,1.19,10.976,2.28,16.466,3.411m-4.041,23.517a3.3,3.3,0,0,0,3.836-2.573c.466-2.635-2.249-1.973-3.51-2.273-5.454-1.3-10.969-2.371-16.5-3.264-1.309-.211-3.516-2.083-4.118.488-.507,2.162,1.184,3.582,3.427,4.049,5.493,1.144,10.978,2.323,16.869,3.573m8.582-46.875c2.75.226,4.378-.538,4.792-2.271.556-2.329-1.681-1.929-2.953-2.211-5.819-1.288-11.641-2.573-17.5-3.648-1.168-.214-3.257-1.453-3.651.908a3.29,3.29,0,0,0,2.686,3.708c5.806,1.322,11.651,2.475,16.627,3.514m-17.82,9.49c-2.558.193-5.093.56-5.281,2.7-.175,1.985,2.434,1.585,3.937,1.9,5.007,1.058,10.013,2.134,15.052,3.02,1.5.263,3.847,2.113,4.45-.426.45-1.894-1.564-3.569-3.644-4.056-4.977-1.165-9.991-2.173-14.514-3.142m-5.027,23.264c-2.026.069-4.536.536-4.883,2.545-.468,2.712,2.586,1.88,4,2.243,4.985,1.281,10.068,2.2,15.143,3.1,1.421.252,3.669,1.631,4.17-.683.4-1.825-1.486-3.48-3.252-3.931-4.988-1.272-10.064-2.2-15.177-3.277m3.429-42.972c7.93,1.6,15.081,3.034,22.231,4.475.793.16,1.713.576,2.219-.351.564-1.034-.118-1.879-.742-2.686-2.4-3.1-18.287-5.894-21.634-3.756a16.3,16.3,0,0,0-2.074,2.318" transform="translate(4130 693)"/>
        <path id="Path_2520" data-name="Path 2520" d="M365.338,602.781a47.432,47.432,0,0,1-5.988-.043c-3.977-.513-8.382,1.7-11.9-1.811A27.245,27.245,0,0,1,339.1,583.81c-1.09-11.671,3.772-20.383,13.72-26.2,2.494-1.457,3.694-2.916,3.379-5.789-.7-6.332.993-12.725-1.373-19.124-1.005-2.717,1.825-6.049,1.657-9.45-.067-1.345,1.849-1,2.932-1.013,4.328-.055,8.661.087,12.985-.07,2.692-.1,3.047,1.157,3.445,3.54,1.417,8.49-2.022,16.688-1.105,25.169.351,3.251.926,5.178,4.036,6.949,14.815,8.441,17.91,27.633,6.99,40.9-2.386,2.9-4.961,4.544-8.946,4.14a113.789,113.789,0,0,0-11.479-.084m23.647-30.7.129.153c-.947-5.153-3.594-7.5-9.263-7.266-10.138.414-20.309.06-30.465.021-1.83-.007-3.6-.158-4.856,1.74a23.77,23.77,0,0,0-4.373,14.978c6.134-2.159,9.125-1.448,10.338,2.254a4.984,4.984,0,0,1-.633,4.287c-1.64,2.763-4.567,2.561-7.552,2.73,1.862,4.217,3.811,7.61,7.95,10.1-.549-3.543-.907-6.649,3.207-6.99,2.826-.234,4.786,1.537,4.17,4.245-.794,3.486,1.2,3.194,3.151,2.931,1.6-.214,4.809,1.628,3.788-2.817-.517-2.249.945-4.149,3.678-4.336,2.153-.146,4.155.983,3.987,2.868-.594,6.658,3.653,3.808,7.481,4.566-2.651-3.142-3.945-5.652-1.313-7.879,3.227-2.731,5.285.049,7.619,2.816.561-2.832,6.408-5.451-1.014-6.9-1.929-.375-2.327-2.736-1.759-4.664.6-2.041,2.325-3.214,4.226-2.56,4.338,1.489,3.807-1.31,3.52-3.734-.269-2.271-.386-4.661-2.016-6.543m-5.707-8.555a5.9,5.9,0,0,0-3.762-3.758c-5.733-1.743-6.325-5.95-5.751-10.9a14.1,14.1,0,0,0,.058-1.993c-.4-14.65,2.93-11.7-12.833-12.1-2.56-.066-3.606.828-3.488,3.438.158,3.484-.129,6.993.13,10.465.368,4.935-.024,9.166-5.751,10.955a5.258,5.258,0,0,0-3.58,3.886Zm-17.6-34.179v.026c1.826,0,3.653-.036,5.478.009,1.88.049,3.152-.3,3.14-2.68-.012-2.278-.738-3.4-3.122-3.349-3.651.082-7.3.058-10.956.065-2.249,0-2.672,1.377-2.683,3.281s.763,2.732,2.665,2.662c1.823-.067,3.652-.014,5.478-.014M345.3,581.48c-2.672.31-4.122,1.859-3.926,4.268a3.677,3.677,0,0,0,4.377,3.6,3.532,3.532,0,0,0,3.494-3.934c-.033-2.617-1.656-3.722-3.945-3.93m19.93-48.173v.033c2.833,0,5.667.049,8.5-.044a1.911,1.911,0,0,0,1.486-.943c.274-1.043-.585-1.469-1.473-1.473q-8-.045-15.994.013c-.83.006-1.78.346-1.491,1.429a1.919,1.919,0,0,0,1.483.941c2.494.1,4.995.044,7.493.044m15.755,65.981a2.4,2.4,0,0,0,2.539-2.316,2.478,2.478,0,0,0-2.5-2.958,2.339,2.339,0,0,0-2.655,2.3c-.148,1.681.665,2.8,2.616,2.979m-9.843-1.515c-.285-1.627-1.232-2.68-2.97-2.444a2.608,2.608,0,1,0,.661,5.173,2.468,2.468,0,0,0,2.309-2.729M387,588.935c1.761-.3,2.765-1.32,2.591-3.043a2.657,2.657,0,0,0-5.284.154A2.731,2.731,0,0,0,387,588.935m-33.312,11.541c1.477-.115,2.506-.775,2.6-2.358.106-1.764-.859-2.916-2.546-2.9a2.563,2.563,0,0,0-2.671,2.861c.073,1.505,1.152,2.242,2.615,2.4" transform="translate(4130 693)"/>
        <path id="Path_2526" data-name="Path 2526" d="M483.5,481.374c6.044-.667,7.881,1.3,8.557,5.332q7.013,41.8,14.282,83.561c.846,4.891-1.852,6.641-5.957,7.339-14.42,2.453-28.863,4.774-43.26,7.352-16.482,2.951-14.122,1.9-16.663-12.311-4.477-25.031-8.54-50.136-12.843-75.2-.639-3.724.366-6.441,4.222-7.127,17.834-3.175,35.7-6.2,51.662-8.948M428.76,495.99c.067.753.074,1.089.129,1.416q7.1,41.765,14.222,83.526c.645,3.779,3.016,4.724,6.575,4.1,16.523-2.921,33.063-5.737,49.593-8.621,5.818-1.015,6.529-2.175,5.5-8.078q-2.872-16.447-5.641-32.915-4.092-24.075-8.163-48.153c-.522-3.066-1.744-5.613-5.483-4.987q-26.295,4.407-52.563,8.98c-2.771.481-4.591,1.968-4.169,4.736" transform="translate(4130 693)"/>
        <path id="Path_2527" data-name="Path 2527" d="M80.976,474.1c.126-6.022,4.134-12.23,11.683-16.284,1.336-.717,3.794-.725,3.193-3.071-.615-2.4-2.771-1.293-4.227-1.018-3.41.643-5-.858-4.3-3.99,1.485-6.7-.278-13.2-.849-19.744-.754-8.628-1.054-8.621,7.558-9.5,3.475-.353,6.986-.437,10.433-.955,2.765-.416,3.43.761,3.615,3.214.46,6.138,1.147,12.26,1.71,18.39a15.005,15.005,0,0,0,1.178,5.766c1.624,3.22,1.019,5.418-3.315,5.208-1.377-.066-3.379-.248-3.68,1.706-.388,2.51,1.92,2.162,3.4,2.619,9.841,3.042,15.894,11.421,15.43,21.347-.46,9.832-7.44,17.632-17.546,19.6-12.5,2.441-24.266-7.582-24.283-23.3M87.54,427.15c.384,3.882.485,6.558.946,9.172.662,3.747-1.142,8.747,1.709,11,2.967,2.347,7.652-.131,11.6-.224,7.061-.167,7.045-.376,6.494-7.254a49.377,49.377,0,0,0-.4-5.973c-.838-4.065.892-9.345-1.816-12.006-2.9-2.848-7.886.122-11.975.026-.166,0-.333.034-.5.024-4.628-.274-7.847.724-6.066,5.231m14.477,69.222a19.5,19.5,0,0,0,19.475-19.729,19.761,19.761,0,0,0-19.618-19.677,20.046,20.046,0,0,0-19.868,20.071,19.821,19.821,0,0,0,20.011,19.335M105.978,448c-4.85.4-9.467.737-14.075,1.17-1.241.117-3.054.056-2.861,1.9.205,1.957,2.06,1.229,3.211,1.16q6.927-.417,13.836-1.122c1.473-.152,4.022.4,3.778-1.952-.25-2.4-2.713-.76-3.889-1.158" transform="translate(4130 693)"/>
        <path id="Path_2532" data-name="Path 2532" d="M458.361,425.063c3.415-.165,7.159.6,9.81,3.236a13.484,13.484,0,0,0,10.777,3.939,4.933,4.933,0,0,1,1.487.131c2.831.778,6.519.872,7.135,4.41s-2.563,5.261-5.232,6.5a22.931,22.931,0,0,0-10.4,9.177c-5.319,8.525-17.259,9.864-24.864,3.122a14.444,14.444,0,0,0-9.215-3.824c-3.313-.258-7.794-.437-8.43-4.675-.576-3.841,3.284-5.535,6.229-6.892a16.985,16.985,0,0,0,8.088-7.459c2.992-5.217,8.077-7.718,14.614-7.662m-16.475,16.985c-.1,5.638,1.917,9.116,5.453,8.88a110.087,110.087,0,0,0,23.5-4.085c2.85-.829,3.452-2.5,3.369-5.152a16.164,16.164,0,0,0-32.318.357m31.209,5.583a138.78,138.78,0,0,1-27.21,4.729c4.323,5.316,9.268,6.64,14.741,5.809,5.748-.873,9.938-4.054,12.469-10.538m4.264-14.654c-1.185.58-3.956-.474-3.255,1.582,1.109,3.251-.26,7.537,2.976,9.687,1.663,1.105,9.422-4.649,9.062-6.519-.958-4.971-5.739-3.206-8.783-4.75M438.8,450.644c1.352,0,3.738.437,3.045-1.214-1.295-3.091.773-7.317-2.656-9.3-1.8-1.043-8.989,4.667-8.464,6.5,1.188,4.145,5.164,3.266,8.075,4.021" transform="translate(4130 693)"/>
        <path id="Path_2534" data-name="Path 2534" d="M301.71,565.02c-.043,5.039-2.708,8.755-6.088,12.123-3.953,3.94-8.167,7.359-10.026,13.286-1.114,3.554-5.491.116-8.4.329-2.184.16-1.628-1.819-1.469-3.349.485-4.648,3.252-7.857,6.441-10.888a53.85,53.85,0,0,0,6.233-6.41c2.86-3.818,2.172-7.812-1.3-9.941-3.491-2.142-7.448-1.064-9.979,2.547-.868,1.239-.553,3.8-2.842,3.5a38.839,38.839,0,0,1-7.181-1.938c-1.183-.394-1-1.542-.823-2.556,1.246-7.285,10.669-13.218,19.844-12.486,8.938.713,15.564,7.421,15.589,15.781m-1.451.344c.044-6.9-3.966-12.186-10.618-14.2-8.033-2.428-15.745.226-20.111,6.969-.89,1.374-2.419,2.975-1.669,4.458.961,1.9,3.481,1.687,5.376,2.087,2.346.5,2.25-2.017,3.19-3.176,3.062-3.775,8.3-4.734,11.979-2.013,3.3,2.435,3.853,7.171,1.231,11.2a32.775,32.775,0,0,1-6.224,6.437c-2.773,2.439-5.279,5.122-6.206,8.849-.348,1.4-.971,3.219,1.2,3.651,2.135.426,5.57,2.054,6.262-.444,1.813-6.548,7.34-9.693,11.3-14.256,2.449-2.819,4.537-5.767,4.292-9.565" transform="translate(4130 693)"/>
        <path id="Path_2535" data-name="Path 2535" d="M53.469,511.344c.8.4,2,.953,3.159,1.572,10.1,5.385,20.127,10.9,30.314,16.112,3.627,1.854,4.747,3.8,2.212,7.29a20.617,20.617,0,0,0-2.1,3.947c-1.3,3.005-3.232,3.322-5.983,1.835q-16.2-8.754-32.485-17.35c-2.6-1.374-3.155-3.168-1.71-5.7,1.068-1.872,2.056-3.789,3.071-5.69a3.213,3.213,0,0,1,3.526-2.017m17.489,12.677c.4-1.883-.614-2.353-1.443-2.8-4.938-2.682-9.906-5.307-14.862-7.955-1.826-.975-3.075-.563-3.955,1.386a48.945,48.945,0,0,1-2.616,4.78c-1.193,2.009-.654,3.285,1.392,4.332,4.855,2.487,9.641,5.109,14.46,7.666.851.453,1.963,1.3,2.645.248,1.693-2.626,3.123-5.423,4.379-7.654m18.106,9.7c.252-2.187-1.176-2.618-2.289-3.231-2.9-1.6-6.032-2.844-8.692-4.758-4.01-2.885-5.862-1.78-8.114,2.364-2.286,4.208-1.981,6.411,2.549,8.069,2.153.789,4.023,2.382,6.19,3.1,2.15.715,4.16,4.444,6.737,1.022a48.154,48.154,0,0,0,3.619-6.568" transform="translate(4130 693)"/>
        <path id="Path_2537" data-name="Path 2537" d="M255.479,570.057c.36,5.969.567,11.952,1.139,17.9.355,3.674-2.052,3.489-4.358,3.8-2.509.336-4.6.344-4.892-3.07-1.029-12.241-2.1-24.479-3.3-36.7-.575-5.839,4.007-3.323,6.438-4.1,3.241-1.039,4,1.028,4.095,3.761.222,6.141.532,12.278.8,18.417h.079m-9.633-13.1-.162.018c.994,9.919,2.074,19.832,2.925,29.765.226,2.632.844,3.85,3.812,3.662,3.153-.2,2.822-2.148,2.712-4.141-.619-11.12-1.427-22.235-1.811-33.362-.123-3.522-1.491-4.071-4.535-3.887-3.2.2-4.064,1.568-3.359,4.484a28.559,28.559,0,0,1,.418,3.461" transform="translate(4130 693)"/>
        <path id="Path_2541" data-name="Path 2541" d="M252.491,606.959c-5.724,1.482-4.806-3.086-5.256-6.56-.676-5.22,3.3-3.569,5.9-4.16,5.518-1.256,5.148,2.527,5.674,6.058.8,5.35-2.848,4.5-6.317,4.662m4.768-5c-.122-2.567.346-5.241-3.5-4.49-2.592.506-5.817-.225-5.076,4.418.413,2.587.518,4.646,3.915,3.849,2.288-.535,5.976.559,4.665-3.777" transform="translate(4130 693)"/>
        <path id="Path_2542" data-name="Path 2542" d="M277.506,595.69c2.414,1.775,8.136-1.749,7.187,4.652-.353,2.381,1.183,7.081-3.662,6.253-2.448-.419-7.658,1.985-7.239-3.508.18-2.358-1.716-7.079,3.714-7.4m5.766,5.625c1.146-4.535-2.507-3.539-4.521-4.075-3.7-.984-3.336,2.037-3.767,4.2-.71,3.561,1.771,3.468,4.153,3.871,3.573.6,4.358-1.235,4.135-3.992" transform="translate(4130 693)"/>
        <path id="Path_2544" data-name="Path 2544" d="M365.014,511.937c.1-3.622,2.08-5.5,5.3-5.5,3.33-.005,5.276,2.279,5.19,5.47a4.823,4.823,0,0,1-5.1,5.026c-3.414.058-5.153-1.8-5.394-4.994m9.188-.084c-.133-2.466-1.378-3.994-3.95-4.015a3.909,3.909,0,0,0-.333,7.81c2.425.1,4.039-1.13,4.283-3.8" transform="translate(4130 693)"/>
        <path id="Path_2545" data-name="Path 2545" d="M136.384,525.388,162.6,514.233l.491,1.112-26.059,11.116q-.322-.535-.643-1.073" transform="translate(4130 693)"/>
        <path id="Path_2546" data-name="Path 2546" d="M18.58,528.978c-.726,3.06-2.508,4.9-5.6,4.519s-4.624-2.5-4.243-5.587a4.481,4.481,0,0,1,5.169-4.188c3.061.24,4.544,2.323,4.67,5.256m-5.313-4.01c-2.161.463-3.582,1.712-3.286,4.091a3.288,3.288,0,0,0,3.758,3.132,3.34,3.34,0,0,0,3.346-4.029c-.227-2.1-1.641-3.117-3.818-3.194" transform="translate(4130 693)"/>
        <path id="Path_2547" data-name="Path 2547" d="M225,608.828c-.261,3.135-1.986,4.9-4.814,4.875-3.066-.023-5.054-1.948-4.928-5.1s2.1-4.808,5.311-4.585c3.018.21,4.358,2.056,4.431,4.807m-4.6-3.77c-2.094.118-3.476,1.122-3.7,3.242-.253,2.344.825,3.83,3.266,4.009a3.314,3.314,0,0,0,3.778-3.113c.31-2.329-1.138-3.625-3.34-4.138" transform="translate(4130 693)"/>
        <path id="Path_2549" data-name="Path 2549" d="M227.536,424.259c3.15.28,4.97,2.183,4.847,5.129-.121,2.927-1.985,4.8-5.222,4.655a4.5,4.5,0,0,1-4.6-4.786c-.023-2.955,1.846-4.788,4.978-5m-.123,1.359c-2.067.236-3.478,1.256-3.539,3.438a3.618,3.618,0,1,0,7.215-.14c-.157-2.156-1.611-3.136-3.676-3.3" transform="translate(4130 693)"/>
        <path id="Path_2552" data-name="Path 2552" d="M302.04,524.954c-.016,3.224-1.457,5.07-4.422,5.264-3.153.207-5.216-1.467-5.309-4.628a4.628,4.628,0,0,1,4.965-5.087,4.436,4.436,0,0,1,4.766,4.451m-1.058.258c-.564-2.178-1.816-3.544-4.2-3.283-2.161.238-3.175,1.663-3.057,3.762a3.3,3.3,0,0,0,3.526,3.391c2.312-.027,3.444-1.624,3.731-3.87" transform="translate(4130 693)"/>
        <path id="Path_2554" data-name="Path 2554" d="M104.824,570.664c-.366,2.972-1.923,5.065-5.048,5.088-2.839.021-4.66-1.678-4.781-4.671-.118-2.947,1.316-4.791,4.318-5.036,3.224-.263,4.9,1.533,5.511,4.619m-4.8,3.732a3.287,3.287,0,0,0,3.24-3.444,3.35,3.35,0,0,0-3.61-3.793,3.413,3.413,0,0,0-3.527,3.463c-.075,2.277,1.312,3.618,3.9,3.774" transform="translate(4130 693)"/>
        <path id="Path_2558" data-name="Path 2558" d="M358.583,497.952c-2.582-.447-3.867-1.982-3.677-4.506.182-2.416,1.761-3.473,4.087-3.361a3.553,3.553,0,0,1,3.706,3.838c0,2.583-1.694,3.785-4.116,4.029m.157-6.812c-1.565.327-2.743,1.143-2.683,2.9a2.434,2.434,0,0,0,2.562,2.44,2.314,2.314,0,0,0,2.648-2.278c.125-1.751-.814-2.721-2.527-3.06" transform="translate(4130 693)"/>
        <path id="Path_2559" data-name="Path 2559" d="M170.442,525.54l-16.621,7.015-.455-1.062,16.668-7.129.408,1.176" transform="translate(4130 693)"/>
        <path id="Path_2560" data-name="Path 2560" d="M143.543,508.966l16.534-7.062q.238.578.478,1.156L144,510.082l-.46-1.116" transform="translate(4130 693)"/>
        <path id="Path_2567" data-name="Path 2567" d="M314.631,604.4c-.211-1.921-1.546-2.56-2.9-3.18.685-1.274,2.95-1.25,2.7-3.29,1.1,1.013,1.7,2.586,3.365,2.951-.789,1.309-2.814,1.462-3.166,3.519" transform="translate(4130 693)"/>
        <path id="Path_2569" data-name="Path 2569" d="M404.632,483.547c.044,2.308,1.591,2.623,2.794,3.292-.983,1.11-2.569,1.662-3.023,3.263-.068-1.9-2.374-1.934-2.884-3.465,1.577-.2,2.448-1.226,3.113-3.09" transform="translate(4130 693)"/>
        <path id="Path_2570" data-name="Path 2570" d="M588.824,525.726c-2.836.955-3.68,2.086-4.295,3.435-.235-1.788-1.974-2.255-2.968-3.376,1.486-.341,2.283-1.532,3.189-2.587.424,1.4,1.407,2.285,4.074,2.528" transform="translate(4130 693)"/>
        <path id="Path_2572" data-name="Path 2572" d="M161.043,604.546l-23.08-4.167q.1-.579.2-1.159l23.048,4.168q-.085.579-.17,1.158" transform="translate(4130 693)"/>
        <path id="Path_2573" data-name="Path 2573" d="M163.339,592l-22.669-4.194q.095-.54.19-1.08l22.758,4.048L163.339,592" transform="translate(4130 693)"/>
        <path id="Path_2574" data-name="Path 2574" d="M136.431,611.9l22.554,4.144-.21,1.141-22.556-4.124q.105-.58.212-1.161" transform="translate(4130 693)"/>
        <path id="Path_2577" data-name="Path 2577" d="M248.193,473.053a11.685,11.685,0,0,1,11.893-11.963c6.74.006,11.715,4.778,11.871,11.385a11.832,11.832,0,0,1-11.535,12.392,12.113,12.113,0,0,1-12.229-11.814m12.06,10.38a10.735,10.735,0,0,0,10.661-10.8A11.2,11.2,0,0,0,259.8,462.1a10.784,10.784,0,0,0-10.241,10.731,10.341,10.341,0,0,0,10.69,10.6" transform="translate(4130 693)"/>
        <path id="Path_2583" data-name="Path 2583" d="M379.875,585.93c-.589,3.141-2.327,5.214-5.706,4.952-3.3-.256-5.156-2.394-4.9-5.707a4.882,4.882,0,0,1,5.354-4.794c3.326.074,5.007,2.2,5.256,5.549m-1.408-.4c-.191-2.429-1.555-3.861-4.1-3.781-2.56.081-3.871,1.623-3.763,4.166a3.548,3.548,0,0,0,3.8,3.673c2.463.024,3.948-1.354,4.058-4.058" transform="translate(4130 693)"/>
        <path id="Path_2584" data-name="Path 2584" d="M388.985,572.084a11.734,11.734,0,0,1-.65,2.9c-1.188,2.336-2.992,3.706-5.63,2.189-2.183-1.256-2.908-3.262-1.494-5.484,1.548-2.432,3.707-2.511,5.99-.942.665.456,1.275.991,1.911,1.492l-.127-.15m-1.806,1.625c-.2-1.639-1.053-2.761-2.815-2.632a2.6,2.6,0,1,0,.373,5.194c1.532-.066,2.289-1.04,2.442-2.562" transform="translate(4130 693)"/>
        <path id="Path_2585" data-name="Path 2585" d="M360.188,583.341c2.486.5,3.958,1.818,3.77,4.451-.173,2.44-1.683,3.572-4,3.457-2.278-.113-3.756-1.334-3.779-3.76-.024-2.663,1.642-3.781,4.009-4.148m-.13,1.516a2.362,2.362,0,0,0-2.5,2.455,2.424,2.424,0,0,0,2.678,2.773,2.467,2.467,0,0,0,2.512-2.945,2.435,2.435,0,0,0-2.688-2.283" transform="translate(4130 693)"/>
        <path id="Path_2586" data-name="Path 2586" d="M357.88,575.269c-.174,3-1.764,4.371-4.152,4.3a3.561,3.561,0,0,1-3.709-3.771c-.07-2.643,1.424-4.114,3.812-4.171a3.8,3.8,0,0,1,4.049,3.646m-3.819,2.975a2.638,2.638,0,1,0-2.871-2.7,2.6,2.6,0,0,0,2.871,2.7" transform="translate(4130 693)"/>
        <path id="Path_2587" data-name="Path 2587" d="M369.03,576.962c-.049,2.251-1.062,3.814-3.479,3.976-2.584.174-4.2-1.224-4.309-3.746-.109-2.543,1.379-4.015,4.01-4.005,2.416.01,3.613,1.361,3.778,3.775m-3.8,2.745c1.661-.231,2.75-1.2,2.617-2.919a2.525,2.525,0,0,0-2.648-2.428,2.478,2.478,0,0,0-2.6,2.905c.088,1.553,1.069,2.315,2.634,2.442" transform="translate(4130 693)"/>
        <path id="Path_2588" data-name="Path 2588" d="M369.746,554.374c-.255,2.481-1.634,4.1-4.044,4.2a3.664,3.664,0,0,1-3.995-3.564,3.767,3.767,0,0,1,3.634-4.416c2.474-.238,3.844,1.445,4.4,3.779m-3.967-2.412c-1.7.07-2.817.929-2.813,2.66a2.615,2.615,0,0,0,5.229-.078,2.445,2.445,0,0,0-2.416-2.582" transform="translate(4130 693)"/>
        <path id="Path_2591" data-name="Path 2591" d="M489.891,503.212c.5,3.662-2.619,3.019-4.368,3.335-12.409,2.243-24.857,4.279-37.29,6.39-1.636.277-3.258.636-4.894.906-7.611,1.256-7.613,1.249-8.949-6.123-1.493-8.227-1.493-8.232,6.747-9.671,14.22-2.484,28.448-4.924,42.657-7.472,2.536-.455,4.058-.254,4.353,2.841.313,3.291,1.141,6.531,1.744,9.794m-1.376-.065c-.372-2.341-.542-3.66-.794-4.963-1.276-6.607-1.281-6.594-8.129-5.427q-17.908,3.054-35.822,6.081c-11.8,1.993-8.932.206-7.684,11.289.018.164.084.323.1.487.277,2.373,1.642,2.912,3.841,2.527q22.8-3.987,45.628-7.841c1.992-.334,3.158-.944,2.857-2.153" transform="translate(4130 693)"/>
        <path id="Path_2592" data-name="Path 2592" d="M492.664,548.154c2.185-.555,3.251.529,3.61,2.745.827,5.09,1.658,10.18,2.61,15.247.64,3.407-1.472,3.676-3.987,4.154-7.739,1.468-7.709,1.556-8.817-5.995-.338-2.3-.741-4.6-1.159-6.892-1.509-8.265-.872-9.048,7.743-9.259M497.71,566.8c-.921-5.437-1.616-10.532-2.686-15.546-.847-3.964-3.748-1.294-5.68-1.266-1.786.025-4.439-.307-3.926,2.957.794,5.071,1.4,10.2,2.632,15.164.915,3.681,3.887.955,5.872,1.033,1.642.065,3.875.068,3.788-2.342" transform="translate(4130 693)"/>
        <path id="Path_2593" data-name="Path 2593" d="M460.561,552.017c-4.852,0-4.178-4.053-4.089-6.138.24-5.594,5.543-3.619,8.484-4.065,4.372-.663,3.513,4.177,3.424,6.179-.237,5.3-5.58,2.157-7.819,4.024m3.115-8.988c-1.547,1.474-5.91-1.115-5.826,3.571.032,1.75-.348,4.578,2.887,3.832,2.337-.539,6.219,1.123,6.309-3.39.036-1.826.053-4.217-3.37-4.013" transform="translate(4130 693)"/>
        <path id="Path_2594" data-name="Path 2594" d="M473.322,549.976c-4.542-.306-4.02-4.05-3.967-6.308.128-5.454,5.244-3.481,8.054-4.041,4.983-.991,3.934,4.1,3.852,6.211-.208,5.358-5.733,1.937-7.939,4.138m1.419-1.815c1.452-.917,5.332,1.041,5.25-3.255-.039-2.057-.271-4.649-3.52-3.914-2.221.5-5.694-.694-5.7,3.415,0,2.15.05,4.566,3.97,3.754" transform="translate(4130 693)"/>
        <path id="Path_2595" data-name="Path 2595" d="M468.207,564.326c4.924.015,4.055,4.038,4,6.187-.15,5.728-5.49,3.533-8.413,4.1-3.972.768-3.356-3.569-3.42-5.682-.188-6.114,5.726-2.415,7.834-4.6m-1.047,1.651c-1.507,1.091-5.438-1.11-5.432,3.253,0,2.04-.109,4.767,3.287,4,2.234-.5,5.8.792,5.947-3.19.072-1.93.01-4.607-3.8-4.065" transform="translate(4130 693)"/>
        <path id="Path_2596" data-name="Path 2596" d="M490.809,520.813c-1.2,4.8-5.661,3.224-8.529,3.833-4.614.981-3.86-3.666-3.879-5.766-.052-5.883,5.412-3.676,8.318-4.255,4.607-.918,2.314,4.07,4.09,6.188m-7.322,2.413c1.554-.977,5.406,1.09,5.522-3.115.053-1.939.079-4.822-3.274-4.111-2.208.469-5.818-1-5.95,3.165-.063,2-.25,4.646,3.7,4.061" transform="translate(4130 693)"/>
        <path id="Path_2597" data-name="Path 2597" d="M462.193,530.24c5.265-.109,4.428,4.424,4.274,6.462-.383,5.081-5.45,3.23-8.356,3.748-4.514.8-3.613-3.981-3.6-6.025.033-5.522,5.556-2.2,7.683-4.185m-.981,1.638c-1.447.987-5.578-1.149-5.35,3.608.1,2.012.35,4.426,3.226,3.622,2.244-.627,6.29,1.042,6.007-3.686-.114-1.914-.146-4.221-3.883-3.544" transform="translate(4130 693)"/>
        <path id="Path_2598" data-name="Path 2598" d="M453.445,538.9c-1.124,4.753-5.59,3.373-8.444,3.81-4.441.68-3.8-3.666-3.709-6.013.208-5.466,5.328-3.479,8.139-4.026,4.657-.907,2.683,3.8,4.014,6.229m-6.71,2.283c1.373-.9,5.377,1.167,5.141-3.258-.105-1.966-.272-4.793-3.562-3.886-2.141.591-5.787-.765-5.681,3.439.053,2.107.081,4.624,4.1,3.705" transform="translate(4130 693)"/>
        <path id="Path_2599" data-name="Path 2599" d="M469.7,526.974c-4.956.169-4.312-3.94-4.241-6.015.191-5.6,5.484-3.641,8.443-4.132,4.483-.744,3.562,4.117,3.51,6.1-.14,5.39-5.541,2.2-7.712,4.046m.451-1.467c1.843-1.112,6.014,1.176,5.916-3.561-.039-1.871-.078-4.594-3.04-3.8-2.24.6-6.288-1.125-6.171,3.545.046,1.844-.159,4.277,3.3,3.818" transform="translate(4130 693)"/>
        <path id="Path_2600" data-name="Path 2600" d="M459.111,572.567c-.333,5.365-5.018,3.623-7.84,4.246-4.5.995-4.069-2.976-4.117-5.514-.115-6.142,5.289-3.792,8.164-4.413,4.149-.9,2.886,3.3,3.793,5.681m-7.239,2.953c1.718-1.091,5.687,1.066,5.784-3.118.039-1.688.381-5.131-3.141-4.244-2.189.551-5.992-.861-6.12,3.128-.05,1.585-.584,4.882,3.477,4.234" transform="translate(4130 693)"/>
        <path id="Path_2601" data-name="Path 2601" d="M457.193,561.475c-.747,5.206-5.606,3.577-8.536,4.041-3.952.625-3.459-3.4-3.452-5.73.018-6.013,5.376-3.687,8.242-4.272,4.135-.844,2.838,3.377,3.746,5.961m-6.8,2.593c1.385-1.078,5.416.979,5.317-3.207-.04-1.677.3-5.006-3.353-3.977-2.179.615-5.995-1.171-5.866,3.24.054,1.856-.286,4.818,3.9,3.944" transform="translate(4130 693)"/>
        <path id="Path_2602" data-name="Path 2602" d="M446.536,521.3c5.278-.649,4.538,3.311,4.575,5.658.09,6.059-5.309,3.714-8.216,4.3-4.107.831-3.456-3.391-3.564-5.578-.3-5.914,5.278-2.62,7.205-4.381m-.191,1.282c-1.263,1.7-6.021-1.586-5.638,3.612.134,1.827-.161,4.763,2.954,3.8,2.222-.685,6.459,1.233,6.239-3.5-.076-1.615.191-4.371-3.555-3.914" transform="translate(4130 693)"/>
        <path id="Path_2603" data-name="Path 2603" d="M484.6,536.1c-4.733.151-4.391-3.622-4.277-5.952.261-5.328,5.1-3.6,8.069-4.031,5.147-.753,4.005,4.274,3.825,6.276-.413,4.6-5.145,2.5-7.617,3.707m.074-1.165c1.652-1.758,6.16,1.228,6.276-3.45.042-1.676.275-4.869-2.7-4.168-2.25.531-6.347-1.265-6.5,3.261-.059,1.7-.54,4.334,2.931,4.357" transform="translate(4130 693)"/>
        <path id="Path_2604" data-name="Path 2604" d="M475.677,561.176c-4.868-.223-4.575-3.84-4.363-6.2.465-5.143,5.238-3.473,8.2-3.914,4.754-.708,3.661,3.81,3.616,5.972-.118,5.622-5.568,2.108-7.451,4.142m6.478-5.232c-1.113-1.083.087-4.654-3.124-3.651-2.183.683-6.442-1.316-6.282,3.479.057,1.732-.43,4.8,2.815,3.923,2.272-.616,6.173,1.106,6.591-3.751" transform="translate(4130 693)"/>
        <path id="Path_2605" data-name="Path 2605" d="M494.5,543.7c-1.138,4.813-5.852,3.366-8.822,3.773-3.865.528-3.417-3.639-3.385-5.859.078-5.5,5.065-3.6,7.939-4.164,4.73-.936,3.048,3.556,4.268,6.25m-6.962,2.36c1.375-1.2,5.479,1,5.387-3.276-.04-1.845.041-4.932-3.432-3.946-2.14.607-5.985-1.279-5.824,3.257.071,2-.193,4.731,3.869,3.965" transform="translate(4130 693)"/>
        <path id="Path_2606" data-name="Path 2606" d="M485.455,568.731c-1.188,4.758-5.878,3.34-8.84,3.7-3.731.452-3.441-3.577-3.347-5.9.223-5.473,5.162-3.535,8.036-4.082,4.718-.9,2.985,3.573,4.151,6.283m-7.526,2.462c1.614-1.437,5.96,1.042,5.944-3.5-.006-1.6.232-4.634-2.984-3.915-2.25.5-5.937-1.11-6.234,2.905-.124,1.66-.755,4.783,3.274,4.512" transform="translate(4130 693)"/>
        <path id="Path_2607" data-name="Path 2607" d="M460.18,518.976c5.125-.131,4.46,4.043,4.34,6.078-.306,5.18-5.161,3.443-8.156,3.9-4.7.726-3.873-3.9-3.8-5.918.208-5.375,5.408-2.535,7.612-4.065m3.029,5.167c-.4-2.031-.283-4.818-3.246-3.779-2.162.757-6.468-1.225-6.068,3.7.152,1.881.129,4.62,3.167,3.651,2.21-.706,6.288,1.069,6.147-3.574" transform="translate(4130 693)"/>
        <path id="Path_2608" data-name="Path 2608" d="M455.152,550.416c-.347,4.52-4.839,3.022-7.78,3.568-4.594.853-4.1-3.1-4.153-5.6-.12-5.416,4.626-3.5,7.381-4.169,4.492-1.09,4.05,2.584,4.552,6.2m-1.088-1.262c-1.187-1.254-.025-5.048-3.552-3.742-2.084.772-6.543-1.412-5.929,3.647.206,1.693-.252,4.763,2.955,3.737,2.225-.713,6.066.989,6.526-3.642" transform="translate(4130 693)"/>
        <path id="Path_2609" data-name="Path 2609" d="M471.491,538.3c-4.792.132-4.169-3.905-4.078-6.042.229-5.324,5.16-3.413,8.091-3.936,4.7-.839,3.918,3.8,3.832,5.856-.22,5.261-5.276,2.759-7.845,4.122m.647-1.241c1.482-1.641,6.013,1.154,5.889-3.592-.045-1.742.072-4.74-2.946-3.9-2.22.621-6.374-1.293-6.267,3.487.04,1.856-.193,4.275,3.324,4" transform="translate(4130 693)"/>
        <path id="Path_2610" data-name="Path 2610" d="M462.217,563.393c-4.565-.123-3.878-4.041-3.806-6.209.168-4.993,4.826-3.325,7.656-3.886,5.106-1.011,4.367,3.783,4.222,5.976-.339,5.109-5.377,2.677-8.072,4.119m-2.556-5.553c.41,2.286.226,5.137,3.218,4.066,2.159-.773,6.539,1.26,6.114-3.658-.151-1.748-.05-4.72-3.161-3.69-2.18.721-6.327-1.2-6.171,3.282" transform="translate(4130 693)"/>
        <path id="Path_2611" data-name="Path 2611" d="M103.834,440.1c-.871-4.845-1.954-9.655-1.557-16.1,2.007,6.2,1.346,11.215,1.557,16.1" transform="translate(4130 693)"/>
        <path id="Path_2612" data-name="Path 2612" d="M102.19,460.207a16.507,16.507,0,1,1-.718,33,16.507,16.507,0,1,1,.718-33M86.55,476.815a15.414,15.414,0,0,0,15.618,15.353,15.436,15.436,0,0,0-.153-30.864A15.386,15.386,0,0,0,86.55,476.815" transform="translate(4130 693)"/>
        <path id="Path_2616" data-name="Path 2616" d="M105.449,483.941c.366,2.023.461,3.592-1.98,3.9-2.673.34-2.431-1.586-2.6-3.171-.309-2.969-.516-5.949-.835-8.917-.117-1.09.252-2.92-1.1-2.969-3.034-.111-2.846-2.324-2.323-3.782a5.7,5.7,0,0,1,5.017-3.56c2.324-.249,2.173,1.406,2.314,2.9.5,5.287,1.017,10.573,1.5,15.6m-2.082,2.03c1.163-5.869-.41-11.618-.581-17.4a1.489,1.489,0,0,0-1.626-1.516,3.581,3.581,0,0,0-2.791,1.808c-.333.457-.3,1.1.284,1.1,3.567,0,1.867,2.795,2.295,4.357,1.045,3.811.157,8.021,2.419,11.656" transform="translate(4130 693)"/>
      </g>
      <g id="Group_414" data-name="Group 414" transform="translate(-3464 -905)" opacity="0.06">
        <path id="Path_2490" data-name="Path 2490" d="M120,.109c-2.364,13.08-4.625,26.179-7.154,39.227-.756,3.9-.006,5.466,4.29,6.119,11.82,1.8,23.563,4.123,35.3,6.432,2.953.58,4.305-.044,4.708-3.14.578-4.444,1.518-8.84,2.231-13.267.429-2.672,1.707-3.631,4.469-2.988,4.2.978,8.483,1.627,12.713,2.5,2.626.544,4.262.4,4.8-3,1.676-10.66,3.735-21.26,5.646-31.883h1c-1.289,11.729-3.995,23.212-5.979,34.821a4.967,4.967,0,0,1-2.537,3.42q-10.075,6.915-20.1,13.9a5.993,5.993,0,0,1-5.042,1.191c-13.2-2.562-26.425-5.03-39.688-7.248-3.028-.506-4.018-1.535-3.455-4.485,2.641-13.858,5.209-27.73,7.8-41.6Zm37.9,51.583c7-4.847,12.971-8.971,18.927-13.114.916-.637,1.593-1.849.153-2.156-4.84-1.031-9.9-2.759-14.593-2.138-3.063.406-2.167,5.564-2.932,8.614-.6,2.386-.875,4.853-1.555,8.794" transform="translate(4235 1080)"/>
        <path id="Path_2493" data-name="Path 2493" d="M0,71.109c32.575,2.973,66.253-21.037,76.159-54.376C77.765,11.325,79.369,5.874,79,.109h2c-1.564,6.763-2.256,13.7-4.621,20.311A78.726,78.726,0,0,1,4.454,72.811c-1.486.053-2.969.2-4.454.3Z" transform="translate(4235 1080)"/>
        <path id="Path_2494" data-name="Path 2494" d="M57,.109A22.758,22.758,0,0,1,54.654,8.2c-2.611,5.016-1.258,10.069-.441,15.122.141.876.338,2.141,1.483,2.317,1.218.187,1.6-1.031,2.06-1.859A65.727,65.727,0,0,0,65,.109h1c-2.6,34.105-32.907,59.907-66,58v-1q32.028.382,52.167-24.523c1.9-2.358,2.861-4.274,1.392-7.839a21.584,21.584,0,0,1,.1-17.477C54.675,5.034,55.883,2.742,55,.109Z" transform="translate(4235 1080)"/>
        <path id="Path_2495" data-name="Path 2495" d="M74,.109c-1.916,37.481-35.077,67.057-74,66v-1c36.781.76,67.234-24.942,72.354-61.06.186-1.317.429-2.627.646-3.94Z" transform="translate(4235 1080)"/>
        <path id="Path_2497" data-name="Path 2497" d="M0,38.109a12.435,12.435,0,0,0,10.868-2.237c3.524-2.534,5.661-6.954,10.57-7.661.453-.065,1.02-.967,1.124-1.553,1.23-6.926,6.455-10.508,11.634-14.19A21.426,21.426,0,0,0,37.79,9.019c1.685-1.931,3-3.864-.827-5.045C35.195,3.428,35.027,1.377,34,.109h2c.005,1.508.716,2.742,2.148,2.969,4.4.7,2.918,3.214,1.622,5.355-1.837,3.033-4.732,5.093-7.522,7.2-1.722,1.3-4.53,2.327-4.963,3.973C25.419,26.7,19.7,30.1,14.685,34.316,10.385,37.927,6.153,41.353,0,39.109Z" transform="translate(4235 1080)"/>
        <path id="Path_2505" data-name="Path 2505" d="M0,24.109c4.431-5.559,4.264-12.391,4.993-18.9.355-3.164-2.3-3.965-4.993-4.1.9-2.067,2.7-.517,4-1,4.448,5.958,1.563,12.136.229,18.1-.771,3.444-2.778,6.61-4.229,9.9Z" transform="translate(4235 1080)"/>
        <path id="Path_2509" data-name="Path 2509" d="M400,.109a13.024,13.024,0,0,0-.481,3.349c.261,2.293,1.815,3.668,4.049,3.186C407.474,5.8,406.9,2.935,406,.109h2a6.1,6.1,0,0,0-.152,1.445c.362,2.7-.229,5.036-2.938,6.122a4.6,4.6,0,0,1-5.077-.855c-2.128-2-2.152-4.276-.833-6.712Z" transform="translate(4235 1080)"/>
        <path id="Path_2512" data-name="Path 2512" d="M428.106,76.684c-4.952,2.712-8.3,26.614-5.251,30.01a2.476,2.476,0,0,1-.866.3c-8.162-.369-8.271-.384-9.2,8.175-.438,4.045-1.207,5.817-6.306,5.068-34.24-5.031-68.549-9.6-102.847-14.23-2.535-.343-3.736-1.1-2.91-3.776a12.152,12.152,0,0,0,.321-1.97c.421-3.134-.02-6.781,1.471-9.273,1.834-3.063,5.772.383,8.994-1.093-3.182-4.1-5.958-8.419-5.105-13.9.846-5.433,3.8-9.47,9.592-12.661-7.217-2.078-13.763-2.377-20.158-3.272-9.871-1.382-9.9-1.189-8.316-10.783.027-.164.075-.325.1-.489,2.063-12.187,2.109-12.424,14.412-10.079,4.739.9,6.415-.241,6.326-4.957a29.581,29.581,0,0,1,1.017-7.4A4.365,4.365,0,0,0,307.73,21.5q19.2,2.624,38.393,5.251,41.786,5.753,83.569,11.526c2.142.3,4.3.54,6.415.979a9.42,9.42,0,0,1-1.661,18.691,20.2,20.2,0,0,1-2.5-.1c-8.641-.812-8.645-.816-9.877,7.948a28.648,28.648,0,0,1-.31,2.979c-1.165,4.641-1.847,8.926,6.342,7.907M323.4,63.88c-8.46-.161-14.565,4.7-15.558,11.595-1.109,7.7,3.166,14.268,10.9,16.014,4.847,1.094,9.841,1.544,14.776,2.231q40.99,5.708,81.982,11.425c2.989.422,4.222-.552,4.55-3.529.709-6.443,1.342-12.923,2.619-19.264.844-4.192-.637-5.024-4.389-5.509-18.3-2.368-36.549-5.057-54.825-7.575-13.665-1.883-27.342-3.681-40.053-5.388m109.8-7.206c5.266.177,8.974-2.971,9.3-7.528.347-4.868-2.826-8.294-8.587-9.084Q378.1,32.407,322.263,24.805c-11.08-1.508-10.8-1.417-12.786,9.795-.8,4.514.661,5.252,4.59,5.767,23.069,3.025,46.1,6.34,69.148,9.517,16.8,2.314,33.6,4.566,49.991,6.79M314.933,41.686c-1.773-.486-2.805.7-3.039,3.218a72.365,72.365,0,0,1-1.412,10.874c-.989,3.944.109,5.115,4.126,5.644,25.551,3.359,51.07,6.963,76.585,10.591,10.715,1.524,10.7,1.64,12.069-9.005.064-.495.157-.986.239-1.478,1.277-7.693,1.265-7.6-6.183-8.562-11.21-1.451-22.4-3.055-33.6-4.592l-48.786-6.69M381.7,115.438c3.436,1.3,4.368-.943,4.464-4.366a21.906,21.906,0,0,1,.662-4.426c.718-3.009.04-4.38-3.462-4.841-23.532-3.1-47.025-6.5-70.542-9.719-9.558-1.309-9.491-1.205-10.774,8.53-.351,2.66.194,4.02,3.037,4.4,25.334,3.406,50.657,6.88,76.615,10.42M293.957,38.86c-3.072-.976-4.009.635-4.225,3.815a110.431,110.431,0,0,1-1.649,11.344c-.408,2.353.063,3.663,2.746,4.18,10.278,1.98,10.262,2.061,11.41-8.2.073-.661.134-1.326.239-1.983,1.324-8.259,1.326-8.259-7.185-9.052-.332-.03-.664-.054-1.336-.108m118.25,69.832c1.3-2.356-.651-2.973-2.918-3.281q-6.154-.836-12.321-1.577c-1.339-.161-2.456-.15-3.121,1.571-3.341,8.642-1.5,11.83,7.589,12.808.165.018.331.024.5.041,9.8,1.021,9.8,1.021,10.275-9.562M415.525,75.3c4.014.124,4.069.132,4.527-3.1.514-3.621.765-7.286,1.411-10.881.509-2.832,1.24-5.118-3.085-5.491-3.586-.308-5.7-.122-5.676,4.268a33.2,33.2,0,0,1-1.3,9.363c-1.382,4.748.633,6.106,4.12,5.845m-12.014-4.574c-.545,1.749.244,3.144,3.166,3.436,2.972.3,3.154-1.576,3.425-3.645.535-4.091,1.038-8.189,1.74-12.252.4-2.312-.277-3.245-2.656-3.585-2.2-.314-3.46-.072-3.762,2.4-.52,4.26-1.183,8.5-1.913,13.648M302.719,55.7c-.343,2.328-.4,4.194,2.833,4.524,3.263.333,3.366-1.612,3.633-3.891.458-3.925,1.063-7.834,1.659-11.741.3-1.969.417-3.52-2.348-3.775-2.278-.21-3.759-.181-4.041,2.654-.406,4.094-1.141,8.154-1.736,12.229" transform="translate(4235 1080)"/>
        <path id="Path_2531" data-name="Path 2531" d="M82.1,96.019c-7.214,5.693-4.794,6.429.849,7.393,2.014.344.665,5.092.9,7.821.188,2.222-1.651,2.205-3.086,2.282-3.828.2-4.733,1.6-1.657,4.251,2.31,1.993,3.183,3.844.171,5.674-2.264,1.374-3.391,7-7.558,2.267-.847-.964-1.8-2.153-3.371-1.336-1.475.767-1.191,2.239-1.2,3.54-.057,5.627-4.6,2.734-7.066,3.585-2.432.84-3.418-.65-3.713-3.17-.526-4.484-1.663-4.965-4.952-1.736-3.334,3.271-4.574.037-6.3-1.545-1.855-1.7-4.67-3.393-1.127-6.227.98-.783,2.25-1.688,1.687-3.3-.647-1.852-2.325-1.645-3.783-1.609-4.019.1-3.054-2.906-2.766-4.91.306-2.131-1.861-5.845,2.943-5.849,1.413,0,3.159.577,3.94-1.248.763-1.783-.75-2.712-1.726-3.775-3.951-4.307,1.653-4.94,2.864-7.181,1.33-2.462,3.177-2.416,5.05-.158.887,1.069,1.851,2.8,3.574,2.164,1.743-.647,1.253-2.561,1.25-3.97-.005-3.75,2.8-2.787,4.615-2.522,2.2.32,5.951-1.76,6.083,2.792.1,3.44.3,5.89,3.889,2,1.55-1.679,2.652-1.143,4.142.171,1.837,1.622,3.975,2.9,6.358,4.6m-7.972,30.007c2.267-.792,3.44-2.692,4.877-4.2,1.653-1.736-.384-2.594-1.26-3.573-1.117-1.247-2.41-2.238-1.665-4.271.712-1.945,2.278-1.748,3.708-1.677,3.012.151,3.218-1.728,2.946-3.9-.245-1.961.481-4.338-3.062-4.514-4.856-.242-5.432-1.491-2.379-4.9,2.054-2.292.855-3.433-.707-4.824-1.508-1.344-2.785-3.79-5.166-1.014-.955,1.113-1.981,2.371-3.792,1.48-1.507-.741-1.5-2.1-1.312-3.424.469-3.241-1.521-3.437-3.917-3.426-2.243.011-4.5-.268-4.39,3.074.048,1.485.035,2.886-1.877,3.571-1.968.706-2.817-.61-3.733-1.671-1.711-1.984-3.2-2.639-5.183-.256-1.559,1.874-3.911,3.053-.968,5.969,2.865,2.84,1.671,5.628-2.454,5.716-3.511.075-3.534,1.992-3.78,4.459-.274,2.746.687,3.7,3.478,4.053,4.025.506,5,3.167,2.253,6.056-1.933,2.036-2.071,3.288.017,5.217,2.025,1.872,3.387,3.224,6.027.5,2.465-2.547,5.753-1.3,5.849,2.161.093,3.339,1.506,3.681,4.267,3.681,3.195,0,4.331-.992,4.27-4.341-.06-3.252,2.791-4.289,5.348-2.278.9.712,1.721,1.536,2.6,2.333" transform="translate(4235 1080)"/>
        <path id="Path_2538" data-name="Path 2538" d="M217.9,32.049a16.025,16.025,0,0,1,16.985-15.79,16.346,16.346,0,0,1-1.049,32.671A16.152,16.152,0,0,1,217.9,32.049m16.175,15.522a14.942,14.942,0,0,0,15.093-14.74,15.216,15.216,0,0,0-15.055-15.407,15.385,15.385,0,0,0-15.185,15.36,15.116,15.116,0,0,0,15.147,14.787" transform="translate(4235 1080)"/>
        <path id="Path_2555" data-name="Path 2555" d="M10.749,128.053c-2.778-.243-4.389-2.28-4.17-5.211a4.59,4.59,0,0,1,4.922-4.526,4.574,4.574,0,0,1,4.861,5.048c-.085,2.967-1.926,4.795-5.613,4.689m4.387-5.067c-.332-2.057-1.52-3.331-3.652-3.291a3.608,3.608,0,0,0-.023,7.216,3.608,3.608,0,0,0,3.675-3.925" transform="translate(4235 1080)"/>
        <path id="Path_2557" data-name="Path 2557" d="M312.006,144.056c-3.123-.227-4.878-1.85-4.842-5.014.035-2.913,1.693-4.624,4.578-4.732,3.115-.118,4.995,1.546,5.087,4.711s-1.692,4.791-4.823,5.035m3.658-4.948c-.343-2.151-1.425-3.476-3.591-3.485a3.576,3.576,0,1,0-.15,7.151c2.3-.021,3.556-1.453,3.741-3.666" transform="translate(4235 1080)"/>
        <path id="Path_2568" data-name="Path 2568" d="M98.22,71.654c-1.721.479-2.324,1.89-3.305,2.873l-2.829-3.1c1.992.2,2.125-2.773,2.816-2.509,1.164.443,1.4,2.555,3.318,2.732" transform="translate(4235 1080)"/>
        <path id="Path_2571" data-name="Path 2571" d="M272.706,73.46c-.38,2.576,1.849,2.637,2.659,3.89a6.189,6.189,0,0,0-3.153,2.7c-.1-1.695-2.061-1.791-2.634-3.077,1.5-.5,2.127-1.847,3.128-3.514" transform="translate(4235 1080)"/>
        <path id="Path_2575" data-name="Path 2575" d="M19.284,39.621c-.347,0-.168-1.249,0-2.4.429-2.971,6.943-8.616,10-8.772,1.1-.057,1.43.414,1.382,1.422-.118,2.536-7.4,9.685-11.383,9.746M28.532,30.5C24.5,32.36,21.5,33.53,20.975,37.932c3.333-1.64,5.855-3.237,7.557-7.435" transform="translate(4235 1080)"/>
        <path id="Path_2576" data-name="Path 2576" d="M350.262,91.7a4.543,4.543,0,0,1-1.049-.152c-2.938-1.854-3.655-7.05-7.011-6.929-2.763.1-5.412,3.383-9.3,6.082.789-5.975,1.379-10.892,2.112-15.787.295-1.964,1.837-1.412,3.137-1.224,3.77.543,7.536,1.13,11.32,1.556,1.821.206,2.79.924,2.55,2.827-.573,4.55-1.17,9.1-1.754,13.627m-1.208-2.8c.953-4.17,2.174-7.92,1.041-11.837-.25-.862-12.682-2.615-13.094-1.868-2,3.619-2.22,7.555-1.864,12.118,2.85-1.852,5.146-4.507,7.514-4.574,2.667-.074,3.352,4.142,6.4,6.161" transform="translate(4235 1080)"/>
        <path id="Path_2590" data-name="Path 2590" d="M161.8,132.751c5.063,3.482,5.9,8.473,4.755,14.109-.222-5.153-1.209-10.029-4.755-14.109" transform="translate(4235 1080)"/>
        <path id="Path_2613" data-name="Path 2613" d="M229.6,133.015a22.584,22.584,0,0,1-22.462-23.1,22.84,22.84,0,1,1,22.462,23.1m.794-44.222a21.447,21.447,0,0,0-22.075,20.992c-.37,11.864,9.643,22.124,21.614,22.146A21.609,21.609,0,0,0,251.4,110.752a21.252,21.252,0,0,0-21.006-21.959" transform="translate(4235 1080)"/>
        <path id="Path_2614" data-name="Path 2614" d="M61.711,116.94a7.5,7.5,0,0,1-7.724-7.9,7.669,7.669,0,0,1,7.53-7.679,7.843,7.843,0,0,1,7.776,7.99,7.6,7.6,0,0,1-7.582,7.588m-.9-14.108c-3.282.282-5.443,2.5-5.72,6.3a6.324,6.324,0,0,0,6.684,6.464c3.879-.234,6.1-2.446,6.31-6.315.2-3.669-2.9-6.564-7.274-6.445" transform="translate(4235 1080)"/>
        <path id="Path_2615" data-name="Path 2615" d="M241.448,38c-2.065,4.093-5.408,5.636-9.623,4.579-4.425-1.11-6.854-4.131-6.892-8.883,1.441,3.259,2.862,6.551,6.758,7.512,3.843.947,7.024-.415,9.757-3.208" transform="translate(4235 1080)"/>
      </g>
    </g>
    <g id="Group_404" data-name="Group 404" transform="translate(250 162)">
      <g id="Mask_Group_1" data-name="Mask Group 1" clip-path="url(#clip-path)">
        <path id="Path_2471" data-name="Path 2471" d="M481.638,180.379C466.006,207,432.8,236.156,403.924,207.916c-24.442-23.9-11.549-63.273-34.348-87.631-23-24.568-52.217-18.139-79.942-7.593-13.59,5.17-30.657,10.363-43.7.9-7.688-5.576-15.722-23.06-4.049-29.663,4.683-2.649,19.036,0,24.17,0H431.408c6.482,0,23.616-3.219,29.532,0,9.263,5.04,16.593,29.871,19.795,39.585,5.751,17.453,10.847,39.927.9,56.863" transform="translate(1145.027 -102.21)" fill="#ffa400"/>
        <path id="Path_2474" data-name="Path 2474" d="M5.637,39.088C21.269,12.463,54.477-16.689,83.353,11.55,107.794,35.454,94.9,74.823,117.7,99.18c23,24.569,52.218,18.141,79.942,7.594,13.59-5.17,30.657-10.363,43.7-.9,7.689,5.576,15.722,23.059,4.05,29.662-4.684,2.649-19.036,0-24.171,0H55.868c-6.482,0-23.616,3.219-29.532,0C17.072,130.5,9.743,105.665,6.541,95.951.79,78.5-4.306,56.023,5.637,39.088" transform="translate(-68.017 88.325)" fill="#ff6575"/>
        <path id="Path_2475" data-name="Path 2475" d="M229.2,36a2.619,2.619,0,1,0-2.619-2.619A2.619,2.619,0,0,0,229.2,36" transform="translate(2.111 149.014)" fill="#ff6575"/>
        <path id="Path_2476" data-name="Path 2476" d="M293.186,38.64a3.274,3.274,0,1,0-3.274-3.274,3.274,3.274,0,0,0,3.274,3.274" transform="translate(21.713 144.626)" fill="#ff6575"/>
        <path id="Path_2477" data-name="Path 2477" d="M230.162,73.259a4.583,4.583,0,1,0-4.583-4.583,4.584,4.584,0,0,0,4.583,4.583" transform="translate(1.802 68.103)" fill="#ff6575"/>
      </g>
    </g>
    <path id="Path_2521-2" data-name="Path 2521" d="M41.54,287.7c7.811-2.889,15.208-5.855,23.656-5.817,27.112.123,54.226-.328,81.339-.555,3.734-.031,7.18.431,7.482,5.244.295,4.71-2.723,6.065-6.648,6.128-8.482.136-16.966.156-25.449.187-19.8.072-39.593.016-59.387.237C55,293.208,48.465,290,41.54,287.7m101.583,2.922c-4.5-1.934-80.029-1.328-83.92.346,3.3,1.455,76.137,1.287,83.92-.346m-.65-2.72c-6.478-3.119-80.842-2.1-83.216,0Zm-.008-3.412q-.009-.867-.019-1.733c-27.758.1-55.518.093-83.275.353q.01.69.022,1.38ZM57.357,287.6c-.568-1.262.872-3.927-1.96-3.473-1.974.317-5.013.121-5.01,3.46s3.013,3.157,5.007,3.473c2.829.449,1.492-2.144,1.963-3.46m92.979-4.475c-1.714-.1-1.833,1.192-1.639,2.265.339,1.874-1.438,4.684,1.388,5.409,1.543.4,2.7-1.632,2.854-3.386a3.963,3.963,0,0,0-2.6-4.288m-2.975,3.873c-.754-1.313,1.208-4.151-1.841-4.072-2.426.063-1.538,2.533-1.506,3.972.035,1.568-.99,4.277,1.829,4.178,2.428-.084.988-2.614,1.518-4.078" transform="translate(703 66)" opacity="0.06"/>
    <g id="Group_416" data-name="Group 416" transform="translate(-3053 -31)" opacity="0.06">
      <path id="Path_2539-2" data-name="Path 2539" d="M167.435,402.815c-4.893,3.11-4.855,7.617-4.447,12.164.29,3.239-.957,4.225-4.2,4.3-13.762.306-13.642.408-13.7-13.208-.016-3.529.643-5.233,4.59-4.822,3.281.342,6.625.047,9.94.1.954.014,2.677.1,2.739.406.839,4.23,2.949,1.766,5.081,1.066m-17.412,6.96c5.152,3.559,5.425,3.5,10.2-1.531,1.1-1.155,1.979-2.345,1.6-3.952-.491-2.065-2.314-1.477-3.706-1.547a51.758,51.758,0,0,1-5.479-.066c-5.016-.8-6.533,1.032-6.269,6.159.48,9.306.148,9.323,9.162,9.3,6.973-.014,7.7-1.091,5.531-8.27-2.471.83-3.656,3.787-5.915,4.3-2.822.636-3.524-2.7-5.125-4.4" transform="translate(4074 -25)"/>
    </g>
    <path id="Path_2535-2" data-name="Path 2535" d="M53.469,511.344c.8.4,2,.953,3.159,1.572,10.1,5.385,20.127,10.9,30.314,16.112,3.627,1.854,4.747,3.8,2.212,7.29a20.617,20.617,0,0,0-2.1,3.947c-1.3,3.005-3.232,3.322-5.983,1.835q-16.2-8.754-32.485-17.35c-2.6-1.374-3.155-3.168-1.71-5.7,1.068-1.872,2.056-3.789,3.071-5.69a3.213,3.213,0,0,1,3.526-2.017m17.489,12.677c.4-1.883-.614-2.353-1.443-2.8-4.938-2.682-9.906-5.307-14.862-7.955-1.826-.975-3.075-.563-3.955,1.386a48.945,48.945,0,0,1-2.616,4.78c-1.193,2.009-.654,3.285,1.392,4.332,4.855,2.487,9.641,5.109,14.46,7.666.851.453,1.963,1.3,2.645.248,1.693-2.626,3.123-5.423,4.379-7.654m18.106,9.7c.252-2.187-1.176-2.618-2.289-3.231-2.9-1.6-6.032-2.844-8.692-4.758-4.01-2.885-5.862-1.78-8.114,2.364-2.286,4.208-1.981,6.411,2.549,8.069,2.153.789,4.023,2.382,6.19,3.1,2.15.715,4.16,4.444,6.737,1.022a48.154,48.154,0,0,0,3.619-6.568" transform="translate(854 -226)" opacity="0.06"/>
    <path id="Path_2523-2" data-name="Path 2523" d="M354.138,362.94c.069,2.575-.26,4.777-2.2,6.87-2.49,2.685-2.852,6.271-2.687,9.841.091,1.982.329,3.962.359,5.945.031,2.078-1.625,2.967-3.205,3.2-1.832.276-1.147-1.606-1.427-2.558-1.765-6.005-2.62-12.369-9.063-15.893-2.171-1.187-2.31-4.349-2.64-6.747-2.441-17.777-4.656-35.587-7.136-53.36-.553-3.964.823-5.976,4.6-6.643.163-.03.316-.1.477-.143,11.339-2.962,12.731-1.975,14.6,9.372,2.422,14.748,5.057,29.46,7.572,44.193.335,1.958.51,3.945.759,5.918m-16.278-6.812c7.566,2.011,10.2-.545,8.846-8.275-2.269-12.93-4.478-25.873-6.5-38.844-.562-3.606-1.334-5.781-5.8-5.112-4.8.72-3.606,3.8-3.338,6.656.17,1.815.519,3.612.811,5.414,2.177,13.431,2.827,27.094,6.17,40.342-2.4-1.584-2.464-4.2-2.791-6.625-1.8-13.339-3.512-26.689-5.316-40.027-.177-1.3-.058-2.95-1.421-3.574-1.233.395-1.457,1.082-1.375,1.715q3.462,26.951,6.977,53.892c.32,2.483,1.869,2.8,3.937,2.457,3.934-.649,7.869-1.3,11.818-1.848,1.934-.267,3.04-.785,2.622-3.148-3.1-17.5-6.085-35.022-9.144-52.53-.179-1.025-.02-2.8-1.757-2.333-1.462.394-.8,2-.644,3.024.729,4.763,1.608,9.5,2.393,14.256,1.6,9.67,3.242,19.334,4.709,29.024.416,2.744-.148,5.512-3.071,6.734-2.487,1.04-5.162,1.609-7.127-1.2m-.61,13.3c4.609,3.22,6.2,6.941,7.368,10.892.3,1.023.65,1.879,1.949,1.778,1.36-.106,1.62-1.11,1.519-2.116-.44-4.382,1.083-8.3,3.344-12.652l-14.18,2.1m.879-1.352c4.379-.657,8.465-1.265,12.548-1.89,1.026-.156,2.041-.459,1.773-1.806-.2-1-1.05-1.142-1.932-1.012-4.251.628-8.507,1.227-12.746,1.928-.939.155-2.07.563-1.783,1.885.306,1.4,1.523.865,2.14.9" transform="matrix(1, -0.017, 0.017, 1, 644.023, -23.012)" opacity="0.06"/>
    <path id="Path_2556-2" data-name="Path 2556" d="M376.6,290.909c3.154.132,5.034,1.888,5.005,4.907a4.674,4.674,0,0,1-5.085,4.883,4.447,4.447,0,0,1-4.661-4.709c-.045-3.122,1.569-4.875,4.741-5.081m3.616,5.278c.027-2.328-1.047-3.878-3.383-4.07a3.355,3.355,0,0,0-3.771,3.153c-.3,2.325,1.023,3.784,3.362,4,2.158.2,3.345-1.032,3.792-3.083" transform="translate(524 48)" opacity="0.06"/>
    <path id="Path_2532-2" data-name="Path 2532" d="M458.361,425.063c3.415-.165,7.159.6,9.81,3.236a13.484,13.484,0,0,0,10.777,3.939,4.933,4.933,0,0,1,1.487.131c2.831.778,6.519.872,7.135,4.41s-2.563,5.261-5.232,6.5a22.931,22.931,0,0,0-10.4,9.177c-5.319,8.525-17.259,9.864-24.864,3.122a14.444,14.444,0,0,0-9.215-3.824c-3.313-.258-7.794-.437-8.43-4.675-.576-3.841,3.284-5.535,6.229-6.892a16.985,16.985,0,0,0,8.088-7.459c2.992-5.217,8.077-7.718,14.614-7.662m-16.475,16.985c-.1,5.638,1.917,9.116,5.453,8.88a110.087,110.087,0,0,0,23.5-4.085c2.85-.829,3.452-2.5,3.369-5.152a16.164,16.164,0,0,0-32.318.357m31.209,5.583a138.78,138.78,0,0,1-27.21,4.729c4.323,5.316,9.268,6.64,14.741,5.809,5.748-.873,9.938-4.054,12.469-10.538m4.264-14.654c-1.185.58-3.956-.474-3.255,1.582,1.109,3.251-.26,7.537,2.976,9.687,1.663,1.105,9.422-4.649,9.062-6.519-.958-4.971-5.739-3.206-8.783-4.75M438.8,450.644c1.352,0,3.738.437,3.045-1.214-1.295-3.091.773-7.317-2.656-9.3-1.8-1.043-8.989,4.667-8.464,6.5,1.188,4.145,5.164,3.266,8.075,4.021" transform="translate(640 -93)" opacity="0.06"/>
  </g>
</svg>
