<svg xmlns="http://www.w3.org/2000/svg"  width="25" height="23.097" viewBox="0 0 25 23.097">
  <path id="dropbox" d="M16.307.5,12.475,2.925,8.694.549,0,5.766,4.022,8.294l-4,4,4.433,2.66v3.831L12.477,23.6,20.5,18.784v-3.7l4.477-2.686-4.051-4.1L25,5.715Zm.02,1.713L22.22,5.748,19.759,7.306,13.867,3.771Zm-3.851,9.475L6.6,8.163l5.875-3.525,5.875,3.525Zm-3.8-9.427,2.407,1.512L5.194,7.307,2.786,5.795ZM5.3,9.081l6,3.6L8.377,15.606l-6-3.6Zm.616,6.748L8.6,17.442,11.748,14.3v7.161l-5.834-3.5Zm13.126,2.13-5.834,3.5V14.313l3.19,3.228,2.644-1.586ZM16.628,15.7l-2.98-3.016,6-3.6,2.98,3.016Zm0,0" transform="translate(0.001 -0.5)" fill="#b5b5b5"/>
</svg>
