<svg xmlns="http://www.w3.org/2000/svg"  width="222.329" height="70.988" viewBox="0 0 222.329 70.988">
  <g id="Group_147" data-name="Group 147" transform="translate(-20 -21.468)">
    <text id="Ocademy" transform="translate(35.329 80.456)" fill="#fff" font-size="49" font-family="Roboto-Bold, Roboto" font-weight="700"><tspan x="0" y="0">Ocademy</tspan></text>
    <path id="Path_308" data-name="Path 308" d="M91.015,42.46c-2.205,1.073-5.177,1.627-6.392,3.384s-.507,4.611-.649,7.075c-11.958-5.165-23.856-5.778-36.014.118a39.564,39.564,0,0,0-.083-5.731,3.667,3.667,0,0,0-1.745-2.5c-3.325-1.474-6.781-2.665-10.613-4.127,9.068-3.432,17.759-6.58,26.321-10.024a10.071,10.071,0,0,1,8.255.118c8.255,3.42,16.733,6.486,25.425,10-3.62.472-3.349,2.866-3.266,5.271.094,2.818,0,5.66,0,8.479a34.067,34.067,0,0,0,.719,4.009,2.771,2.771,0,0,1-.283,1.8,1.58,1.58,0,0,1-1.486,0,2.948,2.948,0,0,1-.366-1.816c.377-5.2.8-10.413,1.179-15.613Z" transform="translate(-15.52 -8.36)" fill="#fff"/>
  </g>
</svg>
