<svg xmlns="http://www.w3.org/2000/svg"  xmlns:xlink="http://www.w3.org/1999/xlink" width="470.43" height="516.607" viewBox="0 0 470.43 516.607">
  <defs>
    <linearGradient id="linear-gradient" x1="-6.804" y1="2.413" x2="-6.596" y2="-0.333" gradientUnits="objectBoundingBox">
      <stop offset="0" stop-color="#1ae5ff"/>
      <stop offset="0.259" stop-color="#63e8f8"/>
      <stop offset="0.704" stop-color="#eaeeee"/>
    </linearGradient>
    <linearGradient id="linear-gradient-2" x1="-96.533" y1="0.5" x2="-95.533" y2="0.5" gradientUnits="objectBoundingBox">
      <stop offset="0" stop-color="#5155d4"/>
      <stop offset="1" stop-color="#45f7ff"/>
    </linearGradient>
    <linearGradient id="linear-gradient-3" y1="0.5" x2="1" y2="0.5" gradientUnits="objectBoundingBox">
      <stop offset="0" stop-color="#7f5eff"/>
      <stop offset="0.242" stop-color="#8664ff"/>
      <stop offset="0.595" stop-color="#97f"/>
      <stop offset="0.94" stop-color="#b391ff"/>
    </linearGradient>
    <linearGradient id="linear-gradient-4" x1="0.379" y1="-0.704" x2="0.707" y2="2.574" xlink:href="#linear-gradient-2"/>
    <linearGradient id="linear-gradient-5" x1="0.5" y1="-0.431" x2="0.5" y2="1.431" xlink:href="#linear-gradient-3"/>
    <linearGradient id="linear-gradient-6" x1="-71.849" y1="0.952" x2="-69.661" y2="0.073" xlink:href="#linear-gradient"/>
    <linearGradient id="linear-gradient-7" x1="-1.325" y1="0.5" x2="-0.325" y2="0.5" xlink:href="#linear-gradient-2"/>
    <linearGradient id="linear-gradient-8" x1="-29.896" y1="1.713" x2="-30.101" y2="-0.714" xlink:href="#linear-gradient"/>
    <linearGradient id="linear-gradient-9" x1="-33.68" y1="3.316" x2="-33.901" y2="-1.829" xlink:href="#linear-gradient"/>
    <linearGradient id="linear-gradient-10" x1="-112.365" y1="2.196" x2="-112.734" y2="0.034" xlink:href="#linear-gradient"/>
    <linearGradient id="linear-gradient-11" x1="0.39" y1="0.71" x2="1.312" y2="-1.047" gradientUnits="objectBoundingBox">
      <stop offset="0" stop-color="#cc68ff"/>
      <stop offset="1" stop-color="#fb8e31"/>
    </linearGradient>
  </defs>
  <g id="Group_107" data-name="Group 107" transform="translate(-793.659 -90.435)">
    <g id="Group_87" data-name="Group 87" transform="translate(1099.338 496.93)">
      <path id="Path_275" data-name="Path 275" d="M1028.228,368.123a9.363,9.363,0,0,1,4.246,7.355c-.008,2.719-1.923,3.811-4.275,2.453l-38.731-22.361a9.373,9.373,0,0,1-4.246-7.372c.008-2.7,1.923-3.793,4.275-2.437Z" transform="translate(-985.222 -345.178)" fill="#1ae5ff"/>
    </g>
    <g id="Group_91" data-name="Group 91" transform="translate(866.886 90.435)">
      <path id="Path_276" data-name="Path 276" d="M865.634,92.7c-.176-.1-.351-.2-.527-.294q-.34-.184-.677-.351t-.67-.314c-.222-.1-.442-.193-.661-.281s-.447-.174-.667-.251c-.043-.016-.085-.027-.128-.041l-.05-.018c-.163-.054-.324-.11-.485-.158-.228-.069-.456-.132-.681-.188s-.453-.107-.678-.15q-.364-.072-.723-.12c-.163-.022-.324-.035-.485-.049l-.072-.008c-.059,0-.118-.013-.177-.018-.262-.018-.52-.027-.776-.026-.29,0-.576.014-.855.04a9.156,9.156,0,0,0-.951.139l-.024.006-.029.008a8.363,8.363,0,0,0-1.1.3,7.865,7.865,0,0,0-1.336.618l-10.947,6.361a8.149,8.149,0,0,1,2.433-.919l.034-.01a9.842,9.842,0,0,1,2.78-.14l.077.008a13.358,13.358,0,0,1,3.051.665l.046.016a19.088,19.088,0,0,1,3.33,1.533L1153.953,272.3l10.947-6.362Z" transform="translate(-837.531 -90.435)" fill="url(#linear-gradient)"/>
      <path id="Path_277" data-name="Path 277" d="M1069.317,230.248c-.008-.265-.019-.531-.037-.8s-.038-.535-.064-.8-.056-.538-.091-.809-.073-.552-.118-.83l0-.022,0-.018q-.062-.4-.137-.795c-.054-.287-.112-.574-.176-.862s-.129-.576-.2-.865-.15-.584-.23-.876c-.064-.227-.131-.453-.2-.68l-.016-.054c-.013-.046-.025-.093-.04-.139q-.131-.428-.275-.854t-.292-.841q-.148-.4-.3-.807t-.323-.8c-.086-.206-.174-.409-.263-.613l-.016-.038c-.021-.046-.04-.093-.061-.139q-.177-.4-.364-.8c-.135-.29-.276-.579-.42-.866-.164-.332-.335-.661-.511-.989-.188-.353-.387-.7-.587-1.047-.035-.061-.067-.123-.1-.184s-.082-.147-.123-.219c-.389-.662-.8-1.313-1.224-1.95q-.507-.759-1.045-1.489c-.241-.326-.485-.648-.734-.964-.209-.265-.421-.528-.637-.787s-.421-.5-.637-.745-.426-.479-.643-.712l-.129-.137-.048-.049c-.164-.174-.329-.349-.5-.52-.23-.235-.463-.463-.7-.688s-.482-.455-.726-.675-.488-.432-.736-.641c-.123-.1-.247-.2-.372-.3l-.084-.069c-.093-.075-.185-.153-.278-.227-.241-.19-.484-.373-.726-.554s-.477-.345-.718-.511-.468-.314-.7-.464-.466-.29-.7-.428l-.163-.1-10.947,6.362a25.539,25.539,0,0,1,3.287,2.279l.083.067a31.793,31.793,0,0,1,3.027,2.831l.046.049a38.607,38.607,0,0,1,5.173,7c.035.061.067.123.1.183a40.064,40.064,0,0,1,1.939,3.836l.021.046a36.542,36.542,0,0,1,1.494,4.052l.016.054a31.6,31.6,0,0,1,.943,4.077l0,.016a25.3,25.3,0,0,1,.324,4.013l-.594,208.923a18.67,18.67,0,0,1-.335,3.557l-.021.1a13.2,13.2,0,0,1-.934,2.907c-.008.018-.014.037-.022.054a9.653,9.653,0,0,1-1.24,1.918c-.151.192-.295.393-.458.566a8.078,8.078,0,0,1-1.8,1.489l10.947-6.362a8.109,8.109,0,0,0,1.8-1.487c.164-.176.3-.375.458-.566a8.979,8.979,0,0,0,.6-.737,10.384,10.384,0,0,0,.622-1.13l.024-.053.021-.051c.125-.27.244-.546.353-.835s.2-.571.289-.87q.12-.412.219-.844c.027-.118.048-.243.073-.362l.019-.1c.024-.115.049-.227.07-.343.045-.259.083-.522.118-.79s.059-.527.081-.8.038-.515.05-.78.017-.528.017-.8v-.048l.594-208.923C1069.329,230.747,1069.325,230.5,1069.317,230.248Z" transform="translate(-718.992 -23.683)" fill="url(#linear-gradient-2)"/>
      <g id="Group_88" data-name="Group 88" transform="translate(0 6.361)">
        <path id="Path_278" data-name="Path 278" d="M1162.481,273.228c9.124,5.267,16.487,18.022,16.458,28.506l-.594,208.923c-.029,10.484-7.441,14.708-16.563,9.44L856.006,343.557c-9.123-5.267-16.487-18.022-16.457-28.5l.592-208.925c.03-10.484,7.441-14.708,16.565-9.44Z" transform="translate(-839.549 -94.421)" fill="url(#linear-gradient-3)"/>
      </g>
      <g id="Group_89" data-name="Group 89" transform="translate(21.585 28.739)">
        <path id="Path_279" data-name="Path 279" d="M1135.547,264.409c8.387,4.843,15.158,16.568,15.131,26.2l-.546,192.064c-.027,9.638-6.841,13.52-15.228,8.679l-266.7-153.882c-8.387-4.841-15.157-16.567-15.13-26.2l.546-192.063c.027-9.638,6.841-13.52,15.228-8.679Z" transform="translate(-853.076 -108.445)" fill="#f9fbfc"/>
      </g>
      <path id="Path_280" data-name="Path 280" d="M1045.784,337.456h0a2.232,2.232,0,0,1-2.232-2.232V268.268a2.231,2.231,0,0,1,2.232-2.231h0a2.231,2.231,0,0,1,2.231,2.231v66.956A2.231,2.231,0,0,1,1045.784,337.456Z" transform="translate(-718.022 14.173)" fill="#f9fbfc"/>
      <g id="Group_90" data-name="Group 90" transform="translate(5.671 136.687)">
        <path id="Path_281" data-name="Path 281" d="M847.844,176.742a10.386,10.386,0,0,1,4.711,8.159c-.008,3-2.132,4.208-4.741,2.7a10.386,10.386,0,0,1-4.71-8.159C843.112,176.447,845.235,175.235,847.844,176.742Z" transform="translate(-843.103 -176.094)" fill="#fff"/>
      </g>
    </g>
    <g id="Group_95" data-name="Group 95" transform="translate(956.397 219.776)">
      <path id="Path_282" data-name="Path 282" d="M980.018,207.837a49.061,49.061,0,0,1,1.758,8.243,39.309,39.309,0,0,1,.294,4.816c0,.479-.016.948-.037,1.411,0,.072,0,.144-.008.214-.022.439-.054.868-.093,1.293-.008.083-.016.164-.026.246-.042.424-.091.841-.152,1.249-.084.555-.152.951-.23,1.337-.1.5-.19.887-.287,1.265-.016.065-.032.131-.049.195-.1.367-.2.726-.314,1.077l-.062.191c-.118.354-.241.7-.373,1.04-.169.421-.306.739-.45,1.048-.206.437-.364.74-.525,1.037-.032.056-.062.113-.094.171q-.247.436-.512.847l-.088.129c-.188.284-.381.562-.586.827s-.42.525-.637.771c-.03.035-.061.07-.093.105-.209.233-.426.456-.648.67-.043.042-.085.081-.128.121q-.335.316-.688.606c-.037.03-.073.057-.11.086q-.354.285-.723.539c-.306.212-.568.373-.833.527-.051.029-.1.059-.15.088q-.388.218-.792.409l-.166.077c-.278.124-.557.244-.844.351-.236.085-.388.128-.536.176-.093-10.187-7.249-22.5-16.083-27.6-8.922-5.151-16.174-1.018-16.2,9.218.013.022.258.431.734,1.155-.211-.29-.421-.582-.629-.878-.4-.579-.669-.981-.935-1.387-.049-.073-.1-.147-.147-.222q-.424-.651-.833-1.315c-.057-.094-.115-.188-.174-.282-.276-.455-.551-.911-.817-1.372-.287-.5-.543-.957-.791-1.417-.049-.089-.1-.177-.145-.266q-.371-.689-.726-1.387c-.043-.085-.084-.171-.128-.255-.223-.447-.444-.9-.656-1.347-.286-.6-.5-1.085-.715-1.565l-.129-.3q-.311-.718-.6-1.443c-.249-.624-.426-1.08-.6-1.54-.029-.075-.057-.15-.086-.227q-.266-.725-.511-1.451c-.032-.1-.064-.195-.1-.29q-.493-1.486-.9-2.976c-.027-.1-.054-.2-.08-.3-.126-.48-.247-.962-.359-1.441-.021-.086-.038-.172-.059-.257q-.156-.687-.292-1.371c-.126-.641-.211-1.123-.289-1.6-.016-.1-.034-.206-.05-.31-.075-.482-.142-.961-.2-1.439-.072-.611-.117-1.06-.155-1.506-.006-.081-.014-.161-.021-.243q-.055-.7-.085-1.4c0-.1-.008-.2-.011-.3-.018-.476-.029-.948-.027-1.417a31.274,31.274,0,0,1,.319-4.463,22.022,22.022,0,0,1,1.8-6.191c.169-.359.348-.705.535-1.042,4.31-7.738,13.42-9.534,23.942-3.458,9.443,5.453,17.716,15.916,22.391,27.17.306.74.6,1.484.881,2.231Q979.517,206.175,980.018,207.837Zm-23.889.766c5.445,3.144,9.861.611,9.879-5.63.018-6.257-4.371-13.857-9.815-17s-9.86-.626-9.879,5.63,4.383,13.865,9.815,17" transform="translate(-875.747 -171.491)" fill="url(#linear-gradient-4)"/>
      <g id="Group_94" data-name="Group 94" transform="translate(0 37.581)">
        <g id="Group_92" data-name="Group 92" transform="translate(0.096)">
          <path id="Path_283" data-name="Path 283" d="M1041.418,277.51a8.116,8.116,0,0,1,3.688,6.372l-.045,15.521c-.006,2.349-1.666,3.3-3.712,2.114L899.39,219.557a8.12,8.12,0,0,1-3.686-6.386l.043-15.52c.008-2.336,1.667-3.281,3.712-2.1Z" transform="translate(-895.704 -195.042)" fill="#cfe3ff"/>
        </g>
        <g id="Group_93" data-name="Group 93" transform="translate(0 33.78)">
          <path id="Path_284" data-name="Path 284" d="M1041.358,298.68a8.114,8.114,0,0,1,3.688,6.386l-.045,15.52c-.006,2.35-1.666,3.281-3.712,2.1L899.33,240.726a8.094,8.094,0,0,1-3.686-6.372l.043-15.52c.008-2.349,1.667-3.3,3.712-2.114Z" transform="translate(-895.644 -216.211)" fill="#cfe3ff"/>
        </g>
      </g>
    </g>
    <path id="Path_285" data-name="Path 285" d="M963.357,280.279a15.167,15.167,0,0,1,6.876,11.909l-.008,2.8c-.013,4.38-3.108,6.145-6.921,3.943l-36.13-20.859a15.165,15.165,0,0,1-6.885-11.915l.008-2.8c.013-4.369,3.118-6.14,6.93-3.938Z" transform="translate(75.435 100.102)" fill="url(#linear-gradient-5)"/>
    <g id="Group_98" data-name="Group 98" transform="translate(879.794 324.495)">
      <path id="Path_286" data-name="Path 286" d="M870.466,270.89s-12.25,7.056-14.132,39.349c1.567,5.957,10.972,9.092,18.183,4.388S874.252,276.373,870.466,270.89Z" transform="translate(-842.458 -216.996)" fill="url(#linear-gradient-6)"/>
      <path id="Path_287" data-name="Path 287" d="M904.237,304.072s28.056-12.5,31.828-14.618,6.6-9.9,8.017-11.553,7.781-5.422,7.545-3.772-3.536,4.715-3.536,4.715,2.357,4.008,2.829,6.6-3.065,7.781-4.952,9.194-6.365,1.886-6.365,1.886-22.871,15.325-26.644,15.561S903.764,310.2,904.237,304.072Z" transform="translate(-813.939 -215.31)" fill="#ff9d6f"/>
      <ellipse id="Ellipse_16" data-name="Ellipse 16" cx="56.71" cy="33.697" rx="56.71" ry="33.697" transform="translate(0 215.153)" opacity="0.21" fill="url(#linear-gradient-7)" style="mix-blend-mode: multiply;isolation: isolate"/>
      <path id="Path_288" data-name="Path 288" d="M868.539,391.447s-.729,5.344.243,7.53c.972,1.944,4.857,3.4,7.53,1.457a77.237,77.237,0,0,0,7.286-6.8s7.773-4.128,8.5-6.314-1.944-4.13-4.13-3.645-8.5,4.372-11.416,4.372S869.511,388.775,868.539,391.447Z" transform="translate(-835.344 -149.854)" fill="#113c7a"/>
      <path id="Path_289" data-name="Path 289" d="M863.423,317.235s6.8,112.19,7.645,115.44,9.665,5.116,11.3-.048c1.037-3.276,3.6-107.1,3.6-107.1Z" transform="translate(-838.235 -189.388)" fill="#113c7a"/>
      <path id="Path_290" data-name="Path 290" d="M882.752,395.474a1.734,1.734,0,0,0-.6,1.307c-.014,1.543.057,4.982.929,6.321a6.535,6.535,0,0,0,8.443,1.578c3.145-1.709,12.828-8.947,14.8-10.551a5.788,5.788,0,0,0,1.956-3.094,1.757,1.757,0,0,0-.994-2.036,8.445,8.445,0,0,0-5.82-.669c-3.207,1.079-7.246,4.553-11.613,4.364A10.725,10.725,0,0,0,882.752,395.474Z" transform="translate(-827.077 -147.204)" fill="#113c7a"/>
      <path id="Path_291" data-name="Path 291" d="M905.67,319.933c-.49-4.661-6.07-6.177-11.207-4.589-9.806-.528-24.987-.11-25.519,7.5-.788,11.267,4.494,19.307,9.589,24.775,3.766,4.042,6.27,11.773,7.324,15.541.892,29.755,2.864,71.713,4.095,75.729,1.982,6.469,11.743,6.177,12.183-.123C904.111,417.478,905.67,319.933,905.67,319.933Z" transform="translate(-834.993 -190.876)" fill="#113c7a"/>
      <path id="Path_292" data-name="Path 292" d="M909.94,350.963c-1.151,5.757-17.558,8.634-27.153,7.1S862.86,351.822,863.2,340.7c0,0-1.458-44.448-1.458-53.193a25.833,25.833,0,0,1,5.5-15.217s5.374-6.142,22.26-2.687c0,0,13.758,3,20.09,13.168,0,0,4.372,11.173,2.915,34.49S909.94,350.963,909.94,350.963Z" transform="translate(-839.236 -218.393)" fill="url(#linear-gradient-8)"/>
      <path id="Path_293" data-name="Path 293" d="M870.878,261.762s1.458,8.5,0,12.388c-.243,1.944,8.259,8.5,15.788,6.8,4.372-.972,4.13-3.158,4.13-3.158s-3.643-6.072-3.158-11.9S875.979,260.547,870.878,261.762Z" transform="translate(-833.797 -222.891)" fill="#ff7c40"/>
      <g id="Group_96" data-name="Group 96" transform="translate(25.422 1.708)">
        <path id="Path_294" data-name="Path 294" d="M903.648,258.225a20.039,20.039,0,1,1-20.039-20.039A20.04,20.04,0,0,1,903.648,258.225Z" transform="translate(-863.57 -238.186)" fill="#ff9d6f"/>
        <path id="Path_295" data-name="Path 295" d="M899.578,253.751s.243,20.072-4.13,24.124-11.084-3.793-21.815-6.308c-10.733-2.757,8.7-23.628,8.7-23.628Z" transform="translate(-859.501 -232.376)" fill="#ff9d6f"/>
      </g>
      <g id="Group_97" data-name="Group 97" transform="translate(57.095 59.613)">
        <path id="Path_296" data-name="Path 296" d="M890.2,274.557s4.39-1.254,9.405,5.957,12.228,16.616,15.676,18.185,8.151-1.569,10.032-1.569,6.9,8.778,5.017,13.168-14.109,6.584-17.243,6.584-23.514-12.226-26.335-19.125S879.545,274.872,890.2,274.557Z" transform="translate(-883.419 -274.474)" fill="url(#linear-gradient-9)"/>
        <path id="Path_297" data-name="Path 297" d="M907.908,290.67a6.361,6.361,0,0,1,5.642-3.763c4.39-.314,9.405,8.151,9.092,12.853s-7.211,7.211-8.778,5.957S915.432,301.329,907.908,290.67Z" transform="translate(-868.83 -267.072)" fill="url(#linear-gradient-10)"/>
      </g>
      <path id="Path_298" data-name="Path 298" d="M896.392,241.948s7.211,1.567,9.407,12.539c-.942,4.7-7.525.941-10.034,7.211s-4.076,8.152-4.076,8.152l-1.567-.627s0-5.017-2.194-5.017-2.823,5.957-1.569,8.465a9.266,9.266,0,0,0,4.075,3.761s-3.134,5.331-4.7,5.957-7.209-.626-9.405-1.567-6.27-5.33-9.405-10.345-5.957-13.795-4.075-19.752,6.27-7.525,6.27-7.525a15.934,15.934,0,0,1,6.9-5.015C880.4,236.618,888.556,235.991,896.392,241.948Z" transform="translate(-838.939 -237.116)" fill="#843837"/>
      <path id="Path_299" data-name="Path 299" d="M895.481,274.572l-5.226-2.927s-13.377-1.254-18.183-4.388l-2.509,3.552a15.282,15.282,0,0,0,11.914,7.316c8.569.836,12.541-2.508,12.541-2.508Z" transform="translate(-834.577 -219.16)" fill="#cfdae4"/>
    </g>
    <g id="Group_103" data-name="Group 103" transform="translate(1139.478 200.378)" opacity="0.67">
      <g id="Group_99" data-name="Group 99" transform="translate(0.249)">
        <path id="Path_300" data-name="Path 300" d="M1047.252,179.927l-.016,5.874a4.5,4.5,0,0,1-6.756,3.879l-27.7-16.075a4.5,4.5,0,0,1-2.242-3.9l.018-5.874a4.5,4.5,0,0,1,6.756-3.879l27.7,16.074A4.5,4.5,0,0,1,1047.252,179.927Z" transform="translate(-1010.533 -159.334)" fill="#1ae5ff"/>
      </g>
      <g id="Group_100" data-name="Group 100" transform="translate(0.166 29.224)">
        <path id="Path_301" data-name="Path 301" d="M1134.926,248.81l-.017,5.887a4.5,4.5,0,0,1-6.748,3.884l-115.429-66.645a4.5,4.5,0,0,1-2.25-3.908l.018-5.887a4.5,4.5,0,0,1,6.748-3.884L1132.676,244.9A4.5,4.5,0,0,1,1134.926,248.81Z" transform="translate(-1010.481 -177.648)" fill="#1ae5ff"/>
      </g>
      <g id="Group_101" data-name="Group 101" transform="translate(0 87.71)" opacity="0.53">
        <path id="Path_302" data-name="Path 302" d="M1087.231,257.986l-.016,5.887a4.5,4.5,0,0,1-6.748,3.884l-67.84-39.167a4.5,4.5,0,0,1-2.25-3.91l.017-5.887a4.5,4.5,0,0,1,6.748-3.884l67.84,39.168A4.5,4.5,0,0,1,1087.231,257.986Z" transform="translate(-1010.377 -214.3)" fill="#1ae5ff"/>
      </g>
      <g id="Group_102" data-name="Group 102" transform="translate(0.083 58.467)">
        <path id="Path_303" data-name="Path 303" d="M1116.974,256.8l-.018,5.887a4.5,4.5,0,0,1-6.747,3.884l-97.531-56.309a4.5,4.5,0,0,1-2.25-3.909l.018-5.887a4.5,4.5,0,0,1,6.748-3.884l97.53,56.309A4.5,4.5,0,0,1,1116.974,256.8Z" transform="translate(-1010.429 -195.974)" fill="#1ae5ff"/>
      </g>
    </g>
    <g id="Group_104" data-name="Group 104" transform="translate(904.141 261.473)">
      <path id="Path_304" data-name="Path 304" d="M910.766,221.557a23.935,23.935,0,1,1-23.934-23.936A23.935,23.935,0,0,1,910.766,221.557Z" transform="translate(-862.896 -197.621)" fill="url(#linear-gradient-11)"/>
      <path id="Path_305" data-name="Path 305" d="M880.332,227.691l-9.99-7.306,3.635-4.97,5.183,3.789,10.505-13.4,4.845,3.8Z" transform="translate(-858.46 -192.744)" fill="#fff"/>
    </g>
    <g id="Group_105" data-name="Group 105" transform="translate(793.659 124.339)" opacity="0.46">
      <path id="Path_306" data-name="Path 306" d="M896.866,166.747c5.642,3.257,10.209,11.168,10.192,17.652-.019,6.523-4.616,9.143-10.259,5.887L803.851,136.62c-5.642-3.257-10.211-11.168-10.192-17.692.019-6.483,4.616-9.1,10.259-5.845Z" transform="translate(-793.659 -111.682)" fill="#1ae5ff"/>
    </g>
    <g id="Group_106" data-name="Group 106" transform="translate(1177.497 425.28)" opacity="0.46">
      <path id="Path_307" data-name="Path 307" d="M1105.938,338.549a15.627,15.627,0,0,1,7.083,12.269c-.013,4.533-3.209,6.356-7.13,4.091l-64.605-37.3a15.63,15.63,0,0,1-7.083-12.3c.013-4.506,3.208-6.327,7.13-4.063Z" transform="translate(-1034.203 -300.276)" fill="#1ae5ff"/>
    </g>
  </g>
</svg>
