<svg xmlns="http://www.w3.org/2000/svg"  xmlns:xlink="http://www.w3.org/1999/xlink" width="481.181" height="430.001" viewBox="0 0 481.181 430.001">
  <defs>
    <linearGradient id="linear-gradient" x1="1" y1="0.5" x2="0" y2="0.5" gradientUnits="objectBoundingBox">
      <stop offset="0" stop-color="#b8b8b8"/>
      <stop offset="0.633" stop-color="#00001f"/>
    </linearGradient>
    <linearGradient id="linear-gradient-2" x1="0.428" y1="-0.6" x2="0.583" y2="1.329" xlink:href="#linear-gradient"/>
    <linearGradient id="linear-gradient-3" x1="-21.533" y1="1.236" x2="-21.114" y2="-0.195" gradientUnits="objectBoundingBox">
      <stop offset="0.25" stop-color="#fff"/>
      <stop offset="0.643" stop-color="#c6c0b9"/>
    </linearGradient>
    <linearGradient id="linear-gradient-4" x1="0.133" y1="-0.539" x2="0.532" y2="0.708" xlink:href="#linear-gradient"/>
  </defs>
  <g id="Group_82" data-name="Group 82" transform="translate(0)">
    <path id="Path_192" data-name="Path 192" d="M777.191,417.078c2.494-2.184,12.96-4.639,27.679-4.291l1.663.011c.772-.177,1.6-.365,2.478-.547,1.444-.3,8.705-.815,19.475-1.606,1.922-.356,6.145-1.091,10.329-1.515,1.1-.034,2.287-.048,3.523-.057.843-.174,1.672-.339,2.458-.5a31.666,31.666,0,0,0,3.1-.792c-1.988-.125-3.038-.282-2.375-.464,3.6-1.022,3.693-1.848,4.36-3.938.6-1.877,3.9-3.121,22.579-4.861,2.2-.208.091-.421,2.74-.646,26.179-2.327,37.105,1.811,47.047.49,0,0-.894,1.056-4.01,1.543a6.14,6.14,0,0,0,2.893-.567c1.2-.684-.715,1.136-5.3,1.256-1.242.2-2.475.387-3.585.567a4.091,4.091,0,0,1-1.059.789c-.763.43-3.639,1.279-4.593,1.717-.76.359-.1.729-.949,1.082-5.752,2.375-14.244,4.511-19.139,4.59-1.785.023-5.3.094-8.711.066-1.535.29-3.007.6-4.417.928l2.46.182-.162.732c2.663.219,6.08.5,9.469.8,10.129.888,11.052,1.455,11.052,1.455l-.345.12c2.176.846,2.8,2.23,3.768,3.505a20.171,20.171,0,0,0,2.836,3.412c5.263-.063,13.25-.006,14.953.145,1.808.151,4.8.652,4.8.652s2.059.837.017.954c-1.028.065-1.541-.589-2.443-.664-.287-.023-.758-.065-1.239-.117a7.122,7.122,0,0,1,.974.342,3.267,3.267,0,0,0-.439.478c8.088-.051,17.363-.077,18.653.031a.969.969,0,0,1,.629.222c2.364,0,3.927-.009,4.124-.026,3.782-.345,6.345-.612,9.286-.812,2.5-.174,5.98-.071,8.688-.083,1.128-.011,2.748.057,1.532.157-1.444.125-4.7.219-6.516.285-2.3.074,4.078-.091,5.778-.162,1.484-.074,8.592-.382,8.21-.194a11.633,11.633,0,0,1-2.315.276,13.46,13.46,0,0,1,2.859-.034c-1.4.47-8.429.578-9.8.829,0,0,1.6-.066,4.013-.233a40.665,40.665,0,0,1,4.417-.236c.649.3-11.963.982-10.753,1.1.484.048,8.253-.783,7.336-.49-.458.151-9.694,1.037-9.694,1.037s-8.378.53-12.612.607c-.644.011-3.363.068-7.182.151a4.794,4.794,0,0,1-1.056.265c-2.2.3-46.893,2.065-53.041,1.039a71.151,71.151,0,0,1-11.69-3,10.212,10.212,0,0,0-1.575.715c-7.33,5.989,6.47,5.026,3.394,5.735-.083.006-.211.026-.327.037,18.53-.2,44.222-.282,49.527-.393,7.039-.162,9.169,1.657,8.315,3.3a1.05,1.05,0,0,1-.33.3c-.9,1.817-14.668,4.938-25.908,7.515-6.561,1.506-19.35,5.49-28.614,8.72l-18.593,9.8-.96-1.4a201.344,201.344,0,0,1-21.212.683c-3.8-.094-59.474,17.374-59.474,17.374l-5.459-2.136,29.428-17.326c-2.466.208-51.694-7.213-64.31-7.119l-57.905,17.323-3.084-2.016ZM961.1,422.3c.131.008,1.25-.043,2.645-.114C962.117,422.244,960.827,422.281,961.1,422.3Zm-49.052-.288c-1.919.017-4.129.148-6.06.228a9.941,9.941,0,0,0,1.757.162c1.125-.011,3.258-.026,5.878-.043a2.3,2.3,0,0,1-.322-.017A7.928,7.928,0,0,1,912.046,422.01Zm2.361,0c-.083-.006-.168,0-.262,0,.117.157.2.316.045.342.336,0,.721,0,1.079-.006A6.976,6.976,0,0,1,914.407,422.01Zm2.74.157-.066-.014a.227.227,0,0,1,.043.182c.131,0,.248.006.384-.006A.7.7,0,0,0,917.146,422.167Z" transform="translate(-621.428 -45.435)" opacity="0.5" fill="url(#linear-gradient)" style="mix-blend-mode: multiply;isolation: isolate"/>
    <g id="Group_72" data-name="Group 72" transform="translate(0)">
      <path id="Path_193" data-name="Path 193" d="M744.9,340.016l343.265,4.177,1.343,10.979-39.461,12.178,44.793,165.881-9.68,0-51.937-160.689-21.352,6.591-10.134-.49,40.844,185.239h-11L977.837,377.992,732.854,371.36,720.172,521.034l-9.569.011,4.764-150.227-35.482-1.1L661.959,541.907l-10.117.009,8.8-172.8-26.372-.818-.453-5.4-.637-7.628-.011-.15Z" transform="translate(-633.165 -151)" opacity="0.5" fill="url(#linear-gradient-2)" style="mix-blend-mode: multiply;isolation: isolate"/>
      <g id="Group_54" data-name="Group 54" transform="translate(16.433 170.483)">
        <path id="Path_194" data-name="Path 194" d="M716.366,335.527v17.167l-81.541,20.735-8.513-22.965Z" transform="translate(-251.618 -329.776)" fill="#ccd4dd"/>
        <g id="Group_53" data-name="Group 53">
          <g id="Group_52" data-name="Group 52" transform="translate(64.226 6.391)">
            <path id="Path_195" data-name="Path 195" d="M762.2,525.485h-9.65l21.708-189.733h19.328Z" transform="translate(-752.55 -335.752)" fill="#ccd4dd"/>
            <path id="Path_196" data-name="Path 196" d="M668.387,530.11h9.658L651.392,340.371H632.076Z" transform="translate(-293.934 -327.217)" fill="#ccd4dd"/>
          </g>
          <path id="Path_197" data-name="Path 197" d="M782.508,539.566H772.3l25.493-199.42h20.443Z" transform="translate(-769.201 -321.241)" fill="#fff"/>
          <path id="Path_198" data-name="Path 198" d="M689.92,557.029h10.96L673.543,343.321h-21.9Z" transform="translate(-308.256 -315.375)" fill="#fff"/>
          <path id="Path_199" data-name="Path 199" d="M1009.521,357.761v8.563l-383.208-8.037v-8.551l115.941-16.227,348.807,5.751Z" transform="translate(-626.313 -333.508)" fill="#fff"/>
          <path id="Path_200" data-name="Path 200" d="M1038.155,366.529,654.947,353.575V339.262l383.208,8.023Z" transform="translate(-654.947 -322.876)" fill="#ccd4dd"/>
        </g>
      </g>
      <g id="Group_55" data-name="Group 55" transform="translate(148.943 180.122)">
        <path id="Path_201" data-name="Path 201" d="M842.447,340.322l-20.29,7.5L689,345.392l.039-2.589,133,1.518,20.568-7.392Z" transform="translate(-688.883 -336.824)" fill="#96a6bc"/>
        <path id="Path_202" data-name="Path 202" d="M821.692,344.487l-132.727-1.51,22.089-5.106,131.734-.979Z" transform="translate(-688.965 -336.892)" fill="#b6c2d3"/>
      </g>
      <g id="Group_61" data-name="Group 61" transform="translate(177.618)">
        <g id="Group_57" data-name="Group 57" transform="translate(42.268 75.935)">
          <path id="Path_203" data-name="Path 203" d="M720.426,300.471s10.884,69.4,18.222,97.727c.6,2.307-47.687-.105-47.687-.105l11.382-97.249Z" transform="translate(-661.457 -300.001)" fill="#96a6bc"/>
          <path id="Path_204" data-name="Path 204" d="M722.206,300.306s10.579,66.642,18.667,97.616c.6,2.292-49.633.894-49.633.894l13.185-98.422Z" transform="translate(-664.476 -300.306)" fill="#ccd6e2"/>
          <g id="Group_56" data-name="Group 56" transform="translate(0 96.759)">
            <path id="Path_205" data-name="Path 205" d="M692.275,338.115c-1.131.194-2.084,1.783-.25,1.783l59.83.211a29.1,29.1,0,0,0,5.929-.763l9.024-2.754c1.794-.367,1.515-2.167.382-2.039l-51.35,1.341c-1.521,0-5.029.288-7.908.658Z" transform="translate(-690.994 -333.8)" fill="#96a6bc"/>
            <path id="Path_206" data-name="Path 206" d="M694.461,337.849c-3.7.487-3.964,1-2.133,1l59.961-.134a25.192,25.192,0,0,0,5.251-.869l9.326-2.734c.96-.2-.974-.35-1.407-.35l-47.671-.476a51.48,51.48,0,0,0-5.912.555Z" transform="translate(-690.672 -334.284)" fill="#e4e9ef"/>
          </g>
        </g>
        <path id="Path_207" data-name="Path 207" d="M665.358,416.184c-.154,2.942,3.907,5.636,7.011,5.792l174.37,2.309c3.765.159,6.892-2.344,6.974-5.621l3.451-137.9c.074-3.169-4.274-7.037-7.974-6.926l-169.777,6.544a5.933,5.933,0,0,0-5.821,5.328Z" transform="translate(-664.779 -273.285)" fill="#96a6bc"/>
        <path id="Path_208" data-name="Path 208" d="M666.218,414.711a5.431,5.431,0,0,0,5.317,5.6l174.2,2.247c3.756.159,6.877-2.344,6.968-5.616l3.449-137.823c.094-3.147-2.845-5.587-6.527-5.476l-171.05,5.149a5.965,5.965,0,0,0-5.809,5.334Z" transform="translate(-666.211 -273.641)" fill="#ccd4dd"/>
        <path id="Path_209" data-name="Path 209" d="M670.863,399.939a4.752,4.752,0,0,0,4.75,4.841l154.622,1.475c3.326.12,6.1-2.036,6.177-4.858L839.6,281.853c.088-2.7-2.526-4.83-5.781-4.719l-152.008,4.331a5.206,5.206,0,0,0-5.186,4.607Z" transform="translate(-662.88 -267.193)" fill="#fff"/>
        <path id="Path_210" data-name="Path 210" d="M698.578,314.746c2.779-1.162,11.34-2.392,12.3-12.983,0,0,1.3-6.618,1.31-7.447l5.86-.373-.005-.026.062.014h.051l5.644.384c-.017,1.771,2.355,16.149,2.355,16.149l-4.67,11.707-5.408,15.7S695.628,315.25,698.578,314.746Z" transform="translate(-627.549 -236.174)" fill="#cc9483"/>
        <path id="Path_211" data-name="Path 211" d="M719.575,294.308h0l.06-.017h.04l7.15.4c-.005.569.487,5.322.749,7.643a56.568,56.568,0,0,1-22.734,19.854c-4.123,2.016-4.223-6.732-5.994-8.634,4.206-.721,11.986-4.2,13.735-7.581,2.045-3.984,1.187-10.292,1.193-10.773Z" transform="translate(-630.567 -235.485)" fill="url(#linear-gradient-3)" style="mix-blend-mode: multiply;isolation: isolate"/>
        <path id="Path_212" data-name="Path 212" d="M711.992,285a14.173,14.173,0,0,0-1.449.1l.006-1.1c-12.4.159-15.477,10.488-14.592,21.019,1.108,13.079,9.443,19.262,14.233,19.273h.114a3.832,3.832,0,0,0,1.005.128c5.365.009,12.362-5.371,14.683-18.16C727.914,295.581,725.405,284.888,711.992,285Z" transform="translate(-620.922 -254.502)" fill="#d8a798"/>
        <path id="Path_213" data-name="Path 213" d="M737.744,350.5c-3.437-7.122-1.059-20.859,2.025-24.436,0,0-3.033-8.059,5.362-19.783-1.179-3.292-12.385-5.789-12.385-5.789-2.139,4.1-8.637.8-10.556,2.509-1.546,1.4-.145,7.555-2.327,8.424-.76-1.085-.943-3.394-1.526-8.133-1.968-2.028-7.227-.567-8.742-3.562,0,0-10.434,4.832-16.776,6.3,8.122,4.1,5.379,19.4,5.379,19.4,2.717,3.357,5.567,18.863,3.369,23.044C699.394,352.656,740.752,356.771,737.744,350.5Z" transform="translate(-630.957 -225.437)" fill="#6597ef"/>
        <path id="Path_214" data-name="Path 214" d="M719.667,296.817c-3.768,10.2-.871,14.671,1.4,16.332-.746.322-3.637,1.19-3.7-1.316a5.6,5.6,0,0,0,4.092,4.867c-1.672,1.634-4.158,2.244-4.65,1.523.393.615,3.073,1.757,3.073,1.757s-2.888,2.862-8.566-1.2c-5.325-3.77-7.737-6.689-6.672-15.944,1.862,3.144,2.956,3.728,3.577,2.683-1.441-.111-2.959-3.81-2.959-3.81s3.263.131,4.1-5.339c2.027-3.332,3.969-8.925,10.687-12.191C722.908,282.783,719.667,296.817,719.667,296.817Z" transform="translate(-640.252 -254.359)" fill="#ba784a"/>
        <path id="Path_215" data-name="Path 215" d="M691.787,294.1s.6-5.468.618-6.128c.057-.7,1.2-7.2,7.583-1.466.379.344.47.535.849.849,4.212,3.2,4.89,8.079,6.524,10.821a7.557,7.557,0,0,0,5.129,3.517s-1.535,1.888-3.03,1.988c.14.271,2.529.134,3.725-1.3.914,9.409-1.885,13.4-7.156,16.443-5.895,4.069-9.278,1.777-9.278,1.777a12.931,12.931,0,0,0,2.967-1.788c-.544.72-3.52,1.381-5.174-.288a9.266,9.266,0,0,0,4.411-2.554,3.257,3.257,0,0,1-2.56-.077c2.2-1.578,4.414-6.724,1.632-15.882C696.414,296.767,693.826,298.068,691.787,294.1Z" transform="translate(-596.242 -254.193)" fill="#a0593a"/>
        <path id="Path_216" data-name="Path 216" d="M723.882,294.816c-5.724,8.586-15.435.809-18.909,6.316-1.646,2.626-5.024,8.583-2.757,14.347,1.381,3.551-3.1-9.463-3.1-9.463s-4.257-13.074,5.932-19.994c4.545-3.1,14.483-4.408,19.473.285C724.987,286.776,723.882,294.816,723.882,294.816Z" transform="translate(-625.868 -255.921)" fill="#ba784a"/>
        <path id="Path_217" data-name="Path 217" d="M713.53,300.194c-5.5,1.751-10.548,3.044-12.026,4.217,0,0,3.756,26.244,4.374,28.588.6,2.324-1.068,17.573-2.252,21.822-1.17,4.232,23.6,4.963,23.639,2.141s1.478-23.946,1.478-23.946-8.7-21.215-10.528-24.257C716.392,305.736,713.53,300.194,713.53,300.194Z" transform="translate(-639.301 -224.578)" fill="#545a66"/>
        <path id="Path_218" data-name="Path 218" d="M708.788,299.06l-7.356,4.064.014,8.569,5.018-1.307-1.851,6.279s-.666-.686,5.231,4.986c2.261,2.19,10.087,16.539,10.087,16.539s-1.951-9.281-3.947-15.571a146.542,146.542,0,0,1-4.246-15.346A44.773,44.773,0,0,0,708.788,299.06Z" transform="translate(-630.284 -226.674)" fill="#3b404c"/>
        <path id="Path_219" data-name="Path 219" d="M705.045,298.33l7.175,7.233-7.625,8.023-2.475-12.731Z" transform="translate(-624.531 -228.022)" fill="#6597ef"/>
        <path id="Path_220" data-name="Path 220" d="M708.581,300.021c5.584,1.905,11.263,2.89,12.789,4.143,0,0-3.144,29.445-3.822,31.794s-1.8,12.177-.689,16.545c1.139,4.354-24.914,7.6-24.9,4.778s.182-23.824.182-23.824,9.17-21.013,11.072-24.009C705.107,306.428,708.581,300.021,708.581,300.021Z" transform="translate(-604.747 -224.898)" fill="#545a66"/>
        <path id="Path_221" data-name="Path 221" d="M707.476,299.161l7.375,4.175-.159,8.674-5.095-1.4,1.757,6.376s.729-.681-5.377,4.858c-2.355,2.153-10.46,16.269-10.46,16.269s2.1-9.2,4.223-15.435a147.77,147.77,0,0,0,4.588-15.3A43.955,43.955,0,0,1,707.476,299.161Z" transform="translate(-608.363 -226.487)" fill="#3b404c"/>
        <path id="Path_222" data-name="Path 222" d="M697.244,304.725l7.937-6.1,3.337,3.115-3.337,10.484Z" transform="translate(-606.944 -227.468)" fill="#6597ef"/>
        <g id="Group_58" data-name="Group 58" transform="translate(9.221 126.168)">
          <path id="Path_223" data-name="Path 223" d="M829.294,329.593,677.05,328.135c-2.728-.12-4.821-2-4.676-4.232l.384-5.957,162.8,1.623-.174,5.781C835.3,327.8,832.574,329.693,829.294,329.593Z" transform="translate(-672.367 -317.946)" fill="#96a6bc"/>
        </g>
        <g id="Group_59" data-name="Group 59" transform="translate(46.51 78.793)">
          <path id="Path_224" data-name="Path 224" d="M725.022,343.046l-25.19-.7-3.765-34.737,32.4.514Z" transform="translate(-670.052 -289.666)" fill="#e5e5e5"/>
          <path id="Path_225" data-name="Path 225" d="M703.236,326.295c.293.091,15.19-2.067,15.517-2.03a11.573,11.573,0,0,0,6.031-.906,19.732,19.732,0,0,1,7.632-2.139c2.794-.111,3.252-.316,3.366-.8.094-.521-1.68-.461-3.321-.664-1.6-.239-4.778.436-4.28.091s6.655-.481,7.555-.607c.934-.14,2.939-.869,1.848-1.153a76.439,76.439,0,0,0-7.979-.6c-.837-.077,7.35-.182,7.914-.319.7-.148.4-.8-.943-.96-.92-.111-6.467-.327-7.051-.333a17.237,17.237,0,0,1,2.472-.427c1.318-.08,1.808-.088,2.551-.131,1.367-.071,2.324-.8.507-.974a32.022,32.022,0,0,0-3.318-.4,23.618,23.618,0,0,0-4.115.968c-.641.222-4.394,2.045-6.182,2.381-6.225,1.207-19.225.456-19.9.763Z" transform="translate(-695.086 -277.994)" fill="#cc9483"/>
          <path id="Path_226" data-name="Path 226" d="M708.063,314.813l2.792.4.845,9.363-4.241.6.573-9.28Z" transform="translate(-685.728 -276.359)" fill="#fff"/>
          <path id="Path_227" data-name="Path 227" d="M726.161,301.621c-4.041-1.281-7.031,1.2-8.711,11.169-1.484,8.836-7.928,23.345-8.962,36.488-.373,4.7,18.732,3.588,22.033,3.91.923-3.617,1.02-13.911,1.02-13.911s-5.7.108-7.182.08c-1.817-.037,4.75-8.011,4.753-11.989C729.109,325.029,726.161,301.621,726.161,301.621Z" transform="translate(-708.483 -301.31)" fill="#3b404c"/>
        </g>
        <g id="Group_60" data-name="Group 60" transform="translate(92.741 78.604)">
          <path id="Path_228" data-name="Path 228" d="M723.986,323.285c-.216.211-14.945,2.375-15.241,2.552a12.64,12.64,0,0,1-6.225,1.729,19.894,19.894,0,0,0-7.877,1.811c-2.449,1.247-2.981,1.279-3.326.926-.35-.422,1.213-1.2,2.5-2.17,1.261-.937,4.4-1.914,3.79-1.979-.652-.048-6.031,2.754-6.906,3.09s-2.976.672-2.2-.114c.757-.775,5.835-3.861,6.55-4.3.7-.461-6.436,3.366-6.983,3.508-.712.191-.76-.487.285-1.267.709-.538,5.4-3.358,5.9-3.645a14.53,14.53,0,0,0-2.375.82c-1.162.561-1.606.783-2.273,1.113-1.2.587-2.415.41-.954-.572a30.12,30.12,0,0,1,2.657-1.959,23.48,23.48,0,0,1,4.089-1.162c.661-.139,8.133-.205,9.89-.789,6.182-2.008,15.292-5.821,16.1-5.889Z" transform="translate(-687.551 -275.844)" fill="#cc9483"/>
          <path id="Path_229" data-name="Path 229" d="M694.879,316.6l-2.595,1.2,2.4,9.177,4.38-.631-3.774-8.735Z" transform="translate(-676.109 -272.872)" fill="#fff"/>
          <path id="Path_230" data-name="Path 230" d="M688.63,301.527c2.267-.643,5.727-.971,7.712,8.088,1.993,9,18.758,39.779,16.181,42.516s-21.571,5.049-24.969,5.188c-.872-3.7-3.42-12.151-3.42-12.151l7.376-2.853c.037-1.777-5.8-5.687-5.7-9.75A61.791,61.791,0,0,1,688.63,301.527Z" transform="translate(-666.625 -301.243)" fill="#3b404c"/>
        </g>
      </g>
      <path id="Path_231" data-name="Path 231" d="M717.218,508.068,705.1,397.488c.5-22.762,14.2-23.8,14.58-24.8.632-1.629,6.179-4.548,14.381-9.15.977-1.976,10.178-10.864,10.556-11.747a17.053,17.053,0,0,0,1.074-4.346c-2.216-.564-3.577-1.321-3.4-2.338,1-5.564-.883-9.927-5.214-20.848-3.859-9.739-3.673-16.363,9.856-27,1.606-1.267-.911-2.124,1.068-3.591,19.763-14.768,41.312,5.892,48.115-2.153,0,0,1.854,5.741-.111,8.674.789-.043,1.945-.5,1.532-3.306-.558-3.819,2.261,6.16-2.2,7.256-.78,1.162-1.544,2.312-2.23,3.372a26.716,26.716,0,0,1,.968,4.346c.339,2.352-.41,7.2-.236,9.674.14,2,1.8,3.95,1.857,5.954.287,13.407-2.919,25.649-7.771,26.318a60.653,60.653,0,0,1-8.743.8,39.866,39.866,0,0,0-2.073,5.311c1.825.515,2.945.852,2.945.852l1.72,4.044c3.295,1.1,7.546,2.546,11.832,4.049,13.034,4.608,15.537,7.786,15.537,7.786l-.04.692C813.76,382.1,818.24,390,822.847,397.4c3.773,6.057,8.392,13.729,12.746,19.94,5.735-.353,14.97.006,17.354.883a62.792,62.792,0,0,1,7.492,4s4.915,5.129,2.888,5.806c-1.019.347,16.7-.088,18.579.618a3.555,3.555,0,0,1,1.449,1.412,33.3,33.3,0,0,0,4.907-.114A67.125,67.125,0,0,1,897.053,425c2.529-1.045,7.159-.35,10.488-.444,1.375-.04,3.637.384,2.443,1.039-1.4.777-5.177,1.293-7.222,1.674-2.6.476,4.784-.481,6.678-.974,1.626-.416,9.585-2.287,9.725-1.091.094.678-.8,1.23-2.039,1.686,1.971-.461,3.585-.7,3.531-.131-.225,2.95-8.777,3.534-9.674,5.117a35.14,35.14,0,0,0,4.3-1.418c2.238-.871,4.251-2.11,4.8-1.5,1.857,1.985-11.881,6.066-9.99,6.834.769.3,7.851-4.855,7.643-2.99-.094.928-5.055,5.949-5.055,5.949s-13.022,5.644-18.009,6.006c-.749.057-56.789,11.513-66.571,5.14a131.73,131.73,0,0,1-21.053-18.054,25.246,25.246,0,0,0,.256,4.158c8.523,35.243,21.01,30.157,19.6,34.281-.06.043-.182.151-.253.217,20.267-.291,50.074.5,56.1.043,8.059-.626,16.451,11.115,20.685,21.748a12.38,12.38,0,0,1,.55,1.868c4.753,11.835-2.381,31.114-8.073,46.973-3.312,9.164-6.419,34.033-7.561,54.377l4.693,36.237c10.286-.376,14.221,11.3,3.266,15.95-.393.159-.76.3-1.142.45l1.484,11.479-3.764-.464-1.914-9.528a38.118,38.118,0,0,1-23.724.071c-4.83-1.472-9.936.763-11.544,1.324-7.381,2.569-14.384,1.86-16.537-3.531-.857-2.184-.5-5.69.444-9.582a23.64,23.64,0,0,1-4.565,3.7c-3.505,2.213-14.617,2.361-20.617,3.115l.165,31.624-6.08-.473-1.757-28.562a16.781,16.781,0,0,1-7.831,1.264c-5.827-.356-7.518-.572-10.876-5.451-1.478-2.15-1.028-6.271.154-10.625-1.4-.043-2.813-.114-4.266-.234-1.31-14.281,3.716-62.214,6.61-87.8-19.589-.521-48.875-2.512-60.8-3.366L717.876,666.941l-4.71-.029,5.732-131.7.151-1.367c-.04-1.014,0-1.885-.06-2.378l-.675-14.222.134-.026a3.944,3.944,0,0,1,.96-1.674C718.069,514.048,718.069,511.832,717.218,508.068ZM910.4,428.6a18.11,18.11,0,0,0,2.953-.715C911.5,428.261,910.01,428.483,910.4,428.6Zm-59.691-2.369a36.985,36.985,0,0,0-6.25,1.273,4.631,4.631,0,0,0,2.474.977c1.245-.014,3.651-.077,6.61-.145a.915.915,0,0,1-.419-.091A19.143,19.143,0,0,1,850.706,426.227Zm2.705,0c-.1,0-.188.006-.293.006a5.975,5.975,0,0,1,1.059,2.082c.4-.009.817-.014,1.23-.023C854.719,427.657,854.013,426.9,853.412,426.227Zm3.642,1.017c-.043-.031-.088-.091-.14-.134a10.219,10.219,0,0,1,.6,1.133c.142,0,.29,0,.433-.009A3.809,3.809,0,0,0,857.054,427.244Zm30.462,205.1-1.5-7.487c-3.417,1.187-7.054,2.23-10.75,3.135A20.086,20.086,0,0,0,887.516,632.341Zm-49.57-5.5c1.29-19.131,5.055-73.12,7.538-90.241l-3.443.7c-4.152,23.593-13.823,76.21-13.384,80.886.2,2.224-2.332,5.1-7.011,7.706C830.5,626.706,835.7,626.068,837.946,626.842Z" transform="translate(-663.85 -246.765)" opacity="0.5" fill="url(#linear-gradient-4)" style="mix-blend-mode: multiply;isolation: isolate"/>
      <g id="Group_71" data-name="Group 71" transform="translate(49.322 34.8)">
        <path id="Path_232" data-name="Path 232" d="M738.727,404.079c-2.813,4.978-9.9,19.991-6.721,24.889,3.178,4.927,4.867,5.149,10.7,5.519,5.815.4,8.762-1.805,12.51-3.218,3.768-1.444,19.529-1.028,23.932-3.753,3.742-2.3,12.219-8.816,4.078-14.592-2.264-1.586-10.516.35-26.444-2.64Z" transform="translate(-653.484 -67.43)" fill="#151823"/>
        <path id="Path_233" data-name="Path 233" d="M741.777,399.473S728.1,484.913,729.153,504.929c26.854,2.267,45.694-8.2,45.39-14.116-.325-5.937,18.4-88.438,18.912-92.92.487-4.477-1.717-30.456-13.777-36.556C739.653,340.978,741.777,399.473,741.777,399.473Z" transform="translate(-654.35 -154.355)" fill="#151823"/>
        <g id="Group_62" data-name="Group 62" transform="translate(128.417 200.447)">
          <path id="Path_234" data-name="Path 234" d="M717.855,406.075c-3.54,7.808-9.309,21.227-7.41,26.663,1.937,5.425,8.9,6.148,16.369,3.571,1.629-.561,6.809-2.8,11.562-1.316,6.177,1.934,15.329,3.745,29-1.982,11.909-4.995,7.054-18.2-5.012-15.745-11.345,2.3-18.931-7.541-22.443-11.186S717.855,406.075,717.855,406.075Z" transform="translate(-709.306 -267.17)" fill="#151823"/>
          <path id="Path_235" data-name="Path 235" d="M731.21,360.282c67.22-17.271,49.815,24.709,37.986,54.585-6.034,15.141-13.242,72.932-10.229,83.15-20.612,8-51.808,9.865-51.808,9.865s8.674-83.412,12.333-100.319C724.427,384.75,731.21,360.282,731.21,360.282Z" transform="translate(-707.159 -356.25)" fill="#151823"/>
        </g>
        <g id="Group_64" data-name="Group 64" transform="translate(2.14 216.696)">
          <path id="Path_236" data-name="Path 236" d="M744.5,517.636l-4.761-.028,10.712-133.619,2.211-14.92,93.79,9.338-5.011,148.756-6.071-.476-2.964-132.365-70.775-7.311Z" transform="translate(-739.74 -348.813)" fill="#b2c2d3"/>
          <g id="Group_63" data-name="Group 63" transform="translate(10.794)">
            <path id="Path_237" data-name="Path 237" d="M881.458,365.772l-62.689-3.816L714.788,378.837l.151,14.486c.157,1.8-1.25,8.62,5.143,9.454,0,0,77.121,6.353,85.052,3.856l76.629-14.953Z" transform="translate(-714.788 -361.956)" fill="#b2c2d3"/>
            <path id="Path_238" data-name="Path 238" d="M814.065,384.1c-11.228,2.517-15.862,3.266-25.492,2.27l-66.921-3.7c-6.934-.931-8.014-7.091,1.851-9.565l29.294-4.625c8-3.167,54.211-6.874,64.788-5.786l53.625,6.1c11.3,1.131,7.447,5.838,5.852,6.16Z" transform="translate(-716.258 -360.956)" fill="#ccd4dd"/>
          </g>
          <path id="Path_239" data-name="Path 239" d="M725.293,370.229l12.083,138.01-3.724-.47L712.529,374.108Z" transform="translate(-553.174 -346.671)" fill="#b2c2d3"/>
        </g>
        <path id="Path_240" data-name="Path 240" d="M711.708,360.618c-.541,10.779-9.4,38.435.313,40.047,9.691,1.609,55.73-5.026,68.137-9.332,12.385-4.317,33.4,7.543,33.948,10.243s12.684-16.451,8.922-27.238c-3.784-10.784-11.664-22.742-19.734-22.192-8.093.538-58.879-1.617-72.354,0S711.708,360.618,711.708,360.618Z" transform="translate(-623.074 -164.52)" fill="#151823"/>
        <g id="Group_67" data-name="Group 67" transform="translate(121.477 133.021)">
          <g id="Group_66" data-name="Group 66">
            <g id="Group_65" data-name="Group 65">
              <path id="Path_241" data-name="Path 241" d="M737.977,339.544c.344,1.891,1.811,5.166.45,4.556s-1.079-1.617-2.329-2.64-3.178-4.77-3.178-4.77,4.887,6.558,3.619,7.094c-1.264.507-5.382-5.1-5.382-5.1s2.577,4.058,1.968,3.893c-.22-.083-.61.091-1.011-.154a22.867,22.867,0,0,1-2.56-2.281c-1.333-1.2-8.876-4.038-7.253-5.126a9.108,9.108,0,0,1,9.221-.635A21.256,21.256,0,0,1,737.977,339.544Z" transform="translate(-701.307 -331.043)" fill="#d8a798"/>
              <path id="Path_242" data-name="Path 242" d="M733.38,332.716c5.641-.4,15.87.083,18.365,1.062a59.956,59.956,0,0,1,7.35,4.155s4.716,5.271,2.654,5.932c-1.034.339-3.417-3.682-4.676-4.18-1.216-.51-4.761-1.962-4.761-1.962l-6.812.632s8.139,1.133,8.07,2.4c-.051,1.284-.78,1.244-3.753,1.085-2.942-.159-5.969,1.4-8.552,1.5-4.294.137-4.875-.624-7.478-1.3-2.079-.552-12.125,2.626-12.125,2.626l-.948-9.83Z" transform="translate(-720.714 -332.573)" fill="#cc9987"/>
            </g>
          </g>
        </g>
        <g id="Group_68" data-name="Group 68" transform="translate(99.271 123.885)">
          <path id="Path_243" data-name="Path 243" d="M713.881,330.408c5.214,5.294,22.839,10.346,33.09,22.03,5.772-1.783,41.033.122,41.9-.4a69,69,0,0,1,8.982-4.907c2.566-1.031,7.159-.268,10.482-.322,1.375-.023,3.608.433,2.392,1.085-1.432.769-5.217,1.244-7.27,1.606-2.617.453,4.793-.427,6.7-.9,1.638-.4,9.646-2.2,9.737-.991.2,2.235-9.8,3.05-8.876,3.329.6.159,10.488-3.127,10.3-1.734-.348,2.984-8.891,3.477-9.847,5.063a35.584,35.584,0,0,0,4.343-1.381c2.266-.857,4.32-2.085,4.847-1.461,1.766,2.036-12.088,6.006-10.235,6.8.755.316,8.022-4.815,7.74-2.936-.131.937-9.059,6.379-9.059,6.379s-8.828,3.076-13.817,3.386c-2.99.2-44.171,3.765-50.416,4.149-12.436.789-44.1-27.386-44.1-27.386S708.7,325.092,713.881,330.408Z" transform="translate(-700.773 -329.365)" fill="#d8a798"/>
        </g>
        <g id="Group_69" data-name="Group 69" transform="translate(37.414)">
          <path id="Path_244" data-name="Path 244" d="M755.143,297.566c.51,5.223,2.634,24.3-.789,31.547-3.369,7.27-7.754,18.63-7.754,18.63l36.106,12.351s1.62-30.587,14.637-36.106C802.936,321.612,755.143,297.566,755.143,297.566Z" transform="translate(-745.895 -264.234)" fill="#d8a798"/>
          <path id="Path_245" data-name="Path 245" d="M788.646,304.431c.251,2.415-.695,7.361-.615,9.9.06,2.05,1.657,4.072,1.635,6.125-.239,13.715-3.953,26.176-8.882,26.788-2.9.367-10.183,1.458-15.227-.248-8.708-2.925-16.984-13.45-20.273-22.662-5.2-14.56.285-30.883,15.192-33.737C776.711,287.4,787.153,289.045,788.646,304.431Z" transform="translate(-728.552 -279.61)" fill="#d8a798"/>
          <path id="Path_246" data-name="Path 246" d="M806.363,295.412c.307,2.888-.88,3.329-1.677,3.357,2.1-2.967.458-8.879.458-8.879-7.2,8.113-28.209-13.5-48.829,1.287-2.07,1.467.456,2.392-1.224,3.668-14.15,10.673-14.592,17.471-11.041,27.534,3.975,11.28,5.724,15.782,4.5,21.472-1.005,4.616,29.007,4.505,29.007,4.505s6.294-2.762,8.187-7.356c1.256-3.1,4.932-8.782,4.468-9.8-4.468-10.226,2.07-13.2,4.161-8.671,1.586,3.446.962,5.61.962,5.61l3.463-1.854s-2.452-11.058,0-15.924c.587-1.17,2.771-4.334,5.06-7.564C808.4,301.765,805.952,291.491,806.363,295.412Z" transform="translate(-742.185 -285.861)" fill="#151823"/>
        </g>
        <path id="Path_247" data-name="Path 247" d="M828.289,331.125s-2.4-3.283-15.363-8.184c-8.959-3.366-17.867-6.478-17.867-6.478l-31.718-5.693c-14.07,8.085-24.479,12.692-25.45,14.968-12.835,30.809,12.638,51.185,11.26,63.333-5.627,49.6,9.446,67.043,11.146,73.345.809,3.09,22-10.673,39.853-10.368,9.7,3.024,39.019-22.728,42.289-25.41,1.583-4.169-11.163.868-18.342-35.055C823.118,386.71,828.289,331.125,828.289,331.125Z" transform="translate(-718.135 -239.837)" fill="#d1203d"/>
        <path id="Path_248" data-name="Path 248" d="M798.215,322.877l-2.392-6.285s-27.833-9.17-40.107-6.481c-4.192,3.286-7.182,9.768-7.182,9.768Z" transform="translate(-714.405 -241.966)" fill="#d1203d"/>
        <path id="Path_249" data-name="Path 249" d="M720.825,316.655c8.378-1.492,15.158,12.578,22.346,25.154s17.556,31.923,22.947,31.923,32.022-.592,35.009.6c3.007,1.2,5.7,14.959,3.9,16.759s-49.092,10.773-58.657,4.189-32.931-27.936-33.535-42.3C712.248,338.619,720.825,316.655,720.825,316.655Z" transform="translate(-620.051 -229.165)" fill="#d1203d"/>
        <g id="Group_70" data-name="Group 70" transform="translate(0 88.739)">
          <path id="Path_250" data-name="Path 250" d="M838.574,455.043c.1,7.461-5.946,12.262-16.742,11.254l-52.463-2.876c-12.376-1.9-10.6-3.266-12.043-10.921L745.7,340.648c-2.227-11.784,2.221-25.065,16.485-23.5l57.1,2.176c14.071,1.524,10.753,6.635,10.9,18.086Z" transform="translate(-745.161 -317.023)" fill="#b2c2d3"/>
          <path id="Path_251" data-name="Path 251" d="M748.4,318.425c4.363-.345,10.981,11.909,11.715,20.475s10.237,111.428,6.607,118.262c-3.634,6.857-12.368,7.936-11.977,4.935,3.622-27.822-8.819-131.4-11.357-136.986C740.847,319.544,748.4,318.425,748.4,318.425Z" transform="translate(-667.59 -314.445)" fill="#ccd4dd"/>
        </g>
      </g>
    </g>
    <g id="Group_73" data-name="Group 73" transform="translate(365.301 162.85)">
      <path id="Path_252" data-name="Path 252" d="M723.362,335.207l-44.328-4.38-42.532,1.63,47.285,8.977Z" transform="translate(-636.496 -330.827)" fill="#0e3489"/>
      <path id="Path_253" data-name="Path 253" d="M700.984,343.948l-5.935,11.684-45.495-8.344s-1.31-.162,0-2.139c.988-1.5-.125-11.4-.125-11.4s-1.552-2.327-.367-2.327,45.78,5.866,45.78,5.866Z" transform="translate(-648.616 -329.73)" fill="#0e2975"/>
      <path id="Path_254" data-name="Path 254" d="M636.266,350.1c0,.829-1.6,3.916-.738,3.916L675.1,348.7c3.426-.379,7.712-14.737.2-16.406l-39.361,3.614c-.872,0,.49,2.364.49,3.187Z" transform="translate(-589.095 -328.117)" fill="#0e2975"/>
      <path id="Path_255" data-name="Path 255" d="M699.558,343.787l-3.916,8.245-46.317-7.862-.245-11.992,46.723,6.388Z" transform="translate(-648.513 -328.328)" fill="#d2deea"/>
      <path id="Path_256" data-name="Path 256" d="M636.132,349.79l37.985-4.807c4.733-4.568,2.218-11.59,1.424-11.59l-39.247,2.933C635.5,336.326,638.45,339.655,636.132,349.79Z" transform="translate(-589.004 -326.086)" fill="#e8f1f9"/>
    </g>
    <g id="Group_74" data-name="Group 74" transform="translate(372.608 147.103)">
      <path id="Path_257" data-name="Path 257" d="M690.156,325.3l-39.31,1.262a8.827,8.827,0,0,0,.712,10.767c9.07.735,40.785.026,40.785.026s-4.465-6.234-4.465-8.23S690.156,325.3,690.156,325.3Z" transform="translate(-649.338 -325.293)" fill="#aa0031"/>
      <path id="Path_258" data-name="Path 258" d="M672.492,335.425c1.834.125,5.114.937,3.8,1.555s-32.592.379-32.592.379-3.585-1.287-5.077-3.742c-2.236-3.7.259-8.532,3.149-8.312,14.523,1.119,35.454.478,34.887,1.2-.843,1.074-3.8,1.062-3.8,1.062Z" transform="translate(-600.694 -325.297)" fill="#aa0031"/>
      <path id="Path_259" data-name="Path 259" d="M640.581,325.838c-2.4,1.1-3.933,7.393,2.891,9.395,16.272-.256,29.269.185,29.269.185s-3.178-4.741.5-8.979C655.711,325.294,640.581,325.838,640.581,325.838Z" transform="translate(-599.504 -324.538)" fill="#d2deea"/>
    </g>
    <g id="Group_76" data-name="Group 76" transform="translate(369.779 159.125)">
      <path id="Path_260" data-name="Path 260" d="M638.085,336.627a3.859,3.859,0,0,0,3.918,3.8h70.039a3.861,3.861,0,0,0,3.921-3.8v-3.318a3.858,3.858,0,0,0-3.921-3.79H642a3.856,3.856,0,0,0-3.918,3.79Z" transform="translate(-638.085 -329.519)" fill="#b2bfd1"/>
      <g id="Group_75" data-name="Group 75" transform="translate(8.503 1.953)" opacity="0.55">
        <path id="Path_261" data-name="Path 261" d="M661.157,333.228c0,1.617.823,2.927,1.831,2.927s1.843-1.31,1.843-2.927-.82-2.922-1.843-2.922S661.157,331.616,661.157,333.228Z" transform="translate(-661.157 -330.018)" fill="#fff"/>
        <rect id="Rectangle_55" data-name="Rectangle 55" width="1.496" height="6.421" transform="translate(6.124)" fill="#fff"/>
        <rect id="Rectangle_56" data-name="Rectangle 56" width="0.82" height="6.421" transform="translate(9.631)" fill="#fff"/>
      </g>
    </g>
    <g id="Group_79" data-name="Group 79" transform="translate(363.753 35.608)">
      <path id="Path_262" data-name="Path 262" d="M664.692,367.715c13.3-2.794,22.656-19.447,22.636-36.769h0a47.594,47.594,0,0,0-.527-7.082h0c-3.392-21.865-17-34.261-34.816-34.3h0a40.8,40.8,0,0,0-6.795.6h0l-.4-2.364a43.35,43.35,0,0,1,7.2-.621h0c19.04-.037,33.776,13.626,37.171,36.337h0a49.356,49.356,0,0,1,.55,7.435h0c-.014,18.06-9.531,35.764-24.507,39.11h0l-.507-2.341Z" transform="translate(-624.892 -284.245)" fill="#1e1e1e"/>
      <path id="Path_263" data-name="Path 263" d="M675.873,318.512a2.612,2.612,0,0,1-2.609,2.611H648.5a2.6,2.6,0,0,1-2.609-2.611V317.2a2.6,2.6,0,0,1,2.609-2.589h24.766a2.6,2.6,0,0,1,2.609,2.589Z" transform="translate(-614.195 -233.553)" fill="#1e1e1e"/>
      <g id="Group_77" data-name="Group 77" transform="translate(0)">
        <path id="Path_264" data-name="Path 264" d="M657.538,292.513c4.232-6.692,13.583-8.381,20.894-3.768s9.787,13.783,5.547,20.489Z" transform="translate(-657.538 -286.145)" fill="#1e1e1e"/>
        <path id="Path_265" data-name="Path 265" d="M667.059,307.756l-9.551-6.043a15.519,15.519,0,0,0,3.918-11.166,16.027,16.027,0,0,0-.575-3.6c.214.117.444.2.649.322C668.8,291.891,671.3,301.05,667.059,307.756Z" transform="translate(-640.53 -284.666)"/>
      </g>
      <g id="Group_78" data-name="Group 78" transform="translate(31.689 83.113)">
        <path id="Path_266" data-name="Path 266" d="M645.89,317.287a2.6,2.6,0,0,0,2.614,2.606h24.755a2.608,2.608,0,0,0,2.62-2.606v-1.3a2.731,2.731,0,0,0-.131-.655H646.021a2.476,2.476,0,0,0-.131.655Z" transform="translate(-645.89 -315.331)"/>
      </g>
    </g>
    <g id="Group_80" data-name="Group 80" transform="translate(380.575 120.55)">
      <path id="Path_267" data-name="Path 267" d="M698.315,317.269c7.441,4.949,4.551,12.473-1.982,13.891-15.668,0-55.818-.373-55.818-.373s-1.649-1.088.832-2.6c.675-3.466,3.434-5.271-.832-10.653-1.734-.988-1.128-1.082-.2-1.561C669.914,317.4,698.315,317.269,698.315,317.269Z" transform="translate(-639.41 -315.973)" fill="#b2bfd1"/>
      <path id="Path_268" data-name="Path 268" d="M641.407,317.394c1.225.236,8.956,5.872-1.011,9.993C641.131,313.43,641.407,317.394,641.407,317.394Z" transform="translate(-584.917 -314.309)" fill="#1e1e1e"/>
      <path id="Path_269" data-name="Path 269" d="M696.206,318.1c3.673,4.283,3.326,8.711-1.561,9.8-14.384,0-53.249-.766-53.249-.766s3.007-1.971-.4-10.619C668.174,317.5,696.206,318.1,696.206,318.1Z" transform="translate(-639.896 -314.96)" fill="#e8f1f9"/>
    </g>
    <g id="Group_81" data-name="Group 81" transform="translate(374.461 132.468)">
      <path id="Path_270" data-name="Path 270" d="M640.9,320.162l36.678,3.207s5.59,8.293-1.281,12.5c-8.461,1.011-37.43.837-37.43.837s4.152-8.557,4.152-11.3A9.459,9.459,0,0,0,640.9,320.162Z" transform="translate(-608.761 -320.151)" fill="#aa0031"/>
      <path id="Path_271" data-name="Path 271" d="M655.433,333.123c-1.712.171-4.776,1.281-3.548,2.139s29.5,1.455,29.5,1.455a11.43,11.43,0,0,0,4.724-5.134c2.093-5.083-.233-11.724-2.936-11.414-13.541,1.535-32.412,1.549-31.886,2.546.794,1.484,3.548,1.452,3.548,1.452Z" transform="translate(-651.273 -320.158)" fill="#d1203d"/>
      <path id="Path_272" data-name="Path 272" d="M681.724,320.783c2.25,1.507,3.674,10.155-2.688,12.9-15.181-.342-26.4-.683-26.4-.683s2.714-4.673-.718-10.494C668.266,320.931,681.724,320.783,681.724,320.783Z" transform="translate(-649.827 -319.004)" fill="#e8f1f9"/>
      <path id="Path_273" data-name="Path 273" d="M648.661,320.783c2.631,1.6,3.862,10.075-1.076,13.6l3.377-.271s6.635-5.684,1.065-12.846A25.989,25.989,0,0,1,648.661,320.783Z" transform="translate(-608.111 -319.004)" fill="#8fa4bc"/>
      <path id="Path_274" data-name="Path 274" d="M646.979,320.979c2.455,1.5,3.6,9.423-1,12.721l3.147-.256s6.2-5.319,1-12.009A24.091,24.091,0,0,1,646.979,320.979Z" transform="translate(-601.476 -318.642)" fill="#8fa4bc"/>
    </g>
  </g>
</svg>
