<svg xmlns="http://www.w3.org/2000/svg"  width="20" height="21.333" viewBox="0 0 20 21.333">
  <g id="upload" transform="translate(-16)">
    <g id="Group_165" data-name="Group 165" transform="translate(20.667)">
      <g id="Group_164" data-name="Group 164">
        <path id="Path_433" data-name="Path 433" d="M138.5,5.561,133.833.228a.665.665,0,0,0-1,0l-4.667,5.333a.666.666,0,0,0,.5,1.105h2.667v8.667A.667.667,0,0,0,132,16h2.667a.667.667,0,0,0,.667-.667V6.667H138a.666.666,0,0,0,.5-1.105Z" transform="translate(-127.998)" fill="#b5b5b5"/>
      </g>
    </g>
    <g id="Group_167" data-name="Group 167" transform="translate(16 14.667)">
      <g id="Group_166" data-name="Group 166">
        <path id="Path_434" data-name="Path 434" d="M33.333,352v4H18.667v-4H16v5.333a1.333,1.333,0,0,0,1.333,1.333H34.667A1.332,1.332,0,0,0,36,357.333V352Z" transform="translate(-16 -352)" fill="#b5b5b5"/>
      </g>
    </g>
  </g>
</svg>
