<svg xmlns="http://www.w3.org/2000/svg"  width="62" height="62" viewBox="0 0 62 62">
  <g id="Group_158" data-name="Group 158" transform="translate(304 -1407)">
    <g id="business" transform="translate(-305 1406)">
      <path id="Path_64" data-name="Path 64" d="M63,13V3H51V7H47V21H45V1H19.586L9,11.586v18.14A7.972,7.972,0,0,0,9.951,41.2,11.012,11.012,0,0,0,1,52V63H24V50.171a1.816,1.816,0,0,1,.536-1.293L30.414,43H45V23h2V37h4v4H63V31H51v4H49V23h2v4H63V17H51v4H49V9h2v4ZM53,5h8v6H53ZM19,4.414V11H12.414ZM9,35a6,6,0,1,1,6,6A6.006,6.006,0,0,1,9,35Zm8.957,7.427a2.986,2.986,0,0,1-5.914,0,7.916,7.916,0,0,0,5.914,0Zm5.165,5.037A3.8,3.8,0,0,0,22,50.171V61H8V49H6V61H3V52a9.014,9.014,0,0,1,7.159-8.809,4.977,4.977,0,0,0,9.8-.83,15.1,15.1,0,0,0,7.043-3.954L32.414,33,33,32.414l2.878-2.878a1.829,1.829,0,1,1,2.586,2.586ZM31,31H29V23h2Zm6-3.983V15h2V27.486A3.781,3.781,0,0,0,37.171,27C37.113,27,37.057,27.014,37,27.017ZM43,41H32.414l7.464-7.464A3.8,3.8,0,0,0,41,30.829V13H35V27.681a3.93,3.93,0,0,0-.536.44L33,29.586V21H27V33h2.586l-3.993,3.993a13.049,13.049,0,0,1-4.206,2.8,7.882,7.882,0,0,0,1.35-6.8H25V15H19V28.082a7.935,7.935,0,0,0-8,0V13H21V3H43ZM21,29.726V17h2V31H21.918A8.08,8.08,0,0,0,21,29.726ZM53,33h8v6H53Zm0-14h8v6H53Z" fill="#fff"/>
      <path id="Path_65" data-name="Path 65" d="M55,7h4V9H55Z" fill="#fff"/>
      <path id="Path_66" data-name="Path 66" d="M55,21h4v2H55Z" fill="#fff"/>
      <path id="Path_67" data-name="Path 67" d="M55,35h4v2H55Z" fill="#fff"/>
      <path id="Path_68" data-name="Path 68" d="M39,5h2V7H39Z" fill="#fff"/>
      <path id="Path_69" data-name="Path 69" d="M35,5h2V7H35Z" fill="#fff"/>
      <path id="Path_70" data-name="Path 70" d="M23,5H33V7H23Z" fill="#fff"/>
      <path id="Path_71" data-name="Path 71" d="M23,9H41v2H23Z" fill="#fff"/>
      <path id="Path_72" data-name="Path 72" d="M13,15h2v2H13Z" fill="#fff"/>
      <path id="Path_73" data-name="Path 73" d="M13,19h2v2H13Z" fill="#fff"/>
      <path id="Path_74" data-name="Path 74" d="M13,23h2v2H13Z" fill="#fff"/>
    </g>
  </g>
</svg>
