<svg xmlns="http://www.w3.org/2000/svg"  width="60" height="60" viewBox="0 0 60 60">
  <g id="Group_156" data-name="Group 156" transform="translate(-1459 -515)">
    <g id="Ellipse_3" data-name="Ellipse 3" transform="translate(1459 515)" fill="none" stroke="#fff" stroke-width="1">
      <circle cx="30" cy="30" r="30" stroke="none"/>
      <circle cx="30" cy="30" r="29.5" fill="none"/>
    </g>
    <g id="Group_13" data-name="Group 13" transform="translate(641.099 17.494)">
      <path id="Path_56" data-name="Path 56" d="M863.871,526.917q-.636.764-1.271,1.528a2.249,2.249,0,0,1-.253.315c-.2.166-.407.412-.627.43-.183.015-.4-.238-.582-.392a5.8,5.8,0,0,0-.48-.463,2.089,2.089,0,0,1,.136-3.7.754.754,0,0,0,.489-.8c-.024-1.183-.013-2.366-.018-3.55a.884.884,0,0,0-.067-.192,4.557,4.557,0,0,0-.494.185c-1.285.65-2.558,1.324-3.854,1.95-.463.224-.681.432-.532,1.007.231.888.317,1.814.513,2.712a5.037,5.037,0,0,0,.465,1.241,10.443,10.443,0,0,1-.207,10.927,10.337,10.337,0,0,1-9.722,5.132,10.744,10.744,0,0,1-10.131-11.311,8.667,8.667,0,0,1,1.108-4.134,13.022,13.022,0,0,0,1.375-4.267c.172-.744-.049-1.052-.71-1.362-2.095-.982-4.155-2.038-6.223-3.077a10.059,10.059,0,0,1-.885-.562v-.568a6.074,6.074,0,0,1,.858-.445q7.361-2.488,14.735-4.94a2.061,2.061,0,0,1,1.213.041q6.432,2.159,12.844,4.376c.79.273,1.548.643,2.32.968v.568a7.129,7.129,0,0,0-.862.579,1.061,1.061,0,0,0-.4.621c-.035,1.48-.024,2.962-.01,4.443a.9.9,0,0,0,.189.474c.349.48.719.944,1.081,1.415Zm-23.8-5.667c.115-.691.565-.782,1.14-.78q6.817.023,13.634,0c.554,0,1.031.046,1.157.742l5.454-2.808c-.173-.089-.228-.128-.29-.149-4.241-1.45-8.48-2.906-12.728-4.334a1.606,1.606,0,0,0-.945.052c-3.247,1.067-6.487,2.157-9.729,3.241l-3.476,1.163Zm8.374,6.885-.048-.4a3.917,3.917,0,0,0-1.07-.335c-2.249-.031-4.5,0-6.749-.027a.836.836,0,0,0-.834.5,9.139,9.139,0,0,0-1.1,6.1,9.419,9.419,0,0,0,17.9,2.412,9.16,9.16,0,0,0-.436-8.582.736.736,0,0,0-1.206-.207c-.691.836-1.394,1.662-2.12,2.524a8.844,8.844,0,0,1,2.225,5.292,4.216,4.216,0,0,1-2.616,4.563c-1.058.4-1.824.448-1.6-1.13.19-1.32-.244-1.667-1.567-1.538-.117.011-.234.032-.352.045a7.113,7.113,0,0,1-6.344-2.28c-1.652-1.784-1.341-3.715.8-4.85a27.948,27.948,0,0,1,2.775-1.039C846.9,528.86,847.666,528.484,848.445,528.135Zm1.211-.71a1.96,1.96,0,0,1-1.363,2.251c-.781.376-1.619.631-2.431.944a16.316,16.316,0,0,0-1.961.782c-1.295.7-1.454,1.584-.472,2.692a5.588,5.588,0,0,0,5.21,1.943c2.133-.313,3.391.291,3.528,2.4,0,.035.056.068.107.125a2.355,2.355,0,0,0,1.357-1.93,7,7,0,0,0-2.5-6.242c-.239-.2-.528-.576-.487-.818s.447-.473.741-.588a3.852,3.852,0,0,0,2.081-1.558Zm5.081-5.606h-13.4l-.772,4.216h14.946Zm6.866,5.62.321-.008c.209-.316.553-.615.595-.952a.783.783,0,1,0-1.565.042C861.017,526.856,861.376,527.135,861.6,527.439Z" fill="#fff"/>
      <path id="Path_57" data-name="Path 57" d="M854.7,529.161a1.214,1.214,0,0,1,.394.3,6.086,6.086,0,0,1,.729,1.361.883.883,0,0,1-.264.807.866.866,0,0,1-.816-.2,5.728,5.728,0,0,1-.759-1.345C853.76,529.57,854.057,529.145,854.7,529.161Z" fill="#fff"/>
      <path id="Path_58" data-name="Path 58" d="M847.426,538.808c.45.046,1.189-.183,1.185.628s-.738.668-1.286.685c-.094,0-.188,0-.281,0-.483,0-.937-.088-.928-.693.008-.577.454-.629.906-.62C847.139,538.81,847.256,538.808,847.426,538.808Z" fill="#fff"/>
      <path id="Path_59" data-name="Path 59" d="M845.59,539.278c-.188.3-.258.566-.409.628a.887.887,0,0,1-.722.011,3.822,3.822,0,0,1-.985-1,.834.834,0,0,1,.081-.8.812.812,0,0,1,.794-.057A11.713,11.713,0,0,1,845.59,539.278Z" fill="#fff"/>
    </g>
  </g>
</svg>
