<svg xmlns="http://www.w3.org/2000/svg"  width="256.844" height="101.294" viewBox="0 0 256.844 101.294">
  <g id="Group_47" data-name="Group 47" transform="translate(689.057 -5783.845)">
    <text id="ocademy" transform="translate(-655.213 5866.139)" fill="#fff" font-size="76" font-family="Roboto-Bold, Roboto" font-weight="700"><tspan x="0" y="0">o</tspan><tspan y="0" font-size="51">cademy</tspan></text>
    <path id="Path_180" data-name="Path 180" d="M137.89,53.129c-4.068,1.98-9.55,3-11.79,6.243s-.935,8.505-1.2,13.052C102.846,62.9,80.9,61.765,58.47,72.641a72.983,72.983,0,0,0-.152-10.572A6.765,6.765,0,0,0,55.1,57.458c-6.134-2.719-12.508-4.916-19.578-7.614,16.728-6.33,32.76-12.138,48.553-18.49a18.577,18.577,0,0,1,15.227.218c15.227,6.308,30.868,11.964,46.9,18.447-6.678.87-6.178,5.286-6.026,9.724.174,5.2,0,10.441,0,15.64,0,2.48,1.022,4.916,1.327,7.4a5.112,5.112,0,0,1-.522,3.328,2.915,2.915,0,0,1-2.741,0,5.438,5.438,0,0,1-.674-3.35c.7-9.593,1.479-19.208,2.175-28.8Z" transform="translate(-724.577 5754.016)" fill="#fff"/>
  </g>
</svg>
