<svg xmlns="http://www.w3.org/2000/svg"  width="80" height="80" viewBox="0 0 80 80">
  <g id="Group_161" data-name="Group 161" transform="translate(-715 -2001)">
    <circle id="Ellipse_7" data-name="Ellipse 7" cx="40" cy="40" r="40" transform="translate(715 2001)" fill="#2d93cf"/>
    <g id="Group_23" data-name="Group 23" transform="translate(736 2023)">
      <path id="Path_141" data-name="Path 141" d="M794.285,1103.849a1.743,1.743,0,0,1-.7-2.131,1.836,1.836,0,0,1,1.934-1.169h20.518a1.8,1.8,0,0,1,1.92,1.181,1.72,1.72,0,0,1-.724,2.118,6.355,6.355,0,0,0-.133,2.442c-.012.65-.181,1.008-.887,1.008s-.746-.449-.755-.978a13.192,13.192,0,0,0-.052-2.094.83.83,0,0,0-.316-.159c-6.173-.07-12.344.009-18.514-.023a.5.5,0,0,0-.185.067c-.334.42-.077.927-.2,1.382a2.312,2.312,0,0,1-.913,1.4c-.272.2-.553.394-.841.019A27.693,27.693,0,0,0,794.285,1103.849Z" transform="translate(-793.455 -1100.549)" fill="#fff"/>
      <path id="Path_142" data-name="Path 142" d="M813.294,1113.985c-2.407-.49-4.819-.958-7.22-1.481a1.8,1.8,0,0,1-1.524-2.135,1.835,1.835,0,0,1,2.323-1.388c2.9.588,5.808,1.179,8.695,1.849,1.018.236,2.109-.146,3.064.435a1.018,1.018,0,0,1,.287,1c-.052.587-.159,1.171-.235,1.756-.137,1.065-.984,1.312-2.4.8C815.4,1114.127,814.287,1114.276,813.294,1113.985Z" transform="translate(-790.234 -1098.108)" fill="#fff"/>
      <path id="Path_143" data-name="Path 143" d="M815.154,1113.953a1.994,1.994,0,0,1,1.827.38,29.451,29.451,0,0,0-.1,4.334c.017.849-.29,1.181-1.148,1.268-1.689.172-3.369-.023-5.052.005-4.7.076-9.392-.057-14.087.068a8.417,8.417,0,0,1-1.254-.089c-.78-.1-1.258-.34-1.163-1.228.043-.4,0-.808.012-1.213.492-.955.9-1.121,1.782-.72.087,1.536.087,1.536,1.667,1.536h16.374c1.139,0,1.254-.106,1.129-1.254A10.8,10.8,0,0,1,815.154,1113.953Z" transform="translate(-793.246 -1096.667)" fill="#fff"/>
      <path id="Path_144" data-name="Path 144" d="M813.252,1124.065a16.674,16.674,0,0,1,.194-3.432c.134,0,.315-.03.373.091.518,1.094,1.5,1.1,2.49,1.077.637-.012,1.276.031,1.911-.031.948-.092,1.282-.436,1.4-1.393a7.017,7.017,0,0,0-.11-2.178c.111-.593.168-1.191.306-1.776.08-.334.17-.638.58-.683.358.075.434.345.452.655a.426.426,0,0,1-.323.509,2.231,2.231,0,0,0-.225,1.367c-.094,2.766.3,5.515.285,8.277a1.038,1.038,0,0,1-1.165.92c-.5,0-1-.01-1.5,0-.687.018-.954-.409-1.089-.986-.014-.057.038-.124.072-.182-.008.063-.061.092-.1.141-.746.992-1.8.888-2.829.777-.583-.063-.754-.59-.788-1.054A6.644,6.644,0,0,1,813.252,1124.065Z" transform="translate(-787.72 -1096.123)" fill="#fff"/>
      <path id="Path_145" data-name="Path 145" d="M794.315,1120.515c0,2.023.28,2.33,2.295,2.417a13.744,13.744,0,0,0,3.416-.221,9.908,9.908,0,0,1,4.21.043,6.343,6.343,0,0,0,2.8.009,10.692,10.692,0,0,1,4.508-.009,11.873,11.873,0,0,0,3.917.076,1.359,1.359,0,0,0,1.343-1.546,13.548,13.548,0,0,1,.2-3.815,38.633,38.633,0,0,1,.043,4.817c-.011.8-.541,1.091-1.28,1.093-1.173,0-2.346,0-3.519.011-.394,0-.821-.076-1.108.317.191,1.433.092,1.544-1.348,1.569-.854.015-1.734.106-2.162-.9-.191-.77-.671-1.015-1.466-1.007-2.144.018-2.144-.017-2.9,2.026a3.536,3.536,0,0,1-3.2.57c-.488-.284-.409-.782-.309-1.251.121-1.32.121-1.321-1.188-1.327-1.011,0-2.022.013-3.033-.009-1.133-.026-1.437-.318-1.439-1.467q-.012-9.4,0-18.807a10.237,10.237,0,0,1,.222,3.027c.559.243.465.758.492,1.213.071,1.2-.1,2.406.048,3.605.017,1.374-.072,2.745-.055,4.12a2.3,2.3,0,0,0,.086.992c-.019,1.061-.111,2.123-.085,3.184A2.364,2.364,0,0,1,794.315,1120.515Z" transform="translate(-793.268 -1099.805)" fill="#fff"/>
      <path id="Path_146" data-name="Path 146" d="M819.824,1108.406a3.119,3.119,0,1,1-3.082-3.091A3.089,3.089,0,0,1,819.824,1108.406Z" transform="translate(-787.589 -1099.161)" fill="#fff"/>
      <path id="Path_147" data-name="Path 147" d="M820.655,1119.312c.009.673.027,1.344.026,2.017,0,1.641-.165,1.808-1.768,1.819-1.042.008-2.084.005-3.126,0-1.631-.008-1.7-.075-1.808-1.673-.005-2.224-.055-4.45.006-6.671.027-1-.3-1.506-1.311-1.6a8.391,8.391,0,0,1-1.362-.359,7.5,7.5,0,0,1,2.9.585,1.416,1.416,0,0,1,.5,1.094c0,.892-.008,1.785.014,2.674.008.234,0,.47.014.705.052,1.11.36,1.463,1.464,1.481a11.851,11.851,0,0,0,3.812-.229A.628.628,0,0,1,820.655,1119.312Z" transform="translate(-788.252 -1096.967)" fill="#fff"/>
      <path id="Path_148" data-name="Path 148" d="M813.33,1122.187a4.918,4.918,0,0,1,.013.6c-.229,2.333,1.213,2.349,2.809,1.826.285-.093.557-.226.834-.341a.74.74,0,0,1,.012.8,12.094,12.094,0,0,0-.386,3.177c-.059.468-.027.951-.123,1.408a1.812,1.812,0,0,1-1.9,1.472,1.749,1.749,0,0,1-1.708-1.787A67.639,67.639,0,0,1,813.33,1122.187Z" transform="translate(-787.797 -1094.245)" fill="#fff"/>
      <path id="Path_149" data-name="Path 149" d="M816.107,1124.846c0-.267-.008-.533-.012-.8a1.971,1.971,0,0,1-.136-1.055c.229-.08.252.082.275.195.344,1.694.563,1.865,2.309,1.63a7.662,7.662,0,0,0,1.233-.372,34.107,34.107,0,0,1,.311,4.631,1.827,1.827,0,0,1-3.644.2C816.272,1127.807,816.213,1126.323,816.107,1124.846Z" transform="translate(-786.907 -1094.017)" fill="#fff"/>
      <path id="Path_150" data-name="Path 150" d="M801.195,1124.594c-.394,1.534-.754,3.079-1.2,4.6a1.84,1.84,0,1,1-3.538-.99c.362-1.436.8-2.854,1.2-4.28a8.486,8.486,0,0,0,2.935.253A.511.511,0,0,1,801.195,1124.594Z" transform="translate(-792.602 -1093.739)" fill="#fff"/>
      <path id="Path_151" data-name="Path 151" d="M816.36,1111.027a3.059,3.059,0,0,1,4.743,1.375c.275.714.5,1.448.74,2.172.205.572-.077.813-.606.847-1.233.076-2.472.014-3.7.155a.678.678,0,0,1-.71-.615A20.47,20.47,0,0,1,816.36,1111.027Z" transform="translate(-786.784 -1097.677)" fill="#fff"/>
      <path id="Path_152" data-name="Path 152" d="M800.905,1125.783c-.691.058-1.382.143-2.074.164a1.412,1.412,0,0,1-1.455-.836,44.842,44.842,0,0,1,1.424-5.273,1.1,1.1,0,0,0,1.2.86,9.563,9.563,0,0,0,2.311-.178A49.288,49.288,0,0,1,800.905,1125.783Z" transform="translate(-792.312 -1094.929)" fill="#fff"/>
      <path id="Path_153" data-name="Path 153" d="M816.434,1110.888l.449,3.094c.075.517.28.9.89.883,1.076-.028,2.151-.048,3.226-.073a1.346,1.346,0,0,0,.918-.357,8.385,8.385,0,0,1,1.211,3.412,2.969,2.969,0,0,1-3.43,0l-.2-.405c-.63,1.139-1.725.931-2.723.883-.495-.023-.89-.312-.544-.931a1.263,1.263,0,0,0,.674-1.567c-.235-1.281-.373-2.58-.545-3.871A1.393,1.393,0,0,1,816.434,1110.888Z" transform="translate(-786.858 -1097.537)" fill="#fff"/>
      <path id="Path_154" data-name="Path 154" d="M809.7,1124.894c.3,1.062.651,2.114.9,3.188a1.792,1.792,0,0,1-1.247,2.213,1.813,1.813,0,0,1-2.288-1.271c-.391-1.28-.686-2.589-1.023-3.887.793-.577,1.7-.205,2.549-.3A4.5,4.5,0,0,1,809.7,1124.894Z" transform="translate(-789.789 -1093.482)" fill="#fff"/>
      <path id="Path_155" data-name="Path 155" d="M816.971,1115.961c1.077.837,2.173.363,3.267.048a7.881,7.881,0,0,0-.235,2.439,2.6,2.6,0,0,1-1.863.6c-1.138-.01-2.279-.045-3.412.027-.9.058-1.224-.309-1.174-1.157.026-.433,0-.869,0-1.3.367-.9,1.129-.7,1.839-.677.263.007.584.244.792-.126Z" transform="translate(-787.6 -1096.103)" fill="#fff"/>
      <path id="Path_156" data-name="Path 156" d="M799.46,1105.1c.541-.731,1.086-.722,1.633-.006.209,1.844.049,3.693.089,5.54.023,1.078,0,2.156,0,3.235,0,.573-.307.828-.859.841-.518.012-.96-.139-.953-.735C799.409,1111.013,799.245,1108.052,799.46,1105.1Z" transform="translate(-791.738 -1099.383)" fill="#fff"/>
      <path id="Path_157" data-name="Path 157" d="M799.475,1104.974q.006,3.69.013,7.381a7.5,7.5,0,0,0,.056,1.007.7.7,0,0,0,.75.668.68.68,0,0,0,.741-.674c.05-.739.055-1.48.059-2.221.01-2.056.01-4.112.014-6.167a1.885,1.885,0,0,1,.176,1.081q0,5.817-.005,11.631a3.477,3.477,0,0,1-.085.9.94.94,0,0,1-1.8.006,3.431,3.431,0,0,1-.088-.9q-.01-5.815-.005-11.631A1.874,1.874,0,0,1,799.475,1104.974Z" transform="translate(-791.753 -1099.261)" fill="#fff"/>
      <path id="Path_158" data-name="Path 158" d="M804.576,1119.729a4.2,4.2,0,0,0,2.321.386,1.061,1.061,0,0,0,1.189-1.056,22.266,22.266,0,0,1,1,3.679c.116,1.18-.09,1.423-1.2,1.529a2.125,2.125,0,0,1-2.414-1.093A26.19,26.19,0,0,1,804.576,1119.729Z" transform="translate(-790.214 -1095.156)" fill="#fff"/>
      <path id="Path_159" data-name="Path 159" d="M805.273,1122.345a3.834,3.834,0,0,0,2.3.573,1.262,1.262,0,0,0,1.315-1.01,29.512,29.512,0,0,1,1.032,3.83c-1.174.75-2.419.452-3.657.244Z" transform="translate(-790.011 -1094.326)" fill="#fff"/>
      <path id="Path_160" data-name="Path 160" d="M814.912,1117.069a25.7,25.7,0,0,0,.114,3.022c.13,1.054-.143,1.4-1.182,1.4-5.651.019-11.3,0-16.954.019-1.193,0-1.251-.762-1.238-1.627-.449-.2-.465-.606-.478-1.011-.028-.83-.049-1.663.005-2.489a1.168,1.168,0,0,0-.177-.9,25.565,25.565,0,0,0,.083-5.155c.049-1.262.112-2.523.075-3.786a6.733,6.733,0,0,1,.479-1.835l.03-1.436a.9.9,0,0,1,.584-.1H814.4a.911.911,0,0,1,.489.083l.036.036c.085.1.068.176-.049.231-.4-.032-.8-.094-1.206-.094q-8.193-.01-16.388,0c-1.415,0-1.432.018-1.433,1.391-.005,5.092.016,10.184-.023,15.275-.008.976.327,1.28,1.285,1.275q8.193-.05,16.387,0c.961.005,1.32-.323,1.3-1.288A10.806,10.806,0,0,1,814.912,1117.069Z" transform="translate(-793.004 -1099.783)" fill="#fff"/>
      <path id="Path_161" data-name="Path 161" d="M802.431,1107.557c.842-.607,1.154-.541,1.649.344a34.464,34.464,0,0,1-.062,6.215c-.065.559-.238,1.039-.952,1.064-.451.016-.728-.111-.719-.594C802.391,1112.243,802.234,1109.9,802.431,1107.557Z" transform="translate(-790.869 -1098.623)" fill="#fff"/>
      <path id="Path_162" data-name="Path 162" d="M802.46,1107.467c.006,2.018.005,4.037.024,6.054,0,.38-.106.913.444.986.568.077.815-.377.947-.863a14.18,14.18,0,0,0,.212-3.514c.014-.772.016-1.546.022-2.321a33.349,33.349,0,0,1,.123,4.937c.032,1.482.008,2.965,0,4.447-.007.7-.205,1.345-1.041,1.327-.776-.017-.949-.63-.949-1.3q0-4.4-.008-8.794A1.454,1.454,0,0,1,802.46,1107.467Z" transform="translate(-790.898 -1098.533)" fill="#fff"/>
      <path id="Path_163" data-name="Path 163" d="M796.884,1109.237c.95-.25,1.43-.011,1.446.885.041,2.317.018,4.636-.006,6.954a.9.9,0,0,1-.951.967.869.869,0,0,1-.95-.856c-.09-2.45-.125-4.9.022-7.35.008-.149.154-.288.236-.433.57.155.5.621.519,1.051a11.926,11.926,0,0,0,.146,2.75A4.523,4.523,0,0,0,796.884,1109.237Z" transform="translate(-792.613 -1098.045)" fill="#fff"/>
      <path id="Path_164" data-name="Path 164" d="M816.187,1117.288c-.049.55-.471.567-.87.588a6.317,6.317,0,0,0-1.76.216q0-2.024,0-4.048c2.35,0,2.864-.619,2.51-3.009-.015-.1-.045-.2-.067-.3.539.293.406.788.347,1.24-.165,1.286-.355,2.57-.528,3.856C815.745,1116.364,815.656,1116.907,816.187,1117.288Z" transform="translate(-787.599 -1097.581)" fill="#fff"/>
      <path id="Path_165" data-name="Path 165" d="M810.4,1103.553c.017-.078.032-.155.049-.231a6.274,6.274,0,0,1,.2,1.892c.026.4.119.714.646.689.495-.023.732-.212.746-.723a4.509,4.509,0,0,1,.26-2.075c.005,2.181.021,4.364.007,6.545,0,.42.167,1.059-.624.97-.621-.07-1.317-.078-1.3-1.025C810.4,1107.581,810.395,1105.566,810.4,1103.553Z" transform="translate(-788.524 -1099.804)" fill="#fff"/>
      <path id="Path_166" data-name="Path 166" d="M796.808,1109.216c.887.054,1.219.584,1.218,1.408,0,.972.01,1.946,0,2.918-.007.4.011.875-.561.9-.612.023-.807-.416-.817-.931-.027-1.375-.028-2.751-.039-4.126Z" transform="translate(-792.537 -1098.024)" fill="#fff"/>
      <path id="Path_167" data-name="Path 167" d="M818.893,1116.278h3.43l.422.679a3.347,3.347,0,0,1,.331.931.7.7,0,0,1-.442.8c-1.081.127-2.209.411-3.2-.364q-.288-.788-.576-1.578Z" transform="translate(-786.052 -1095.967)" fill="#fff"/>
      <path id="Path_168" data-name="Path 168" d="M819.308,1118.172c.739-.012,1.479-.03,2.217-.035.905-.008,1.317-.407,1.09-1.334a6.909,6.909,0,0,1,.48.984,1.784,1.784,0,0,1-.981,2.257,1.835,1.835,0,0,1-2.4-.847A9.228,9.228,0,0,1,819.308,1118.172Z" transform="translate(-785.922 -1095.813)" fill="#fff"/>
      <path id="Path_169" data-name="Path 169" d="M795.852,1104.368v5.652c-.717,1.028-.861,1.083-1.582.607q0-2.433,0-4.865A7.121,7.121,0,0,0,795.852,1104.368Z" transform="translate(-793.217 -1099.436)" fill="#fff"/>
      <path id="Path_170" data-name="Path 170" d="M814.742,1103.286l-19.224.014a4.227,4.227,0,0,1,1.591-.2q8.019,0,16.04,0A4.5,4.5,0,0,1,814.742,1103.286Z" transform="translate(-792.853 -1099.805)" fill="#fff"/>
      <path id="Path_171" data-name="Path 171" d="M795.859,1112.726q0,2.231.008,4.46l-1.6.607q0-2.228,0-4.457C794.717,1112.922,794.964,1111.977,795.859,1112.726Z" transform="translate(-793.219 -1097.083)" fill="#fff"/>
      <path id="Path_172" data-name="Path 172" d="M795.858,1113.8l-1.591.611q0-2.531,0-5.063l1.582-.607Q795.855,1111.275,795.858,1113.8Z" transform="translate(-793.218 -1098.161)" fill="#fff"/>
    </g>
  </g>
</svg>
