<svg xmlns="http://www.w3.org/2000/svg"  width="14.604" height="25" viewBox="0 0 14.604 25">
  <g id="down-arrow" transform="translate(141.849 0) rotate(90)">
    <g id="_x31_0_34_" transform="translate(0 127.244)">
      <g id="Group_32" data-name="Group 32" transform="translate(0)">
        <path id="Path_179" data-name="Path 179" d="M24.693,127.552a1.043,1.043,0,0,0-1.48,0L12.5,139.308,1.786,127.552a1.043,1.043,0,0,0-1.48,0,1.055,1.055,0,0,0,0,1.487l11.4,12.51a1.032,1.032,0,0,0,.792.3,1.03,1.03,0,0,0,.792-.3l11.4-12.511A1.054,1.054,0,0,0,24.693,127.552Z" transform="translate(0 -127.244)" fill="#2d93cf"/>
      </g>
    </g>
  </g>
</svg>
