<svg xmlns="http://www.w3.org/2000/svg"  width="60" height="60" viewBox="0 0 60 60">
  <g id="Group_157" data-name="Group 157" transform="translate(-1459 -733)">
    <g id="Ellipse_3" data-name="Ellipse 3" transform="translate(1459 733)" fill="none" stroke="#fff" stroke-width="1">
      <circle cx="30" cy="30" r="30" stroke="none"/>
      <circle cx="30" cy="30" r="29.5" fill="none"/>
    </g>
    <g id="Group_14" data-name="Group 14" transform="translate(106.565 235.175)">
      <path id="Path_60" data-name="Path 60" d="M1395.87,533.361c-.023.149-.038.3-.071.449a2.218,2.218,0,0,1-1.919,1.72,2.852,2.852,0,0,1-.319.019h-3.892a.365.365,0,0,1-.017-.079c0-.282,0-.564,0-.846,0-.089.043-.1.113-.1.442,0,.884,0,1.326,0h2.515a1.223,1.223,0,0,0,1.207-.973,1.5,1.5,0,0,0,.027-.306q0-7.561,0-15.124a1.221,1.221,0,0,0-1.279-1.279q-11.409,0-22.816,0a1.22,1.22,0,0,0-1.249.975,1.505,1.505,0,0,0-.027.307q0,7.555,0,15.112a1.226,1.226,0,0,0,1.3,1.288h7.736v1.02h-7.8a2.243,2.243,0,0,1-2.23-1.919c-.014-.09-.022-.18-.033-.27V518.019c.008-.048.014-.1.024-.145a4.322,4.322,0,0,1,.11-.534,2.242,2.242,0,0,1,2.205-1.515h22.756a3.132,3.132,0,0,1,.387.025,2.224,2.224,0,0,1,1.879,1.7c.034.155.05.314.074.471Z" fill="#fff"/>
      <path id="Path_61" data-name="Path 61" d="M1383.132,529.634c.018-.037.037-.073.056-.11a1.05,1.05,0,0,1,1.141-.547,1.037,1.037,0,0,1,.837.9c.02.184.013.372.017.558a.237.237,0,0,0,.024.123c.01-.035.021-.069.031-.1a1.057,1.057,0,0,1,2.077.276v.416c.115-.016.215-.039.315-.044a1.041,1.041,0,0,1,1.108,1c.005.095,0,.191,0,.286q0,3.179,0,6.356a1,1,0,0,1-.018.238.427.427,0,0,1-.4.3c-.053,0-.107,0-.16,0q-2.658,0-5.315,0a.544.544,0,0,1-.5-.262q-2.242-3.366-4.493-6.726a1.059,1.059,0,1,1,1.752-1.19c.377.563.751,1.128,1.127,1.692a.3.3,0,0,0,.06.082.156.156,0,0,0,.108.038.144.144,0,0,0,.075-.088.473.473,0,0,0,.007-.136q0-3.4,0-6.8a1.141,1.141,0,0,1,.229-.748,1.061,1.061,0,0,1,1.891.668q0,1.847,0,3.693v.122Z" fill="#fff"/>
      <path id="Path_62" data-name="Path 62" d="M1385.488,528.745a4.577,4.577,0,0,0,.83-1.589,4.489,4.489,0,1,0-8.7-2.2,4.35,4.35,0,0,0,1.16,4.128.609.609,0,0,1,.165.656.13.13,0,0,1-.1.072,1.609,1.609,0,0,0-.748.122.136.136,0,0,1-.176-.038,5.672,5.672,0,1,1,8.966-1.071.143.143,0,0,1-.195.084,1.586,1.586,0,0,0-.88,0c-.106.03-.18.025-.238-.073A.792.792,0,0,0,1385.488,528.745Z" fill="#fff"/>
      <path id="Path_63" data-name="Path 63" d="M1383.919,528.135V528c0-.27,0-.541,0-.811a2.619,2.619,0,0,1,.085-.707,2.084,2.084,0,1,0-3.888.356.492.492,0,0,1,.045.2c0,.419,0,.838,0,1.257,0,.135-.01.143-.145.127a.56.56,0,0,1-.348-.18,3.17,3.17,0,0,1-.921-2,3.26,3.26,0,0,1,6.456-.865,3.2,3.2,0,0,1-.761,2.72.168.168,0,0,1-.178.062C1384.157,528.14,1384.046,528.142,1383.919,528.135Z" fill="#fff"/>
    </g>
  </g>
</svg>
