<svg xmlns="http://www.w3.org/2000/svg" id="digital-marketing"  width="60" height="60" viewBox="0 0 60 60">
  <g id="Group_21" data-name="Group 21" transform="translate(0 0)">
    <path id="Path_111" data-name="Path 111" d="M141.915,167.628h.616v.1a2.2,2.2,0,0,0,1.657,2.13l.717.182c0,.012.005.024.009.036l2.286,7.459a1.532,1.532,0,0,0,1.47,1.086h6.32a.879.879,0,0,0,0-1.758H153.8l-1.516-4.95,1.025.26a.879.879,0,1,0,.433-1.7l-3.339-.848V159.048l9.253-2.349a.44.44,0,0,1,.548.426v14.413a.44.44,0,0,1-.548.426l-2.052-.521a.879.879,0,0,0-.433,1.7l2.052.521a2.218,2.218,0,0,0,.546.069,2.2,2.2,0,0,0,2.192-2.2v-2.23a5.054,5.054,0,0,0,0-9.953v-2.23a2.2,2.2,0,0,0-2.738-2.13l-15.03,3.815a2.2,2.2,0,0,0-1.657,2.13v.1h-.616a3.3,3.3,0,0,0,0,6.592Zm22.458-3.3a3.292,3.292,0,0,1-2.417,3.178v-6.355A3.291,3.291,0,0,1,164.373,164.332Zm-14.077,7.1,1.66,5.421h-3.124L146.9,170.54l3.391.861C150.291,171.413,150.293,171.425,150.3,171.436Zm-6.008-10.5a.439.439,0,0,1,.331-.426l4.02-1.02v9.675l-4.02-1.02a.439.439,0,0,1-.331-.426Zm-2.374,1.853h.616v3.076h-.616a1.538,1.538,0,0,1,0-3.076Z" transform="translate(-122.375 -136.771)" fill="#989898"/>
    <path id="Path_112" data-name="Path 112" d="M148.734,93.234a17.991,17.991,0,0,1,29.2,12.093.879.879,0,1,0,1.748-.184,19.748,19.748,0,0,0-32.051-13.276.879.879,0,0,0,1.106,1.367Z" transform="translate(-130.04 -77.228)" fill="#989898"/>
    <path id="Path_113" data-name="Path 113" d="M126.084,161.159a.879.879,0,0,0-.966.782,17.991,17.991,0,1,1-31.884-13.207.879.879,0,1,0-1.367-1.106,19.748,19.748,0,1,0,35,14.5A.879.879,0,0,0,126.084,161.159Z" transform="translate(-77.228 -130.041)" fill="#989898"/>
    <path id="Path_114" data-name="Path 114" d="M58.671,24.133l-5-1.881a24.828,24.828,0,0,0-1.455-3.506l2.209-4.87a2.06,2.06,0,0,0-.418-2.3L48.422,6a2.06,2.06,0,0,0-2.3-.418l-4.87,2.209a24.838,24.838,0,0,0-3.506-1.455l-1.881-5A2.06,2.06,0,0,0,33.948,0h-7.9a2.061,2.061,0,0,0-1.92,1.329l-1.881,5a24.846,24.846,0,0,0-3.506,1.455l-4.87-2.209a2.06,2.06,0,0,0-2.3.418L6,11.578a2.06,2.06,0,0,0-.418,2.3l2.209,4.87a24.841,24.841,0,0,0-1.455,3.506l-5,1.881A2.061,2.061,0,0,0,0,26.052v7.9a2.061,2.061,0,0,0,1.329,1.92l5,1.881a24.827,24.827,0,0,0,1.455,3.506l-2.209,4.87A2.06,2.06,0,0,0,6,48.422L11.578,54a2.06,2.06,0,0,0,2.3.418l4.87-2.209a24.838,24.838,0,0,0,3.506,1.455l1.881,5A2.061,2.061,0,0,0,26.052,60h7.9a2.061,2.061,0,0,0,1.92-1.329l1.881-5a24.847,24.847,0,0,0,3.506-1.455l4.87,2.209a2.06,2.06,0,0,0,2.3-.418L54,48.422a2.06,2.06,0,0,0,.418-2.3l-2.209-4.87a24.841,24.841,0,0,0,1.455-3.506l5-1.881A2.061,2.061,0,0,0,60,33.948v-7.9a2.06,2.06,0,0,0-1.329-1.92Zm-.429,9.815a.294.294,0,0,1-.19.274l-5.4,2.031a.879.879,0,0,0-.531.564,23.047,23.047,0,0,1-1.66,4,.879.879,0,0,0-.024.774l2.385,5.259a.294.294,0,0,1-.06.328l-5.583,5.583a.294.294,0,0,1-.328.06l-5.259-2.385a.879.879,0,0,0-.774.024,23.055,23.055,0,0,1-4,1.66.879.879,0,0,0-.564.531l-2.031,5.4a.294.294,0,0,1-.274.19h-7.9a.294.294,0,0,1-.274-.19l-2.031-5.4a.879.879,0,0,0-.564-.531,23.046,23.046,0,0,1-4-1.66.879.879,0,0,0-.774-.024l-5.259,2.385a.3.3,0,0,1-.328-.06L7.238,47.179a.294.294,0,0,1-.06-.328l2.385-5.259a.879.879,0,0,0-.024-.774,23.047,23.047,0,0,1-1.66-4,.879.879,0,0,0-.531-.564l-5.4-2.031a.294.294,0,0,1-.19-.274v-7.9a.294.294,0,0,1,.19-.274l5.4-2.031a.879.879,0,0,0,.531-.564,23.047,23.047,0,0,1,1.66-4,.879.879,0,0,0,.024-.774L7.178,13.149a.294.294,0,0,1,.06-.328l5.583-5.583a.294.294,0,0,1,.328-.06l5.259,2.385a.879.879,0,0,0,.774-.024,23.054,23.054,0,0,1,4-1.66.879.879,0,0,0,.564-.531l2.031-5.4a.294.294,0,0,1,.274-.19h7.9a.294.294,0,0,1,.274.19l2.031,5.4a.879.879,0,0,0,.564.531,23.045,23.045,0,0,1,4,1.66.879.879,0,0,0,.774.024L46.85,7.178a.3.3,0,0,1,.328.06l5.583,5.583a.294.294,0,0,1,.06.328l-2.385,5.259a.879.879,0,0,0,.024.774,23.047,23.047,0,0,1,1.66,4,.879.879,0,0,0,.531.564l5.4,2.031a.294.294,0,0,1,.19.274Z" transform="translate(0 0)" fill="#989898"/>
  </g>
</svg>
