<svg xmlns="http://www.w3.org/2000/svg"  width="142.711" height="56.995" viewBox="0 0 142.711 56.995">
  <g id="Group_4" data-name="Group 4" transform="translate(-379.943 344.155)">
    <text id="ocademy" transform="translate(399.654 -298.16)" fill="#2d93cf" font-size="42" font-family="Roboto-Bold, Roboto" font-weight="700"><tspan x="0" y="0">o</tspan><tspan y="0" font-size="28">cademy</tspan></text>
    <path id="Path_51" data-name="Path 51" d="M95.142,43.4c-2.369,1.153-5.562,1.748-6.867,3.636s-.545,4.954-.7,7.6c-12.847-5.549-25.63-6.208-38.692.127a42.507,42.507,0,0,0-.089-6.157,3.94,3.94,0,0,0-1.875-2.686c-3.573-1.584-7.285-2.863-11.4-4.434C45.263,37.8,54.6,34.417,63.8,30.717a10.82,10.82,0,0,1,8.869.127c8.869,3.674,17.978,6.968,27.315,10.744-3.89.507-3.6,3.079-3.509,5.663.1,3.028,0,6.081,0,9.109a36.6,36.6,0,0,0,.773,4.308,2.977,2.977,0,0,1-.3,1.938,1.7,1.7,0,0,1-1.6,0,3.167,3.167,0,0,1-.393-1.951c.405-5.587.862-11.187,1.267-16.774Z" transform="translate(344.423 -373.984)" fill="#1c56ae"/>
  </g>
</svg>
