<svg xmlns="http://www.w3.org/2000/svg"  width="60" height="60" viewBox="0 0 60 60">
  <g id="Group_11" data-name="Group 11" transform="translate(-1470 -221)">
    <g id="Group_10" data-name="Group 10" transform="translate(1485 240)">
      <path id="Path_54" data-name="Path 54" d="M332.967,517.209c1.763,0,3.527-.03,5.289.009,1.607.035,3.214.121,4.818.235a6.229,6.229,0,0,1,1.748.364,3.744,3.744,0,0,1,2.293,3,18.679,18.679,0,0,1,.378,2.682c.1,1.58.179,3.166.151,4.747-.037,2.04-.139,4.083-.315,6.115a7.8,7.8,0,0,1-.657,2.343,3.322,3.322,0,0,1-3.005,2.055c-2.547.157-5.1.271-7.65.318-2.733.051-5.468.042-8.2-.011-1.874-.036-3.748-.159-5.618-.3a3.648,3.648,0,0,1-3.288-2.978,17.3,17.3,0,0,1-.462-2.977c-.11-1.617-.182-3.242-.153-4.861q.052-3.023.315-6.038a7.6,7.6,0,0,1,.629-2.273,3.4,3.4,0,0,1,3.051-2.111c1.576-.127,3.158-.194,4.739-.252,1.978-.071,3.958-.106,5.937-.156Zm.02,1.09v-.008c-1.291,0-2.583-.036-3.872.008-2.218.075-4.436.176-6.651.316a2.487,2.487,0,0,0-2.367,1.809,3.2,3.2,0,0,0-.19.621,40.285,40.285,0,0,0-.442,4.212c-.031,2.706.061,5.414.14,8.12a7.478,7.478,0,0,0,.6,2.752,2.254,2.254,0,0,0,1.866,1.468,43.347,43.347,0,0,0,4.726.365c5.49,0,10.986.258,16.469-.266a2.7,2.7,0,0,0,2.693-2.179,16.458,16.458,0,0,0,.522-4.586c.016-2.617-.066-5.235-.145-7.851a7.892,7.892,0,0,0-.6-2.908,2.263,2.263,0,0,0-1.894-1.485c-1.647-.17-3.3-.32-4.955-.373C336.924,518.251,334.955,518.3,332.987,518.3Z" transform="translate(-318.289 -517.115)" fill="#fff"/>
      <path id="Path_55" data-name="Path 55" d="M338.994,528.142l-9.626,6.018V522.126Z" transform="translate(-318.289 -517.115)" fill="#fff"/>
    </g>
    <g id="Ellipse_3" data-name="Ellipse 3" transform="translate(1470 221)" fill="none" stroke="#fff" stroke-width="1">
      <circle cx="30" cy="30" r="30" stroke="none"/>
      <circle cx="30" cy="30" r="29.5" fill="none"/>
    </g>
  </g>
</svg>
