<svg xmlns="http://www.w3.org/2000/svg"  width="80" height="80" viewBox="0 0 80 80">
  <g id="Group_160" data-name="Group 160" transform="translate(-101 -2001)">
    <circle id="Ellipse_6" data-name="Ellipse 6" cx="40" cy="40" r="40" transform="translate(101 2001)" fill="#2d93cf"/>
    <g id="Group_22" data-name="Group 22" transform="translate(121 2024)">
      <path id="Path_132" data-name="Path 132" d="M339.236,1101.308c9.626.646,17.941,9.047,18.3,18.492a17.132,17.132,0,0,0,0,3.3,19.575,19.575,0,0,1-5.593,12.278,2.409,2.409,0,1,1-3.449-3.325,15.32,15.32,0,0,0,2.745-17.484,15.347,15.347,0,0,0-28.934,4.688,14.96,14.96,0,0,0,4,12.614,3.552,3.552,0,0,1,.892,1.276,2.443,2.443,0,0,1-.931,2.778,2.506,2.506,0,0,1-3.135-.39,19.614,19.614,0,0,1-4.791-7.916,17.332,17.332,0,0,1-.886-4.52,22.111,22.111,0,0,0,0-3.665,20.089,20.089,0,0,1,18.3-18.121A19.623,19.623,0,0,0,339.236,1101.308Z" transform="translate(-317.383 -1101.25)" fill="#fff"/>
      <path id="Path_133" data-name="Path 133" d="M333.979,1113.78c.564,1.912,1.139,3.822,1.689,5.739a71.429,71.429,0,0,1,2.048,8.15,3.9,3.9,0,0,1-5.917,3.92,3.6,3.6,0,0,1-1.791-3.78,83.021,83.021,0,0,1,2.554-10.02c.38-1.33.792-2.65,1.188-3.975Z" transform="translate(-313.739 -1097.616)" fill="#fff"/>
      <path id="Path_134" data-name="Path 134" d="M327.911,1114.651a1.228,1.228,0,0,1-.626,1.228,1.115,1.115,0,0,1-1.374-.1,29.9,29.9,0,0,1-2.2-2.211,1.154,1.154,0,0,1-.012-1.53,1.118,1.118,0,0,1,1.482-.365,8.846,8.846,0,0,1,2.65,2.619A.843.843,0,0,1,327.911,1114.651Z" transform="translate(-315.646 -1098.273)" fill="#fff"/>
      <path id="Path_135" data-name="Path 135" d="M340.487,1116.058a1.293,1.293,0,0,1-1.122-.624,1.184,1.184,0,0,1,.046-1.386,12.657,12.657,0,0,1,2.271-2.264,1.205,1.205,0,0,1,1.608.12,1.065,1.065,0,0,1,.238,1.423,10.707,10.707,0,0,1-2.571,2.588A1.354,1.354,0,0,1,340.487,1116.058Z" transform="translate(-311.057 -1098.271)" fill="#fff"/>
      <path id="Path_136" data-name="Path 136" d="M332.078,1107.11a1.2,1.2,0,0,1,1.473-.943,1.258,1.258,0,0,1,1.065,1.406q.017,1.2,0,2.4a1.271,1.271,0,0,1-1.046,1.425,1.2,1.2,0,0,1-1.5-1.007A20.819,20.819,0,0,0,332.078,1107.11Z" transform="translate(-313.124 -1099.841)" fill="#fff"/>
      <path id="Path_137" data-name="Path 137" d="M317.472,1115.341a9.144,9.144,0,0,1,0,3.665A23.617,23.617,0,0,1,317.472,1115.341Z" transform="translate(-317.398 -1097.162)" fill="#fff"/>
      <path id="Path_138" data-name="Path 138" d="M335.107,1101.321a8.257,8.257,0,0,1-3.482,0A26.132,26.132,0,0,1,335.107,1101.321Z" transform="translate(-313.253 -1101.263)" fill="#fff"/>
      <path id="Path_139" data-name="Path 139" d="M332.078,1106.892a7.932,7.932,0,0,1-.01,3.285Q332.074,1108.535,332.078,1106.892Z" transform="translate(-313.124 -1099.623)" fill="#fff"/>
      <path id="Path_140" data-name="Path 140" d="M348.535,1118.924a7.355,7.355,0,0,1,0-3.3A22.469,22.469,0,0,1,348.535,1118.924Z" transform="translate(-308.381 -1097.078)" fill="#fff"/>
    </g>
  </g>
</svg>
