<svg xmlns="http://www.w3.org/2000/svg"  width="80" height="80" viewBox="0 0 80 80">
  <g id="Group_162" data-name="Group 162" transform="translate(-1316 -2001)">
    <circle id="Ellipse_7" data-name="Ellipse 7" cx="40" cy="40" r="40" transform="translate(1316 2001)" fill="#2d93cf"/>
    <g id="Group_24" data-name="Group 24" transform="translate(1339 2027)">
      <path id="Path_173" data-name="Path 173" d="M1323.464,1105v24.267c-.359,1.41-.757,1.745-2.27,1.761-3.033.034-6.068.011-9.1.011q-9.989,0-19.978,0c-.411,0-.823.007-1.233-.009-1.448-.056-1.84-.373-2.194-1.764V1105c.344-1.347.829-1.747,2.292-1.761,3.115-.032,6.229-.01,9.344-.012q9.846,0,19.692,0c.412,0,.824-.006,1.236.009C1322.639,1103.292,1323.129,1103.684,1323.464,1105Z" transform="translate(-1288.686 -1103.224)" fill="#fff"/>
      <path id="Path_174" data-name="Path 174" d="M1309.05,1122.423h-9.658c-.4,0-.726-.054-.928.507a.816.816,0,0,1-1.516-.03c-.185-.443-.429-.485-.811-.483q-2.086.018-4.172,0c-.75,0-1.2-.354-1.2-.906s.438-.895,1.2-.9q2.164-.008,4.327,0c.313,0,.521-.012.7-.39a.8.8,0,0,1,1.475-.092c.249.509.578.48.985.48q9.58,0,19.16,0a5.444,5.444,0,0,1,.695.01.893.893,0,0,1,.1,1.761,2.854,2.854,0,0,1-.692.035Z" transform="translate(-1288.081 -1098.428)" fill="#3fa9f5"/>
      <path id="Path_175" data-name="Path 175" d="M1300.939,1110.227a1.149,1.149,0,0,1,.724.235c1.289.744,2.58,1.481,3.865,2.231.98.573.988,1.28.015,1.851q-1.958,1.149-3.933,2.267c-.876.5-1.547.121-1.556-.868-.016-1.568,0-3.135-.006-4.7A.882.882,0,0,1,1300.939,1110.227Z" transform="translate(-1285.376 -1101.186)" fill="#3fa9f5"/>
    </g>
  </g>
</svg>
