<svg xmlns="http://www.w3.org/2000/svg"  width="60" height="60" viewBox="0 0 60 60">
  <g id="Group_158" data-name="Group 158" transform="translate(321 -1702)">
    <g id="Design_Tools" data-name="Design Tools" transform="translate(-323 1700)">
      <path id="Path_75" data-name="Path 75" d="M61,2H49a1,1,0,0,0-1,1V48H37V27.22a2.978,2.978,0,0,0,.124-4.336l3.805-9.512a1,1,0,0,0-.148-1l-8-10a1.036,1.036,0,0,0-1.562,0l-8,10a1,1,0,0,0-.148,1l3.805,9.512A2.978,2.978,0,0,0,27,27.22V48H18V12a1,1,0,0,0-.126-.486l-5-9a1.04,1.04,0,0,0-1.748,0l-5,9A1,1,0,0,0,6,12V48H3a1,1,0,0,0-1,1V61a1,1,0,0,0,1,1H55a7.008,7.008,0,0,0,7-7V3A1,1,0,0,0,61,2ZM29,54h6v2H29ZM28,25a1,1,0,0,1,1-1h6a1,1,0,0,1,0,2H29A1,1,0,0,1,28,25Zm4-14a2,2,0,1,1-2,2A2,2,0,0,1,32,11ZM31,5.851V9.142a4,4,0,1,0,2,0V5.851l5.855,7.318L35.31,22.031A2.956,2.956,0,0,0,35,22H29c-.106,0-.207.021-.31.031l-3.545-8.862ZM35,28V52H29V36h3V34H29V32h3V30H29V28ZM27,50v9a2.966,2.966,0,0,0,.184,1H16.974A4.948,4.948,0,0,0,18,57V50ZM11,13V46H8V13Zm5,33H13V13h3Zm0,2v2H8V48ZM12,5.059,15.3,11H8.7ZM4,50H6v7a4.948,4.948,0,0,0,1.026,3H4Zm7,10a3,3,0,0,1-3-3V52h8v5a3,3,0,0,1-3,3Zm19,0a1,1,0,0,1-1-1V58h6v1a1,1,0,0,1-1,1Zm25,0H36.816A2.966,2.966,0,0,0,37,59V50H55a5,5,0,0,1,0,10Zm0-12H50V46h5V44H50V40h5V38H50V34h5V32H50V28h5V26H50V22h5V20H50V16h5V14H50V10h5V8H50V4H60V50.11A6.977,6.977,0,0,0,55,48Z" fill="#989898"/>
      <path id="Path_76" data-name="Path 76" d="M55,52a3,3,0,1,0,3,3A3,3,0,0,0,55,52Zm0,4a1,1,0,1,1,1-1A1,1,0,0,1,55,56Z" fill="#989898"/>
    </g>
  </g>
</svg>
