<svg xmlns="http://www.w3.org/2000/svg"  width="62" height="62" viewBox="0 0 62 62">
  <g id="Group_159" data-name="Group 159" transform="translate(279 -2084)">
    <g id="code" transform="translate(-280 2083)">
      <path id="Path_84" data-name="Path 84" d="M42.929,49H57.071v2H42.929Z" transform="translate(-6.577 92.415) rotate(-81.837)" fill="#fff"/>
      <path id="Path_85" data-name="Path 85" d="M52.293,47.707,54.586,50l-2.293,2.293,1.414,1.414L57.414,50l-3.707-3.707Z" fill="#fff"/>
      <path id="Path_86" data-name="Path 86" d="M46.293,46.293,42.586,50l3.707,3.707,1.414-1.414L45.414,50l2.293-2.293Z" fill="#fff"/>
      <path id="Path_87" data-name="Path 87" d="M60.884,46.581a1.025,1.025,0,0,1-.646-.594c-.051-.132-.1-.263-.161-.393a1.03,1.03,0,0,1,.038-.873,3.067,3.067,0,0,0-.57-3.561L59,40.615V4a3,3,0,0,0-3-3H4A3,3,0,0,0,1,4V46a3,3,0,0,0,3,3H37.042a3.092,3.092,0,0,0-.042.5v1a3.069,3.069,0,0,0,2.116,2.921,1.025,1.025,0,0,1,.646.594c.051.132.1.263.161.393a1.03,1.03,0,0,1-.038.873,3.067,3.067,0,0,0,.57,3.561l.7.705a3.069,3.069,0,0,0,3.561.57,1.025,1.025,0,0,1,.874-.038c.129.056.26.11.39.161a1.024,1.024,0,0,1,.6.648A3.072,3.072,0,0,0,49.5,63h1a3.069,3.069,0,0,0,2.921-2.116,1.025,1.025,0,0,1,.594-.646c.132-.051.263-.1.393-.161a1.023,1.023,0,0,1,.873.038,3.069,3.069,0,0,0,3.561-.57l.705-.7a3.067,3.067,0,0,0,.57-3.561,1.028,1.028,0,0,1-.038-.874c.056-.129.11-.26.161-.39a1.024,1.024,0,0,1,.648-.6A3.072,3.072,0,0,0,63,50.5v-1a3.069,3.069,0,0,0-2.116-2.921ZM3,4A1,1,0,0,1,4,3H56a1,1,0,0,1,1,1v9H3ZM4,47a1,1,0,0,1-1-1V15H57V39.579a3.066,3.066,0,0,0-1.721.306,1.028,1.028,0,0,1-.874.038c-.128-.056-.259-.109-.39-.161a1.026,1.026,0,0,1-.6-.648A3.07,3.07,0,0,0,50.5,37h-1a3.069,3.069,0,0,0-2.921,2.116,1.023,1.023,0,0,1-.6.646c-.131.051-.261.1-.391.161a1.026,1.026,0,0,1-.873-.038,3.067,3.067,0,0,0-3.561.57l-.7.7a3.067,3.067,0,0,0-.57,3.561,1.028,1.028,0,0,1,.038.874c-.056.129-.11.26-.161.39a1.024,1.024,0,0,1-.648.6,3.079,3.079,0,0,0-.822.419H4Zm57,3.5a1.073,1.073,0,0,1-.74,1.021,3.016,3.016,0,0,0-1.886,1.772c-.042.107-.086.214-.131.318a3.019,3.019,0,0,0,.087,2.572,1.072,1.072,0,0,1-.2,1.244l-.705.705a1.071,1.071,0,0,1-1.244.2,3.021,3.021,0,0,0-2.571-.087q-.157.067-.321.132a3.019,3.019,0,0,0-1.771,1.887A1.073,1.073,0,0,1,50.5,61h-1a1.073,1.073,0,0,1-1.021-.74,3.016,3.016,0,0,0-1.772-1.886c-.107-.042-.214-.086-.318-.131A2.96,2.96,0,0,0,45.2,58a3.081,3.081,0,0,0-1.386.333,1.071,1.071,0,0,1-1.244-.2l-.705-.705a1.072,1.072,0,0,1-.2-1.244,3.017,3.017,0,0,0,.087-2.571q-.067-.157-.132-.321a3.019,3.019,0,0,0-1.887-1.771A1.071,1.071,0,0,1,39,50.5v-1a1.074,1.074,0,0,1,.739-1.021,3.016,3.016,0,0,0,1.887-1.772c.042-.107.086-.214.131-.318a3.019,3.019,0,0,0-.087-2.572,1.073,1.073,0,0,1,.2-1.245l.7-.7a1.07,1.07,0,0,1,1.245-.2,3.017,3.017,0,0,0,2.571.087c.106-.046.213-.09.32-.131a3.026,3.026,0,0,0,1.772-1.887A1.072,1.072,0,0,1,49.5,39h1a1.073,1.073,0,0,1,1.021.74,3.02,3.02,0,0,0,1.771,1.886c.107.042.214.086.319.131a3.023,3.023,0,0,0,2.572-.087,1.072,1.072,0,0,1,1.245.2l.7.7a1.073,1.073,0,0,1,.2,1.245,3.017,3.017,0,0,0-.087,2.571q.067.157.132.321a3.019,3.019,0,0,0,1.887,1.771A1.073,1.073,0,0,1,61,49.5Z" fill="#fff"/>
      <path id="Path_88" data-name="Path 88" d="M5,11h6V5H5ZM7,7H9V9H7Z" fill="#fff"/>
      <path id="Path_89" data-name="Path 89" d="M13,11h6V5H13Zm2-4h2V9H15Z" fill="#fff"/>
      <path id="Path_90" data-name="Path 90" d="M21,11h6V5H21Zm2-4h2V9H23Z" fill="#fff"/>
      <path id="Path_91" data-name="Path 91" d="M36,17H8a3,3,0,0,0-3,3V36a3,3,0,0,0,3,3H22.7l5.361,3.574A2.535,2.535,0,0,0,32,40.465V39h4a3,3,0,0,0,3-3V20A3,3,0,0,0,36,17Zm1,19a1,1,0,0,1-1,1H30v3.465a.553.553,0,0,1-.832.445L23.3,37H8a1,1,0,0,1-1-1V20a1,1,0,0,1,1-1H36a1,1,0,0,1,1,1Z" fill="#fff"/>
      <path id="Path_92" data-name="Path 92" d="M7,43H9v2H7Z" fill="#fff"/>
      <path id="Path_93" data-name="Path 93" d="M11,43h2v2H11Z" fill="#fff"/>
      <path id="Path_94" data-name="Path 94" d="M15,43h2v2H15Z" fill="#fff"/>
      <path id="Path_95" data-name="Path 95" d="M19,43h2v2H19Z" fill="#fff"/>
      <path id="Path_96" data-name="Path 96" d="M11,25a2,2,0,0,1-2,2v2a2,2,0,0,1,2,2,4,4,0,0,0,4,4V33a2,2,0,0,1-2-2,3.975,3.975,0,0,0-1.382-3A3.975,3.975,0,0,0,13,25a2,2,0,0,1,2-2V21A4,4,0,0,0,11,25Z" fill="#fff"/>
      <path id="Path_97" data-name="Path 97" d="M33,25a4,4,0,0,0-4-4v2a2,2,0,0,1,2,2,3.975,3.975,0,0,0,1.382,3A3.975,3.975,0,0,0,31,31a2,2,0,0,1-2,2v2a4,4,0,0,0,4-4,2,2,0,0,1,2-2V27A2,2,0,0,1,33,25Z" fill="#fff"/>
      <path id="Path_98" data-name="Path 98" d="M17,21H27v2H17Z" fill="#fff"/>
      <path id="Path_99" data-name="Path 99" d="M17,25H27v2H17Z" fill="#fff"/>
      <path id="Path_100" data-name="Path 100" d="M17,29h2v2H17Z" fill="#fff"/>
      <path id="Path_101" data-name="Path 101" d="M21,29h6v2H21Z" fill="#fff"/>
      <path id="Path_102" data-name="Path 102" d="M17,33H27v2H17Z" fill="#fff"/>
      <path id="Path_103" data-name="Path 103" d="M41,21h2v2H41Z" fill="#fff"/>
      <path id="Path_104" data-name="Path 104" d="M45,21H55v2H45Z" fill="#fff"/>
      <path id="Path_105" data-name="Path 105" d="M41,25H55v2H41Z" fill="#fff"/>
      <path id="Path_106" data-name="Path 106" d="M41,29h4v2H41Z" fill="#fff"/>
      <path id="Path_107" data-name="Path 107" d="M47,29h2v2H47Z" fill="#fff"/>
      <path id="Path_108" data-name="Path 108" d="M51,29h4v2H51Z" fill="#fff"/>
      <path id="Path_109" data-name="Path 109" d="M41,33H55v2H41Z" fill="#fff"/>
      <path id="Path_110" data-name="Path 110" d="M41,17H55v2H41Z" fill="#fff"/>
    </g>
  </g>
</svg>
