<svg xmlns="http://www.w3.org/2000/svg"  width="60" height="60" viewBox="0 0 60 60">
  <g id="Photography" transform="translate(-2 -2)">
    <path id="Path_77" data-name="Path 77" d="M36,41a3,3,0,1,0,3,3A3,3,0,0,0,36,41Zm0,4a1,1,0,1,1,1-1A1,1,0,0,1,36,45Z" fill="#fff"/>
    <path id="Path_78" data-name="Path 78" d="M9,42a1,1,0,0,0-1,1V57a1,1,0,0,0,2,0V43A1,1,0,0,0,9,42Z" fill="#fff"/>
    <path id="Path_79" data-name="Path 79" d="M61,2H9A1,1,0,0,0,8,3V35H6a1,1,0,0,0-1,1v2a3,3,0,0,0-3,3V59a3,3,0,0,0,3,3H39a3,3,0,0,0,3-3V44H61a1,1,0,0,0,1-1V3A1,1,0,0,0,61,2ZM7,37h4v1H7ZM40,59a1,1,0,0,1-1,1H5a1,1,0,0,1-1-1V41a1,1,0,0,1,1-1H15a1,1,0,0,0,.832-.445L17.535,37h9.93l1.7,2.555A1,1,0,0,0,30,40h9a1,1,0,0,1,1,1ZM35,38H33V37h2Zm25,4H42V41a3,3,0,0,0-3-3H37V37a2,2,0,0,0-2-2H33a2,2,0,0,0-2,2v1h-.465l-1.7-2.555A1,1,0,0,0,28,35H17a1,1,0,0,0-.832.445L14.465,38H13V36a1,1,0,0,0-1-1H10V4H60Z" fill="#fff"/>
    <path id="Path_80" data-name="Path 80" d="M22,40a9,9,0,1,0,9,9,9,9,0,0,0-9-9Zm0,16a7,7,0,1,1,7-7,7,7,0,0,1-7,7Z" fill="#fff"/>
    <path id="Path_81" data-name="Path 81" d="M22,44a5,5,0,1,0,5,5A5,5,0,0,0,22,44Zm0,8a3,3,0,1,1,3-3A3,3,0,0,1,22,52Z" fill="#fff"/>
    <path id="Path_82" data-name="Path 82" d="M13,34H57a1,1,0,0,0,1-1V7a1,1,0,0,0-1-1H13a1,1,0,0,0-1,1V33A1,1,0,0,0,13,34Zm24.437-2-5.383-5.832L41,15.552,54.851,32Zm-2.721,0H15.284L25,21.474ZM56,8V30.26L41.765,13.36a1,1,0,0,0-1.53,0L30.687,24.687l-4.953-5.365a1.03,1.03,0,0,0-1.468,0L14,30.443V8Z" fill="#fff"/>
    <path id="Path_83" data-name="Path 83" d="M31,18a4,4,0,1,0-4-4A4,4,0,0,0,31,18Zm0-6a2,2,0,1,1-2,2A2,2,0,0,1,31,12Z" fill="#fff"/>
  </g>
</svg>
