<svg xmlns="http://www.w3.org/2000/svg"  width="60" height="53.623" viewBox="0 0 60 53.623">
  <path id="software" d="M25.33,39.538a.879.879,0,0,0,.879-.879v-1.02a.879.879,0,0,0-1.758,0v1.02A.879.879,0,0,0,25.33,39.538Zm-12.284,0a.879.879,0,0,0,.879-.879v-1.02a.879.879,0,0,0-1.758,0v1.02A.879.879,0,0,0,13.045,39.538Zm-1.378,6.347H26.708a.879.879,0,0,0,0-1.758H11.667a.879.879,0,0,0,0,1.758Zm7.52-5.565a3.027,3.027,0,0,0,2.282-1.039.879.879,0,0,0-1.325-1.155,1.267,1.267,0,0,1-1.913,0,.879.879,0,0,0-1.325,1.155,3.026,3.026,0,0,0,2.282,1.039Zm-7.52,10.341H26.708a.879.879,0,0,0,0-1.758H11.667a.879.879,0,0,0,0,1.758ZM52.175,27.209H50.918a.879.879,0,0,0,0,1.758h1.257a6.075,6.075,0,0,1,6.068,6.068V58.71H55.249v-22.8a3.955,3.955,0,0,0-3.95-3.95H8.7a3.955,3.955,0,0,0-3.95,3.95v22.8H1.758V35.035a6.075,6.075,0,0,1,6.068-6.068H46.776a.879.879,0,1,0,0-1.758H7.826A7.834,7.834,0,0,0,0,35.035v26.5a7.81,7.81,0,0,0,6.457,7.706.879.879,0,1,0,.306-1.731,6.055,6.055,0,0,1-5-5.975V60.468H58.242v1.065A6.075,6.075,0,0,1,52.175,67.6H10.736a.879.879,0,1,0,0,1.758H21.249l-.469,5.09H20.4a3.78,3.78,0,0,0-3.606,2.7l-.2.69a2.336,2.336,0,0,0,2.241,3H41.17a2.336,2.336,0,0,0,2.241-3l-.2-.69a3.78,3.78,0,0,0-3.606-2.7H39.22l-.469-5.09H52.174A7.834,7.834,0,0,0,60,61.533v-26.5a7.834,7.834,0,0,0-7.825-7.826ZM31.419,58.71H6.509v-22.8A2.195,2.195,0,0,1,8.7,33.718H31.419Zm22.072,0H33.177V33.718H51.3a2.195,2.195,0,0,1,2.192,2.192v22.8ZM23.014,69.359H36.986l.469,5.09H22.546ZM39.6,76.207a2.012,2.012,0,0,1,1.919,1.436l.2.69a.578.578,0,0,1-.555.741H18.83a.568.568,0,0,1-.463-.232.573.573,0,0,1-.092-.51l.2-.69A2.012,2.012,0,0,1,20.4,76.207H39.6ZM31.686,64.035A1.686,1.686,0,1,0,30,65.721,1.686,1.686,0,0,0,31.686,64.035Zm19.2-23.528-5.98-3.453a3.157,3.157,0,0,0-3.148,0l-5.98,3.453a1.471,1.471,0,0,0-.738,1.186.877.877,0,0,0-.007.1v8.218a1.475,1.475,0,0,0,.745,1.29l5.98,3.453a3.144,3.144,0,0,0,1.5.418c.025,0,.05,0,.075,0s.05,0,.075,0a3.144,3.144,0,0,0,1.5-.418l5.98-3.453a1.475,1.475,0,0,0,.745-1.29V41.8a.877.877,0,0,0-.007-.1A1.47,1.47,0,0,0,50.889,40.506ZM42.455,53.129l-5.663-3.27V43.672L41.76,46.54a3.133,3.133,0,0,0,.7.294Zm.184-8.111L37.06,41.8l5.579-3.221a1.394,1.394,0,0,1,1.391,0L49.608,41.8l-5.579,3.221A1.394,1.394,0,0,1,42.639,45.018Zm7.237,4.842-5.663,3.27V46.834a3.127,3.127,0,0,0,.7-.294l4.968-2.868v6.188Zm-38.209,5.58h8.339a2.709,2.709,0,0,0,5.126,0h1.576a.879.879,0,1,0,0-1.758H25.132a2.709,2.709,0,0,0-5.126,0H11.667a.879.879,0,1,0,0,1.758Zm10.9-1.831a.952.952,0,1,1-.952.952A.953.953,0,0,1,22.569,53.608Z" transform="translate(0 -27.209)" fill="#fff"/>
</svg>
