<svg xmlns="http://www.w3.org/2000/svg"  width="305" height="262.159" viewBox="0 0 305 262.159">
  <g id="certificate" transform="translate(0 -34.905)">
    <g id="Group_170" data-name="Group 170" transform="translate(0 34.905)">
      <g id="Group_169" data-name="Group 169">
        <path id="Path_450" data-name="Path 450" d="M0,265.49V41.042A6.137,6.137,0,0,1,6.137,34.9H298.863A6.137,6.137,0,0,1,305,41.042V265.489a6.137,6.137,0,0,1-6.137,6.137H6.137A6.136,6.136,0,0,1,0,265.49Z" transform="translate(0 -34.905)" fill="#fed23a"/>
        <path id="Path_451" data-name="Path 451" d="M30.679,264.668H298.025V65.511H30.679Z" transform="translate(-11.852 -46.729)" fill="#fff9e9"/>
        <path id="Path_452" data-name="Path 452" d="M426.321,65.511h24.547V264.668H426.321Z" transform="translate(-164.695 -46.729)" fill="#fff4d6"/>
        <g id="Group_168" data-name="Group 168" transform="translate(50.483 52.707)">
          <path id="Path_453" data-name="Path 453" d="M86.866,130H245.531a4.6,4.6,0,0,0,0-9.205H86.866a4.6,4.6,0,0,0,0,9.205Z" transform="translate(-82.263 -120.791)" fill="#fae19e"/>
          <path id="Path_454" data-name="Path 454" d="M281.694,166.408H86.866a4.6,4.6,0,1,0,0,9.205H281.694a4.6,4.6,0,1,0,0-9.205Z" transform="translate(-82.263 -138.414)" fill="#fae19e"/>
          <path id="Path_455" data-name="Path 455" d="M197.558,212.026H86.866a4.6,4.6,0,1,0,0,9.205H197.558a4.6,4.6,0,1,0,0-9.205Z" transform="translate(-82.263 -156.037)" fill="#fae19e"/>
        </g>
        <path id="Path_456" data-name="Path 456" d="M166.362,298.905q-11.718.032-23.437.053-3.764.006-7.529.009c-1.92,0-3.993.341-5.615-.9-1.816-1.387-2.441-3.346-2.856-5.5-.9-4.673-7.641-4.078-8.876,0-.547,1.806-3.308,6.976-5.721,6.553-1.278-.224-1.837-2.2-2.309-3.217a39.254,39.254,0,0,1-2.164-6.206c-2.423-8.919-2.906-18.232-4.422-27.319-.879-5.27-8.911-3.78-9.041,1.224A140.841,140.841,0,0,1,85.7,310.2c-2.106,5.543,6.79,7.94,8.876,2.447A130.142,130.142,0,0,0,99.849,295a46.674,46.674,0,0,0,2.638,6.4c2.688,5.312,8.17,8.455,14.036,6.092a15.709,15.709,0,0,0,5.629-4.111c.23.264.461.526.7.77,4.464,4.506,10.336,4.024,16.175,4.017q13.667-.017,27.335-.058c5.922-.017,5.933-9.222,0-9.205Z" transform="translate(-32.984 -121.504)" fill="#54b1ff"/>
      </g>
    </g>
    <path id="Path_457" data-name="Path 457" d="M366.776,412.26l-13.194-6.137-13.194,6.137V333.1h26.388Z" transform="translate(-131.498 -115.196)" fill="#ffabe7"/>
    <g id="Group_171" data-name="Group 171" transform="translate(184.116 157.127)">
      <path id="Path_458" data-name="Path 458" d="M337.987,310.142c-4.656,0-7.7-7.925-11.753-9.607-4.2-1.743-11.932,1.635-15.095-1.534s.209-10.917-1.531-15.122c-1.679-4.056-9.589-7.11-9.589-11.775s7.91-7.718,9.589-11.775c1.74-4.2-1.632-11.953,1.531-15.122s10.9.21,15.094-1.534c4.048-1.682,7.1-9.607,11.753-9.607s7.7,7.925,11.753,9.607c4.2,1.743,11.932-1.635,15.095,1.534s-.209,10.917,1.531,15.122c1.679,4.056,9.589,7.11,9.589,11.775s-7.91,7.718-9.589,11.775c-1.74,4.2,1.632,11.953-1.531,15.122s-10.9-.21-15.094,1.534c-4.048,1.682-7.1,9.607-11.753,9.607Z" transform="translate(-300.018 -234.067)" fill="#ff6ed4"/>
    </g>
    <path id="Path_459" data-name="Path 459" d="M382.54,260.33c-1.74-4.2,1.632-11.953-1.531-15.122s-10.9.209-15.095-1.534c-4.048-1.682-7.1-9.607-11.753-9.607s-7.7,7.925-11.753,9.607c-.168.069-.342.128-.52.182,4.288,1.3,11.537-1.691,14.574,1.352,3.163,3.168-.209,10.917,1.531,15.122,1.679,4.056,9.589,7.11,9.589,11.775s-7.91,7.719-9.589,11.775c-1.74,4.2,1.632,11.953-1.531,15.122-3.036,3.042-10.286.052-14.574,1.352.178.054.353.113.52.182,4.048,1.682,7.1,9.607,11.753,9.607s7.7-7.925,11.753-9.607c4.2-1.743,11.932,1.635,15.094-1.534s-.209-10.917,1.531-15.122c1.679-4.056,9.589-7.11,9.589-11.775S384.219,264.386,382.54,260.33Z" transform="translate(-132.077 -76.94)" fill="#ff5ccf"/>
    <circle id="Ellipse_25" data-name="Ellipse 25" cx="13.375" cy="13.375" r="13.375" transform="translate(208.71 181.79)" fill="#ffabe7"/>
  </g>
</svg>
