<svg xmlns="http://www.w3.org/2000/svg"  xmlns:xlink="http://www.w3.org/1999/xlink" width="342.045" height="300.261" viewBox="0 0 342.045 300.261">
  <defs>
    <linearGradient id="linear-gradient" x1="0.752" y1="-0.268" x2="0.344" y2="1.315" gradientUnits="objectBoundingBox">
      <stop offset="0.057" stop-color="#fff" stop-opacity="0"/>
      <stop offset="0.254" stop-color="#eef" stop-opacity="0.302"/>
      <stop offset="0.509" stop-color="#dedeff" stop-opacity="0.69"/>
      <stop offset="0.712" stop-color="#d9d9ff"/>
    </linearGradient>
  </defs>
  <g id="certificate_1_" data-name="certificate (1)" transform="translate(0 -31.273)">
    <g id="Group_182" data-name="Group 182" transform="translate(0 31.273)">
      <path id="Path_463" data-name="Path 463" d="M12.336,286.441c-33.092,35.414,7.745,53.683,36.381,34.062,50.05-41.665,88.335-115.359,114.184-117.395,39.777,4,67.339,71.052,112.464,61.093,8.6-2.5,15.364-8.657,21.868-16.25,80.188-91.946,41.643-94.742-28.569-156.68C204.5,39.537,192.759,11.82,145.875,47.046c-44.3,33.283,6.043,63.053-133.54,239.395Z" transform="translate(0 -31.273)" fill="url(#linear-gradient)"/>
    </g>
    <g id="Group_208" data-name="Group 208" transform="translate(41.66 35.161)">
      <g id="Group_206" data-name="Group 206">
        <g id="Group_192" data-name="Group 192">
          <g id="Group_191" data-name="Group 191">
            <path id="Path_464" data-name="Path 464" d="M308.709,68.232a15.129,15.129,0,0,0-4.331-.629l-189.335-.007A15.252,15.252,0,0,0,99.8,82.843V308.531H74.982a7.622,7.622,0,0,0-7.624,7.616v12.2A15.245,15.245,0,0,0,82.6,343.591H271.2a15.244,15.244,0,0,0,15.24-15.24V106.481H312a7.616,7.616,0,0,0,7.617-7.617V82.842a15.247,15.247,0,0,0-10.909-14.61Z" transform="translate(-64.019 -47.218)" fill="#00c" opacity="0.1"/>
            <g id="Group_190" data-name="Group 190">
              <g id="Group_189" data-name="Group 189">
                <g id="Group_186" data-name="Group 186" transform="translate(35.776 3.333)">
                  <g id="Group_185" data-name="Group 185">
                    <g id="Group_184" data-name="Group 184">
                      <g id="Group_183" data-name="Group 183">
                        <path id="Path_465" data-name="Path 465" d="M417.189,57.333V73.356a7.616,7.616,0,0,1-7.616,7.617H376.547V57.333A15.246,15.246,0,0,0,361.3,42.093h40.65a15.244,15.244,0,0,1,15.24,15.24Z" transform="translate(-197.367 -42.086)" fill="#ffd6bb"/>
                        <path id="Path_466" data-name="Path 466" d="M317.8,42.083A15.252,15.252,0,0,0,302.557,57.33V302.839a15.243,15.243,0,0,1-15.24,15.24h-171.4V57.33a15.252,15.252,0,0,1,15.248-15.248H317.8Z" transform="translate(-115.913 -42.082)" fill="#fff3ee"/>
                      </g>
                    </g>
                  </g>
                </g>
                <g id="Group_188" data-name="Group 188">
                  <path id="Path_467" data-name="Path 467" d="M269.242,437.794H82.6a15.245,15.245,0,0,1-15.24-15.247v-12.2a7.622,7.622,0,0,1,7.624-7.616h171.4A7.622,7.622,0,0,1,254,410.35v12.2a15.245,15.245,0,0,0,15.24,15.247Z" transform="translate(-64.019 -158.465)" fill="#ffd6bb"/>
                  <g id="Group_187" data-name="Group 187">
                    <path id="Path_468" data-name="Path 468" d="M366.552,37.093H258.005a3.34,3.34,0,0,0,0,6.681h91.589a18.5,18.5,0,0,0-4.323,11.9V211.733a3.34,3.34,0,1,0,6.681,0V82.656h22.222a10.974,10.974,0,0,0,10.961-10.961V55.676a18.6,18.6,0,0,0-18.583-18.583Zm11.9,34.6a4.286,4.286,0,0,1-4.281,4.281H351.952v-20.3a11.917,11.917,0,0,1,11.9-11.9h2.7a11.916,11.916,0,0,1,11.9,11.9V71.695Z" transform="translate(-126.194 -37.093)" fill="#00c"/>
                    <path id="Path_469" data-name="Path 469" d="M284.777,230.989a3.34,3.34,0,0,0-3.34,3.34v66.849a11.915,11.915,0,0,1-11.9,11.9H267.56a11.915,11.915,0,0,1-11.877-11.9V288.985a10.974,10.974,0,0,0-10.962-10.961H101.475V55.676a11.917,11.917,0,0,1,11.9-11.9h58.2a3.34,3.34,0,1,0,0-6.681h-58.2A18.6,18.6,0,0,0,94.794,55.676V278.024H73.321A10.974,10.974,0,0,0,62.36,288.985v12.194a18.6,18.6,0,0,0,18.583,18.583H269.535a18.6,18.6,0,0,0,18.583-18.583V234.329a3.34,3.34,0,0,0-3.34-3.34ZM69.04,301.179V288.985a4.286,4.286,0,0,1,4.281-4.281h171.4A4.286,4.286,0,0,1,249,288.985v12.194a18.5,18.5,0,0,0,4.322,11.9H80.941a11.916,11.916,0,0,1-11.9-11.9Z" transform="translate(-62.36 -37.093)" fill="#00c"/>
                  </g>
                </g>
              </g>
            </g>
          </g>
        </g>
        <path id="Path_470" data-name="Path 470" d="M430.968,432.083a3.329,3.329,0,0,1-2.362-.978l-3.317-3.316-3.317,3.316a3.34,3.34,0,0,1-4.723-4.724l5.678-5.679a3.34,3.34,0,0,1,4.723,0l5.679,5.679a3.34,3.34,0,0,1-2.362,5.7Z" transform="translate(-179.839 -164.105)" fill="#4d4dff"/>
        <path id="Path_471" data-name="Path 471" d="M77.421,292.289a3.331,3.331,0,0,1-1.963-.638l-2.166-1.573-2.165,1.573a3.34,3.34,0,0,1-5.14-3.734l.826-2.546L64.649,283.8a3.34,3.34,0,0,1,1.963-6.043h2.677l.827-2.546a3.34,3.34,0,0,1,6.353,0l.828,2.546h2.676a3.341,3.341,0,0,1,1.964,6.043l-2.165,1.573.826,2.546a3.34,3.34,0,0,1-3.178,4.372Z" transform="translate(-62.663 -115.368)" fill="#4d4dff"/>
        <path id="Path_472" data-name="Path 472" d="M428.921,148.789a3.335,3.335,0,0,1-1.963-.638l-2.164-1.573-2.166,1.573a3.34,3.34,0,0,1-5.139-3.734l.826-2.546-2.165-1.573a3.341,3.341,0,0,1,1.964-6.043h2.676l.828-2.546a3.34,3.34,0,0,1,6.353,0l.827,2.545h2.677a3.341,3.341,0,0,1,1.964,6.043l-2.166,1.573.826,2.546a3.341,3.341,0,0,1-3.178,4.373Z" transform="translate(-179.341 -67.734)" fill="#ff4d4d"/>
        <path id="Path_473" data-name="Path 473" d="M84.366,246.56A3.329,3.329,0,0,1,82,245.582l-3.317-3.316-3.317,3.316a3.34,3.34,0,0,1-4.723-4.724l5.678-5.678a3.34,3.34,0,0,1,4.723,0l5.678,5.678a3.34,3.34,0,0,1-2.362,5.7Z" transform="translate(-64.786 -102.522)" fill="#ff9d33"/>
        <path id="Path_474" data-name="Path 474" d="M449.4,390.645a3.329,3.329,0,0,1-2.362-.978l-3.317-3.316-3.317,3.316a3.34,3.34,0,0,1-4.723-4.724l5.679-5.679a3.34,3.34,0,0,1,4.723,0l5.678,5.679a3.34,3.34,0,0,1-2.362,5.7Z" transform="translate(-185.956 -150.35)" fill="#ff4d4d"/>
        <g id="Group_197" data-name="Group 197" transform="translate(59.556 27.394)">
          <g id="Group_193" data-name="Group 193">
            <path id="Path_475" data-name="Path 475" d="M287.781,84.78H154.848a3.34,3.34,0,1,1,0-6.681H287.782a3.34,3.34,0,1,1,0,6.681Z" transform="translate(-151.508 -78.099)" fill="#ffab66"/>
          </g>
          <g id="Group_194" data-name="Group 194" transform="translate(0 13.882)">
            <path id="Path_476" data-name="Path 476" d="M287.781,105.559H154.848a3.34,3.34,0,1,1,0-6.681H287.782a3.34,3.34,0,1,1,0,6.681Z" transform="translate(-151.508 -98.878)" fill="#ffab66"/>
          </g>
          <g id="Group_195" data-name="Group 195" transform="translate(0 27.762)">
            <path id="Path_477" data-name="Path 477" d="M287.781,126.337H154.848a3.34,3.34,0,1,1,0-6.681H287.782a3.34,3.34,0,1,1,0,6.681Z" transform="translate(-151.508 -119.656)" fill="#ffab66"/>
          </g>
          <g id="Group_196" data-name="Group 196" transform="translate(0 41.644)">
            <path id="Path_478" data-name="Path 478" d="M287.781,147.116H154.848a3.34,3.34,0,1,1,0-6.681H287.782a3.34,3.34,0,1,1,0,6.681Z" transform="translate(-151.508 -140.435)" fill="#ffab66"/>
          </g>
        </g>
        <path id="Path_479" data-name="Path 479" d="M212.251,278.2a30.5,30.5,0,1,0-49.765,23.646v37.324a3.345,3.345,0,0,0,5.3,2.706l13.956-10.114,13.962,10.114a3.345,3.345,0,0,0,5.3-2.706V301.848A30.439,30.439,0,0,0,212.251,278.2Z" transform="translate(-91.865 -107.003)" fill="#ffe8dc"/>
        <g id="Group_201" data-name="Group 201" transform="translate(134.547 95.623)">
          <g id="Group_198" data-name="Group 198" transform="translate(30.678)">
            <path id="Path_480" data-name="Path 480" d="M340.285,186.91H313.021a3.34,3.34,0,1,1,0-6.681h27.264a3.34,3.34,0,0,1,0,6.681Z" transform="translate(-309.681 -180.229)" fill="#ff4d4d"/>
          </g>
          <g id="Group_199" data-name="Group 199" transform="translate(30.678 12.16)">
            <path id="Path_481" data-name="Path 481" d="M340.285,205.112H313.021a3.34,3.34,0,1,1,0-6.681h27.264a3.34,3.34,0,0,1,0,6.681Z" transform="translate(-309.681 -198.431)" fill="#ff4d4d"/>
          </g>
          <g id="Group_200" data-name="Group 200" transform="translate(0 31.363)">
            <path id="Path_482" data-name="Path 482" d="M325.042,233.856H267.1a3.34,3.34,0,0,1,0-6.681h57.943a3.34,3.34,0,1,1,0,6.681Z" transform="translate(-263.76 -227.175)" fill="#ffab66"/>
          </g>
        </g>
        <g id="Group_205" data-name="Group 205" transform="translate(59.382 131.61)">
          <g id="Group_204" data-name="Group 204">
            <path id="Path_483" data-name="Path 483" d="M206.6,304.112v44.7a3.345,3.345,0,0,1-5.3,2.706L187.33,341.4l-13.956,10.114a3.345,3.345,0,0,1-5.3-2.706v-44.7Z" transform="translate(-156.831 -257.339)" fill="#ff4d4d"/>
            <path id="Path_484" data-name="Path 484" d="M206.6,304.112V320.64a36.9,36.9,0,0,1-38.527.007V304.112Z" transform="translate(-156.831 -257.339)" fill="#ff2c2c"/>
            <g id="Group_202" data-name="Group 202">
              <circle id="Ellipse_31" data-name="Ellipse 31" cx="30.502" cy="30.502" r="30.502" fill="#ff8b00"/>
            </g>
            <g id="Group_203" data-name="Group 203" transform="translate(6.359 6.359)">
              <circle id="Ellipse_32" data-name="Ellipse 32" cx="24.144" cy="24.144" r="24.144" fill="#ff9d33"/>
            </g>
          </g>
          <path id="Path_485" data-name="Path 485" d="M189.845,254.2l3.338,10.275h10.8a1.656,1.656,0,0,1,.973,3l-8.74,6.351,3.338,10.275a1.656,1.656,0,0,1-2.549,1.852l-8.74-6.351-8.74,6.351a1.656,1.656,0,0,1-2.549-1.852l3.338-10.275-8.74-6.351a1.656,1.656,0,0,1,.973-3h10.8l3.338-10.275a1.656,1.656,0,0,1,3.151,0Z" transform="translate(-157.768 -240.391)" fill="#fff3ee"/>
        </g>
      </g>
      <g id="Group_207" data-name="Group 207" transform="translate(159.291 210.384)">
        <path id="Path_486" data-name="Path 486" d="M321.607,364.717v-9.363a3.34,3.34,0,0,1,6.681,0v9.363a3.34,3.34,0,1,1-6.681,0Z" transform="translate(-307.707 -352.013)" fill="#8383ff"/>
        <path id="Path_487" data-name="Path 487" d="M300.8,364.717v-9.363a3.34,3.34,0,0,1,6.681,0v9.363a3.34,3.34,0,1,1-6.681,0Z" transform="translate(-300.8 -352.013)" fill="#8383ff"/>
        <path id="Path_488" data-name="Path 488" d="M342.414,364.717v-9.363a3.34,3.34,0,0,1,6.681,0v9.363a3.34,3.34,0,1,1-6.681,0Z" transform="translate(-314.613 -352.013)" fill="#8383ff"/>
      </g>
    </g>
  </g>
</svg>
