<svg xmlns="http://www.w3.org/2000/svg"  width="25" height="25" viewBox="0 0 25 25">
  <g id="edit" transform="translate(-0.004 0)">
    <g id="Group_175" data-name="Group 175" transform="translate(0.004 0)">
      <g id="Group_174" data-name="Group 174" transform="translate(0 0)">
        <path id="Path_460" data-name="Path 460" d="M24.712,5.445,19.559.292a1,1,0,0,0-1.41,0L1.926,16.482a1,1,0,0,0-.266.474L.031,23.772a1,1,0,0,0,1.2,1.2l6.815-1.629a.994.994,0,0,0,.474-.266L24.712,6.855A1,1,0,0,0,24.712,5.445ZM7.31,21.47,2.349,22.656l1.186-4.961L18.853,2.407,22.6,6.151Z" transform="translate(-0.004 0)" fill="#b5b5b5"/>
      </g>
    </g>
    <g id="Group_177" data-name="Group 177" transform="translate(14.325 4.083)">
      <g id="Group_176" data-name="Group 176" transform="translate(0 0)">
        <rect id="Rectangle_120" data-name="Rectangle 120" width="1.994" height="7.334" transform="translate(0 1.41) rotate(-45)" fill="#b5b5b5"/>
      </g>
    </g>
    <g id="Group_179" data-name="Group 179" transform="translate(4.451 6.675)">
      <g id="Group_178" data-name="Group 178">
        <rect id="Rectangle_121" data-name="Rectangle 121" width="17.63" height="1.994" transform="translate(0 12.466) rotate(-45)" fill="#b5b5b5"/>
      </g>
    </g>
    <g id="Group_181" data-name="Group 181" transform="translate(1.891 16.549)">
      <g id="Group_180" data-name="Group 180" transform="translate(0 0)">
        <rect id="Rectangle_122" data-name="Rectangle 122" width="1.994" height="7.287" transform="translate(0 1.41) rotate(-45)" fill="#b5b5b5"/>
      </g>
    </g>
  </g>
</svg>
