<svg xmlns="http://www.w3.org/2000/svg"  width="20" height="31.358" viewBox="0 0 20 31.358">
  <g id="rupee-indian_1_" data-name="rupee-indian (1)" transform="translate(-72.806)">
    <path id="Path_424" data-name="Path 424" d="M92.605,7.1a.693.693,0,0,0-.512-.2H88.285A7.709,7.709,0,0,0,86.86,3.7h5.189a.684.684,0,0,0,.712-.712V.713A.685.685,0,0,0,92.048,0H73.519a.686.686,0,0,0-.713.713V3.675a.723.723,0,0,0,.713.713h3.229q4.7,0,5.969,2.517h-9.2a.686.686,0,0,0-.713.713V9.888a.686.686,0,0,0,.713.712h9.51a4.352,4.352,0,0,1-2.283,2.784,10.051,10.051,0,0,1-4.733.958H73.519a.723.723,0,0,0-.713.713v2.829a.666.666,0,0,0,.2.49Q77.282,22.917,84.1,31.091a.657.657,0,0,0,.557.267H89a.646.646,0,0,0,.646-.4.608.608,0,0,0-.089-.757q-6.5-7.973-10.222-11.938a11.3,11.3,0,0,0,6.147-2.45A8.326,8.326,0,0,0,88.352,10.6h3.742a.686.686,0,0,0,.713-.712V7.617A.693.693,0,0,0,92.605,7.1Z" transform="translate(0 0)" fill="#989898"/>
  </g>
</svg>
