<svg xmlns="http://www.w3.org/2000/svg"  xmlns:xlink="http://www.w3.org/1999/xlink" width="229.33" height="145.601" viewBox="0 0 229.33 145.601">
  <defs>
    <clipPath id="clip-path">
      <rect id="Rectangle_710" data-name="Rectangle 710" width="229.33" height="144.319" transform="translate(0 0)" fill="none"/>
    </clipPath>
  </defs>
  <g id="Group_746" data-name="Group 746" transform="translate(-1370.908 -187)">
    <g id="Group_365" data-name="Group 365" transform="translate(1370.908 186.995)">
      <g id="Group_362" data-name="Group 362" transform="translate(0 0.005)" clip-path="url(#clip-path)">
        <path id="Path_2441" data-name="Path 2441" d="M9.037,144.263s-21.083-37.612,1.156-70.12C106.287-66.322,247.508,25.1,205.237,85.379c-17.43,24.857,37.426,30.243,20.975,58.945Z" transform="translate(0 -0.004)" fill="#ebf3fa"/>
      </g>
    </g>
    <g id="Layer_1" transform="translate(-233.205 -231.577)">
      <g id="Group_282" data-name="Group 282" transform="translate(1619.51 428.577)">
        <path id="Path_1782" data-name="Path 1782" d="M2242.752,651.2l-1.459.447-.979-2.267-2.213.392-1.01-1.578-.8.512,1.352,2.109,2.1-.372,1.018,2.359,2.2-.674Z" transform="translate(-2172.108 -625.337)" fill="#e4c4ff"/>
        <path id="Path_1783" data-name="Path 1783" d="M3141.67,1434.905l-1.459.448-.979-2.268-2.213.392-1.01-1.578-.8.512,1.351,2.108,2.1-.37,1.019,2.359,2.2-.674Z" transform="translate(-2977.487 -1327.495)" fill="#f36b80"/>
        <g id="Group_248" data-name="Group 248" transform="translate(53.186 73.125)">
          <g id="Group_247" data-name="Group 247">
            <path id="Path_1784" data-name="Path 1784" d="M2139.091,1192.43s-7.784-26.381-8.408-32.2,3.727-4.016,3.727-4.016-3.662-11.089-1.013-13.72,5.036,2.274,5.036,2.274.8-13.461,3.624-13.466c5.259-.009,5.155,14.681,5.155,14.681s1.342-5.751,4.157-4.175c4.246,2.378-1.843,13.9-1.843,13.9s5.41,0,7.311,2.731C2160.246,1163.336,2139.091,1192.43,2139.091,1192.43Z" transform="translate(-2130.622 -1131.3)" fill="#72c216"/>
          </g>
        </g>
        <g id="Group_250" data-name="Group 250" transform="translate(23.827 91.945)">
          <g id="Group_249" data-name="Group 249">
            <path id="Path_1785" data-name="Path 1785" d="M1888.853,1350.976s-22.438-3.752-27.319-7.728-.05-5.769-.05-5.769-11.272-5.778-11.142-9.708,5.73-1.931,5.73-1.931-9.5-10.83-7.249-12.887c4.188-3.832,15.168,7.427,15.168,7.427s-3.26-5.354.174-6.2c5.178-1.278,9,11.924,9,11.924s-.971-5.213,2.6-4.519C1882.171,1322.83,1888.853,1350.976,1888.853,1350.976Z" transform="translate(-1848.48 -1312.158)" fill="#5dae00"/>
          </g>
          <path id="Path_1786" data-name="Path 1786" d="M1878.721,1321.594c-3.58-.647-2.6,4.519-2.6,4.519s-3.822-13.2-9-11.924c-3.434.847-.174,6.2-.174,6.2s-10.98-11.258-15.168-7.427l39.954,38.03C1891.023,1347.359,1884.722,1322.678,1878.721,1321.594Z" transform="translate(-1851.436 -1312.167)" fill="#72c216"/>
        </g>
        <g id="Group_251" data-name="Group 251" transform="translate(22.176 115.307)">
          <path id="Path_1787" data-name="Path 1787" d="M1881.024,1555.654s-11.817-12.017-17.767-13.269-4.88,2.982-4.88,2.982-11.807-10.324-14.542-7.823.224,4.917.224,4.917-9.835-1.743-11.243,1.485c-2.164,4.959,14.011,7.658,14.011,7.658s-6.777.469-5.206,3.579C1843.99,1559.873,1881.024,1555.654,1881.024,1555.654Z" transform="translate(-1832.616 -1537.102)" fill="#5dae00"/>
          <path id="Path_1788" data-name="Path 1788" d="M1834.53,1543.5c1.408-3.227,11.243-1.485,11.243-1.485s-2.96-2.415-.224-4.917,14.175,6.419,14.175,6.419-2.7-5.155,3.254-3.9,19.762,15.594,19.762,15.594Z" transform="translate(-1834.331 -1536.658)" fill="#72c216"/>
        </g>
        <g id="Group_259" data-name="Group 259" transform="translate(80.859 3.679)">
          <path id="Path_1789" data-name="Path 1789" d="M2446.1,523.364a4.561,4.561,0,0,0-1.853,8.21,3.032,3.032,0,0,1,1.181,1.755l.6,2.429a1.321,1.321,0,0,0,1.5.987l1.507-.248a1.323,1.323,0,0,0,1.1-1.415c-.209-2.507-.467-3.416.347-4.535A4.56,4.56,0,0,0,2446.1,523.364Z" transform="translate(-2437.566 -517.123)" fill="#f2f2f2"/>
          <g id="Group_252" data-name="Group 252" transform="translate(6.76 9.198)">
            <path id="Path_1790" data-name="Path 1790" d="M2463.7,559.984c-.259-2.148-.622-4.415-.746-5.058-2.28.126-1.413-2.278-.361-1.3a2,2,0,0,1,.535,1.07,5.907,5.907,0,0,0,2.172-.633,2.8,2.8,0,0,1,.06-1.271c.223-.512.872-.651,1.136-.153a.8.8,0,0,1,.044.625,2.027,2.027,0,0,1-1.014.923c.12,1.708.286,3.429.5,5.123l-.216.027c-.206-1.667-.37-3.36-.49-5.041a6.127,6.127,0,0,1-2.145.612c.156.822.5,3.032.744,5.049Zm-1.829-5.565a1.275,1.275,0,0,0,1.038.291,1.765,1.765,0,0,0-.463-.926C2461.882,553.258,2461.534,554.053,2461.874,554.419Zm3.687-1.54a2.417,2.417,0,0,0-.049,1.07,1.713,1.713,0,0,0,.827-.756.492.492,0,0,0-.253-.637C2466.059,552.548,2465.648,552.679,2465.561,552.879Z" transform="translate(-2461.52 -552.329)" fill="#31dae7"/>
          </g>
          <path id="Path_1791" data-name="Path 1791" d="M2471.97,612.7c.005.02.013.04.018.06l.6,2.429a1.322,1.322,0,0,0,1.5.986l1.507-.248a1.322,1.322,0,0,0,1.1-1.415c-.093-1.115-.2-1.914-.209-2.556Z" transform="translate(-2464.123 -596.556)" fill="#31dae7"/>
          <g id="Group_253" data-name="Group 253" transform="translate(4.346 1.614)">
            <path id="Path_1792" data-name="Path 1792" d="M2439.557,482.257l-1.19-2.171a.434.434,0,0,1,.761-.417l1.189,2.171a.434.434,0,0,1-.761.417Z" transform="translate(-2438.314 -479.444)" fill="#f2f2f2"/>
          </g>
          <g id="Group_254" data-name="Group 254" transform="translate(0 8.586)">
            <path id="Path_1793" data-name="Path 1793" d="M2399.544,547.537l-2.593-.227a.434.434,0,0,1,.076-.865l2.592.227a.434.434,0,0,1-.075.865Z" transform="translate(-2396.555 -546.444)" fill="#f2f2f2"/>
          </g>
          <g id="Group_255" data-name="Group 255" transform="translate(0.293 15.241)">
            <path id="Path_1794" data-name="Path 1794" d="M2399.492,612.784a.434.434,0,0,1,0-.614,14.176,14.176,0,0,1,2.083-1.7.434.434,0,0,1,.482.721,13.278,13.278,0,0,0-1.956,1.6A.433.433,0,0,1,2399.492,612.784Z" transform="translate(-2399.367 -610.398)" fill="#f2f2f2"/>
          </g>
          <g id="Group_256" data-name="Group 256" transform="translate(11.673)">
            <path id="Path_1795" data-name="Path 1795" d="M2509.047,468.243a.432.432,0,0,1-.307-.531,16.549,16.549,0,0,0,.535-3.368.434.434,0,1,1,.866.047,17.367,17.367,0,0,1-.563,3.546A.435.435,0,0,1,2509.047,468.243Z" transform="translate(-2508.725 -463.933)" fill="#f2f2f2"/>
          </g>
          <g id="Group_257" data-name="Group 257" transform="translate(14.646 6.271)">
            <path id="Path_1796" data-name="Path 1796" d="M2537.322,525.565a.434.434,0,0,1,.29-.541l2.7-.813a.434.434,0,0,1,.25.83l-2.7.813A.433.433,0,0,1,2537.322,525.565Z" transform="translate(-2537.304 -524.193)" fill="#f2f2f2"/>
          </g>
          <g id="Group_258" data-name="Group 258" transform="translate(16.046 12.898)">
            <path id="Path_1797" data-name="Path 1797" d="M2553.8,589.8a.424.424,0,0,1-.117-.017,13.6,13.6,0,0,1-2.7-1.082.434.434,0,0,1,.408-.767,12.7,12.7,0,0,0,2.527,1.013.435.435,0,0,1-.118.853Z" transform="translate(-2550.751 -587.884)" fill="#f2f2f2"/>
          </g>
        </g>
        <path id="Path_1798" data-name="Path 1798" d="M2914.958,695.54l-1.36-3.216-3.421-.7a.48.48,0,0,1-.218-.832l2.638-2.287-.388-3.469a.48.48,0,0,1,.725-.464l2.99,1.8,3.18-1.441a.48.48,0,0,1,.666.545l-.79,3.4,2.354,2.579a.479.479,0,0,1-.313.8l-3.479.3-1.725,3.035A.48.48,0,0,1,2914.958,695.54Z" transform="translate(-2775.528 -657.867)" fill="#e4c4ff"/>
        <path id="Path_1799" data-name="Path 1799" d="M3095.56,684.57l-.559,2.251-3.723-.5-1.223,3.19-2.846.082.042,1.44,3.805-.109,1.159-3.023,3.872.519.841-3.388Z" transform="translate(-2934.482 -657.931)" fill="#f36b80"/>
        <path id="Path_1800" data-name="Path 1800" d="M2246.632,1616.774h-65.417a4.611,4.611,0,0,1-4.525-4.692v-2.79a4.611,4.611,0,0,1,4.525-4.692h65.417a9.267,9.267,0,0,0-.121,12.034Z" transform="translate(-2118.71 -1482.223)" fill="#e25a74"/>
        <path id="Path_1801" data-name="Path 1801" d="M2487.768,1618h-36.283a4.611,4.611,0,0,0-4.525,4.693h0a4.61,4.61,0,0,0,4.525,4.692h36.286A9.306,9.306,0,0,1,2487.768,1618Z" transform="translate(-2360.856 -1494.229)" fill="#f2f2f2"/>
        <path id="Path_1802" data-name="Path 1802" d="M2285.327,1520.015a.272.272,0,0,0-.27-.385h-34.614a4.686,4.686,0,0,0-4.913,4.422h0a4.687,4.687,0,0,0,4.913,4.421h34.624a.272.272,0,0,0,.27-.387h0A8.47,8.47,0,0,1,2285.327,1520.015Z" transform="translate(-2180.386 -1406.095)" fill="#8b5dd0"/>
        <path id="Path_1803" data-name="Path 1803" d="M2428.521,1527.54h-17.155c-3.184,0-5.766,1.659-5.766,3.7s2.582,3.7,5.766,3.7h17.268A8.457,8.457,0,0,1,2428.521,1527.54Z" transform="translate(-2323.8 -1413.182)" fill="#f2f2f2"/>
        <g id="Group_260" data-name="Group 260" transform="translate(97.187 116.114)">
          <path id="Path_1804" data-name="Path 1804" d="M2556.565,1544.42h-2.235c-.48,0-.87.161-.87.36v.032h3.1Z" transform="translate(-2553.46 -1544.42)" fill="#34bed1"/>
          <path id="Path_1805" data-name="Path 1805" d="M2565.71,1545.323c0-.5-.584-.9-1.3-.9h-2.867c.547,0,.988.307.988.686l-.013,9.687,1.583-1.245,1.615,1.245Z" transform="translate(-2560.699 -1544.42)" fill="#31dae7"/>
        </g>
        <g id="Group_262" data-name="Group 262" transform="translate(62.87 105.142)">
          <path id="Path_1806" data-name="Path 1806" d="M2365.555,1450.486h-20.141c-1.786,0-3.234-1.718-3.234-3.838h0c0-2.12,1.448-3.838,3.234-3.838h20.141a6.752,6.752,0,0,0-.144,7.458Z" transform="translate(-2329.849 -1442.411)" fill="#f2f2f2"/>
          <path id="Path_1807" data-name="Path 1807" d="M2236.013,1443.215h0a3.6,3.6,0,0,1,3.31-3.838h20.446a.187.187,0,0,0,.172-.2h0a.186.186,0,0,0-.172-.2h-32.435a3.977,3.977,0,0,0-3.654,4.236h0a3.978,3.978,0,0,0,3.654,4.236h32.434a.187.187,0,0,0,.172-.2h0a.187.187,0,0,0-.172-.2h-20.446A3.606,3.606,0,0,1,2236.013,1443.215Z" transform="translate(-2223.68 -1438.98)" fill="#5c407b"/>
          <g id="Group_261" data-name="Group 261" transform="translate(29.085 2.283)">
            <path id="Path_1808" data-name="Path 1808" d="M2506.284,1460.92h-2.234c-.481,0-.87.158-.87.354v.031h3.1Z" transform="translate(-2503.179 -1460.92)" fill="#34bed1"/>
            <path id="Path_1809" data-name="Path 1809" d="M2515.429,1461.807c0-.489-.583-.887-1.3-.887h-2.867c.546,0,.989.3.989.672l-.014,9.5,1.584-1.222,1.615,1.222Z" transform="translate(-2510.419 -1460.92)" fill="#31dae7"/>
          </g>
        </g>
        <g id="Group_265" data-name="Group 265" transform="translate(67.631 26.417)">
          <g id="Group_264" data-name="Group 264" transform="translate(36.895 21.539)">
            <path id="Path_1810" data-name="Path 1810" d="M2852.72,890.313l2.973-.783-2.016,26.879-3.567.119,1.8-25.239A1.092,1.092,0,0,1,2852.72,890.313Z" transform="translate(-2826.58 -889.519)" fill="#e4c4ff"/>
            <g id="Group_263" data-name="Group 263">
              <path id="Path_1811" data-name="Path 1811" d="M2876.764,917.08a.962.962,0,0,1-.2,0,1.192,1.192,0,0,1-.976-1.312l1.979-25.274a1.085,1.085,0,0,1,1.163-1.059,1.191,1.191,0,0,1,.976,1.312l-1.979,25.274A1.111,1.111,0,0,1,2876.764,917.08Z" transform="translate(-2849.399 -889.425)" fill="#f36b80"/>
              <path id="Path_1812" data-name="Path 1812" d="M2623.99,1145.669c0,.019,0,.037,0,.056h0a1.761,1.761,0,0,0,1.78,1.718l25.109-2.248a1.755,1.755,0,0,0,1.442-2.006c0-.044-.009-.086-.015-.129Z" transform="translate(-2623.99 -1116.667)" fill="#f36b80"/>
            </g>
          </g>
          <path id="Path_1813" data-name="Path 1813" d="M2686.138,1421.851c-1.644.911-6.67-.687-6.67-.832-.072,1.374-5.628,14.818-5.628,14.818l0,4.136s11.448.545,11.283-.466-.78-.354-3.063-2.265c-.2-.169-3.409-.914-2.541-2.811C2681.27,1430.61,2684.98,1424.238,2686.138,1421.851Z" transform="translate(-2631.758 -1344.163)" fill="#f9b797"/>
          <path id="Path_1814" data-name="Path 1814" d="M2667.211,1567.6l12.531,0c.452-.046.557-.414.4-.638-.329-.461-2.731-1.546-4.344-2.267-2.812.329-7.755-.752-8.207-1.394C2666.4,1564.9,2666.959,1567.545,2667.211,1567.6Z" transform="translate(-2625.501 -1471.638)" fill="#2c3c4d"/>
          <path id="Path_1815" data-name="Path 1815" d="M2643.48,1216.716c-.17-.509,10.789-5.159,11.279-4.628.868.94-5.929,18.582-5.929,18.582l7.808,2.386s8.118-20.382,7.78-24.11-4.406-7.965-13.218-5.253S2643.48,1216.716,2643.48,1216.716Z" transform="translate(-2604.518 -1148.68)" fill="#2e2e2e"/>
          <path id="Path_1816" data-name="Path 1816" d="M2795.931,1447.276a41.4,41.4,0,0,0-6.167-.466c.226,1.708,1.324,10.472,1.124,11.011a6.579,6.579,0,0,1-2.618,3.2s8.509,7.678,9.023,6.791-.38-.768-.935-3.693a38.725,38.725,0,0,1-1.356-6.545C2794.856,1453.376,2795.867,1449.609,2795.931,1447.276Z" transform="translate(-2734.28 -1367.27)" fill="#f9b797"/>
          <path id="Path_1817" data-name="Path 1817" d="M2445.444,1170.951c-1.187-.634-4.269-.656-7.658-.436a77.764,77.764,0,0,0-19.413,3.81l-4.205,1.394.014-4.311s-13.378-2.238-13.843,1.077c-.7,4.993.169,15.13,4.626,17.392,13.845,7.028,33.247-11.2,33.317-8.812.094,3.2,2.794,15.118,3.484,20.334a38.429,38.429,0,0,0,6.647-.3C2448.692,1190.883,2448.822,1172.755,2445.444,1170.951Z" transform="translate(-2386.524 -1119.613)" fill="#484848"/>
          <path id="Path_1818" data-name="Path 1818" d="M2785.693,1555.842l9.565,7.641c.379.251.694.033.711-.24.038-.565-1.132-2.927-1.924-4.507-2.383-1.527-5.527-5.513-5.47-6.3C2787.568,1553.29,2785.531,1555.641,2785.693,1555.842Z" transform="translate(-2731.963 -1461.908)" fill="#2c3c4d"/>
          <path id="Path_1819" data-name="Path 1819" d="M2301.514,692.1c-.322-2.938-.66-5.886-3.095-8.039a6.583,6.583,0,0,0-6.953-1.105c-7.019,2.641-3.4,8.874-12.352,15.159-2.781,1.953-5.846,3.289-7.94,5.919-2.93,3.681-1.824,8.108.847,11.065,12.779,14.144,27.048-4.957,28.073-9.543C2300.856,702.145,2301.721,693.991,2301.514,692.1Z" transform="translate(-2269.435 -682.437)" fill="#6a2c2a"/>
          <path id="Path_1820" data-name="Path 1820" d="M2413.874,879.35a38.859,38.859,0,0,0-2.12-3.452c-1.083-1.925-3.88-2.9-3.88-2.9s-.935.019-2.01.072a.854.854,0,0,1-.2.357c-.4.3-2.718-.089-4.213.927-5.01,4.295-3.624,25.112-3.23,31.686l15.258.145s-1.924-14.147,1.177-17.782C2416.812,885.873,2415.423,882.205,2413.874,879.35Z" transform="translate(-2384.39 -853.17)" fill="#ff5656"/>
          <path id="Path_1821" data-name="Path 1821" d="M2473.9,798.986a61.981,61.981,0,0,1-1.425,7.445c-.586,1.456,3.221,4.568,6.388,5.513s-.968-3.215-.837-4.771.707-8.923.707-8.923Z" transform="translate(-2451.29 -786.198)" fill="#f0967e"/>
          <path id="Path_1822" data-name="Path 1822" d="M2489.142,800.362l.16-2.112-4.834.736s-.122.7-.257,1.7A3.974,3.974,0,0,0,2489.142,800.362Z" transform="translate(-2461.861 -786.198)" fill="#f0967e"/>
          <path id="Path_1823" data-name="Path 1823" d="M2466.35,699.724a5.5,5.5,0,0,0-3.082,2.541c-1.177,2.05-1.984,8.087,1.89,10.905s6.889-1.168,6.939-5.056S2471.417,699.038,2466.35,699.724Z" transform="translate(-2442.227 -697.87)" fill="#f9b797"/>
          <path id="Path_1824" data-name="Path 1824" d="M2548.482,744.386c-.331.821-.987,1.331-1.465,1.138s-.6-1.015-.268-1.836.987-1.331,1.465-1.138S2548.812,743.565,2548.482,744.386Z" transform="translate(-2517.724 -736.258)" fill="#f9b797"/>
          <path id="Path_1825" data-name="Path 1825" d="M2449.346,699.1s-2.429,5.449-4.563,5.936-2.1,3.228-2.1,3.228.048-6.331,2.048-7.784A8.406,8.406,0,0,1,2449.346,699.1Z" transform="translate(-2424.652 -697.37)" fill="#6a2c2a"/>
          <path id="Path_1826" data-name="Path 1826" d="M2451.407,755.879c.281.885.024,1.757-.575,1.946s-1.311-.374-1.592-1.258-.023-1.757.575-1.946S2451.126,754.994,2451.407,755.879Z" transform="translate(-2430.427 -747.077)" fill="#f9b797"/>
          <path id="Path_1827" data-name="Path 1827" d="M2463.74,1000.221c-.916-.331-2.278-.372-2.255-.493.091-.489,4.136,1.08,3.59.366-.3-.4-3.331-1.806-4.066-1.572-.714.226-5.4,1.541-5.4,1.541l-12.811-3s-3.233-7.348-3.55-13.661a17.6,17.6,0,0,0-6.816,2.311c1.12,6.038,3.843,15.823,6.854,17.659,1.266.772,16.385-.924,16.385-.924a34.405,34.405,0,0,0,3.876-.444c.413-.159,1.475-.758,2.054-.921,1.314-.373,3.657.562,3.664.3A2.514,2.514,0,0,0,2463.74,1000.221Z" transform="translate(-2415.469 -952.082)" fill="#f0967e"/>
          <path id="Path_1828" data-name="Path 1828" d="M2427.91,879.216c-.123-1.943-.859-3.818-2.927-4.423a4.183,4.183,0,0,0-3.742.82,5.08,5.08,0,0,0-1.552,4.1,58.579,58.579,0,0,0,.873,10.36,22.154,22.154,0,0,1,7.708-2.425C2428.27,887.63,2428.073,881.783,2427.91,879.216Z" transform="translate(-2404.054 -854.644)" fill="#f32c2c"/>
        </g>
        <g id="Group_266" data-name="Group 266" transform="translate(31.268 34.765)">
          <path id="Path_1829" data-name="Path 1829" d="M1941.092,794.377l-19.861-3.7a.735.735,0,0,1-.588-.856l2.488-13.361a.735.735,0,0,1,.856-.588l19.861,3.7a.735.735,0,0,1,.588.856l-2.488,13.361A.735.735,0,0,1,1941.092,794.377Z" transform="translate(-1920.564 -774.487)" fill="#e1dde7"/>
          <path id="Path_1830" data-name="Path 1830" d="M1969.187,767.277l-6.046-1.126a.735.735,0,0,1-.588-.856l.379-2.033a.735.735,0,0,1,.856-.588l6.046,1.126a.735.735,0,0,1,.588.856l-.378,2.033A.735.735,0,0,1,1969.187,767.277Z" transform="translate(-1958.114 -762.661)" fill="#e1dde7"/>
          <path id="Path_1831" data-name="Path 1831" d="M1941.424,805.677a.735.735,0,0,1-.842.522l-19.99-3.722a.735.735,0,0,1-.6-.787l1.046-11.976a.735.735,0,0,1,.866-.659l22.208,4.135a.736.736,0,0,1,.573.922Z" transform="translate(-1919.992 -786.298)" fill="#f2f2f2"/>
        </g>
        <g id="Group_267" data-name="Group 267" transform="translate(139.661 6.992)">
          <path id="Path_1832" data-name="Path 1832" d="M2965.764,499.16l-3.4.929-.733-4.122,1.112-.2.516,2.9,2.207-.6Z" transform="translate(-2961.63 -495.77)" fill="#f36b80"/>
        </g>
        <g id="Group_268" data-name="Group 268" transform="translate(34.836 66.182)">
          <path id="Path_1833" data-name="Path 1833" d="M1960.12,1072.208a5.251,5.251,0,0,1,2.745.7,3.963,3.963,0,0,1,1.463,1.512l-.158.109a3.562,3.562,0,0,0-1.83-1.125,4.4,4.4,0,0,0-2.041-.02Z" transform="translate(-1959.512 -1071.406)" fill="#8b5dd0"/>
          <path id="Path_1834" data-name="Path 1834" d="M1959.022,1067.649s-5.19.866-4.706,4.92,5.958,7.207,10.844,4.7c6.573-3.372,3.977-11.948-.7-12.611S1959.022,1067.649,1959.022,1067.649Z" transform="translate(-1954.284 -1064.578)" fill="#f36b80"/>
          <path id="Path_1835" data-name="Path 1835" d="M2016.112,1071.284s1.354-1.39,4.321-.126,3.181,7.161.536,6.819S2014,1072.134,2016.112,1071.284Z" transform="translate(-2009.173 -1069.997)" fill="#ff8da3"/>
        </g>
        <g id="Group_271" data-name="Group 271" transform="translate(53.424 4)">
          <path id="Path_1836" data-name="Path 1836" d="M2131.127,442.19l-21.343,7.613a1.322,1.322,0,0,1-1.69-.8l-3.94-11.044a1.322,1.322,0,0,1,.8-1.69l21.342-7.613a1.323,1.323,0,0,1,1.69.8l3.94,11.043A1.323,1.323,0,0,1,2131.127,442.19Z" transform="translate(-2104.077 -428.577)" fill="#31dae7"/>
          <path id="Path_1837" data-name="Path 1837" d="M2157.352,507.918a4.23,4.23,0,1,1-5.405-2.563A4.23,4.23,0,0,1,2157.352,507.918Z" transform="translate(-2144.448 -497.144)" fill="#fff"/>
          <path id="Path_1838" data-name="Path 1838" d="M2174.764,519.29a1.247,1.247,0,1,1-1.594-.756A1.249,1.249,0,0,1,2174.764,519.29Z" transform="translate(-2165.238 -509.108)" fill="#86b1f2"/>
          <path id="Path_1839" data-name="Path 1839" d="M2180.793,547.763l-3.755,1.339-.15-.421a1.479,1.479,0,0,1,.9-1.889l.971-.347a1.478,1.478,0,0,1,1.889.895Z" transform="translate(-2169.235 -534.103)" fill="#86b1f2"/>
          <g id="Group_269" data-name="Group 269" transform="translate(12.89 4.06)">
            <path id="Path_1840" data-name="Path 1840" d="M2228.488,472a.539.539,0,0,1-.181-1.047l9.33-3.328a.539.539,0,0,1,.362,1.016l-9.33,3.328A.563.563,0,0,1,2228.488,472Z" transform="translate(-2227.948 -467.59)" fill="#fff"/>
          </g>
          <g id="Group_270" data-name="Group 270" transform="translate(15.409 7.114)">
            <path id="Path_1841" data-name="Path 1841" d="M2252.7,500.618a.539.539,0,0,1-.181-1.047l7.287-2.6a.539.539,0,0,1,.362,1.016l-7.288,2.6A.566.566,0,0,1,2252.7,500.618Z" transform="translate(-2252.159 -496.94)" fill="#fff"/>
          </g>
        </g>
        <path id="Path_1842" data-name="Path 1842" d="M2214.042,1359.87h-51.534a2.9,2.9,0,0,0-2.9,2.9v2.437a2.9,2.9,0,0,0,2.9,2.9h51.534l-.027-.028A5.9,5.9,0,0,1,2214.042,1359.87Z" transform="translate(-2103.407 -1262.96)" fill="#31dae7"/>
        <path id="Path_1843" data-name="Path 1843" d="M2411.788,1371.58h-27.55a2.9,2.9,0,0,0-2.9,2.9h0a2.9,2.9,0,0,0,2.9,2.9h27.549A5.909,5.909,0,0,1,2411.788,1371.58Z" transform="translate(-2302.064 -1273.451)" fill="#f2f2f2"/>
        <g id="Group_275" data-name="Group 275" transform="translate(148.839 80.427)">
          <g id="Group_273" data-name="Group 273">
            <path id="Path_1844" data-name="Path 1844" d="M3053.806,1218.191l-3.907-9.8a.961.961,0,0,1,.537-1.249l14.056-5.6a.961.961,0,0,1,1.249.537l3.907,9.8a.961.961,0,0,1-.537,1.249l-14.057,5.6A.96.96,0,0,1,3053.806,1218.191Z" transform="translate(-3049.83 -1201.47)" fill="#f2f2f2"/>
            <path id="Path_1845" data-name="Path 1845" d="M3185.072,1228.616l-3.51-8.807a.275.275,0,0,1,.154-.358h0a.275.275,0,0,1,.358.154l3.51,8.807a.275.275,0,0,1-.154.358h0A.275.275,0,0,1,3185.072,1228.616Z" transform="translate(-3167.836 -1217.563)" fill="#31dae7"/>
            <path id="Path_1846" data-name="Path 1846" d="M3174.394,1231.03l-2.883-7.231a.276.276,0,0,1,.154-.358h0a.276.276,0,0,1,.358.154l2.882,7.231a.275.275,0,0,1-.154.358h0A.274.274,0,0,1,3174.394,1231.03Z" transform="translate(-3158.832 -1221.137)" fill="#31dae7"/>
            <path id="Path_1847" data-name="Path 1847" d="M3165,1236.616l-3.51-8.807a.276.276,0,0,1,.154-.358h0a.275.275,0,0,1,.358.154l3.51,8.807a.275.275,0,0,1-.154.358h0A.275.275,0,0,1,3165,1236.616Z" transform="translate(-3149.854 -1224.73)" fill="#31dae7"/>
            <path id="Path_1848" data-name="Path 1848" d="M3154.161,1238.606l-2.71-6.8a.275.275,0,0,1,.154-.358h0a.275.275,0,0,1,.358.154l2.71,6.8a.275.275,0,0,1-.154.358h0A.275.275,0,0,1,3154.161,1238.606Z" transform="translate(-3140.859 -1228.314)" fill="#31dae7"/>
            <g id="Group_272" data-name="Group 272" transform="translate(15.504 1.048)">
              <path id="Path_1849" data-name="Path 1849" d="M3200.456,1211.8l-.071-.177a.123.123,0,0,0-.158-.074l-1.334.532a.123.123,0,0,0-.065.162l.071.177a.122.122,0,0,0,.157.074l1.334-.531A.123.123,0,0,0,3200.456,1211.8Z" transform="translate(-3198.818 -1211.54)" fill="#31dae7"/>
              <path id="Path_1850" data-name="Path 1850" d="M3203.369,1219.089l-.071-.177a.123.123,0,0,0-.158-.074l-1.334.532a.122.122,0,0,0-.063.162l.071.177a.123.123,0,0,0,.158.074l1.334-.532A.125.125,0,0,0,3203.369,1219.089Z" transform="translate(-3201.429 -1218.072)" fill="#31dae7"/>
              <path id="Path_1851" data-name="Path 1851" d="M3206.266,1226.379l-.071-.177a.122.122,0,0,0-.157-.074l-1.334.532a.123.123,0,0,0-.065.162l.071.177a.123.123,0,0,0,.158.074l1.334-.532A.123.123,0,0,0,3206.266,1226.379Z" transform="translate(-3204.024 -1224.603)" fill="#31dae7"/>
              <path id="Path_1852" data-name="Path 1852" d="M3209.176,1233.669l-.071-.177a.123.123,0,0,0-.158-.074l-1.334.532a.124.124,0,0,0-.064.162l.07.178a.123.123,0,0,0,.158.074l1.334-.531A.125.125,0,0,0,3209.176,1233.669Z" transform="translate(-3206.632 -1231.135)" fill="#31dae7"/>
              <path id="Path_1853" data-name="Path 1853" d="M3212.075,1240.959l-.071-.177a.123.123,0,0,0-.158-.074l-1.334.532a.124.124,0,0,0-.065.162l.071.177a.123.123,0,0,0,.158.074l1.334-.532A.122.122,0,0,0,3212.075,1240.959Z" transform="translate(-3209.229 -1237.666)" fill="#31dae7"/>
              <path id="Path_1854" data-name="Path 1854" d="M3214.985,1248.249l-.071-.177a.123.123,0,0,0-.158-.074l-1.334.532a.124.124,0,0,0-.065.162l.071.177a.123.123,0,0,0,.158.074l1.334-.532A.123.123,0,0,0,3214.985,1248.249Z" transform="translate(-3211.837 -1244.197)" fill="#31dae7"/>
              <path id="Path_1855" data-name="Path 1855" d="M3217.885,1255.539l-.071-.177a.122.122,0,0,0-.157-.074l-1.334.531a.124.124,0,0,0-.064.163l.071.177a.122.122,0,0,0,.158.074l1.334-.532A.122.122,0,0,0,3217.885,1255.539Z" transform="translate(-3214.435 -1250.729)" fill="#31dae7"/>
              <path id="Path_1856" data-name="Path 1856" d="M3220.8,1262.829l-.071-.177a.123.123,0,0,0-.158-.074l-1.334.532a.123.123,0,0,0-.064.162l.071.177a.122.122,0,0,0,.158.074l1.334-.532A.123.123,0,0,0,3220.8,1262.829Z" transform="translate(-3217.042 -1257.26)" fill="#31dae7"/>
              <path id="Path_1857" data-name="Path 1857" d="M3223.7,1270.119l-.071-.177a.122.122,0,0,0-.158-.074l-1.334.532a.124.124,0,0,0-.064.163l.071.177a.122.122,0,0,0,.158.074l1.334-.532A.123.123,0,0,0,3223.7,1270.119Z" transform="translate(-3219.648 -1263.791)" fill="#31dae7"/>
              <path id="Path_1858" data-name="Path 1858" d="M3226.6,1277.409l-.071-.177a.123.123,0,0,0-.158-.073l-1.334.531a.123.123,0,0,0-.065.162l.071.177a.123.123,0,0,0,.158.074l1.334-.532A.123.123,0,0,0,3226.6,1277.409Z" transform="translate(-3222.247 -1270.323)" fill="#31dae7"/>
              <path id="Path_1859" data-name="Path 1859" d="M3229.506,1284.69l-.071-.178a.123.123,0,0,0-.158-.074l-1.333.532a.123.123,0,0,0-.064.162l.071.177a.123.123,0,0,0,.158.073l1.334-.531A.121.121,0,0,0,3229.506,1284.69Z" transform="translate(-3224.846 -1276.845)" fill="#31dae7"/>
              <path id="Path_1860" data-name="Path 1860" d="M3232.419,1291.989l-.071-.177a.123.123,0,0,0-.158-.074l-1.334.532a.122.122,0,0,0-.063.162l.071.177a.123.123,0,0,0,.158.074l1.334-.532A.124.124,0,0,0,3232.419,1291.989Z" transform="translate(-3227.457 -1283.386)" fill="#31dae7"/>
            </g>
          </g>
          <g id="Group_274" data-name="Group 274" transform="translate(17.965 8.778)">
            <path id="Path_1861" data-name="Path 1861" d="M3228.656,1285.917l-5.579,7.944a.227.227,0,0,0-.029.058l-.568,1.745a.219.219,0,0,0,.339.243l1.493-1.126a.215.215,0,0,0,.048-.049l5.594-7.965a.219.219,0,0,0-.062-.31l-.939-.6A.22.22,0,0,0,3228.656,1285.917Z" transform="translate(-3222.469 -1285.824)" fill="#f36b80"/>
            <path id="Path_1862" data-name="Path 1862" d="M3224.668,1364.522l-.014.02-1.441,1.086-.393-.263.539-1.655A6.759,6.759,0,0,1,3224.668,1364.522Z" transform="translate(-3222.783 -1355.605)" fill="#f2f2f2"/>
          </g>
        </g>
        <g id="Group_276" data-name="Group 276" transform="translate(111.436 1.934)">
          <path id="Path_1863" data-name="Path 1863" d="M2705.846,460.25c.8.641,2.2,2.7,3.982,4.151,1.043.847,1.846.632,3.177.792,6.314.763,4.6,2.054,5.362,2.181-.216.5-2.182,4.676-2.55,5.522a1.54,1.54,0,0,1-1.774,1.011c-1.306-.18-2.624-.315-3.91-.593-3.3-.715-5.129-2.363-7.491-4.365a1.544,1.544,0,0,1-.456-1.944A53.467,53.467,0,0,1,2705.846,460.25Z" transform="translate(-2700.811 -458.889)" fill="#b984f9"/>
          <path id="Path_1864" data-name="Path 1864" d="M2708.633,460.683c-.028,1.376.077,1.652-.514,1.443a8.312,8.312,0,0,1-1.036-.463c-.238-.123-.247-.284-.054-.478.28-.282.568-.556.849-.829a1.218,1.218,0,0,1,.535-1.463c.1-.06.028.068.907-1.956-2.909-.359-4.96-.6-8.508-1.035a4.768,4.768,0,0,1-2.525-1.1q-3.8-3.181-7.6-6.363a.7.7,0,0,1-.115-1.034.793.793,0,0,1,.783-.223c.81.1,8.748,1.087,9.555,1.182a5.22,5.22,0,0,1,2.811,1.208q3.734,3.126,7.478,6.243c.342.285.435.547.314.865a.67.67,0,0,1-.856.421c-.314-.068-.454.027-.562.318-.489,1.316-.83,1.608-.711,2.088A1.326,1.326,0,0,1,2708.633,460.683Z" transform="translate(-2690.393 -447.166)" fill="#e4c4ff"/>
        </g>
        <g id="Group_278" data-name="Group 278" transform="translate(142.816 105.211)">
          <path id="Path_1865" data-name="Path 1865" d="M2992.24,1443.943l1.446,1.38a38.458,38.458,0,0,1,8.232,11.407l.222.469s3.788.335,4.317-3.09h0a57.27,57.27,0,0,1-8.318-12.217l-.685-1.6Z" transform="translate(-2992.209 -1440.222)" fill="#31dae7"/>
          <path id="Path_1866" data-name="Path 1866" d="M2997.191,1439.7c.186.266-.831,1.3-2.27,2.3s-2.763,1.614-2.95,1.348.837-1.309,2.277-2.313S2997.006,1439.434,2997.191,1439.7Z" transform="translate(-2991.949 -1439.637)" fill="#f2f2f2"/>
          <path id="Path_1867" data-name="Path 1867" d="M3007.277,1440.3l0-.005s-2.884,2.441-4.073,2.69l.367.5a15.347,15.347,0,0,0,1.435-.894C3006.425,1441.594,3007.433,1440.576,3007.277,1440.3Z" transform="translate(-3002.029 -1440.222)" fill="#f2f2f2"/>
          <g id="Group_277" data-name="Group 277" transform="translate(1.747 7.161)">
            <path id="Path_1868" data-name="Path 1868" d="M3052.048,1508.45c.005.42-.156,2.237-3.178,2.995q.3.406.586.82a4.849,4.849,0,0,0,3.159-2.3c.061-.119.135-.276.184-.4Q3052.417,1509.014,3052.048,1508.45Z" transform="translate(-3044.694 -1508.45)" fill="#f36b80"/>
            <path id="Path_1869" data-name="Path 1869" d="M3013.188,1530.7l-4.447-.159,1.054.895-.629,1.142,4.209-1.073Z" transform="translate(-3008.74 -1528.242)" fill="#f36b80"/>
            <path id="Path_1870" data-name="Path 1870" d="M3041.77,1542.01l-1.58,2.753,1.111-.423.428.874.742-2.9Z" transform="translate(-3036.917 -1538.518)" fill="#f36b80"/>
            <path id="Path_1871" data-name="Path 1871" d="M3048.074,1524.064a1.461,1.461,0,1,1,1.311-1.557A1.44,1.44,0,0,1,3048.074,1524.064Z" transform="translate(-3042.619 -1519.825)" fill="#f36b80"/>
          </g>
        </g>
        <g id="Group_280" data-name="Group 280" transform="translate(149.758 39.244)">
          <path id="Path_1872" data-name="Path 1872" d="M3068.367,820.617,3059,812.259a1.383,1.383,0,0,1,.485-2.136l7.475-4.232a1.169,1.169,0,0,1,1.364.063l9.365,8.357a1.383,1.383,0,0,1-.485,2.136l-7.474,4.233A1.167,1.167,0,0,1,3068.367,820.617Z" transform="translate(-3058.666 -805.704)" fill="#31dae7"/>
          <g id="Group_279" data-name="Group 279" transform="translate(8.473 1.236)">
            <path id="Path_1873" data-name="Path 1873" d="M3140.872,824.608l-.781-6.42a.576.576,0,0,1,.4-.587.372.372,0,0,1,.508.3l.719,5.908,7.1,1.717a.393.393,0,0,1,.239.558.551.551,0,0,1-.6.355Z" transform="translate(-3140.088 -817.579)" fill="#fff"/>
          </g>
        </g>
        <path id="Path_1875" data-name="Path 1875" d="M1953.68,602.49l.968,1.916,2.187-.071.933,2.223,2.306-.793,1.167,2.467,2.214-.468,1.51,2.191-.83.571-1.129-1.638-2.336.5-1.121-2.373-2.344.806-1.03-2.453-2.135.069-.9-1.775-1.392.339-.238-.979Z" transform="translate(-1916.962 -584.393)" fill="#e4c4ff"/>
        <path id="Path_1876" data-name="Path 1876" d="M3086.809,1052.216l1.988.807,1.6-1.49,2.165,1.064,1.217-2.114,2.5,1.095,1.361-1.807,2.578.66-.25.975-1.927-.492-1.436,1.907-2.4-1.052-1.238,2.149-2.388-1.174-1.565,1.455-1.842-.748-.829,1.171-.822-.582Z" transform="translate(-2932.968 -985.129)" fill="#f36b80"/>
      </g>
    </g>
  </g>
</svg>
