<svg xmlns="http://www.w3.org/2000/svg"  xmlns:xlink="http://www.w3.org/1999/xlink" width="229.33" height="144.319" viewBox="0 0 229.33 144.319">
  <defs>
    <clipPath id="clip-path">
      <rect id="Rectangle_710" data-name="Rectangle 710" width="229.33" height="144.319" transform="translate(0 0)" fill="none"/>
    </clipPath>
  </defs>
  <g id="Group_745" data-name="Group 745" transform="translate(-814.908 -189.743)">
    <g id="Group_363" data-name="Group 363" transform="translate(814.908 189.738)">
      <g id="Group_362" data-name="Group 362" transform="translate(0 0.005)" clip-path="url(#clip-path)">
        <path id="Path_2441" data-name="Path 2441" d="M9.037,144.263s-21.083-37.612,1.156-70.12C106.287-66.322,247.508,25.1,205.237,85.379c-17.43,24.857,37.426,30.243,20.975,58.945Z" transform="translate(0 -0.004)" fill="#ebf3fa"/>
      </g>
    </g>
    <g id="Group_361" data-name="Group 361" transform="translate(830 189.741)">
      <g id="Group_364" data-name="Group 364" transform="translate(0 0.002)">
        <path id="Path_2297" data-name="Path 2297" d="M1538.423,1057.718s17.21-8.486,20.17-12.912-1.391-4.677-1.391-4.677,7.68-7.469,6.6-10.614-5.113-.14-5.113-.14,4.992-11.114,2.663-12.219c-4.337-2.058-10.421,9.769-10.421,9.769s1.308-5.138-1.679-4.971c-4.5.252-4.318,11.875-4.318,11.875s-.509-4.457-3.223-3.009c-4.871,2.6-3.288,26.9-3.288,26.9" transform="translate(-1385.093 -915.709)" fill="#5c407b"/>
        <path id="Path_2298" data-name="Path 2298" d="M1540.838,1029.04c2.946-.887,3.629,2.377,3.629,2.377s-.17-9.21,4.334-9.462c2.987-.167,1.679,4.971,1.679,4.971s6.084-11.828,10.421-9.769l-22.949,40.372c-.162-2.819-1.352-27.214,2.886-28.489" transform="translate(-1384.641 -915.71)" fill="#8b5dd0"/>
        <path id="Path_2299" data-name="Path 2299" d="M1545.116,1264.115s14.076,1.748,17.72.19,1.033-3.482,1.033-3.482,7.826-1.538,8.429-3.938-3.132-2.165-3.132-2.165,7.63-4.9,6.626-6.539c-1.869-3.046-10.47,1.859-10.47,1.859s2.9-2.673.973-3.783c-2.912-1.673-7.518,5.652-7.518,5.652s.286-1.806-2-2.006c-4.094-.359-11.666,14.212-11.666,14.212" transform="translate(-1391.341 -1122.002)" fill="#5c407b"/>
        <path id="Path_2300" data-name="Path 2300" d="M1556.194,1249.424a2.374,2.374,0,0,1,2.2,2.484s4.607-7.325,7.518-5.652c1.931,1.109-.973,3.783-.973,3.783s8.6-4.905,10.47-1.859l-30.719,15.856c1.045-1.825,7.685-14.948,11.508-14.612" transform="translate(-1390.954 -1122.001)" fill="#8b5dd0"/>
        <path id="Path_2301" data-name="Path 2301" d="M204.589,1430.6c0-.326-.174-.591-.388-.591H26.9a.6.6,0,0,0,0,1.181H204.2c.214,0,.388-.264.388-.591" transform="translate(-23.788 -1287.688)" fill="#8b5dd0"/>
        <path id="Path_2302" data-name="Path 2302" d="M108.259,946.042S85.825,934.98,81.967,929.211s1.813-6.1,1.813-6.1-10.011-9.737-8.6-13.836,6.665-.182,6.665-.182-6.507-14.487-3.472-15.928c5.654-2.683,13.585,12.735,13.585,12.735s-1.7-6.7,2.189-6.48c5.871.328,5.629,15.479,5.629,15.479s.663-5.809,4.2-3.922c6.349,3.386,4.286,35.061,4.286,35.061" transform="translate(-67.573 -803.995)" fill="#5c407b"/>
        <path id="Path_2303" data-name="Path 2303" d="M135.29,909.393c-3.1-1.829-5.457,2.475-5.457,2.475s.3-12.117-5.574-12.445c-3.893-.218-2.189,6.48-2.189,6.48s-7.931-15.418-13.585-12.735L138.4,945.8c.211-3.675,1-33.972-3.111-36.4" transform="translate(-97.688 -803.996)" fill="#8b5dd0"/>
        <path id="Path_2304" data-name="Path 2304" d="M40.106,1215.088s-18.348,2.279-23.1.248-1.346-4.539-1.346-4.539-10.2-2.005-10.988-5.134,4.083-2.822,4.083-2.822-9.945-6.392-8.638-8.524c2.436-3.971,13.648,2.423,13.648,2.423s-3.785-3.485-1.268-4.931c3.8-2.181,9.8,7.368,9.8,7.368s-.373-2.354,2.6-2.615c5.336-.468,15.206,18.526,15.206,18.526" transform="translate(0 -1072.905)" fill="#5c407b"/>
        <path id="Path_2305" data-name="Path 2305" d="M25.959,1192.548c-2.974.261-2.588,4.2-2.588,4.2s-5.317-10.185-9.817-7.513c-2.5,1.482.966,4.942.966,4.942s-10.893-6.259-13.329-2.289l40.044,20.669c-1.361-2.378-10.291-20.45-15.275-20.012" transform="translate(-1.072 -1070.479)" fill="#8b5dd0"/>
        <path id="Path_2306" data-name="Path 2306" d="M468,1117.839H370.968c-3.706,0-6.711-2.616-6.711-5.844v-3.474c0-3.227,3-5.844,6.711-5.844H468a10.175,10.175,0,0,0-.178,14.985Z" transform="translate(-328.005 -992.935)" fill="#31dae7"/>
        <path id="Path_2307" data-name="Path 2307" d="M896.133,1120.134H847.3a5.849,5.849,0,1,0,0,11.687h48.834a10.85,10.85,0,0,1,0-11.687" transform="translate(-757.494 -1008.655)" fill="#f2f2f2"/>
        <path id="Path_2308" data-name="Path 2308" d="M452.116,1247H329.874a6.68,6.68,0,0,0-6.873,6.468v5.44a6.68,6.68,0,0,0,6.873,6.468H452.116l-.064-.063a12.62,12.62,0,0,1,.064-18.314" transform="translate(-290.855 -1122.893)" fill="#f36b80"/>
        <path id="Path_2309" data-name="Path 2309" d="M945.136,1274.331H879.788a6.68,6.68,0,0,0-6.873,6.468h0a6.68,6.68,0,0,0,6.873,6.468h65.347a12.516,12.516,0,0,1,0-12.936" transform="translate(-786.04 -1147.506)" fill="#f2f2f2"/>
        <path id="Path_2310" data-name="Path 2310" d="M1157.291,1339.658H1152.3a1.942,1.942,0,0,0-1.942,1.942v.174h6.929Z" transform="translate(-1035.874 -1206.331)" fill="#472a6a"/>
        <path id="Path_2311" data-name="Path 2311" d="M1171.922,1339.7a8.088,8.088,0,0,1,3.976,1.281l11.828,8.337,6.948,0-11.25-7.929a10.664,10.664,0,0,0-5.242-1.688Z" transform="translate(-1055.288 -1206.363)" fill="#5c407b"/>
        <path id="Path_2312" data-name="Path 2312" d="M346.844,271.273a.282.282,0,0,1-.5.074l-1.168-1.689-2.053,0a.282.282,0,0,1-.225-.453l1.246-1.633-.639-1.952a.282.282,0,0,1,.362-.354l1.938.68,1.659-1.211a.282.282,0,0,1,.449.235l-.048,2.053,1.664,1.2a.282.282,0,0,1-.084.5l-1.967.589Z" transform="translate(-305.719 -234.343)" fill="#f36b80"/>
        <path id="Path_2313" data-name="Path 2313" d="M1112.881,13.755a3.974,3.974,0,0,1,1.849-2.836c.723-.495,1.316-.916,1.476-1.494.277-1-.772-1.475-1.817-1.47a1,1,0,0,1-.042-2.007,6.524,6.524,0,0,1,2.046.234c2.243.623,2.918,2.146,2.527,3.557a4.383,4.383,0,0,1-2.237,2.454,3.137,3.137,0,0,0-1.541,2.19Zm-1.093,2.222a1.579,1.579,0,1,1,3.042.844,1.579,1.579,0,1,1-3.042-.844" transform="translate(-1001.078 -5.35)" fill="#f2f2f2"/>
        <path id="Path_2314" data-name="Path 2314" d="M1676.542,280.659l.834,1.386a.211.211,0,0,0,.378-.032l.593-1.505,1.576-.365a.211.211,0,0,0,.087-.369l-1.249-1.029.14-1.612a.211.211,0,0,0-.324-.2l-1.364.87-1.49-.631a.212.212,0,0,0-.287.248l.405,1.566-1.06,1.222a.212.212,0,0,0,.147.35Z" transform="translate(-1508.054 -249.345)" fill="#f36b80"/>
        <path id="Path_2315" data-name="Path 2315" d="M1294.874,75.328l-1.825-1.3.506-2.234.594.135-.417,1.838,1.887,1.34-.972,2.4,2.13,1.15-.969,2.118-.728.128.906-1.981-2.108-1.138Z" transform="translate(-1164.361 -64.652)" fill="#f36b80"/>
        <path id="Path_2316" data-name="Path 2316" d="M455.034,200.93l1.13,1,1.406-.616,1.188,1.205,1.3-1.118,1.4,1.3,1.32-.883,1.555,1.034-.391.589-1.163-.773-1.393.932-1.349-1.253-1.317,1.137-1.311-1.33-1.373.6-1.047-.922-.819.584-.41-.576Z" transform="translate(-404.598 -178.933)" fill="#31dae7"/>
        <path id="Path_2317" data-name="Path 2317" d="M1688.485,403.13a3.914,3.914,0,1,1-5.535.115,3.914,3.914,0,0,1,5.535-.115" transform="translate(-1514.476 -362.028)" fill="#e4c4ff"/>
        <path id="Path_2318" data-name="Path 2318" d="M1698.656,416.676l-1.666.512-.522,1.662a.17.17,0,0,1-.3.047l-1-1.426-1.742.017a.17.17,0,0,1-.137-.272l1.047-1.393-.554-1.652a.17.17,0,0,1,.216-.215l1.648.565,1.4-1.038a.17.17,0,0,1,.271.139l-.028,1.742,1.419,1.011a.17.17,0,0,1-.049.3" transform="translate(-1524.733 -372.302)" fill="#f2f2f2"/>
        <path id="Path_2328" data-name="Path 2328" d="M1435.252,101.435l-.7,1.285a29.535,29.535,0,0,1-6.549,8.149l-.295.258a2.732,2.732,0,0,0,3.178,2.138,44.279,44.279,0,0,1,7.121-8.4l1.021-.832Z" transform="translate(-1285.622 -91.34)" fill="#31dae7"/>
        <path id="Path_2329" data-name="Path 2329" d="M1507.026,103.579c-.154.186-1.123-.246-2.163-.965s-1.769-1.455-1.614-1.641,1.133.247,2.174.966,1.758,1.453,1.6,1.639" transform="translate(-1353.621 -90.886)" fill="#e1dde7"/>
        <path id="Path_2330" data-name="Path 2330" d="M1513.219,108.84l0,0a11.645,11.645,0,0,1-2.834-2.07l-.285.361a10.509,10.509,0,0,0,.959.742c1.028.711,1.986,1.141,2.157.971" transform="translate(-1359.812 -96.141)" fill="#e1dde7"/>
        <path id="Path_2331" data-name="Path 2331" d="M1467.629,157.364c-.305.1-1.664.423-2.864-1.4q-.232.293-.472.582a3.449,3.449,0,0,0,2.35,1.557c.1.013.231.024.331.028q.323-.385.655-.763" transform="translate(-1318.562 -140.439)" fill="#f36b80"/>
        <path id="Path_2332" data-name="Path 2332" d="M1453.363,129.451l-.838-2.989-.426.91-.968-.149,1.684,2.541Z" transform="translate(-1306.71 -113.876)" fill="#f36b80"/>
        <path id="Path_2333" data-name="Path 2333" d="M1445.633,158.019l-2.345-.4.547.638-.546.49,2.269-.188Z" transform="translate(-1299.647 -141.932)" fill="#f36b80"/>
        <path id="Path_2334" data-name="Path 2334" d="M1462.086,154.634a1.043,1.043,0,0,1,.664-1.326,1.077,1.077,0,0,1,1.416.5,1.043,1.043,0,0,1-.664,1.326,1.077,1.077,0,0,1-1.416-.5" transform="translate(-1316.515 -137.97)" fill="#f36b80"/>
        <path id="Path_2335" data-name="Path 2335" d="M1359.343,499.707a4.922,4.922,0,0,0-6.321,1.242,5.11,5.11,0,0,0-3.987.441c-2.325,1.346-3.748,5.111-1.859,7.152.462,2.1.82,4.27,2.911,4.293,1.238,2.268,5.57,2.417,7.792.286,1.942.611,4.016-.5,5.362-2.047.318-.364.586-.938.707-1.014,0,0,5.005-.928,4.544-5.776-.483-5.074-5.761-8.567-9.148-4.578" transform="translate(-1212.313 -448.418)" fill="#f36b80"/>
        <path id="Path_2336" data-name="Path 2336" d="M1259.505,1125.356a28.345,28.345,0,0,0,.6,4.4c.03.112.389.557.422.672a7.142,7.142,0,0,1-3.955,4.838c.486-1.276,1.394-2.693,1.336-3a39.14,39.14,0,0,0-1.315-5.539c1.264.019,1.8-.714,2.916-1.374" transform="translate(-1131.51 -1013.357)" fill="#ffb3c5"/>
        <path id="Path_2337" data-name="Path 2337" d="M1232.524,808.414l7.789,6.289s-3.915,3.871-5.384,5.31-8.86,6.626-8.99,6.957a11.4,11.4,0,0,1,.486,1.839c.328,2.658.752,10.133.867,14.567a7.58,7.58,0,0,1-3.375,1.761c-2.673-5.444-4.058-18.6-4.048-19.855.017-2.046,12.653-16.867,12.653-16.867" transform="translate(-1098.466 -727.958)" fill="#f36b80"/>
        <path id="Path_2338" data-name="Path 2338" d="M1522.213,913.578a37.179,37.179,0,0,0-3.72,4.846,14.649,14.649,0,0,0-2.141-2.336,27.493,27.493,0,0,0,3.6-4.309c.672-1.6,1.09-1.764,1.09-1.764s4.963,3.165,5.205,3.782-2.805-1.007-4.031-.22" transform="translate(-1365.44 -819.448)" fill="#ffb3c5"/>
        <path id="Path_2339" data-name="Path 2339" d="M1550.051,904.51c-.417-.1.462-1.96.656-2.391.218-.485.534-.571.608-.573a45.553,45.553,0,0,1,6.561,4.509,1.319,1.319,0,0,1,.156.3c.32,1.208-4.648.253-5.255-.384a4.116,4.116,0,0,0-2.726-1.461" transform="translate(-1395.685 -811.821)" fill="#5c407b"/>
        <path id="Path_2340" data-name="Path 2340" d="M1330.023,801.1l6.869-2.833c-.028.012.039.291.044.313.621,2.617,2.027,1.411,3.4,5.959.972,3.213.62,14.76.62,14.76s5.948-3.669,9.308-6.166c.306-.228,2.182,2.765,2.182,2.765-4.569,7.68-13.967,11.336-14.864,10.983-3.063-1.205-5.683-22-5.675-21.995-.592-1.232-1.886-3.786-1.886-3.786" transform="translate(-1197.655 -718.825)" fill="#f36b80"/>
        <path id="Path_2341" data-name="Path 2341" d="M1441.661,583.114s8.421-1.7,10.3-1.96,8.411-2.368,8.662-2.459,1.268-3.5,1.626-3.245-.608,1.717-.156,1.934,4.4-1.4,4.416-1.074c.034.616-2.377,1.088-2.309,1.374s2.468-.733,2.746-.3-2.363.744-2.417.98,2.527.054,2.373.554c-.084.272-2.3.1-2.215.429s1.766.724,1.64,1.027-1.368-.529-2.248-.341-1.616-.147-2.923.574-5.616,3.821-8.634,4.356-9.684,1.736-9.684,1.736Z" transform="translate(-1298.182 -518.167)" fill="#ffb3c5"/>
        <path id="Path_2342" data-name="Path 2342" d="M1236.531,407.014c-.523-1.772-.945-3.313-.974-3.435-.062-.26,2.235-2.983,1.821-3.14s-1.1,1.45-1.531,1.191-1.239-4.447-1.524-4.281c-.534.31.394,2.584.118,2.684s-.74-2.466-1.258-2.459.674,2.384.506,2.559-1.431-2.084-1.765-1.68c-.181.219,1.174,1.981.856,2.088s-1.574-1.079-1.758-.808,1.193.854,1.518,1.692,1.009,1.271,1.124,2.759c.046.6.036,1.813.087,3.235a13.981,13.981,0,0,0,2.78-.4" transform="translate(-1108.491 -357.8)" fill="#ffb3c5"/>
        <path id="Path_2343" data-name="Path 2343" d="M1254.049,1169.68c.207-.391,1.63,1.131,1.971,1.447a.887.887,0,0,1,.354.771c-.051.2-4.713,4.849-5.979,5.409a.654.654,0,0,1-.419-.013c-.622-.35.961-4.452,1.923-5.176a5.391,5.391,0,0,0,2.151-2.438" transform="translate(-1125.447 -1053.213)" fill="#5c407b"/>
        <path id="Path_2344" data-name="Path 2344" d="M1204.167,474.286c.261,2.138.521,4.277.812,6.411a20.488,20.488,0,0,0,2.721,6.982c.326.591,3.159,4.637,2.86,5.187a5.392,5.392,0,0,0-.665,2.861c1.492,7.929-1.418,14.221-5.715,20.638a26.5,26.5,0,0,0-3.062,5.7,22.555,22.555,0,0,0-.864,6.075c-.24,2.961-.454,5.925-.679,8.887,0,0,6.566,2.467,9.842-.044s8.26.58,10.958,1.058,9.3-3.094,10.587-6.522c1.267-3.384.315-10.8.291-10.992.044.34-5.671,2.141-6.271,1.04-.4-.733.235-3.13.241-4.017a34.335,34.335,0,0,0-.277-4.577c-.4-3.157-1.584-6.02-2.3-9.061-.475-2.03-1.666-4.842-1.06-6.935.334-1.153,9.443-2.432,13.734-3.55a22.313,22.313,0,0,0,7.551-3.765l-1.515-3.616a68.081,68.081,0,0,1-9.861,2.543c-3.35.371-10.648,2.55-15.325,1.167s-7.086-10.222-7.086-10.222l-1.414-6.541-3.506,1.293" transform="translate(-1080.188 -425.919)" fill="#5c407b"/>
        <path id="Path_2345" data-name="Path 2345" d="M1362.074,605.37a18.809,18.809,0,0,0-.374,3.269c.079.926-.363,3.906-2.238,3.9s-.325-3.8-.14-4.7a36.306,36.306,0,0,0,.249-3.713Z" transform="translate(-1223.338 -544.001)" fill="#ffb3c5"/>
        <path id="Path_2346" data-name="Path 2346" d="M1361.51,657.947a2.388,2.388,0,0,1-1.338.206,1.719,1.719,0,0,1-1.294-1.142c-.385,1.4-.687,3.146.584,3.15,1.157,0,1.768-1.129,2.048-2.215" transform="translate(-1223.338 -591.623)" fill="#f2f2f2"/>
        <path id="Path_2347" data-name="Path 2347" d="M1368.347,605.533c.036-.768.05-1.408.05-1.408l2.5,1.245s-.093.479-.187,1.09a2.151,2.151,0,0,1-2.367-.926" transform="translate(-1232.165 -544.001)" fill="#ea94ad"/>
        <path id="Path_2348" data-name="Path 2348" d="M1363.434,548.736a3.22,3.22,0,0,1,1.308,1.79c.344,1.22-.085,4.358-2.594,5.095s-3.572-1.759-3.041-3.7,1.673-4.393,4.327-3.186" transform="translate(-1223.724 -493.835)" fill="#ffb3c5"/>
        <path id="Path_2349" data-name="Path 2349" d="M1357.178,567.023c.045.523.317.924.608.9s.491-.473.447-1-.317-.924-.609-.9-.491.473-.447,1" transform="translate(-1222.101 -509.693)" fill="#ffb3c5"/>
        <path id="Path_2350" data-name="Path 2350" d="M1400.852,550.021s.425,3.508,1.5,4.149.612,2.192.612,2.192,1.013-3.6.166-4.767a4.739,4.739,0,0,0-2.281-1.573" transform="translate(-1261.435 -495.281)" fill="#f36b80"/>
        <path id="Path_2351" data-name="Path 2351" d="M1407.424,591.952c-.3.454-.3.992-.008,1.2s.773.012,1.071-.442.3-.993.008-1.2-.773-.012-1.071.442" transform="translate(-1267.15 -532.566)" fill="#ffb3c5"/>
        <path id="Path_2352" data-name="Path 2352" d="M505.975,449.714s-1.737-2.367-1.425-3.037a3.1,3.1,0,0,0-.089-1.831l-1.292-.8-2.545,2.442v.056a17.325,17.325,0,0,0,1.814,2.279l.406.092,1.661,2.262Z" transform="translate(-450.8 -399.85)" fill="#ffb3c5"/>
        <path id="Path_2353" data-name="Path 2353" d="M662.265,331.467l-5.7,5.833c-.219.224-.2.476.046.563l6.909,2.453a.891.891,0,0,0,.839-.248l5.7-5.833c.219-.224.2-.476-.046-.563l-6.909-2.453a.892.892,0,0,0-.839.249" transform="translate(-591.085 -298.228)" fill="#5c407b"/>
        <path id="Path_2354" data-name="Path 2354" d="M800.729,324.162l-4.3-7.477a.584.584,0,0,1,.213-.8l7.6-4.4a.58.58,0,0,1,.794.213l4.3,7.477a.584.584,0,0,1-.213.8l-7.6,4.4a.58.58,0,0,1-.794-.213" transform="translate(-717.091 -280.418)" fill="#5c407b"/>
        <path id="Path_2355" data-name="Path 2355" d="M827.481,353.815a9.866,9.866,0,0,1-.214-3.575,4.593,4.593,0,0,1,1.079-2.051,5.227,5.227,0,0,1,2.5-1.142c2.1-.316,5.081,1.229,5.12,3.759l-.943,1.008Z" transform="translate(-744.837 -312.472)" fill="#472a6a"/>
        <path id="Path_2356" data-name="Path 2356" d="M598.266,370.637c-.871,1.069-7.368,1.734-9.292,2.6-4.635,2.081-2.05,10.047.961,10.536,1.019.165,3.654-.6,4.168-.308a4.982,4.982,0,0,0,5.576-.276c2.031-1.425,1.023-2.587,1.679-3.772s2.134.263,2.93-2.295c.861-2.767.882-5.7.1-7.3-1.3-2.635-3.5-2.882-4.684-2.368-.354.153-1.248,2.948-1.438,3.181" transform="translate(-528.078 -330.689)" fill="#8b5dd0"/>
        <path id="Path_2357" data-name="Path 2357" d="M718.939,465.227l-3.394.075-5.121-.368-3.675-.255-1.11,2.967,11.05,5.146Z" transform="translate(-635.411 -418.433)" fill="#472a6a"/>
        <path id="Path_2358" data-name="Path 2358" d="M912.718,490.775s.559-.87.172-1.385a.711.711,0,0,1,.307.606,1.37,1.37,0,0,1-.479.78" transform="translate(-821.881 -440.685)" fill="#f47458"/>
        <path id="Path_2359" data-name="Path 2359" d="M729.012,479.256l9.731,3.825,4.783,1.641L742.5,479.16c-7.258-.4-10.249-4.682-11.861-4.919-2-.3-1.625,5.015-1.625,5.015" transform="translate(-656.433 -427.032)" fill="#5c407b"/>
        <path id="Path_2360" data-name="Path 2360" d="M490.952,970.635a24.237,24.237,0,0,1-2.9,3.034c-.086.068-.629.187-.719.256a7.247,7.247,0,0,0,.661,6.215,19.4,19.4,0,0,1,.794-3.268,25.7,25.7,0,0,1,3.851-3.351c-1.065-.776-1.117-1.681-1.684-2.886" transform="translate(-438.426 -874.034)" fill="#ffb3c5"/>
        <path id="Path_2361" data-name="Path 2361" d="M475.565,1001.445a5.475,5.475,0,0,0-2.471.506c-.008.206.22,7.426,1.249,8.169.619.447.843-.649,1.233-2.239-.867-1.724-.546-6.269-.011-6.436" transform="translate(-426.01 -901.776)" fill="#f36b80"/>
        <path id="Path_2362" data-name="Path 2362" d="M681.846,1014.533c-.131,1.724-.465,5.563-.544,5.926a1.765,1.765,0,0,0,.134.623c2.094,1.132,4.221.564,5.955-.147-1.185-.389-2.758-.89-2.994-1.041a1.4,1.4,0,0,1-.458-1.3c.143-1.411.612-2.868.295-4.43-.861.982-1.179-.085-2.386.374" transform="translate(-613.493 -913.227)" fill="#ffb3c5"/>
        <path id="Path_2363" data-name="Path 2363" d="M680.367,1077.136a7.606,7.606,0,0,0,0,2.666c.194.025,7.125-.036,8.052-.769.59-.466-.512-.878-1.968-1.389-1.733.711-5.99.029-6.084-.509" transform="translate(-612.554 -969.936)" fill="#f36b80"/>
        <path id="Path_2364" data-name="Path 2364" d="M654.768,456.053a9.331,9.331,0,0,0-7.546-.318,2.961,2.961,0,0,0-.98,1.463,5.967,5.967,0,0,0,.757,1.7l6.854-.33Z" transform="translate(-581.926 -409.776)" fill="#472a6a"/>
        <path id="Path_2365" data-name="Path 2365" d="M1065.292,217.1l.413.01a.386.386,0,0,0,.4-.376l.214-8.6a.386.386,0,0,0-.376-.4l-.413-.01a.386.386,0,0,0-.4.376l-.214,8.6a.386.386,0,0,0,.376.4" transform="translate(-958.932 -187.049)" fill="#472a6a"/>
        <path id="Path_2366" data-name="Path 2366" d="M1059.3,244.845c-.017-.777.732-5.1.692-5.406s-1.083-2.442-1.171-2.645-.48-.425-.657-.117c-.1.169.148.766.389,1.272-.246-.416-.873-1.192-1.139-1.157-.514.069.059,1.446.45,2s-.409,2.815-.409,2.815-.5.4-.654.026.242-1.44-.239-1.149a2.266,2.266,0,0,0-.669,2.014c.227.332,1.136,2.518,1.22,2.721h0l-.7,2.146a27.012,27.012,0,0,0,2.658,1.089c.185-1.924.23-3.608.23-3.608" transform="translate(-950.749 -212.985)" fill="#ffb3c5"/>
        <path id="Path_2367" data-name="Path 2367" d="M767.633,1003.065a22.571,22.571,0,0,1-2.042,2.283c-.407.25.182,3.2,1.291,3.4.625.109.973-.581.973-.581l-.179-.85,2.336-2.413Z" transform="translate(-689.28 -903.237)" fill="#ffb3c5"/>
        <path id="Path_2368" data-name="Path 2368" d="M848.5,1003.767a22.59,22.59,0,0,1-1.735,2.526c-.372.3.589,3.154,1.713,3.2.634.028.891-.7.891-.7l-.286-.82,2.009-2.693Z" transform="translate(-762.418 -903.869)" fill="#ffb3c5"/>
        <path id="Path_2369" data-name="Path 2369" d="M824.611,1028.266a17.273,17.273,0,0,0,1.21,1.4,14.406,14.406,0,0,0,1.257,1.017s.8,1.455,1.018,1.963a8.481,8.481,0,0,1,.954,3.023c-.025.2-.481.418-.86.3-1.579-.487-5.617-4.191-6.127-5.185-.588-1.147,2.547-2.519,2.547-2.519" transform="translate(-740.183 -925.93)" fill="#5c407b"/>
        <path id="Path_2370" data-name="Path 2370" d="M866.726,677.281c-.147-.412-.288-.792-.423-1.151-1.68.368-3.577.772-5.529,1.189l-.238,7.173c0-.554,1.467,11.441,1.467,11.441s-3.45,8.334-6.044,13.241a7.631,7.631,0,0,0,2.887,2.429c4.026-4.84,9.171-13.371,9.39-14.844.126-.847.239-14.54-1.512-19.479" transform="translate(-770.772 -608.84)" fill="#f36b80"/>
        <path id="Path_2371" data-name="Path 2371" d="M775.829,703.129c.513,5.589,1.654,16.275,1.559,17.134-.286,1.071-5.155,10.959-6.068,12.4a5.735,5.735,0,0,0,3,2.454c.238.065,8.462-11.735,8.919-12.684.516-1.072,1.376-6.923,1.392-14.166l.238-7.173c-3.252.7-6.242,1.377-9.04,2.036" transform="translate(-694.556 -631.318)" fill="#f36b80"/>
        <path id="Path_2372" data-name="Path 2372" d="M894.934,348.621s8.849-4.437,9.676-5.43c.563-.675,4.844-13.248,4.844-13.248.072-.831-3.407-1.138-3.514-.974-.407.627-4.831,10.64-4.831,10.64l-10.079,2.9-2.358.7Z" transform="translate(-800.228 -296.192)" fill="#472a6a"/>
        <path id="Path_2373" data-name="Path 2373" d="M741.563,1025.236a17.269,17.269,0,0,0,1.022,1.543,14.416,14.416,0,0,0,1.117,1.17s.608,1.546.76,2.078a9,9,0,0,1,.562,3.229c-.051.2-.486.577-.845.343-1.385-.9-5.085-5.139-5.464-6.191-.437-1.213,2.847-2.171,2.847-2.171" transform="translate(-665.16 -923.201)" fill="#5c407b"/>
        <path id="Path_2374" data-name="Path 2374" d="M670.551,662.251l2.391.023s-.636,4.377-.629,5.817,1.988,13.435,1.85,14.992-4.065,17.912-4.065,17.912l-3.234-.094s.531-10.507,1.105-12.583S669,684.35,669,684.35l-3.535-12.457Z" transform="translate(-599.239 -596.342)" fill="#e1dde7"/>
        <path id="Path_2375" data-name="Path 2375" d="M538.077,640s-4.033,21.9-5.108,22.683-15.475,12.3-15.475,12.3l-1.771-2.735s6.124-11.911,11.526-12.335c0,0-.339-14.325.657-16.633s4.267-5.3,4.267-5.3l5.906,1.064Z" transform="translate(-464.397 -574.496)" fill="#e1dde7"/>
        <path id="Path_2376" data-name="Path 2376" d="M960.973,242.352l.075,1.578-2.519.4-.175,2.321-1.836.609.307.932,2.456-.815.166-2.2,2.62-.417-.112-2.375Z" transform="translate(-861.322 -218.233)" fill="#31dae7"/>
        <path id="Path_2377" data-name="Path 2377" d="M964.753,170.758l-1.567.16-.535-2.5-2.32-.05-.705-1.806-.912.358.943,2.415,2.2.047.556,2.6,2.359-.24Z" transform="translate(-863.299 -149.984)" fill="#31dae7"/>
        <path id="Path_2378" data-name="Path 2378" d="M757.323,461.8c-1.092,8.605-1.043,16.257-1.429,24.919-.181,4.072-.118,10.192-1.117,14.127-.566,2.23-2.786,4.28-4.332,5.927,0,0,2.025.948,2.152.993a16.054,16.054,0,0,0,6.129.879c2.747-.129,5.41-.762,8.184-.908,3.076-.163,5.682,1.57,8.674.861.937-.222,3.148-8.242,1.8-15.978-2.089-11.99-7.43-26.915-7.43-26.915l-1.819-5.042Z" transform="translate(-675.759 -414.813)" fill="#472a6a"/>
        <path id="Path_2379" data-name="Path 2379" d="M820.853,353.631a1.43,1.43,0,0,0-2.352.575,1.063,1.063,0,0,0-1.353.519s-1.531-.278-1.639,1.983c0,0-.778-.057-.776.862a2.264,2.264,0,0,0,.531,1.473,1.1,1.1,0,0,0-.1,1.183,1.037,1.037,0,0,0,.844.732s.294,1.178.852,1.48a1.693,1.693,0,0,0,1.243.048.8.8,0,0,0,.858.5c.6-.127,1.279-.788,1.984-.606a7.244,7.244,0,0,0,2.428-.292,2.474,2.474,0,0,0,1.051-3.055,1.488,1.488,0,0,0-.1-2.076,2.59,2.59,0,0,0-.964-2.723,3.426,3.426,0,0,0-2.5-.605" transform="translate(-733.648 -318.062)" fill="#f36b80"/>
        <path id="Path_2380" data-name="Path 2380" d="M857.471,430.356l.442,1.754s.677,2.957-.476,3.014c-.854.042-2.986-3.23-2.986-3.23l.091-4.044Z" transform="translate(-769.412 -385.268)" fill="#ffb3c5"/>
        <path id="Path_2381" data-name="Path 2381" d="M855.459,429.319a5.14,5.14,0,0,0,3.215,2.523l-.374-1.487-2.93-2.507Z" transform="translate(-770.241 -385.267)" fill="#ea94ad"/>
        <path id="Path_2382" data-name="Path 2382" d="M814.874,389.043c.078.687.531,1.2,1.012,1.145s.807-.657.729-1.344-.531-1.2-1.012-1.145-.807.657-.729,1.344" transform="translate(-733.764 -349.111)" fill="#f36b80"/>
        <path id="Path_2383" data-name="Path 2383" d="M838.144,363.708c.045.4.555.661,1.14.594s1.023-.441.978-.836-.555-.661-1.141-.594-1.023.441-.978.836" transform="translate(-754.727 -326.749)" fill="#f36b80"/>
        <path id="Path_2384" data-name="Path 2384" d="M848.605,376.295a2.387,2.387,0,0,1,3.322,1.542,18.183,18.183,0,0,1,.452,2.263c.274,2.076-.57,4.223-1.513,4.33a4.477,4.477,0,0,1-4.128-3.884,3.966,3.966,0,0,1,1.867-4.251" transform="translate(-762.419 -338.637)" fill="#ffb3c5"/>
        <path id="Path_2385" data-name="Path 2385" d="M842.149,415.8a.7.7,0,1,1-.772-.754.772.772,0,0,1,.772.754" transform="translate(-757.109 -373.733)" fill="#ffb3c5"/>
        <path id="Path_2386" data-name="Path 2386" d="M878.968,359.155c1.061.662,1.535,1.8,1.059,2.536s-1.721.8-2.782.139-1.535-1.8-1.059-2.536,1.721-.8,2.782-.139" transform="translate(-788.819 -322.998)" fill="#f36b80"/>
        <path id="Path_2387" data-name="Path 2387" d="M864.6,367.937c.038.336-.336.654-.834.711s-.934-.169-.972-.505.336-.654.834-.711.934.169.972.505" transform="translate(-776.922 -330.856)" fill="#f36b80"/>
        <path id="Path_2388" data-name="Path 2388" d="M896.928,389.154a.776.776,0,1,1-.86-.694.782.782,0,0,1,.86.694" transform="translate(-806.269 -349.795)" fill="#f36b80"/>
        <path id="Path_2389" data-name="Path 2389" d="M863.167,479.651c.691.923,1.622,2.022,2.119,2,.737-.036.727-1.256.623-2.132-.554.835-1.892.477-2.742.135" transform="translate(-777.262 -431.793)" fill="#fff"/>
        <path id="Path_2390" data-name="Path 2390" d="M823.059,298.275a3.629,3.629,0,0,1-1-.142,2.308,2.308,0,0,1-1.479-1.08,2.412,2.412,0,0,1-.164-1.706.137.137,0,1,1,.262.081,2.169,2.169,0,0,0,.145,1.5,2.047,2.047,0,0,0,1.312.945,4.2,4.2,0,0,0,3.76-1.061.137.137,0,0,1,.193.2,4.7,4.7,0,0,1-3.023,1.271" transform="translate(-738.683 -265.865)" fill="#f36b80"/>
        <path id="Path_2391" data-name="Path 2391" d="M820.258,265.743l-.324.914a.556.556,0,0,0-.506.193.488.488,0,1,0,.727.64.564.564,0,0,0,.132-.5l.875-.448,1.449-.742-1.807-1.59Z" transform="translate(-737.743 -237.912)" fill="#f36b80"/>
        <path id="Path_2392" data-name="Path 2392" d="M674.94,333.663a3.638,3.638,0,0,1-.757.677,2.3,2.3,0,0,1-1.778.434A2.4,2.4,0,0,1,671,333.8a.137.137,0,1,1,.231-.149,2.158,2.158,0,0,0,1.233.856,2.043,2.043,0,0,0,1.566-.394,4.225,4.225,0,0,0,1.621-3.563.137.137,0,1,1,.274-.021,4.733,4.733,0,0,1-.984,3.135" transform="translate(-604.2 -297.519)" fill="#f36b80"/>
        <path id="Path_2393" data-name="Path 2393" d="M656.285,331.794l.486.838a.559.559,0,0,0-.18.512.487.487,0,1,0,.957-.143.563.563,0,0,0-.3-.427l.224-.959.371-1.588-2.378.356Z" transform="translate(-590.233 -297.183)" fill="#f36b80"/>
        <path id="Path_2394" data-name="Path 2394" d="M508.883,465.348l-2.851,2.322s6.112,8.786,7.164,8.69,7.331-5.523,7.336-5.528c-.23.2-.191,1.739-.234,2.038-.812,5.7-1.291,5.789-4.177,12.463-2.408,5.569-.284,10.594-4.105,15.856-1.9,2.616-4.951,4.325-7.619,6.051,0,0,3.252,4.987,8.034,4.987s7.269-.384,10.234.959,7.691.426,9.221-.437c1.207-.681,2.129-1.982,3.3-2.728-1.631-5.059-2.534-9.847-3.718-15.028-1.1-4.831-2.958-10.145-1.407-15.021,1.473-4.63,3.267-10.77-.282-15.092a19.647,19.647,0,0,0-5.7-1.6c-3.945-.647-10.4,7.192-10.4,7.192Z" transform="translate(-454.198 -417.135)" fill="#5c407b"/>
        <path id="Path_2395" data-name="Path 2395" d="M647.258,469.265c.085-.078-.156-.447-.2-.649.3.637.58,1.38.765,1.223a6.287,6.287,0,0,0-.126-1.183c.134.3.317,1.131.615.986.179-.087-.008-1.05-.129-1.6.1.333.38,1.393.483,1.306.223-.188-.273-2.552,0-2.917.108-.143-.224-.424-.664-.561a1.451,1.451,0,0,0-.835-.031,2.411,2.411,0,0,0-.95.4,1.036,1.036,0,0,0-.338.332,1.292,1.292,0,0,0-.042,1.3c.312.6,1.177,1.62,1.414,1.4" transform="translate(-581.429 -419.432)" fill="#ffb3c5"/>
        <path id="Path_2396" data-name="Path 2396" d="M657.725,466.567a2.829,2.829,0,0,0-.245-.635,2.474,2.474,0,0,0-2.3-.258c-.741.468,1.638.761,1.638.761a1.347,1.347,0,0,1,.448.378c.143.222-.024.683.191.773s.4-.521.269-1.019" transform="translate(-589.844 -419.157)" fill="#ffb3c5"/>
        <path id="Path_2397" data-name="Path 2397" d="M901.38,458.183c-.085-.077.157-.447.2-.649-.3.637-.58,1.38-.765,1.223a6.293,6.293,0,0,1,.126-1.183c-.134.3-.317,1.131-.615.986-.179-.087.008-1.05.129-1.6-.1.332-.38,1.393-.483,1.306-.223-.188.272-2.552,0-2.917-.108-.143.224-.424.664-.561a1.449,1.449,0,0,1,.835-.031,2.41,2.41,0,0,1,.95.4,1.035,1.035,0,0,1,.338.331,1.292,1.292,0,0,1,.042,1.3c-.312.6-1.177,1.62-1.414,1.4" transform="translate(-810.348 -409.453)" fill="#ffb3c5"/>
        <path id="Path_2398" data-name="Path 2398" d="M893.668,455.485a2.835,2.835,0,0,1,.245-.635,2.474,2.474,0,0,1,2.3-.258c.741.468-1.638.761-1.638.761a1.346,1.346,0,0,0-.448.378c-.143.222.024.683-.191.773s-.4-.521-.269-1.019" transform="translate(-804.688 -409.178)" fill="#ffb3c5"/>
        <path id="Path_2399" data-name="Path 2399" d="M718.261,437.541a18.452,18.452,0,0,1-.65,3.2c-.361.845.288,4.09,2.073,4.72s.333-3.753.437-4.668a35.4,35.4,0,0,1,.906-3.578Z" transform="translate(-646.105 -393.705)" fill="#ffb3c5"/>
        <path id="Path_2400" data-name="Path 2400" d="M719.972,487.807c1.365.481.838-1.966.56-3.555l-.005.015c-.6,1.636-1.824.843-2.692-.027.152,1.294.848,3.112,2.138,3.567" transform="translate(-646.393 -436.047)" fill="#fff"/>
        <path id="Path_2401" data-name="Path 2401" d="M725.968,438.561c.2-.735.386-1.342.386-1.342l-2.766.323s-.059.482-.158,1.089a2.141,2.141,0,0,0,2.538-.069" transform="translate(-651.432 -393.706)" fill="#ea94ad"/>
        <path id="Path_2402" data-name="Path 2402" d="M762.58,404.62c-.2.477-.586.762-.855.638s-.322-.612-.118-1.089.586-.762.855-.638.322.612.118,1.089" transform="translate(-685.697 -363.344)" fill="#ffb3c5"/>
        <path id="Path_2403" data-name="Path 2403" d="M713.794,375.857A3.087,3.087,0,0,0,712,377.1c-.7,1.032-1.261,4.13.9,5.674s3.941-.445,4.033-2.451-.24-4.7-3.136-4.464" transform="translate(-640.572 -338.437)" fill="#ffb3c5"/>
        <path id="Path_2404" data-name="Path 2404" d="M704.7,409.286c.144.528-.019,1.036-.363,1.134s-.739-.25-.883-.778.019-1.036.363-1.134.739.25.883.778" transform="translate(-633.396 -367.836)" fill="#ffb3c5"/>
        <path id="Path_2405" data-name="Path 2405" d="M699.459,366.3s4.723-1.9,6.253-.945l-.526-2.4c-.236-1.075-2.646-.582-3.351-.474-.86.132-2.469.521-2.818,1.433-.239.623.442,2.386.442,2.386" transform="translate(-629.403 -326.22)" fill="#472a6a"/>
        <path id="Path_2406" data-name="Path 2406" d="M472.16,377.653l-.614,1.562c-.855,4.39-2.385,6.816-6.251,10.17l-.294.332s.93,2.911,3.748,2.068a51.367,51.367,0,0,1,6.851-10.525l1.026-1.081Z" transform="translate(-418.723 -340.068)" fill="#31dae7"/>
        <path id="Path_2407" data-name="Path 2407" d="M541.3,379.475c-.148.233-1.265-.145-2.494-.844s-2.117-1.455-1.969-1.688,1.276.145,2.505.844,2.105,1.455,1.957,1.688" transform="translate(-483.397 -339.367)" fill="#f2f2f2"/>
        <path id="Path_2408" data-name="Path 2408" d="M548.923,384.651l0-.005s-2.8-1.246-3.361-2.032l-.272.45a11.615,11.615,0,0,0,1.142.735c1.215.691,2.32,1.068,2.488.852" transform="translate(-491.023 -344.535)" fill="#f2f2f2"/>
        <path id="Path_2409" data-name="Path 2409" d="M523.849,449.315s-.356.246-.167.57.924.469.924.469a1.433,1.433,0,0,0-.2,1.161c.2.592.857-1.284.857-1.284l-.022-.491Z" transform="translate(-471.513 -404.598)" fill="#ffb3c5"/>
        <path id="Path_2410" data-name="Path 2410" d="M508.06,448.077q.326-.553.666-1.1a26.4,26.4,0,0,0-1.559-2.82c-.2.358-.424.708-.665,1.053.453.776,1.089,1.911,1.558,2.862" transform="translate(-456.093 -399.957)" fill="#f36b80"/>
        <path id="Path_2411" data-name="Path 2411" d="M499.009,443.517a1.948,1.948,0,0,0-.626.088c-.146.088.044.365-.146.511s-.568.1-.539.38a1.1,1.1,0,0,1-.27.73c-.146.2.648,1.4,1.012,1.446s-.342-1.49-.27-1.461.619,1.022.838.935-.342-1.65-.342-1.65.546.964.765.833-.422-1.811-.422-1.811" transform="translate(-447.907 -399.377)" fill="#ffb3c5"/>
        <path id="Path_2412" data-name="Path 2412" d="M1331.674,379.31a3.669,3.669,0,0,1-.831-.594,2.31,2.31,0,0,1-.815-1.646,2.4,2.4,0,0,1,.65-1.588.139.139,0,0,1,.2,0,.137.137,0,0,1,0,.195,2.158,2.158,0,0,0-.57,1.393,2.049,2.049,0,0,0,.73,1.448,4.26,4.26,0,0,0,3.851.813.138.138,0,1,1,.08.263,4.773,4.773,0,0,1-3.292-.283" transform="translate(-1197.659 -338.077)" fill="#f36b80"/>
        <path id="Path_2413" data-name="Path 2413" d="M1336.674,354.847l-.716.658a.564.564,0,0,0-.542-.065.489.489,0,1,0,.35.905.564.564,0,0,0,.353-.385l.99.011,1.64.018-.87-2.25Z" transform="translate(-1202.181 -318.535)" fill="#f36b80"/>
        <path id="Path_2414" data-name="Path 2414" d="M1397.253,428.005c.357.285.977,1.2,1.769,1.844.463.376.82.281,1.411.352,2.805.339,2.045.912,2.381.969-.1.22-.969,2.077-1.133,2.453a.684.684,0,0,1-.788.449c-.58-.08-1.165-.14-1.737-.264a7.164,7.164,0,0,1-3.328-1.939.686.686,0,0,1-.2-.864,23.831,23.831,0,0,1,1.626-3" transform="translate(-1256.663 -385.409)" fill="#5c407b"/>
        <path id="Path_2415" data-name="Path 2415" d="M1387.214,418.026q-2.413-2.014-4.826-4.028a3.369,3.369,0,0,0-1.814-.78c-.52-.061-5.643-.7-6.165-.763a.512.512,0,0,0-.5.144.452.452,0,0,0,.074.668q2.451,2.054,4.9,4.106a3.079,3.079,0,0,0,1.63.709l6.352.774a.432.432,0,0,0,.552-.272c.078-.2.018-.374-.2-.558" transform="translate(-1237.066 -371.397)" fill="#472a6a"/>
        <path id="Path_2416" data-name="Path 2416" d="M1558.055,268.2l1.144-.373.8,1.774,1.74-.34.819,1.229.622-.415-1.1-1.644-1.649.322-.836-1.845-1.721.562Z" transform="translate(-1402.837 -240.342)" fill="#31dae7"/>
        <path id="Path_2417" data-name="Path 2417" d="M1717.982,954.313l1.144-.373.8,1.774,1.74-.34.819,1.229.622-.414-1.1-1.644-1.649.322-.837-1.845-1.721.562Z" transform="translate(-1546.847 -858.174)" fill="#31dae7"/>
        <path id="Path_2418" data-name="Path 2418" d="M846.1,5.145A4.29,4.29,0,1,1,842.743.088,4.29,4.29,0,0,1,846.1,5.145" transform="translate(-754.241 4.998)" fill="#e4c4ff"/>
        <path id="Path_2419" data-name="Path 2419" d="M856.357,45.244a2.294,2.294,0,1,0,4.5.91Z" transform="translate(-771.088 -35.741)" fill="#efefef"/>
        <path id="Path_2420" data-name="Path 2420" d="M244.482,533.724a1.468,1.468,0,0,0-1.146-.7c-2.336,0-2.862,6.882-2.862,9.293a22.438,22.438,0,0,0,.882,6.839c.531,1.588,1.24,2.462,2,2.462.8,0,1.537-1,2.066-2.83,1.351-4.657.852-12.681-.937-15.064m.471,15.01c-.451,1.509-1.055,2.409-1.617,2.409s-1.166-.9-1.617-2.409a26.811,26.811,0,0,1,0-12.836c.451-1.509,1.055-2.409,1.617-2.409s1.166.9,1.617,2.409a26.808,26.808,0,0,1,0,12.836" transform="translate(-216.541 -479.976)" fill="#f36b80"/>
        <path id="Path_2421" data-name="Path 2421" d="M201.251,582.433c-1.868-3.1-10.5-7.713-14.436-7.713-.907,0-1.5.249-1.757.74a1.7,1.7,0,0,0,.242,1.7c1.873,3.108,10.5,7.735,14.415,7.735.915,0,1.512-.253,1.776-.753a1.708,1.708,0,0,0-.24-1.708m-.12,1.412c-.141.349-.626.533-1.4.533h0c-2.723,0-8.919-2.319-12.824-6.093-1.489-1.439-1.629-2.168-1.485-2.525s.624-.531,1.4-.531a16.88,16.88,0,0,1,6.059,1.676,24.132,24.132,0,0,1,6.768,4.412c1.491,1.441,1.631,2.17,1.486,2.529" transform="translate(-166.517 -517.522)" fill="#f36b80"/>
        <path id="Path_2422" data-name="Path 2422" d="M200.741,574.332a1.822,1.822,0,0,0-1.753-.752c-1.783,0-4.817,1.065-7.916,2.779s-5.562,3.687-6.434,5.151a1.678,1.678,0,0,0-.237,1.678,1.8,1.8,0,0,0,1.733.734c3.892,0,12.487-4.708,14.371-7.872a1.713,1.713,0,0,0,.235-1.719m-4.356,4.9a25.708,25.708,0,0,1-8.609,3.985,7.951,7.951,0,0,1-1.649.207h0c-.7,0-1.152-.159-1.316-.461a1.244,1.244,0,0,1,.213-1.206c.794-1.333,3.153-3.247,6.011-4.874,3.071-1.749,6.055-2.794,7.981-2.794.885,0,1.358.232,1.407.69.1.923-1.486,2.671-4.039,4.452" transform="translate(-165.927 -516.496)" fill="#f36b80"/>
        <path id="Path_2423" data-name="Path 2423" d="M257.348,610.135a1.487,1.487,0,1,1-1.487-1.487,1.487,1.487,0,0,1,1.487,1.487" transform="translate(-229.058 -548.074)" fill="#f36b80"/>
        <path id="Path_2424" data-name="Path 2424" d="M244.775,543.452a1.115,1.115,0,1,1-1.115-1.115,1.115,1.115,0,0,1,1.115,1.115" transform="translate(-218.405 -488.362)" fill="#f36b80"/>
        <path id="Path_2425" data-name="Path 2425" d="M282.7,678.067a.93.93,0,1,1-.93-.929.93.93,0,0,1,.93.929" transform="translate(-252.886 -609.747)" fill="#f36b80"/>
        <path id="Path_2426" data-name="Path 2426" d="M191.541,632.956a.96.96,0,1,1-.96-.961.96.96,0,0,1,.96.961" transform="translate(-170.748 -569.098)" fill="#f36b80"/>
        <path id="Path_2427" data-name="Path 2427" d="M337.519,591.382a.79.79,0,1,1-.79-.79.79.79,0,0,1,.79.79" transform="translate(-302.505 -531.815)" fill="#f36b80"/>
        <path id="Path_2428" data-name="Path 2428" d="M219.951,574.744a.79.79,0,1,1-.79-.79.79.79,0,0,1,.79.79" transform="translate(-196.638 -516.832)" fill="#f36b80"/>
        <rect id="Rectangle_706" data-name="Rectangle 706" width="3.921" height="0.675" transform="matrix(0.95, -0.311, 0.311, 0.95, 183.017, 75.541)" fill="#e4c4ff"/>
        <rect id="Rectangle_707" data-name="Rectangle 707" width="4.129" height="0.675" transform="translate(178.074 70.539) rotate(-61.716)" fill="#e4c4ff"/>
        <rect id="Rectangle_708" data-name="Rectangle 708" width="0.675" height="4.31" transform="translate(180.88 82.811) rotate(-40.517)" fill="#e4c4ff"/>
        <path id="Path_2429" data-name="Path 2429" d="M1714.6,721.327l-6.782,1.832-5.121-4.256.431-.519,4.852,4.032,6.073-1.641,1.734-6.249-4.48-4.8.493-.461,4.739,5.072Z" transform="translate(-1533.236 -638.682)" fill="#e4c4ff"/>
        <path id="Path_2430" data-name="Path 2430" d="M1690.379,787.992A1.632,1.632,0,1,1,1688.3,787a1.632,1.632,0,0,1,2.082.994" transform="translate(-1519.292 -708.589)" fill="#e4c4ff"/>
        <path id="Path_2431" data-name="Path 2431" d="M1741.96,832.107a1.631,1.631,0,1,1-2.082-.994,1.631,1.631,0,0,1,2.082.994" transform="translate(-1565.74 -748.314)" fill="#e4c4ff"/>
        <path id="Path_2432" data-name="Path 2432" d="M1806.562,812.453a1.631,1.631,0,1,1-2.082-.994,1.632,1.632,0,0,1,2.082.994" transform="translate(-1623.913 -730.615)" fill="#e4c4ff"/>
        <path id="Path_2433" data-name="Path 2433" d="M1839.64,851.72a1.631,1.631,0,1,1-2.082-.994,1.631,1.631,0,0,1,2.082.994" transform="translate(-1653.698 -765.975)" fill="#e4c4ff"/>
        <path id="Path_2434" data-name="Path 2434" d="M1874.832,732.54a1.631,1.631,0,1,1-2.082-.994,1.631,1.631,0,0,1,2.082.994" transform="translate(-1685.388 -658.655)" fill="#e4c4ff"/>
        <path id="Path_2435" data-name="Path 2435" d="M1805.07,652.284a1.631,1.631,0,1,1-2.082-.994,1.632,1.632,0,0,1,2.082.994" transform="translate(-1622.569 -586.387)" fill="#e4c4ff"/>
        <path id="Path_2436" data-name="Path 2436" d="M1827.5,745.084a1.632,1.632,0,1,1-2.082-.994,1.632,1.632,0,0,1,2.082.994" transform="translate(-1642.769 -669.951)" fill="#e4c4ff"/>
        <path id="Path_2437" data-name="Path 2437" d="M1779.032,695.072a1.632,1.632,0,1,1-2.082-.994,1.632,1.632,0,0,1,2.082.994" transform="translate(-1599.122 -624.917)" fill="#e4c4ff"/>
        <path id="Path_2438" data-name="Path 2438" d="M1780.391,573.96l-2.189-.456.465-1.768.653.172-.284,1.081,1.493.311Z" transform="translate(-1601.229 -514.835)" fill="#f36b80"/>
        <path id="Path_2439" data-name="Path 2439" d="M262.5,790.536l-.493,1.367-2.287-.55-.967,1.91-1.779-.132-.067.9,2.379.176.916-1.81,2.379.572.741-2.057Z" transform="translate(-231.339 -711.86)" fill="#31dae7"/>
        <path id="Path_2440" data-name="Path 2440" d="M292.062,402.243l1.2.124.013,1.948,1.728.4.248,1.456.737-.126-.332-1.947-1.637-.376L294,401.692l-1.8-.187Z" transform="translate(-262.995 -361.547)" fill="#31dae7"/>
      </g>
    </g>
  </g>
</svg>
