<svg xmlns="http://www.w3.org/2000/svg"  width="798" height="433" viewBox="0 0 798 433">
  <g id="Group_744" data-name="Group 744" transform="translate(-1054 -399)">
    <g id="Path_2295" data-name="Path 2295" transform="translate(1094 399)" fill="#fff">
      <path d="M 752 432.5 L -34 432.5 C -37.03269958496094 432.5 -39.5 430.03271484375 -39.5 427 L -39.5 6 C -39.5 2.967299938201904 -37.03269958496094 0.5 -34 0.5 L 752 0.5 C 755.03271484375 0.5 757.5 2.967299938201904 757.5 6 L 757.5 427 C 757.5 430.03271484375 755.03271484375 432.5 752 432.5 Z" stroke="none"/>
      <path d="M -34 1 C -36.75701904296875 1 -39 3.243011474609375 -39 6 L -39 427 C -39 429.7569885253906 -36.75701904296875 432 -34 432 L 752 432 C 754.7570190429688 432 757 429.7569885253906 757 427 L 757 6 C 757 3.243011474609375 754.7570190429688 1 752 1 L -34 1 M -34 0 L 752 0 C 755.313720703125 0 758 2.686309814453125 758 6 L 758 427 C 758 430.3136901855469 755.313720703125 433 752 433 L -34 433 C -37.313720703125 433 -40 430.3136901855469 -40 427 L -40 6 C -40 2.686309814453125 -37.313720703125 0 -34 0 Z" stroke="none" fill="#d8d8d8"/>
    </g>
    <text id="_" data-name="          " transform="translate(1081 501)" font-size="16" font-family="Poppins-Medium, Poppins" font-weight="500"><tspan x="0" y="0" xml:space="preserve">          </tspan></text>
    <g id="Group_387" data-name="Group 387" transform="translate(10 20)">
      <text id="UI_UX_Deploma_Course" data-name="UI UX Deploma Course" transform="translate(1071 550)" font-size="16" font-family="Poppins-Medium, Poppins" font-weight="500"><tspan x="0" y="0">UI UX Deploma Course</tspan></text>
      <text id="_2_Months_Training_" data-name="2 Months Training " transform="translate(1071 574)" fill="#848484" font-size="14" font-family="Poppins-Regular, Poppins"><tspan x="0" y="0">2 Months Training </tspan></text>
    </g>
    <g id="Group_388" data-name="Group 388" transform="translate(10 26)">
      <text id="Bussiness_Architcture_Course" data-name="Bussiness Architcture Course" transform="translate(1071 617)" font-size="16" font-family="Poppins-Medium, Poppins" font-weight="500"><tspan x="0" y="0">Bussiness Architcture Course</tspan></text>
      <text id="_6_Hours_Classes" data-name="6 Hours Classes" transform="translate(1071 641)" fill="#848484" font-size="14" font-family="Poppins-Regular, Poppins"><tspan x="0" y="0">6 Hours Classes</tspan></text>
    </g>
    <g id="Group_390" data-name="Group 390" transform="translate(10 44)">
      <text id="Safe5_Advanced_Scrum_Master_Course_" data-name="Safe5 Advanced Scrum Master Course " transform="translate(1071 749)" font-size="16" font-family="Poppins-Medium, Poppins" font-weight="500"><tspan x="0" y="0">Safe5 Advanced Scrum Master Course </tspan></text>
      <text id="_16_Hours_Classes" data-name="16 Hours Classes" transform="translate(1071 773)" fill="#848484" font-size="14" font-family="Poppins-Regular, Poppins"><tspan x="0" y="0">16 Hours Classes</tspan></text>
    </g>
    <path id="Path_1751" data-name="Path 1751" d="M2.791,0A2.9,2.9,0,0,1,5.582,3V66a2.9,2.9,0,0,1-2.791,3A2.9,2.9,0,0,1,0,66V3A2.9,2.9,0,0,1,2.791,0Z" transform="translate(1840.418 575)" fill="#676767"/>
    <line id="Line_18" data-name="Line 18" x2="764" transform="translate(1066.5 539.5)" fill="none" stroke="#9f9f9f" stroke-width="0.5"/>
    <g id="Path_2463" data-name="Path 2463" transform="translate(1094 399)" fill="#414141">
      <path d="M 757.5 60.5 L -39.5 60.5 L -39.5 5.382400035858154 C -39.5 2.690200090408325 -37.03269958496094 0.5 -34 0.5 L 752 0.5 C 755.03271484375 0.5 757.5 2.690200090408325 757.5 5.382400035858154 L 757.5 60.5 Z" stroke="none"/>
      <path d="M -34 1 C -36.75701904296875 1 -39 2.965900421142578 -39 5.382400512695313 L -39 60 L 757 60 L 757 5.382400512695313 C 757 2.965900421142578 754.7570190429688 1 752 1 L -34 1 M -34 0 L 752 0 C 755.313720703125 0 758 2.409801483154297 758 5.382400512695313 L 758 61 C 100.811279296875 61 -40 61 -40 61 L -40 5.382400512695313 C -40 2.409801483154297 -37.313720703125 0 -34 0 Z" stroke="none" fill="#d8d8d8"/>
    </g>
    <text id="Top_Courses" data-name="Top Courses" transform="translate(1081 437)" fill="#fff" font-size="22" font-family="Poppins-Medium, Poppins" font-weight="500"><tspan x="0" y="0">Top Courses</tspan></text>
    <text id="_22" data-name="22" transform="translate(1761 442)" fill="#fff" font-size="32" font-family="Poppins-SemiBold, Poppins" font-weight="600"><tspan x="0" y="0">22</tspan></text>
    <line id="Line_19" data-name="Line 19" x2="764" transform="translate(1066.5 612.5)" fill="none" stroke="#9f9f9f" stroke-width="0.5"/>
    <line id="Line_20" data-name="Line 20" x2="764" transform="translate(1066.5 685.5)" fill="none" stroke="#9f9f9f" stroke-width="0.5"/>
    <line id="Line_21" data-name="Line 21" x2="764" transform="translate(1066.5 758.5)" fill="none" stroke="#9f9f9f" stroke-width="0.5"/>
    <g id="Group_398" data-name="Group 398" transform="translate(-12)">
      <path id="Path_2462" data-name="Path 2462" d="M32.69,0h82.65V18.828a2.69,2.69,0,0,1-2.69,2.69H32.69A2.69,2.69,0,0,1,30,18.828V2.69A2.69,2.69,0,0,1,32.69,0Z" transform="translate(1699 494)" fill="#00ab39"/>
      <text id="New_Course" data-name="New Course" transform="translate(1737 509)" fill="#fff" font-size="12" font-family="Poppins-Regular, Poppins"><tspan x="0" y="0">New Course</tspan></text>
    </g>
    <g id="Group_399" data-name="Group 399">
      <path id="Path_2465" data-name="Path 2465" d="M62.69,0h70.65V18.828a2.69,2.69,0,0,1-2.69,2.69H62.69A2.69,2.69,0,0,1,60,18.828V2.69A2.69,2.69,0,0,1,62.69,0Z" transform="translate(1669 563)" fill="#fd5c6f"/>
      <text id="_20_Offer" data-name="20% Offer" transform="translate(1738 578)" fill="#fff" font-size="12" font-family="Poppins-Regular, Poppins"><tspan x="0" y="0">20% Offer</tspan></text>
    </g>
    <g id="Group_417" data-name="Group 417" transform="translate(10 -49)">
      <text id="AWS_Solution_Architect_Course" data-name="AWS Solution Architect Course" transform="translate(1071 550)" font-size="16" font-family="Poppins-Medium, Poppins" font-weight="500"><tspan x="0" y="0">AWS Solution Architect Course</tspan></text>
      <text id="_2_Months_Training_2" data-name="2 Months Training " transform="translate(1071 574)" fill="#848484" font-size="14" font-family="Poppins-Regular, Poppins"><tspan x="0" y="0">2 Months Training </tspan></text>
    </g>
    <g id="Group_418" data-name="Group 418" transform="translate(10 99)">
      <text id="Microsoft_Azure_Solution_Architect" data-name="Microsoft Azure Solution Architect" transform="translate(1071 617)" font-size="16" font-family="Poppins-Medium, Poppins" font-weight="500"><tspan x="0" y="0">Microsoft Azure Solution Architect</tspan></text>
      <text id="_6_Hours_Classes-2" data-name="6 Hours Classes" transform="translate(1071 641)" fill="#848484" font-size="14" font-family="Poppins-Regular, Poppins"><tspan x="0" y="0">6 Hours Classes</tspan></text>
    </g>
    <g id="Group_419" data-name="Group 419" transform="translate(-12 144)">
      <path id="Path_2462-2" data-name="Path 2462" d="M32.69,0h82.65V18.828a2.69,2.69,0,0,1-2.69,2.69H32.69A2.69,2.69,0,0,1,30,18.828V2.69A2.69,2.69,0,0,1,32.69,0Z" transform="translate(1699 494)" fill="#00ab39"/>
      <text id="New_Course-2" data-name="New Course" transform="translate(1737 509)" fill="#fff" font-size="12" font-family="Poppins-Regular, Poppins"><tspan x="0" y="0">New Course</tspan></text>
    </g>
  </g>
</svg>
